<?xml version="1.0" standalone="no"?>
<!DOCTYPE svg PUBLIC "-//W3C//DTD SVG 1.1//EN" "http://www.w3.org/Graphics/SVG/1.1/DTD/svg11.dtd" >
<svg>
<metadata>
Created by FontForge 20090914 at Fri Jul 22 14:02:38 2016
 By www-data
(URW)++,Copyright 2010 by (URW)++ Design &#38; Development
</metadata>
<defs>
<font id="HiltiSmall-Extended" horiz-adv-x="684" vert-adv-y="2048" >
  <font-face 
    font-family="Hilti Small Extended"
    font-weight="400"
    font-variant="small-caps"
    font-stretch="normal"
    units-per-em="2048"
    panose-1="0 0 0 0 0 0 0 0 0 0"
    ascent="1536"
    descent="-512"
    x-height="1073"
    cap-height="1462"
    bbox="-356 -548 2701 1972"
    underline-thickness="102"
    underline-position="-154"
    unicode-range="U+0020-U+299D"
  />
<missing-glyph vert-adv-y="1433" 
d="M68 0v1462h548v-1462h-548zM548 68v1326h-412v-1326h412z" />
    <glyph glyph-name=".notdef" vert-adv-y="1433" 
d="M68 0v1462h548v-1462h-548zM548 68v1326h-412v-1326h412z" />
    <glyph glyph-name="space" unicode=" " vert-adv-y="1433" 
 />
    <glyph glyph-name="exclam" unicode="!" vert-adv-y="1433" 
d="M215 0v238h254v-238h-254zM282 385l-55 694v383h229v-383l-55 -694h-119z" />
    <glyph glyph-name="quotedbl" unicode="&#x22;" horiz-adv-x="985" vert-adv-y="1433" 
d="M602 911v551h172v-551h-172zM211 911v551h172v-551h-172z" />
    <glyph glyph-name="numbersign" unicode="#" horiz-adv-x="1368" vert-adv-y="1433" 
d="M397 561l41 299h-193v135h211l59 426h146l-60 -426h242l60 426h145l-59 -426h192v-135h-211l-41 -299h193v-135h-211l-60 -426h-145l59 426h-241l-60 -426h-145l59 426h-192v135h211zM784 561l41 299h-242l-41 -299h242z" />
    <glyph glyph-name="dollar" unicode="$" horiz-adv-x="1368" vert-adv-y="1433" 
d="M625 139l-0.00195312 499.999c-161.333 27.333 -277.666 62.333 -348.999 105c-114 68 -171 168 -171 300c0 126 45 224.5 135 295.5s218.333 109.5 385 115.5v182h98v-182c194.667 -8.66699 334.334 -56.334 419.001 -143.001c60.667 -61.333 97.667 -147 111 -257h-204
c-18.667 142.667 -127.334 218.334 -326.001 227.001v-460c190 -34 324 -74.333 402 -121c111.333 -66.667 167 -166.667 167 -300c0 -135.333 -48.5 -240 -145.5 -314s-238.167 -114 -423.5 -120v-182h-98v182c-348 13.333 -531 165 -549 455h205
c14.667 -175.333 129.334 -269.666 344.001 -282.999zM624.998 833.999v448c-210 -16 -315 -89.333 -315 -220c0 -124 105 -200 315 -228zM722.998 620.999v-482c242.667 6.66699 364 85.667 364 237c0 69.333 -27.667 122.5 -83 159.5s-149 65.5 -281 85.5z" />
    <glyph glyph-name="percent" unicode="%" horiz-adv-x="2048" vert-adv-y="1433" 
d="M1562 766c114 0 203 -35.166 267 -105.499s96 -168.5 96 -294.5s-32 -224 -96 -294s-154.333 -105 -271 -105c-116 0 -206 34.833 -270 104.5s-96 168.167 -96 295.5s32.167 225.666 96.5 294.999s155.5 104 273.5 104zM1555 631.001c-127.333 0 -191 -88.333 -191 -265
c0 -176 65 -264 195 -264c129.333 0 194 88 194 264c0 176.667 -66 265 -198 265zM493 1454c114 0 203 -35.166 267 -105.499s96 -168.5 96 -294.5s-32 -224 -96 -294s-154.333 -105 -271 -105c-116 0 -206 34.833 -270 104.5s-96 168.167 -96 295.5
s32.167 225.666 96.5 294.999s155.5 104 273.5 104zM486 1319c-127.333 0 -191 -88.333 -191 -265c0 -175.333 64.667 -263 194 -263c130 0 195 87.667 195 263c0 176.667 -66 265 -198 265zM533 -32.998l813 1487h172l-813 -1487h-172z" />
    <glyph glyph-name="ampersand" unicode="&#x26;" horiz-adv-x="1669" vert-adv-y="1433" 
d="M1430 0l-176.001 165.999c-122 -135.333 -297.667 -203 -527 -203c-210 0 -365.333 55 -466 165c-70 75.333 -105 166 -105 272c0 195.333 127 340.666 381 435.999c-106.667 98.667 -160 198.334 -160 299.001c0 100 34 179.5 102 238.5s159.333 88.5 274 88.5
c109.333 0 199 -29.5 269 -88.5s105 -134.833 105 -227.5c0 -145.333 -94.333 -259 -283 -341l387 -358c37.333 62.667 60 138.334 68 227.001h192c-7.33301 -130 -47.666 -248.667 -120.999 -356l345 -318h-285zM722.999 913.999
c140.667 60.667 211.001 133.666 211.001 218.999c0 44 -17.333 81.167 -52 111.5s-77.334 45.5 -128.001 45.5c-54.667 0 -99 -13.667 -133 -41s-51 -62.666 -51 -105.999c0 -56 46 -127.667 138 -215zM1119 284.998l-465.001 436.001
c-102.667 -46 -175.167 -92.333 -217.5 -139s-63.5 -104.334 -63.5 -173.001c0 -85.333 33 -152.333 99 -201s157 -73 273 -73c166.667 0 291.334 50 374.001 150z" />
    <glyph glyph-name="quotesingle" unicode="'" vert-adv-y="1433" 
d="M256 911v551h172v-551h-172z" />
    <glyph glyph-name="parenleft" unicode="(" horiz-adv-x="834" vert-adv-y="1433" 
d="M772 -389h-153c-144.667 156 -249.167 306.667 -313.5 452s-96.5 303 -96.5 473c0 170.667 32.167 328.834 96.5 474.501s168.833 296.167 313.5 451.5h153c-238.667 -264.667 -358 -573.334 -358 -926.001c0 -352 119.333 -660.333 358 -925z" />
    <glyph glyph-name="parenright" unicode=")" horiz-adv-x="834" vert-adv-y="1433" 
d="M215 -389l-154 0.000976562c238.667 266 358 574.333 358 925c0 351.333 -119.333 660 -358 926h154c144 -155.333 248.167 -305.833 312.5 -451.5s96.5 -303.834 96.5 -474.501c0 -170 -32.167 -327.667 -96.5 -473s-168.5 -296 -312.5 -452z" />
    <glyph glyph-name="asterisk" unicode="*" horiz-adv-x="948" vert-adv-y="1433" 
d="M356 1065l-262 102l57 135l248 -100v260h147v-260l254 100l53 -135l-264 -102l199 -199l-111 -92l-205 211l-200 -211l-104 92z" />
    <glyph glyph-name="plus" unicode="+" horiz-adv-x="1229" vert-adv-y="1433" 
d="M528 604v432h172v-432h432v-172h-432v-432h-172v432h-432v172h432z" />
    <glyph glyph-name="comma" unicode="," vert-adv-y="1433" 
d="M215 0l0.000976562 238h254v-209c0 -190.667 -84.667 -304.667 -254 -342v100c44 15.333 74.667 37.833 92 67.5s27.666 78.167 30.999 145.5h-123z" />
    <glyph glyph-name="hyphen" unicode="-" horiz-adv-x="985" vert-adv-y="1433" 
d="M133 463v213h719v-213h-719z" />
    <glyph glyph-name="period" unicode="." vert-adv-y="1433" 
d="M215 0v238h254v-238h-254z" />
    <glyph glyph-name="slash" unicode="/" horiz-adv-x="831" vert-adv-y="1433" 
d="M0 -37l639 1536h192l-638 -1536h-193z" />
    <glyph glyph-name="zero" unicode="0" horiz-adv-x="1368" vert-adv-y="1433" 
d="M695 1454c218.667 0 376.667 -84 474 -252c71.333 -122 107 -286 107 -492c0 -495.333 -197.333 -743 -592 -743s-592 247 -592 741c0 497.333 201 746 603 746zM678 1282c-119.333 0 -210.667 -49.167 -274 -147.5s-95 -239.5 -95 -423.5c0 -381.333 125 -572 375 -572
s375 190.667 375 572c0 380.667 -127 571 -381 571z" />
    <glyph glyph-name="one" unicode="1" horiz-adv-x="909" vert-adv-y="1433" 
d="M408 0v1034h-428v160h49c262.667 0 404.667 89.333 426 268h170v-1462h-217z" />
    <glyph glyph-name="two" unicode="2" horiz-adv-x="1368" vert-adv-y="1433" 
d="M299 940l-205.002 0.00292969c4 95.333 17.333 171.666 40 228.999s60 109.333 112 156c96.667 86 233.334 129 410.001 129c193.333 0 337 -51.333 431 -154c71.333 -78.667 107 -177.334 107 -296.001c0 -114.667 -33.667 -209.5 -101 -284.5
s-190.333 -154.833 -369 -239.5c-126 -60 -212.5 -107.5 -259.5 -142.5s-91.167 -84.833 -132.5 -149.5h862v-188h-1126c16 127.333 47.333 226 94 296c78 116 227.333 227.333 448 334c137.333 66 232.833 126.667 286.5 182s80.5 120.666 80.5 195.999
c0 86 -27.5 153.167 -82.5 201.5s-131.167 72.5 -228.5 72.5c-229.333 0 -351.666 -114 -366.999 -342z" />
    <glyph glyph-name="three" unicode="3" horiz-adv-x="1368" vert-adv-y="1433" 
d="M524 662l-0.000976562 177.998c18 -1.33301 46.667 -2 86 -2h43c191.333 0 287 70.333 287 211c0 73.333 -27.333 130.5 -82 171.5s-131.334 61.5 -230.001 61.5c-201.333 0 -310.333 -99.667 -327 -299h-205c8 88.667 23.5 158.834 46.5 210.501
s59.167 98.834 108.5 141.501c92.667 79.333 221.334 119 386.001 119c158 0 284.167 -35.5 378.5 -106.5s141.5 -165.833 141.5 -284.5c0 -152.667 -71 -250.334 -213 -293.001v-4c184 -42 276 -157 276 -345c0 -142 -50.667 -253.167 -152 -333.5
s-241.333 -120.5 -420 -120.5c-158 0 -285 27.667 -381 83c-70.667 40.667 -121.5 91 -152.5 151s-49.5 143.333 -55.5 250h205c9.33301 -108.667 42 -186.667 98 -234c60 -52 152 -78 276 -78c114 0 203.333 23.833 268 71.5s97 113.5 97 197.5
c0 80.667 -32.167 143.834 -96.5 189.501s-153.166 68.5 -266.499 68.5c-26 0 -56.333 -1 -91 -3c-12.667 -0.666992 -21 -1 -25 -1z" />
    <glyph glyph-name="four" unicode="4" horiz-adv-x="1368" vert-adv-y="1433" 
d="M811 0v346h-747v188l772 928h180v-944h250v-172h-250v-346h-205zM812 518v657h-4l-539 -657h543z" />
    <glyph glyph-name="five" unicode="5" horiz-adv-x="1368" vert-adv-y="1433" 
d="M135 653l131.001 768h875v-188h-721l-70 -387c106.667 68 223.667 102 351 102c126.667 0 237.334 -26.667 332.001 -80c142.667 -80.667 214 -213 214 -397c0 -149.333 -52 -270 -156 -362c-107.333 -94.667 -254 -142 -440 -142c-162 0 -292.333 36.333 -391 109
s-155.334 174.334 -170.001 305.001h211c24.667 -89.333 63.667 -152 117 -188s133.666 -54 240.999 -54c247.333 0 371 107 371 321c0 123.333 -46.333 211.666 -139 264.999c-59.333 34 -133.333 51 -222 51c-144.667 0 -257 -45 -337 -135z" />
    <glyph glyph-name="six" unicode="6" horiz-adv-x="1368" vert-adv-y="1433" 
d="M1237 1085l-204 0.000976562c-31.333 131.333 -129.333 197 -294 197c-138 0 -239 -39.5 -303 -118.5s-104 -212.833 -120 -401.5h4c83.333 125.333 224 188 422 188c124 0 233 -27 327 -81c145.333 -82.667 218 -215 218 -397c0 -151.333 -52.5 -273.333 -157.5 -366
s-243.167 -139 -414.5 -139c-402.667 0 -604 238.667 -604 716c0 514 209.333 771 628 771c144.667 0 258 -30.333 340 -91s134.667 -153.334 158 -278.001zM706 778.001c-109.333 0 -195.834 -28.667 -259.501 -86s-95.5 -135.333 -95.5 -234s32 -176.5 96 -233.5
s152 -85.5 264 -85.5c110.667 0 198 28.5 262 85.5s96 134.833 96 233.5c0 100 -32.167 178.333 -96.5 235s-153.166 85 -266.499 85z" />
    <glyph glyph-name="seven" unicode="7" horiz-adv-x="1214" vert-adv-y="1433" 
d="M35 1220v201h1104v-180c-172.667 -222 -304.167 -424.167 -394.5 -606.5s-163.833 -393.833 -220.5 -634.5h-227c122 450 335 856.667 639 1220h-901z" />
    <glyph glyph-name="eight" unicode="8" horiz-adv-x="1368" vert-adv-y="1433" 
d="M981 776c194 -41.333 290.999 -159.334 290.999 -354.001c0 -142 -52.167 -253.333 -156.5 -334s-248.166 -121 -431.499 -121c-182 0 -325.5 40.167 -430.5 120.5s-157.5 190.5 -157.5 330.5c0 86 26.667 161.5 80 226.5s125 108.833 215 131.5v4
c-152.667 60.667 -229 159 -229 295c0 120.667 45.5 214 136.5 280s220.167 99 387.5 99c145.333 0 263 -26 353 -78c112.667 -64.667 169 -163 169 -295c0 -139.333 -75.667 -239.666 -227 -300.999v-4zM681.999 1282c-89.333 0 -162.168 -19.832 -218.501 -59.499
s-84.5 -90.834 -84.5 -153.501c0 -64 28.167 -115.5 84.5 -154.5s130.5 -58.5 222.5 -58.5c91.333 0 165 19.5 221 58.5s84 90.167 84 153.5c0 64.667 -28.167 116.5 -84.5 155.5s-131.166 58.5 -224.499 58.5zM679.997 684c-115.333 0 -205.334 -24 -270.001 -72
s-97 -114.667 -97 -200c0 -86.667 32.5 -153.834 97.5 -201.501s156.167 -71.5 273.5 -71.5s208.5 23.833 273.5 71.5s97.5 114.834 97.5 201.501c0 86 -32.667 152.833 -98 200.5s-157.666 71.5 -276.999 71.5z" />
    <glyph glyph-name="nine" unicode="9" horiz-adv-x="1368" vert-adv-y="1433" 
d="M131 336l204.999 -0.00292969c30 -131.333 128 -197 294 -197c138 0 238.833 39.333 302.5 118s103.834 213 120.501 403h-4c-84 -126 -225 -189 -423 -189c-123.333 0 -232.333 27 -327 81c-144.667 82.667 -217 215.334 -217 398.001
c0 150.667 52.5 272.334 157.5 365.001s242.833 139 413.5 139c403.333 0 605 -238.667 605 -716c0 -514 -209.667 -771 -629 -771c-144.667 0 -258 30.333 -340 91s-134.667 153.334 -158 278.001zM653.999 1282c-109.333 0 -195.833 -28.667 -259.5 -86
s-95.5 -135 -95.5 -233c0 -99.333 32 -177.5 96 -234.5s151.667 -85.5 263 -85.5c124.667 0 219 35 283 105c51.333 56 77 127.667 77 215c0 99.333 -32.333 177.333 -97 234s-153.667 85 -267 85z" />
    <glyph glyph-name="colon" unicode=":" vert-adv-y="1433" 
d="M215 817v238h254v-238h-254zM215 0v238h254v-238h-254z" />
    <glyph glyph-name="semicolon" unicode=";" vert-adv-y="1433" 
d="M215 0l0.000976562 238h254v-209c0 -190.667 -84.667 -304.667 -254 -342v100c44 15.333 74.667 37.833 92 67.5s27.666 78.167 30.999 145.5h-123zM215.001 817v238h254v-238h-254z" />
    <glyph glyph-name="less" unicode="&#x3c;" horiz-adv-x="1229" vert-adv-y="1433" 
d="M96 444v148l1036 463v-172l-825 -365l825 -364v-172z" />
    <glyph glyph-name="equal" unicode="=" horiz-adv-x="1229" vert-adv-y="1433" 
d="M96 645v172h1036v-172h-1036zM96 219v172h1036v-172h-1036z" />
    <glyph glyph-name="greater" unicode="&#x3e;" horiz-adv-x="1229" vert-adv-y="1433" 
d="M921 518l-825 365v172l1036 -463v-148l-1036 -462v172z" />
    <glyph glyph-name="question" unicode="?" horiz-adv-x="1368" vert-adv-y="1433" 
d="M324 1008l-205 0.000976562c8.66699 93.333 24.834 166.333 48.501 219s61.5 101 113.5 145c99.333 84.667 231 127 395 127c120 0 224.333 -25.667 313 -77c136.667 -78.667 205 -198.334 205 -359.001c0 -80.667 -18.833 -149.667 -56.5 -207
s-106.834 -122.333 -207.501 -195c-81.333 -58.667 -134.5 -104.667 -159.5 -138s-40.833 -79.333 -47.5 -138h-192c4.66699 91.333 23.5 163.166 56.5 215.499s96.5 111.5 190.5 177.5c76 52.667 128.167 99.334 156.5 140.001s42.5 89 42.5 145
c0 82 -27.333 146.5 -82 193.5s-129.667 70.5 -225 70.5c-212.667 0 -328 -106.333 -346 -319zM500 0.000976562v238h254v-238h-254z" />
    <glyph glyph-name="at" unicode="@" horiz-adv-x="1638" vert-adv-y="1433" 
d="M1088 1007l38.998 121h147l-155 -559l-2 -7c-14 -49.333 -21 -80.666 -21 -93.999c0 -31.333 15 -47 45 -47c74.667 0 141.834 43.667 201.501 131s89.5 185.666 89.5 294.999c0 145.333 -49.333 267 -148 365c-110 109.333 -253.667 164 -431 164
c-180 0 -329.333 -60 -448 -180c-124 -124.667 -186 -281.334 -186 -470.001c0 -182 60.667 -333.333 182 -454c124 -124 278.333 -186 463 -186c187.333 0 348.666 75 483.999 225h149c-155.333 -232 -367.666 -348 -636.999 -348c-224.667 0 -413.334 76.333 -566.001 229
c-148 147.333 -222 327.333 -222 540c0 212 74.667 392 224 540c152 151.333 337.667 227 557 227c190.667 0 354 -55.333 490 -166c149.333 -122 224 -278.667 224 -470c0 -167.333 -59 -309.666 -177 -426.999c-106.667 -106.667 -216.667 -160 -330 -160
c-75.333 0 -116.666 40.333 -123.999 121h-4c-76 -80.667 -156.333 -121 -241 -121c-84 0 -155 32.5 -213 97.5s-87 144.833 -87 239.5c0 144 43.667 270.667 131 380c88.667 112 198.334 168 329.001 168c104 0 183 -51.333 237 -154zM850.998 1014
c-72 0 -137.833 -40.5 -197.5 -121.5s-89.5 -169.833 -89.5 -266.5c0 -58 16 -106.167 48 -144.5s72.333 -57.5 121 -57.5c72.667 0 139.667 40.667 201 122s92 170 92 266c0 57.333 -16.833 105.333 -50.5 144s-75.167 58 -124.5 58z" />
    <glyph glyph-name="A" unicode="A" horiz-adv-x="1554" vert-adv-y="1433" 
d="M1315 0l-186 426h-717l-187 -426h-233l662 1462h247l662 -1462h-248zM1049 614l-281 647l-274 -647h555z" />
    <glyph glyph-name="B" unicode="B" horiz-adv-x="1593" vert-adv-y="1433" 
d="M158 0v1462h813c300.667 0 451 -121.667 451 -365c0 -150.667 -71.333 -254.334 -214 -311.001v-4c184.667 -48.667 277 -167 277 -355c0 -128 -42.5 -231.167 -127.5 -309.5s-196.833 -117.5 -335.5 -117.5h-864zM375 858.001h592c74.667 0 133 18.333 175 55
s63 87.667 63 153c0 138.667 -83.333 208 -250 208h-580v-416zM375 188.001h588c203.333 0 305 82 305 246c0 157.333 -95.667 236 -287 236h-606v-482z" />
    <glyph glyph-name="C" unicode="C" horiz-adv-x="1669" vert-adv-y="1433" 
d="M1577 936l-217.002 -0.00195312c-52 250 -219.333 375 -502 375c-184 0 -325.667 -55.333 -425 -166c-92 -102.667 -138 -244 -138 -424c0 -177.333 49 -316.666 147 -417.999s233 -152 405 -152c140.667 0 252.334 32.833 335.001 98.5s142 168.834 178 309.501h217
c-28 -171.333 -98 -307.666 -210 -408.999c-138 -124.667 -312.333 -187 -523 -187c-246 0 -440.333 77.667 -583 233c-122 133.333 -183 311.333 -183 534c0 234 69.667 421 209 561c138 138.667 323 208 555 208c246 0 437.333 -67.667 574 -203
c49.333 -48.667 85.333 -98.334 108 -149.001s40.334 -121 53.001 -211z" />
    <glyph glyph-name="D" unicode="D" horiz-adv-x="1630" vert-adv-y="1433" 
d="M158 0v1462h741c206 0 364.333 -62.333 475 -187c109.333 -122.667 164 -297.667 164 -525c0 -189.333 -36.667 -347.333 -110 -474c-106.667 -184 -278.667 -276 -516 -276h-754zM375 188h526c280 0 420 183.667 420 551c0 356.667 -153.667 535 -461 535h-485v-1086z
" />
    <glyph glyph-name="E" unicode="E" horiz-adv-x="1442" vert-adv-y="1433" 
d="M158 0v1462h1175v-188h-958v-424h930v-188h-930v-474h979v-188h-1196z" />
    <glyph glyph-name="F" unicode="F" horiz-adv-x="1327" vert-adv-y="1433" 
d="M158 0v1462h1132v-188h-915v-432h872v-188h-872v-654h-217z" />
    <glyph glyph-name="G" unicode="G" horiz-adv-x="1782" vert-adv-y="1433" 
d="M958 600l0.00195312 187.998h672v-788h-156l-37 209c-77.333 -87.333 -159.833 -150.166 -247.5 -188.499s-193.167 -57.5 -316.5 -57.5c-252.667 0 -448 77.667 -586 233c-122 136.667 -183 310.667 -183 522c0 252 79 449.333 237 592c140 126 321 189 543 189
c222.667 0 399 -55 529 -165c49.333 -42 87.666 -86.667 114.999 -134s53 -113.666 77 -198.999h-229c-40.667 108.667 -99.5 187.334 -176.5 236.001s-180.833 73 -311.5 73c-184 0 -326 -56.667 -426 -170c-94 -106 -141 -246 -141 -420
c0 -188.667 55.667 -333.334 167 -434.001c100 -90 233.333 -135 400 -135c156 0 281.667 39 377 117s152.666 188.667 171.999 332h-479z" />
    <glyph glyph-name="H" unicode="H" horiz-adv-x="1745" vert-adv-y="1433" 
d="M1371 0v689h-996v-689h-217v1462h217v-585h996v585h217v-1462h-217z" />
    <glyph glyph-name="I" unicode="I" horiz-adv-x="569" vert-adv-y="1433" 
d="M176 0v1462h217v-1462h-217z" />
    <glyph glyph-name="J" unicode="J" horiz-adv-x="1176" vert-adv-y="1433" 
d="M47 498h205v-70c0 -195.333 95.667 -293 287 -293c181.333 0 272 97 272 291v1036h217v-991c0 -338.667 -162.333 -508 -487 -508c-237.333 0 -389 83.667 -455 251c-25.333 65.333 -38.333 160 -39 284z" />
    <glyph glyph-name="K" unicode="K" horiz-adv-x="1554" vert-adv-y="1433" 
d="M1247 0l-598 713l-266 -236v-477h-217v1462h217v-735l817 735h307l-694 -606l733 -856h-299z" />
    <glyph glyph-name="L" unicode="L" horiz-adv-x="1290" vert-adv-y="1433" 
d="M166 0v1462h217v-1274h889v-188h-1106z" />
    <glyph glyph-name="M" unicode="M" horiz-adv-x="2087" vert-adv-y="1433" 
d="M1043 250l586 1212h301v-1462h-217v1212h-4l-570 -1212h-192l-568 1188h-4v-1188h-217v1462h305z" />
    <glyph glyph-name="N" unicode="N" horiz-adv-x="1745" vert-adv-y="1433" 
d="M1327 0l-940 1163h-4v-1163h-217v1462h252l940 -1163h4v1163h217v-1462h-252z" />
    <glyph glyph-name="O" unicode="O" horiz-adv-x="1782" vert-adv-y="1433" 
d="M900 1499c265.333 0 470.667 -80.999 616 -242.999c125.333 -138.667 188 -313.667 188 -525c0 -240.667 -79 -432.334 -237 -575.001c-142.667 -128.667 -334.667 -193 -576 -193c-271.333 0 -480 81 -626 243c-124.667 138.667 -187 313.667 -187 525
c0 241.333 79 433 237 575c142 128.667 337 193 585 193zM885.001 1311c-180 0 -323.334 -52.333 -430.001 -157s-160 -245.667 -160 -423c0 -188 59 -334 177 -438c106.667 -94.667 246.334 -142 419.001 -142c183.333 0 328.5 52.167 435.5 156.5s160.5 245.5 160.5 423.5
c0 188 -58.667 334 -176 438c-106.667 94.667 -248.667 142 -426 142z" />
    <glyph glyph-name="P" unicode="P" horiz-adv-x="1479" vert-adv-y="1433" 
d="M166 0v1462h754c326 0 489 -140 489 -420c0 -142 -42.167 -253.5 -126.5 -334.5s-200.5 -121.5 -348.5 -121.5h-551v-586h-217zM383 774h522c191.333 0 287 87.333 287 262c0 75.333 -21.667 133.833 -65 175.5s-104.333 62.5 -183 62.5h-561v-500z" />
    <glyph glyph-name="Q" unicode="Q" horiz-adv-x="1782" vert-adv-y="1433" 
d="M1526 -158l-236.001 200.999c-118.667 -53.333 -251.667 -80 -399 -80c-271.333 0 -479.666 81 -624.999 243c-125.333 138.667 -188 313.667 -188 525c0 240.667 79 432.334 237 575.001c142.667 128.667 334.667 193 576 193c270.667 0 479 -81 625 -243
c125.333 -138.667 188 -313.667 188 -525c0 -240.667 -84.667 -436.667 -254 -588l191 -159zM1120 185.999l-146.999 124.999l113 138l204 -173c131.333 112.667 197 264.334 197 455.001c0 188 -59 334 -177 438c-106.667 94.667 -246.334 142 -419.001 142
c-183.333 0 -328.5 -52 -435.5 -156s-160.5 -245.333 -160.5 -424c0 -188 59 -334 177 -438c106.667 -94.667 247.667 -142 423 -142c80 0 155 11.667 225 35z" />
    <glyph glyph-name="R" unicode="R" horiz-adv-x="1554" vert-adv-y="1433" 
d="M166 0v1462h905c122.667 0 219.834 -35.167 291.501 -105.5s107.5 -165.5 107.5 -285.5c0 -180 -81.667 -299.333 -245 -358v-4c143.333 -26.667 215.666 -160.334 216.999 -401.001c8 -166 29.667 -268.667 65 -308h-229c-22 28 -36 101.333 -42 220
c-8 154.667 -32.167 260.167 -72.5 316.5s-111.5 84.5 -213.5 84.5h-567v-621h-217zM383 809.001h606c176 0 264 77.333 264 232c0 74 -22.5 131.333 -67.5 172s-108.5 61 -190.5 61h-612v-465z" />
    <glyph glyph-name="S" unicode="S" horiz-adv-x="1366" vert-adv-y="1433" 
d="M33 481l217.003 -0.000976562c7.33301 -99.333 40.666 -174.666 99.999 -225.999c80.667 -69.333 203 -104 367 -104c124.667 0 222.5 22.167 293.5 66.5s106.5 105.5 106.5 183.5c0 113.333 -91 185 -273 215l-332 55c-289.333 48.667 -434 177 -434 385
c0 137.333 52.333 245.5 157 324.5s248 118.5 430 118.5c222.667 0 389 -55.333 499 -166c38.667 -38.667 66.667 -78.834 84 -120.501s30 -99.167 38 -172.5h-217c-34 180.667 -173.667 271 -419 271c-108.667 0 -195 -21.5 -259 -64.5s-96 -100.833 -96 -173.5
c0 -102.667 80 -167.667 240 -195l358 -61c294 -50.667 441 -179 441 -385c0 -169.333 -71.667 -294.666 -215 -375.999c-109.333 -62 -249 -93 -419 -93c-252 0 -435 62 -549 186c-40.667 44 -69.334 89.5 -86.001 136.5s-27.334 112.167 -32.001 195.5z" />
    <glyph glyph-name="T" unicode="T" horiz-adv-x="1327" vert-adv-y="1433" 
d="M555 0v1274h-553v188h1323v-188h-553v-1274h-217z" />
    <glyph glyph-name="U" unicode="U" horiz-adv-x="1630" vert-adv-y="1433" 
d="M1477 1462v-909c0 -393.333 -220.667 -590 -662 -590c-440.667 0 -661 196.667 -661 590v909h217v-936c0 -250 148.333 -375 445 -375c296 0 444 125 444 375v936h217z" />
    <glyph glyph-name="V" unicode="V" horiz-adv-x="1479" vert-adv-y="1433" 
d="M749 225l518 1237h234l-641 -1462h-232l-651 1462h246z" />
    <glyph glyph-name="W" unicode="W" horiz-adv-x="2238" vert-adv-y="1433" 
d="M1520 0l-406 1212h-4l-403 -1212h-240l-481 1462h236l374 -1188h4l392 1188h258l401 -1188h4l373 1188h225l-495 -1462h-238z" />
    <glyph glyph-name="X" unicode="X" horiz-adv-x="1442" vert-adv-y="1433" 
d="M725 899l430 563h268l-563 -713l580 -749h-285l-442 592l-441 -592h-270l578 749l-549 713h276z" />
    <glyph glyph-name="Y" unicode="Y" horiz-adv-x="1479" vert-adv-y="1433" 
d="M742 797l485 665h264l-645 -850v-612h-217v602l-641 860h276z" />
    <glyph glyph-name="Z" unicode="Z" horiz-adv-x="1403" vert-adv-y="1433" 
d="M29 0v194l1044 1080h-970v188h1255v-188l-1048 -1086h1065v-188h-1346z" />
    <glyph glyph-name="bracketleft" unicode="[" horiz-adv-x="834" vert-adv-y="1433" 
d="M240 -389v1851h470v-160h-277v-1531h277v-160h-470z" />
    <glyph glyph-name="backslash" unicode="\" horiz-adv-x="831" vert-adv-y="1433" 
d="M639 -37l-639 1536h193l638 -1536h-192z" />
    <glyph glyph-name="bracketright" unicode="]" horiz-adv-x="834" vert-adv-y="1433" 
d="M401 -229v1531h-276v160h469v-1851h-469v160h276z" />
    <glyph glyph-name="asciicircum" unicode="^" horiz-adv-x="1229" vert-adv-y="1433" 
d="M940 573l-325 676l-326 -676h-172l418 848h155l422 -848h-172z" />
    <glyph glyph-name="underscore" unicode="_" horiz-adv-x="1024" vert-adv-y="1433" 
d="M0 -256v102h1024v-102h-1024z" />
    <glyph glyph-name="grave" unicode="`" horiz-adv-x="1024" vert-adv-y="1433" 
d="M471 1231l-268 287h256l176 -287h-164z" />
    <glyph glyph-name="a" unicode="a" horiz-adv-x="1327" vert-adv-y="1433" 
d="M315 737l-192.002 0.00195312c16.667 122.667 60.334 212.334 131.001 269.001c86 69.333 218.333 104 397 104c332 0 498 -101.667 498 -305v-578c0 -61.333 31.333 -92 94 -92c20.667 0 44 2.66699 70 8v-143c-52 -8 -104.667 -12 -158 -12
c-61.333 0 -105.666 11 -132.999 33s-45.333 60.667 -54 116c-98 -116 -253 -174 -465 -174c-135.333 0 -240.5 28.5 -315.5 85.5s-112.5 136.833 -112.5 239.5c0 101.333 35.667 177.666 107 228.999s189.333 85.666 354 102.999l234 25c70 7.33301 118.5 20.333 145.5 39
s40.5 49 40.5 91c0 116.667 -102.333 175 -307 175c-110 0 -191.333 -16.833 -244 -50.5s-82.667 -87.834 -90 -162.501zM955.998 561.002c-28.667 -29.333 -95.668 -50.333 -201.001 -63l-231 -29c-162.667 -20 -244 -77 -244 -171c0 -54 22.833 -96.667 68.5 -128
s107.834 -47 186.501 -47c118.667 0 218.5 29 299.5 87s121.5 129.333 121.5 214v137z" />
    <glyph glyph-name="b" unicode="b" horiz-adv-x="1403" vert-adv-y="1433" 
d="M125 0l-0.00195312 1475h205v-564h4c88.667 124.667 225 187 409 187c172.667 0 312.834 -52.5 420.501 -157.5s161.5 -241.833 161.5 -410.5c0 -164.667 -51 -298.667 -153 -402c-108.667 -110 -250.667 -165 -426 -165c-183.333 0 -320.666 58 -411.999 174h-4v-137
h-205zM710.998 926c-119.333 0 -214.666 -35.833 -285.999 -107.5s-107 -167.167 -107 -286.5c0 -121.333 35.667 -217.833 107 -289.5s167.666 -107.5 288.999 -107.5s217.333 35.667 288 107s106 168 106 290c0 121.333 -35.667 217.333 -107 288s-168 106 -290 106z" />
    <glyph glyph-name="c" unicode="c" horiz-adv-x="1290" vert-adv-y="1433" 
d="M1004 393l216.999 -0.00195312c-48.667 -160 -119 -272.667 -211 -338c-87.333 -61.333 -202.666 -92 -345.999 -92c-194.667 0 -344 57.667 -448 173c-92 102 -138 234 -138 396c0 176 52.833 316.333 158.5 421s247.5 157 425.5 157
c312.667 0 497.667 -131.667 555 -395h-217c-34 148.667 -142.333 223 -325 223c-120.667 0 -214.167 -35.167 -280.5 -105.5s-99.5 -169.166 -99.5 -296.499s33.167 -226 99.5 -296s159.833 -105 280.5 -105c92 0 163.167 19.833 213.5 59.5s88.833 105.834 115.5 198.501z
" />
    <glyph glyph-name="d" unicode="d" horiz-adv-x="1403" vert-adv-y="1433" 
d="M1073 0l-0.00195312 137.001h-4c-92 -116 -229.333 -174 -412 -174c-171.333 0 -310.666 52.5 -417.999 157.5s-161 241.5 -161 409.5c0 165.333 51 299.666 153 402.999c108.667 110 251.334 165 428.001 165c182 0 318.667 -58 410 -174h4v551h205v-1475h-205z
M683.998 926.001c-118 0 -212.334 -35.833 -283.001 -107.5s-106 -167.167 -106 -286.5c0 -122 35.333 -218.667 106 -290s166.667 -107 288 -107c120.667 0 216.834 35.833 288.501 107.5s107.5 168.167 107.5 289.5c0 120.667 -36 216.5 -108 287.5
s-169.667 106.5 -293 106.5z" />
    <glyph glyph-name="e" unicode="e" horiz-adv-x="1366" vert-adv-y="1433" 
d="M1282 475l-987.001 0.000976562c12.667 -97.333 49 -174.333 109 -231c78 -72.667 174.667 -109 290 -109c161.333 0 275.333 63.667 342 191h218c-109.333 -242 -297.666 -363 -564.999 -363c-190.667 0 -342 56 -454 168c-104.667 105.333 -157 240.666 -157 405.999
s52.333 300.333 157 405c112.667 112 265 168 457 168c182.667 0 326.667 -54.333 432 -163s158 -257 158 -445v-27zM300.999 635.001h764c-42 202 -166.667 303 -374 303c-102.667 0 -188.167 -26.5 -256.5 -79.5s-112.833 -127.5 -133.5 -223.5z" />
    <glyph glyph-name="f" unicode="f" horiz-adv-x="682" vert-adv-y="1433" 
d="M188 1073v160c0 177.333 108.667 266 326 266c32 0 84 -4.33301 156 -13c8 -1.33301 16.667 -2.33301 26 -3v-160l-14 1l-22 1c-36 1.33301 -64.333 2 -85 2c-69.333 0 -117 -7.5 -143 -22.5s-39 -42.167 -39 -81.5v-150h303v-160h-303v-913h-205v913h-219v160h219z" />
    <glyph glyph-name="g" unicode="g" horiz-adv-x="1403" vert-adv-y="1433" 
d="M1085 915l0.000976562 157.999h205v-983c0 -188.667 -47.667 -325.667 -143 -411c-96.667 -86.667 -257.667 -130 -483 -130c-172.667 0 -299.667 25.167 -381 75.5s-134 136.5 -158 258.5h204c20 -63.333 56 -108.166 108 -134.499s130.333 -39.5 235 -39.5
c275.333 0 413 108 413 324v155h-4c-99.333 -132 -237.333 -198 -414 -198c-128.667 0 -241.334 27.667 -338.001 83c-168 96 -252 252.667 -252 470c0 218 84 375.333 252 472c96 55.333 207.333 83 334 83c190 0 329.333 -61 418 -183h4zM685.001 925.999
c-117.333 0 -211.833 -35.333 -283.5 -106s-107.5 -163.667 -107.5 -279s35.833 -207.333 107.5 -276s167.5 -103 287.5 -103s216 34.5 288 103.5s108 160.833 108 275.5c0 116.667 -36.333 210 -109 280s-169.667 105 -291 105z" />
    <glyph glyph-name="h" unicode="h" horiz-adv-x="1329" vert-adv-y="1433" 
d="M125 0l0.000976562 1475h205v-564h4c93.333 132.667 234.666 199 423.999 199c112.667 0 206.667 -21.667 282 -65c109.333 -64 164 -168.667 164 -314v-731h-205v690c0 165.333 -102.667 248 -308 248c-109.333 0 -196.833 -29 -262.5 -87s-98.5 -135.667 -98.5 -233
v-618h-205z" />
    <glyph glyph-name="i" unicode="i" horiz-adv-x="455" vert-adv-y="1433" 
d="M125 0v1073h205v-1073h-205zM125 1250v225h205v-225h-205z" />
    <glyph glyph-name="j" unicode="j" horiz-adv-x="455" vert-adv-y="1433" 
d="M-106 -410v171.999c18 -2.66699 41.333 -4 70 -4c107.333 0 161 43 161 129v1186h205v-1139c0 -127.333 -25.167 -217.166 -75.5 -269.499s-136.5 -78.5 -258.5 -78.5c-16 0 -50 1.33301 -102 4zM125 1250v225h205v-225h-205z" />
    <glyph glyph-name="k" unicode="k" horiz-adv-x="1214" vert-adv-y="1433" 
d="M346 614l545 459h311l-504 -403l543 -670h-279l-428 536l-188 -149v-387h-205v1475h205v-861z" />
    <glyph glyph-name="l" unicode="l" horiz-adv-x="455" vert-adv-y="1433" 
d="M125 0v1475h205v-1475h-205z" />
    <glyph glyph-name="m" unicode="m" horiz-adv-x="2085" vert-adv-y="1433" 
d="M1755 0v682c0 170.667 -87.333 256 -262 256c-106 0 -190.5 -26.167 -253.5 -78.5s-94.5 -122.5 -94.5 -210.5v-649h-205v682c0 170.667 -86.333 256 -259 256c-104 0 -188.5 -29.5 -253.5 -88.5s-97.5 -136.167 -97.5 -231.5v-618h-205v1073h205v-162h4
c93.333 132.667 231.333 199 414 199c158.667 0 282 -66.333 370 -199c112 132.667 252.333 199 421 199c128 0 230.167 -34.333 306.5 -103s114.5 -160.667 114.5 -276v-731h-205z" />
    <glyph glyph-name="n" unicode="n" horiz-adv-x="1329" vert-adv-y="1433" 
d="M125 0l0.000976562 1073h205v-162h4c93.333 132.667 234.666 199 423.999 199c112.667 0 206.667 -21.667 282 -65c109.333 -64 164 -168.667 164 -314v-731h-205v690c0 165.333 -102.667 248 -308 248c-110 0 -197.667 -29 -263 -87s-98 -135.667 -98 -233v-618h-205z
" />
    <glyph glyph-name="o" unicode="o" horiz-adv-x="1401" vert-adv-y="1433" 
d="M707 1110c193.333 0 346.333 -56 459 -168c104.667 -104.667 157 -240 157 -406c0 -174 -56.5 -313 -169.5 -417s-264.167 -156 -453.5 -156c-188.667 0 -339.5 52 -452.5 156s-169.5 242.667 -169.5 416c0 176 56.667 315.833 170 419.5s266.333 155.5 459 155.5z
M696 938c-122 0 -219.333 -36.3311 -292 -108.998s-109 -170.334 -109 -293.001c0 -123.333 36.5 -221 109.5 -293s171.5 -108 295.5 -108c125.333 0 224.333 36.167 297 108.5s109 170.166 109 293.499c0 124 -36.667 221.833 -110 293.5s-173.333 107.5 -300 107.5z" />
    <glyph glyph-name="p" unicode="p" horiz-adv-x="1403" vert-adv-y="1433" 
d="M125 -414l0.00195312 1487h205v-149h4c92 116 229.333 174 412 174c171.333 0 310.666 -52.667 417.999 -158s161 -242 161 -410c0 -164 -51 -298 -153 -402c-108.667 -110 -251.334 -165 -428.001 -165c-183.333 0 -320 58 -410 174h-4v-551h-205zM710.002 926
c-118.667 0 -213.667 -36.167 -285 -108.5s-107 -168.5 -107 -288.5c0 -120.667 35.833 -216.5 107.5 -287.5s168.167 -106.5 289.5 -106.5c120 0 215.5 35.5 286.5 106.5s106.5 166.833 106.5 287.5c0 122.667 -35.667 219.5 -107 290.5s-168.333 106.5 -291 106.5z" />
    <glyph glyph-name="q" unicode="q" horiz-adv-x="1403" vert-adv-y="1433" 
d="M1073 924v149.001h205v-1487h-205v564h-4c-88 -124.667 -224.667 -187 -410 -187c-172.667 0 -312.667 52.5 -420 157.5s-161 241.5 -161 409.5c0 165.333 51 299.666 153 402.999c108.667 110 250.667 165 426 165c182.667 0 320 -58 412 -174h4zM684 926.001
c-118 0 -212.334 -36 -283.001 -108s-106 -168 -106 -288c0 -121.333 35.333 -217.5 106 -288.5s166.334 -106.5 287.001 -106.5c121.333 0 217.833 35.667 289.5 107s107.5 167 107.5 287c0 122 -36 218.667 -108 290s-169.667 107 -293 107z" />
    <glyph glyph-name="r" unicode="r" horiz-adv-x="834" vert-adv-y="1433" 
d="M125 0l-0.000976562 1073h205v-197h4c94.667 156 218.334 234 371.001 234c42.667 0 80.667 -4 114 -12v-222c-58 14 -106.333 21 -145 21c-108 0 -192.333 -31.167 -253 -93.5s-91 -148.5 -91 -258.5v-545h-205z" />
    <glyph glyph-name="s" unicode="s" horiz-adv-x="1214" vert-adv-y="1433" 
d="M63 338l205.002 -0.000976562c8 -143.333 122.667 -215 344 -215c214 0 321 57.333 321 172c0 74.667 -67.333 121 -202 139l-338 45c-88.667 12 -159.334 44.167 -212.001 96.5s-79 116.5 -79 192.5c0 106 44 189.5 132 250.5s208.333 91.5 361 91.5
c314 0 487.667 -120 521 -360h-205c-16 133.333 -122.667 200 -320 200c-189.333 0 -284 -55.667 -284 -167c0 -70 59.333 -113 178 -129l291 -39c249.333 -34 374 -131 374 -291c0 -115.333 -46.833 -204.333 -140.5 -267s-226.834 -94 -399.501 -94
c-174 0 -304.5 29.833 -391.5 89.5s-138.833 154.834 -155.5 285.501z" />
    <glyph glyph-name="t" unicode="t" horiz-adv-x="758" vert-adv-y="1433" 
d="M215 1073v330h205v-330h307v-160h-307v-661c0 -78 55 -117 165 -117c40.667 0 88 5 142 15v-173c-59.333 -9.33301 -131.333 -14 -216 -14c-197.333 0 -296 84.667 -296 254v696h-221v160h221z" />
    <glyph glyph-name="u" unicode="u" horiz-adv-x="1329" vert-adv-y="1433" 
d="M1204 1073l-0.00195312 -1073h-205v162h-4c-93.333 -132.667 -234.666 -199 -423.999 -199c-112.667 0 -206.667 21.667 -282 65c-109.333 63.333 -164 168 -164 314v731h205v-690c0 -165.333 103 -248 309 -248c108.667 0 195.834 29 261.501 87s98.5 135.667 98.5 233
v618h205z" />
    <glyph glyph-name="v" unicode="v" horiz-adv-x="1176" vert-adv-y="1433" 
d="M594 225l363 848h229l-483 -1073h-226l-487 1073h236z" />
    <glyph glyph-name="w" unicode="w" horiz-adv-x="1858" vert-adv-y="1433" 
d="M1314 254l308 819h217l-424 -1073h-223l-269 819h-4l-268 -819h-217l-416 1073h227l297 -819h4l267 819h225l272 -819h4z" />
    <glyph glyph-name="x" unicode="x" horiz-adv-x="1214" vert-adv-y="1433" 
d="M608 704l312 369h272l-450 -518l483 -555h-287l-338 408l-340 -408h-270l477 555l-442 518h278z" />
    <glyph glyph-name="y" unicode="y" horiz-adv-x="1176" vert-adv-y="1433" 
d="M594 225l362.001 848h229l-561 -1257c-46.667 -106 -95 -177 -145 -213s-124.667 -54 -224 -54c-24.667 0 -77.667 2.66699 -159 8v173c11.333 -0.666992 24.666 -2 39.999 -4c30 -3.33301 57.333 -5 82 -5c60 0 103.333 10 130 30s56.667 64.667 90 134l47 98l-495 1090
h235z" />
    <glyph glyph-name="z" unicode="z" horiz-adv-x="1214" vert-adv-y="1433" 
d="M55 0v168l790 733h-751v172h1034v-160l-801 -741h832v-172h-1104z" />
    <glyph glyph-name="braceleft" unicode="{" horiz-adv-x="682" vert-adv-y="1433" 
d="M96 469v134.999c50.667 6 91.667 31.333 123 76s47 100 47 166v348c0 74.667 21.333 138 64 190s95 78 157 78h148v-123h-99c-65.333 0 -98 -58.667 -98 -176v-350c0 -68 -16.333 -126.5 -49 -175.5s-77 -82.167 -133 -99.5v-4
c121.333 -37.333 182 -128.666 182 -273.999v-350c0 -117.333 32.667 -176 98 -176h99v-123h-148c-62 0 -114.333 26 -157 78s-64 115.333 -64 190v348c0 66 -15.667 121.333 -47 166s-72.333 70 -123 76z" />
    <glyph glyph-name="bar" unicode="|" horiz-adv-x="455" vert-adv-y="1433" 
d="M141 -37v1536h172v-1536h-172z" />
    <glyph glyph-name="braceright" unicode="}" horiz-adv-x="682" vert-adv-y="1433" 
d="M47 -389v123h98c66 0 99 58.667 99 176v350c0 146 60.667 237.333 182 274v4c-56 17.333 -100.333 50.5 -133 99.5s-49 107.5 -49 175.5v350c0 117.333 -33 176 -99 176h-98v123h148c62 0 114.333 -26 157 -78s64 -115.333 64 -190v-348c0 -66 15.667 -121.333 47 -166
s72.333 -70 123 -76v-135c-50.667 -6 -91.667 -31.333 -123 -76s-47 -100 -47 -166v-348c0 -74.667 -21.333 -138 -64 -190s-95 -78 -157 -78h-148z" />
    <glyph glyph-name="asciitilde" unicode="~" horiz-adv-x="1229" vert-adv-y="1433" 
d="M215 360l-74.001 129c65.333 118 149.666 177 252.999 177c56.667 0 140.667 -26.667 252 -80c94.667 -45.333 157.334 -68 188.001 -68c57.333 0 117 52.667 179 158l74 -129c-65.333 -117.333 -149.666 -176 -252.999 -176c-53.333 0 -133.333 24.667 -240 74l-24 11
c-84 42 -142.667 63 -176 63c-58 0 -117.667 -53 -179 -159z" />
    <glyph glyph-name="nbspace" unicode="&#xa0;" vert-adv-y="1433" 
 />
    <glyph glyph-name="exclamdown" unicode="&#xa1;" vert-adv-y="1433" 
d="M215 835v238h254v-238h-254zM227 -389v383l55 694h119l55 -694v-383h-229z" />
    <glyph glyph-name="cent" unicode="&#xa2;" horiz-adv-x="1368" vert-adv-y="1433" 
d="M637 -224l-0.00390625 191c-100 10.667 -176 28.334 -228 53.001c-116.667 54.667 -199.667 141.667 -249 261c-31.333 76 -47 159.667 -47 251c0 168.667 49.333 305.667 148 411c46.667 50 98.334 87.5 155.001 112.5s130.334 42.833 221.001 53.5v188h111v-188
c88.667 -8 158.334 -21.667 209.001 -41c166.667 -66.667 265 -184.334 295 -353.001h-217c-25.333 137.333 -121 211 -287 221v-797c82.667 8 145.834 31 189.501 69s77.5 99.667 101.5 185h217c-30.667 -104 -67 -183.667 -109 -239c-88 -114.667 -221 -177 -399 -187
v-191h-111zM636.996 139l-0.000976562 797c-56.667 -10 -101.5 -23.833 -134.5 -41.5s-63.167 -44.167 -90.5 -79.5c-54.667 -70 -82 -163 -82 -279c0 -128 33.667 -227.667 101 -299c26.667 -28 54.834 -49 84.501 -63s70.167 -25.667 121.5 -35z" />
    <glyph glyph-name="sterling" unicode="&#xa3;" horiz-adv-x="1368" vert-adv-y="1433" 
d="M86 637l0.000976562 123.001h129c-44 69.333 -66 149.666 -66 240.999c0 134.667 53.167 243.834 159.5 327.501s244.5 125.5 414.5 125.5c358 0 544.333 -157.667 559 -473h-217c-18.667 200.667 -136.667 301 -354 301c-104.667 0 -188.334 -27.833 -251.001 -83.5
s-94 -129.834 -94 -222.501c0 -76 22 -148 66 -216h432v-123h-385c24.667 -54.667 37 -105.667 37 -153c0 -120.667 -58 -219.334 -174 -296.001l4 -4c66.667 24.667 130.667 37 192 37c53.333 0 136.666 -13.333 249.999 -40c76.667 -17.333 128.334 -26 155.001 -26
c84 0 177.667 35 281 105l58 -180c-106 -75.333 -215.667 -113 -329 -113c-43.333 0 -113.666 12.667 -210.999 38c-114.667 29.333 -206.334 44 -275.001 44c-124 0 -219.667 -27.333 -287 -82l-94 170c150 90.667 225 198.334 225 323.001
c0 55.333 -16.333 114.333 -49 177h-176z" />
    <glyph glyph-name="currency" unicode="&#xa4;" horiz-adv-x="1368" vert-adv-y="1433" 
d="M168 291l112.998 112c-70 95.333 -105 198 -105 308c0 112.667 35 215 105 307l-113 112l98 99l113 -113c94.667 68.667 196.334 103 305.001 103s210.334 -34.333 305.001 -103l113 113l98 -99l-112 -114c69.333 -94 104 -195.667 104 -305
c0 -110 -34.667 -211.667 -104 -305l112 -115l-98 -98l-115 114c-90 -69.333 -190.667 -104 -302 -104s-213.333 34.667 -306 104l-113 -114zM680.998 1059c-89.333 0 -166.333 -32.666 -231 -97.999c-68 -68.667 -102 -152.334 -102 -251.001c0 -98 34 -181.333 102 -250
c64.667 -65.333 142.667 -98 234 -98s169.333 32.667 234 98c68 68.667 102 152 102 250s-34 181.667 -102 251c-64 65.333 -143 98 -237 98z" />
    <glyph glyph-name="yen" unicode="&#xa5;" horiz-adv-x="1368" vert-adv-y="1433" 
d="M688 756l398 665h264l-459 -702h291v-123h-371l-18 -29v-149h389v-123h-389v-295h-217v295h-389v123h389v149l-19 29h-370v123h291l-455 702h276z" />
    <glyph glyph-name="brokenbar" unicode="&#xa6;" horiz-adv-x="455" vert-adv-y="1433" 
d="M141 -37v574h172v-574h-172zM141 926v573h172v-573h-172z" />
    <glyph glyph-name="section" unicode="&#xa7;" horiz-adv-x="1368" vert-adv-y="1433" 
d="M178 10h204.999c6 -42.667 15 -76 27 -100s30.333 -46 55 -66c50.667 -40.667 126.334 -61 227.001 -61c82.667 0 147.667 13.333 195 40c51.333 29.333 77 73 77 131c0 38.667 -14.167 72.167 -42.5 100.5s-75.5 55.833 -141.5 82.5l-360 145
c-122 49.333 -207.833 101 -257.5 155s-74.5 122.333 -74.5 205c0 140.667 72.333 238 217 292c-66.667 51.333 -100 122.666 -100 213.999c0 122.667 55 215.667 165 279c84.667 48 186 72 304 72c168.667 0 296.334 -46.333 383.001 -139
c30.667 -33.333 52.5 -67 65.5 -101s21.167 -80.333 24.5 -139h-205c-6.66699 66.667 -29.334 116.334 -68.001 149.001c-46.667 38.667 -117 58 -211 58c-168.667 0 -253 -54.333 -253 -163c0 -65.333 40 -114 120 -146l482 -195c178.667 -72 268 -179.667 268 -323
c0 -68 -17.5 -126.5 -52.5 -175.5s-89.167 -91.167 -162.5 -126.5c69.333 -51.333 104 -125 104 -221c0 -116.667 -47.333 -208.667 -142 -276c-85.333 -60 -197.333 -90 -336 -90c-188.667 0 -327.667 48.667 -417 146c-32.667 35.333 -56.167 72 -70.5 110
s-22.833 85.667 -25.5 143zM415.999 852c-90 -36 -135 -96.667 -135 -182c0 -46 18.833 -85.5 56.5 -118.5s106.167 -69.5 205.5 -109.5l403 -164c94 32 141 91 141 177c0 44 -15.333 82 -46 114s-80.667 62 -150 90z" />
    <glyph glyph-name="dieresis" unicode="&#xa8;" horiz-adv-x="1024" vert-adv-y="1433" 
d="M164 1249v213h205v-213h-205zM655 1249v213h205v-213h-205z" />
    <glyph glyph-name="copyright" unicode="&#xa9;" horiz-adv-x="1638" vert-adv-y="1433" 
d="M1046 598h171.999c-16 -75.333 -40.667 -135.333 -74 -180c-72 -97.333 -171.667 -146 -299 -146c-118 0 -216.667 39.333 -296 118c-88.667 88.667 -133 204.334 -133 347.001c0 144 43.333 259.333 130 346c77.333 76.667 175.333 115 294 115
c101.333 0 185.666 -29 252.999 -87c33.333 -28.667 59 -60.334 77 -95.001s32 -79.667 42 -135h-166c-13.333 50 -38.166 88.667 -74.499 116s-81.166 41 -134.499 41c-92.667 0 -161 -38.667 -205 -116c-29.333 -52 -44 -113.333 -44 -184c0 -88 22.667 -160.333 68 -217
c48 -59.333 111.667 -89 191 -89c54.667 0 99 14.167 133 42.5s56 69.5 66 123.5zM825.999 1499c134.667 0 262.335 -34.3301 383.002 -102.997c117.333 -67.333 209.666 -159 276.999 -275c67.333 -117.333 101 -247.333 101 -390c0 -218 -74 -400.333 -222 -547
c-76 -74.667 -164.667 -131.334 -266 -170.001c-90 -34 -183.333 -51 -280 -51c-140 0 -270 34.333 -390 103c-118 67.333 -210.333 159 -277 275c-67.333 117.333 -101 247 -101 389c0 217.333 74 399.666 222 546.999c71.333 71.333 154.666 126.166 249.999 164.499
s196.333 57.5 303 57.5zM813 1339c-77.333 0 -152.167 -14.9971 -224.5 -44.9971s-135.833 -72 -190.5 -126c-116.667 -116.667 -175 -262.334 -175 -437.001s58.333 -320.334 175 -437.001c114 -114 254 -171 420 -171c165.333 0 305.333 57 420 171
c118 117.333 177 262.666 177 435.999c0 174 -59 320 -177 438c-113.333 114 -255 171 -425 171z" />
    <glyph glyph-name="ordfeminine" unicode="&#xaa;" horiz-adv-x="862" vert-adv-y="1433" 
d="M204 1227h-135.001c10 73.333 36.333 127 79 161c54.667 44 144 66 268 66c220 0 330 -59.333 330 -178v-332c0 -32.667 20.333 -49 61 -49c16 0 27.667 1.33301 35 4v-92c-15.333 -0.666992 -38.333 -3 -69 -7c-20 -2 -33.667 -3 -41 -3
c-65.333 0 -103.666 28.667 -114.999 86c-62.667 -72.667 -163.667 -109 -303 -109c-184 0 -276 66.333 -276 199c0 117.333 97 185 291 203l155 14c76.667 7.33301 115 29 115 65c0 58.667 -61.333 88 -184 88c-132.667 0 -203 -38.667 -211 -116zM594.999 1123
c-12.667 -16.667 -57.667 -30.334 -135 -41.001l-131 -19c-96 -13.333 -144 -42.333 -144 -87c0 -26.667 14.333 -48.5 43 -65.5s65.667 -25.5 111 -25.5c74 0 135.833 17.333 185.5 52s74.5 77.334 74.5 128.001v58h-4z" />
    <glyph glyph-name="guillemotleft" unicode="&#xab;" horiz-adv-x="1139" vert-adv-y="1433" 
d="M613 463v213l368 272v-207l-243 -172l243 -172v-207zM158 463v213l369 272v-207l-244 -172l244 -172v-207z" />
    <glyph glyph-name="logicalnot" unicode="&#xac;" horiz-adv-x="1229" vert-adv-y="1433" 
d="M960 219v426h-864v172h1036v-598h-172z" />
    <glyph glyph-name="uni00AD" unicode="&#xad;" horiz-adv-x="985" vert-adv-y="1433" 
d="M133 463v213h719v-213h-719z" />
    <glyph glyph-name="registered" unicode="&#xae;" horiz-adv-x="1638" vert-adv-y="1433" 
d="M1026 292l-230.001 379.001h-137v-379h-147v877h342c130.667 0 221.667 -28 273 -84c37.333 -40.667 56 -96 56 -166c0 -72.667 -19.167 -128.334 -57.5 -167.001s-98.166 -63.667 -179.499 -75l252 -385h-172zM658.999 794.001h158c64 0 110.333 6 139 18
c44.667 18.667 67 55 67 109c0 83.333 -64.667 125 -194 125h-170v-252zM825.999 1499c134.667 0 262.335 -34.3301 383.002 -102.997c117.333 -67.333 209.666 -159 276.999 -275c67.333 -117.333 101 -247.333 101 -390c0 -218 -74 -400.333 -222 -547
c-76 -74.667 -164.667 -131.334 -266 -170.001c-90 -34 -183.333 -51 -280 -51c-140 0 -270 34.333 -390 103c-118 67.333 -210.333 159 -277 275c-67.333 117.333 -101 247 -101 389c0 217.333 74 399.666 222 546.999c71.333 71.333 154.666 126.166 249.999 164.499
s196.333 57.5 303 57.5zM813 1339c-77.333 0 -152.167 -14.9971 -224.5 -44.9971s-135.833 -72 -190.5 -126c-116.667 -116.667 -175 -262.334 -175 -437.001s58.333 -320.334 175 -437.001c114 -114 254 -171 420 -171c165.333 0 305.333 57 420 171
c118 117.333 177 262.666 177 435.999c0 174 -59 320 -177 438c-113.333 114 -255 171 -425 171z" />
    <glyph glyph-name="macron" unicode="&#xaf;" horiz-adv-x="1024" vert-adv-y="1433" 
d="M138 1288v160h748v-160h-748z" />
    <glyph glyph-name="degree" unicode="&#xb0;" horiz-adv-x="819" vert-adv-y="1433" 
d="M412 1454c79.333 0 147.666 -28.667 204.999 -86s86 -126.333 86 -207s-28.667 -149.667 -86 -207s-126.333 -86 -207 -86s-149.667 28.5 -207 85.5s-86 126.167 -86 207.5c0 80.667 28.667 149.667 86 207c56.667 57.333 126.334 86 209.001 86zM409 1343
c-44.667 0 -86.001 -19.167 -124.001 -57.5s-57 -79.833 -57 -124.5c0 -45.333 19 -87 57 -125s79.667 -57 125 -57s87 19 125 57s57 79.667 57 125s-19.167 87 -57.5 125s-80.166 57 -125.499 57z" />
    <glyph glyph-name="plusminus" unicode="&#xb1;" horiz-adv-x="1229" vert-adv-y="1433" 
d="M528 725v311h172v-311h432v-172h-432v-311h-172v311h-432v172h432zM96 0v172h1036v-172h-1036z" />
    <glyph glyph-name="twosuperior" unicode="&#xb2;" horiz-adv-x="889" vert-adv-y="1433" 
d="M237 1147l-160 0.00292969c2.66699 54.667 10.667 98.667 24 132s35.333 63.666 66 90.999c62 56 153.333 84 274 84c130 0 225.667 -33 287 -99c42.667 -46 64 -103 64 -171c0 -70 -21.667 -128.833 -65 -176.5s-121.333 -97.834 -234 -150.501
c-60.667 -28 -102.5 -49.333 -125.5 -64s-46.833 -34.667 -71.5 -60h496v-147h-743c8 75.333 26 133.666 54 174.999c48.667 71.333 144 139 286 203c101.333 46 166 87 194 123c24.667 32 37 64.667 37 98c0 40.667 -16.333 73.167 -49 97.5s-76.667 36.5 -132 36.5
c-60 0 -107.5 -14.833 -142.5 -44.5s-54.833 -72.167 -59.5 -127.5z" />
    <glyph glyph-name="threesuperior" unicode="&#xb3;" horiz-adv-x="889" vert-adv-y="1433" 
d="M352 969l0.000976562 126.999c14.667 -2 38 -3 70 -3c113.333 0 170 38.667 170 116c0 73.333 -57.667 110 -173 110c-63.333 0 -108.833 -11 -136.5 -33s-44.167 -60.333 -49.5 -115h-160c5.33301 52 15 93 29 123s36 58 66 84c60.667 50.667 146.334 76 257.001 76
c91.333 0 167 -17 227 -51c74.667 -43.333 112 -105 112 -185c0 -92 -46.667 -150 -140 -174v-4c56.667 -11.333 101 -34.5 133 -69.5s48 -77.5 48 -127.5c0 -90 -32.333 -159.5 -97 -208.5s-156.334 -73.5 -275.001 -73.5c-108 0 -194.333 18.333 -259 55
c-42 24 -72.5 53.833 -91.5 89.5s-30.167 84.5 -33.5 146.5h160c5.33301 -59.333 23.5 -100.166 54.5 -122.499s84.833 -33.5 161.5 -33.5c138.667 0 208 43.667 208 131c0 44 -18.333 78.833 -55 104.5s-86.334 38.5 -149.001 38.5c-20.667 0 -36.667 -0.333008 -48 -1h-22
h-7z" />
    <glyph glyph-name="acute" unicode="&#xb4;" horiz-adv-x="1024" vert-adv-y="1433" 
d="M389 1231l176 287h256l-268 -287h-164z" />
    <glyph glyph-name="mu" unicode="&#xb5;" horiz-adv-x="1329" vert-adv-y="1433" 
d="M125 -414l-0.00292969 1487h205v-690c0 -165.333 103 -248 309 -248c108.667 0 195.834 29 261.501 87s98.5 135.667 98.5 233v618h205v-1073h-205v162h-4c-93.333 -132.667 -229.666 -199 -408.999 -199c-101.333 0 -186.666 28 -255.999 84v-461h-205z" />
    <glyph glyph-name="paragraph" unicode="&#xb6;" horiz-adv-x="1229" vert-adv-y="1433" 
d="M897 -352v1679h-228v-1679h-172v1057c-62 2 -111.167 7.5 -147.5 16.5s-73.5 24.5 -111.5 46.5c-119.333 70 -179 174.333 -179 313c0 145.333 55 249.666 165 312.999c78 45.333 182 68 312 68h533v-1814h-172z" />
    <glyph glyph-name="periodcentered" unicode="&#xb7;" vert-adv-y="1433" 
d="M343 782c41.333 0 76.666 -14.833 105.999 -44.5s44 -65.5 44 -107.5s-14.833 -77.667 -44.5 -107s-65.167 -44 -106.5 -44c-42.667 0 -78.667 14.667 -108 44s-44 65 -44 107c0 42.667 14.833 78.667 44.5 108s65.834 44 108.501 44z" />
    <glyph glyph-name="cedilla" unicode="&#xb8;" horiz-adv-x="1024" vert-adv-y="1433" 
d="M441 -209l-37 39l102 170h105l-70 -117l25 4c19.333 2.66699 34.666 4 45.999 4c55.333 0 99.333 -12.167 132 -36.5s49 -57.166 49 -98.499c0 -58.667 -27 -103.334 -81 -134.001c-45.333 -25.333 -100.333 -38 -165 -38c-43.333 0 -115.666 9.66699 -216.999 29l27 96
c54 -18 104.333 -27 151 -27c33.333 0 60.5 5.83301 81.5 17.5s31.5 27.167 31.5 46.5c0 17.333 -8 31.5 -24 42.5s-36.667 16.5 -62 16.5c-26 0 -57.333 -4.66699 -94 -14z" />
    <glyph glyph-name="onesuperior" unicode="&#xb9;" horiz-adv-x="592" vert-adv-y="1433" 
d="M232 586l0.000976562 590h-248v123c95.333 0 163.166 11.167 203.499 33.5s66.833 62.833 79.5 121.5h137v-868h-172z" />
    <glyph glyph-name="ordmasculine" unicode="&#xba;" horiz-adv-x="911" vert-adv-y="1433" 
d="M459 1454c120.667 0 217.667 -31 291 -93s110 -144.333 110 -247s-36.833 -185 -110.5 -247s-171.834 -93 -294.501 -93s-220.667 30.833 -294 92.5s-110 144.167 -110 247.5c0 104 36.833 186.667 110.5 248s172.834 92 297.501 92zM452 1331
c-70 0 -127.667 -20.6689 -173 -62.002s-68 -93.666 -68 -156.999c0 -62.667 22.833 -114.167 68.5 -154.5s104.167 -60.5 175.5 -60.5s130 20.167 176 60.5s69 91.833 69 154.5c0 64.667 -23.167 117.334 -69.5 158.001s-105.833 61 -178.5 61z" />
    <glyph glyph-name="guillemotright" unicode="&#xbb;" horiz-adv-x="1139" vert-adv-y="1433" 
d="M402 569l-244 172v207l369 -272v-213l-369 -273v207zM856 569l-243 172v207l368 -272v-213l-368 -273v207z" />
    <glyph glyph-name="onequarter" unicode="&#xbc;" horiz-adv-x="2048" vert-adv-y="1433" 
d="M1644 0v190h-475v129l500 549h135v-543h147v-135h-147v-190h-160zM1644 325v334h-4l-293 -334h297zM297 586l0.000976562 590h-248v123c95.333 0 163.166 11.167 203.499 33.5s66.833 62.833 79.5 121.5h137v-868h-172zM402.001 -33l813 1487h172l-813 -1487h-172z" />
    <glyph glyph-name="onehalf" unicode="&#xbd;" horiz-adv-x="2048" vert-adv-y="1433" 
d="M297 586l0.000976562 590h-248v123c95.333 0 163.166 11.167 203.499 33.5s66.833 62.833 79.5 121.5h137v-868h-172zM406.001 -33l813 1487h172l-813 -1487h-172zM1395 561l-160 0.00195312c2.66699 54.667 10.667 98.667 24 132s35.333 63.666 66 90.999
c62.667 56 154 84 274 84c131.333 0 227.666 -33 288.999 -99c42.667 -46.667 64 -104 64 -172c0 -70 -21.667 -128.5 -65 -175.5s-122 -97.167 -236 -150.5c-60 -28 -101.667 -49.333 -125 -64s-47.333 -34.667 -72 -60h496v-147h-743c8 75.333 26 133.333 54 174
c48.667 72 144.334 140 287.001 204c101.333 46 166.333 87 195 123c24.667 32 37 64.333 37 97c0 41.333 -16.5 74.166 -49.5 98.499s-77.167 36.5 -132.5 36.5c-60.667 0 -108.5 -14.833 -143.5 -44.5s-54.833 -72.167 -59.5 -127.5z" />
    <glyph glyph-name="threequarters" unicode="&#xbe;" horiz-adv-x="2048" vert-adv-y="1433" 
d="M1644 0v190h-475v129l500 549h135v-543h147v-135h-147v-190h-160zM1644 325v334h-4l-293 -334h297zM352 969l0.000976562 126.999c14.667 -2 38 -3 70 -3c113.333 0 170 38.667 170 116c0 73.333 -57.667 110 -173 110c-63.333 0 -108.833 -11 -136.5 -33
s-44.167 -60.333 -49.5 -115h-160c5.33301 52 15 93 29 123s36 58 66 84c60.667 50.667 146.334 76 257.001 76c91.333 0 167 -17 227 -51c74.667 -43.333 112 -105 112 -185c0 -92 -46.667 -150 -140 -174v-4c56.667 -11.333 101 -34.5 133 -69.5s48 -77.5 48 -127.5
c0 -90 -32.333 -159.5 -97 -208.5s-156.334 -73.5 -275.001 -73.5c-108 0 -194.333 18.333 -259 55c-42 24 -72.5 53.833 -91.5 89.5s-30.167 84.5 -33.5 146.5h160c5.33301 -59.333 23.5 -100.166 54.5 -122.499s84.833 -33.5 161.5 -33.5c138.667 0 208 43.667 208 131
c0 44 -18.333 78.833 -55 104.5s-86.334 38.5 -149.001 38.5c-20.667 0 -36.667 -0.333008 -48 -1h-22h-7zM543.001 -33.001l813 1487h172l-813 -1487h-172z" />
    <glyph glyph-name="questiondown" unicode="&#xbf;" horiz-adv-x="1368" vert-adv-y="1433" 
d="M1044 66h204.999c-8.66699 -93.333 -24.834 -166.5 -48.501 -219.5s-61.5 -101.5 -113.5 -145.5c-98.667 -84.667 -230.334 -127 -395.001 -127c-120 0 -224.333 25.667 -313 77c-136.667 78.667 -205 198.667 -205 360c0 80 18.833 148.667 56.5 206
s106.834 122.333 207.501 195c81.333 58.667 134.5 104.667 159.5 138s40.833 79.333 47.5 138h193c-5.33301 -91.333 -24.5 -163.166 -57.5 -215.499s-96.5 -111.5 -190.5 -177.5c-76 -52.667 -128.167 -99.334 -156.5 -140.001s-42.5 -89 -42.5 -145
c0 -82 27.333 -146.5 82 -193.5s129.334 -70.5 224.001 -70.5c212.667 0 328.334 106.667 347.001 320zM613.999 835v238h254v-238h-254z" />
    <glyph glyph-name="Agrave" unicode="&#xc0;" horiz-adv-x="1554" vert-adv-y="1433" 
d="M1315 0l-186 426h-717l-187 -426h-233l662 1462h247l662 -1462h-248zM1049 614l-281 647l-274 -647h555zM727 1558l-268 287h256l176 -287h-164z" />
    <glyph glyph-name="Aacute" unicode="&#xc1;" horiz-adv-x="1554" vert-adv-y="1433" 
d="M1315 0l-186 426h-717l-187 -426h-233l662 1462h247l662 -1462h-248zM1049 614l-281 647l-274 -647h555zM664 1558l176 287h256l-268 -287h-164z" />
    <glyph glyph-name="Acircumflex" unicode="&#xc2;" horiz-adv-x="1554" vert-adv-y="1433" 
d="M1315 0l-186 426h-717l-187 -426h-233l662 1462h247l662 -1462h-248zM1049 614l-281 647l-274 -647h555zM954 1559l-176 180l-176 -180h-199l266 286h217l267 -286h-199z" />
    <glyph glyph-name="Atilde" unicode="&#xc3;" horiz-adv-x="1554" vert-adv-y="1433" 
d="M1315 0l-186 426h-717l-187 -426h-233l662 1462h247l662 -1462h-248zM1049 614l-281 647l-274 -647h555zM493 1575h-120.999c8 64.667 24.667 116 50 154c43.333 65.333 104.666 98 183.999 98c56 0 122.667 -16.333 200 -49c68 -28.667 121.667 -43 161 -43
c26.667 0 47.167 6.83301 61.5 20.5s25.5 37.5 33.5 71.5h121c-8 -64.667 -24.667 -116 -50 -154c-43.333 -65.333 -105 -98 -185 -98c-55.333 0 -121.666 16.333 -198.999 49c-67.333 28.667 -121 43 -161 43c-26.667 0 -47.334 -7 -62.001 -21s-25.667 -37.667 -33 -71z
" />
    <glyph glyph-name="Adieresis" unicode="&#xc4;" horiz-adv-x="1554" vert-adv-y="1433" 
d="M1315 0l-186 426h-717l-187 -426h-233l662 1462h247l662 -1462h-248zM1049 614l-281 647l-274 -647h555zM429 1577v213h205v-213h-205zM921 1577v213h205v-213h-205z" />
    <glyph glyph-name="Aring" unicode="&#xc5;" horiz-adv-x="1554" vert-adv-y="1433" 
d="M1315 0l-186 426h-717l-187 -426h-233l662 1462h247l662 -1462h-248zM1049 614l-281 647l-274 -647h555zM780 1972c65.333 0 121.168 -23.499 167.501 -70.499s69.5 -103.5 69.5 -169.5c0 -66.667 -23.333 -123.167 -70 -169.5s-103.334 -69.5 -170.001 -69.5
c-66 0 -122.333 23.167 -169 69.5s-70 102.833 -70 169.5c0 67.333 23.333 124.166 70 170.499s104 69.5 172 69.5zM776.002 1861c-32.667 0 -62 -13 -88 -39s-39 -56 -39 -90c0 -33.333 13 -63 39 -89s55.667 -39 89 -39c34 0 64 13 90 39s39 55.667 39 89
c0 34 -13 64 -39 90s-56.333 39 -91 39z" />
    <glyph glyph-name="AE" unicode="&#xc6;" horiz-adv-x="2275" vert-adv-y="1433" 
d="M1077 0v426h-633l-266 -426h-246l922 1462h1323v-188h-895v-424h866v-188h-866v-474h905v-188h-1110zM1077 614v659h-103l-413 -659h516z" />
    <glyph glyph-name="Ccedilla" unicode="&#xc7;" horiz-adv-x="1669" vert-adv-y="1433" 
d="M808 -36c-149.333 6 -279.334 41.333 -390.001 106c-226.667 132 -340 352 -340 660c0 234 69.667 421 209 561c138 138.667 323 208 555 208c246 0 437.333 -67.667 574 -203c49.333 -48.667 85.333 -98.334 108 -149.001s40.334 -121 53.001 -211h-217
c-52 250 -219.333 375 -502 375c-184 0 -325.667 -55.333 -425 -166c-92 -102.667 -138 -243.667 -138 -423c0 -178 49 -317.667 147 -419s233 -152 405 -152c140.667 0 252.334 32.833 335.001 98.5s142 168.834 178 309.501h217c-34 -208 -130.333 -364.667 -289 -470
c-106.667 -70.667 -231.334 -111.667 -374.001 -123l-50 -83c7.33301 0.666992 16 2 26 4c18.667 2.66699 33.667 4 45 4c120.667 0 181 -45 181 -135c0 -52 -22.5 -93.667 -67.5 -125s-104.167 -47 -177.5 -47c-44 0 -116.667 9.66699 -218 29l27 96
c56 -18 106.333 -27 151 -27c75.333 0 113 21.333 113 64c0 39.333 -29 59 -87 59c-26.667 0 -57.667 -4.66699 -93 -14l-37 39z" />
    <glyph glyph-name="Egrave" unicode="&#xc8;" horiz-adv-x="1442" vert-adv-y="1433" 
d="M158 0v1462h1175v-188h-958v-424h930v-188h-930v-474h979v-188h-1196zM718 1558l-268 287h256l176 -287h-164z" />
    <glyph glyph-name="Eacute" unicode="&#xc9;" horiz-adv-x="1442" vert-adv-y="1433" 
d="M158 0v1462h1175v-188h-958v-424h930v-188h-930v-474h979v-188h-1196zM633 1558l176 287h256l-268 -287h-164z" />
    <glyph glyph-name="Ecircumflex" unicode="&#xca;" horiz-adv-x="1442" vert-adv-y="1433" 
d="M158 0v1462h1175v-188h-958v-424h930v-188h-930v-474h979v-188h-1196zM938 1559l-176 180l-176 -180h-199l266 286h217l267 -286h-199z" />
    <glyph glyph-name="Edieresis" unicode="&#xcb;" horiz-adv-x="1442" vert-adv-y="1433" 
d="M158 0v1462h1175v-188h-958v-424h930v-188h-930v-474h979v-188h-1196zM408 1577v213h205v-213h-205zM900 1577v213h205v-213h-205z" />
    <glyph glyph-name="Igrave" unicode="&#xcc;" horiz-adv-x="569" vert-adv-y="1433" 
d="M176 0v1462h217v-1462h-217zM243 1558l-268 287h256l176 -287h-164z" />
    <glyph glyph-name="Iacute" unicode="&#xcd;" horiz-adv-x="569" vert-adv-y="1433" 
d="M176 0v1462h217v-1462h-217zM156 1558l176 287h256l-268 -287h-164z" />
    <glyph glyph-name="Icircumflex" unicode="&#xce;" horiz-adv-x="569" vert-adv-y="1433" 
d="M176 0v1462h217v-1462h-217zM461 1559l-176 180l-176 -180h-199l266 286h217l267 -286h-199z" />
    <glyph glyph-name="Idieresis" unicode="&#xcf;" horiz-adv-x="569" vert-adv-y="1433" 
d="M177 0v1462h217v-1462h-217zM-63 1577v213h205v-213h-205zM428 1577v213h205v-213h-205z" />
    <glyph glyph-name="Eth" unicode="&#xd0;" horiz-adv-x="1630" vert-adv-y="1433" 
d="M157 858v604h741c206 0 364.333 -62.333 475 -187c109.333 -122.667 164 -297.667 164 -525c0 -189.333 -36.667 -347.333 -110 -474c-106.667 -184 -279 -276 -517 -276h-753v711h-143v147h143zM374 858h471v-147h-471v-523h526c280 0 420 183.667 420 551
c0 356.667 -153.667 535 -461 535h-485v-416z" />
    <glyph glyph-name="Ntilde" unicode="&#xd1;" horiz-adv-x="1745" vert-adv-y="1433" 
d="M1327 0l-940 1163h-4v-1163h-217v1462h252l940 -1163h4v1163h217v-1462h-252zM588 1575h-120.999c8 64.667 24.667 116 50 154c43.333 65.333 104.666 98 183.999 98c56 0 122.667 -16.333 200 -49c68 -28.667 121.667 -43 161 -43c26.667 0 47.167 6.83301 61.5 20.5
s25.5 37.5 33.5 71.5h121c-8 -64.667 -24.667 -116 -50 -154c-43.333 -65.333 -105 -98 -185 -98c-55.333 0 -121.666 16.333 -198.999 49c-67.333 28.667 -121 43 -161 43c-26.667 0 -47.334 -7 -62.001 -21s-25.667 -37.667 -33 -71z" />
    <glyph glyph-name="Ograve" unicode="&#xd2;" horiz-adv-x="1782" vert-adv-y="1433" 
d="M900 1499c265.333 0 470.667 -80.999 616 -242.999c125.333 -138.667 188 -313.667 188 -525c0 -240.667 -79 -432.334 -237 -575.001c-142.667 -128.667 -334.667 -193 -576 -193c-271.333 0 -480 81 -626 243c-124.667 138.667 -187 313.667 -187 525
c0 241.333 79 433 237 575c142 128.667 337 193 585 193zM885.001 1311c-180 0 -323.334 -52.333 -430.001 -157s-160 -245.667 -160 -423c0 -188 59 -334 177 -438c106.667 -94.667 246.334 -142 419.001 -142c183.333 0 328.5 52.167 435.5 156.5s160.5 245.5 160.5 423.5
c0 188 -58.667 334 -176 438c-106.667 94.667 -248.667 142 -426 142zM850 1558l-268 287h256l176 -287h-164z" />
    <glyph glyph-name="Oacute" unicode="&#xd3;" horiz-adv-x="1782" vert-adv-y="1433" 
d="M900 1499c265.333 0 470.667 -80.999 616 -242.999c125.333 -138.667 188 -313.667 188 -525c0 -240.667 -79 -432.334 -237 -575.001c-142.667 -128.667 -334.667 -193 -576 -193c-271.333 0 -480 81 -626 243c-124.667 138.667 -187 313.667 -187 525
c0 241.333 79 433 237 575c142 128.667 337 193 585 193zM885.001 1311c-180 0 -323.334 -52.333 -430.001 -157s-160 -245.667 -160 -423c0 -188 59 -334 177 -438c106.667 -94.667 246.334 -142 419.001 -142c183.333 0 328.5 52.167 435.5 156.5s160.5 245.5 160.5 423.5
c0 188 -58.667 334 -176 438c-106.667 94.667 -248.667 142 -426 142zM765 1558l176 287h256l-268 -287h-164z" />
    <glyph glyph-name="Ocircumflex" unicode="&#xd4;" horiz-adv-x="1782" vert-adv-y="1433" 
d="M900 1499c265.333 0 470.667 -80.999 616 -242.999c125.333 -138.667 188 -313.667 188 -525c0 -240.667 -79 -432.334 -237 -575.001c-142.667 -128.667 -334.667 -193 -576 -193c-271.333 0 -480 81 -626 243c-124.667 138.667 -187 313.667 -187 525
c0 241.333 79 433 237 575c142 128.667 337 193 585 193zM885.001 1311c-180 0 -323.334 -52.333 -430.001 -157s-160 -245.667 -160 -423c0 -188 59 -334 177 -438c106.667 -94.667 246.334 -142 419.001 -142c183.333 0 328.5 52.167 435.5 156.5s160.5 245.5 160.5 423.5
c0 188 -58.667 334 -176 438c-106.667 94.667 -248.667 142 -426 142zM1067 1559l-176 180l-176 -180h-199l266 286h217l267 -286h-199z" />
    <glyph glyph-name="Otilde" unicode="&#xd5;" horiz-adv-x="1782" vert-adv-y="1433" 
d="M900 1499c265.333 0 470.667 -80.999 616 -242.999c125.333 -138.667 188 -313.667 188 -525c0 -240.667 -79 -432.334 -237 -575.001c-142.667 -128.667 -334.667 -193 -576 -193c-271.333 0 -480 81 -626 243c-124.667 138.667 -187 313.667 -187 525
c0 241.333 79 433 237 575c142 128.667 337 193 585 193zM885.001 1311c-180 0 -323.334 -52.333 -430.001 -157s-160 -245.667 -160 -423c0 -188 59 -334 177 -438c106.667 -94.667 246.334 -142 419.001 -142c183.333 0 328.5 52.167 435.5 156.5s160.5 245.5 160.5 423.5
c0 188 -58.667 334 -176 438c-106.667 94.667 -248.667 142 -426 142zM607 1575h-120.999c8 64.667 24.667 116 50 154c43.333 65.333 104.666 98 183.999 98c56 0 122.667 -16.333 200 -49c68 -28.667 121.667 -43 161 -43c26.667 0 47.167 6.83301 61.5 20.5
s25.5 37.5 33.5 71.5h121c-8 -64.667 -24.667 -116 -50 -154c-43.333 -65.333 -105 -98 -185 -98c-55.333 0 -121.666 16.333 -198.999 49c-67.333 28.667 -121 43 -161 43c-26.667 0 -47.334 -7 -62.001 -21s-25.667 -37.667 -33 -71z" />
    <glyph glyph-name="Odieresis" unicode="&#xd6;" horiz-adv-x="1782" vert-adv-y="1433" 
d="M900 1499c265.333 0 470.667 -80.999 616 -242.999c125.333 -138.667 188 -313.667 188 -525c0 -240.667 -79 -432.334 -237 -575.001c-142.667 -128.667 -334.667 -193 -576 -193c-271.333 0 -480 81 -626 243c-124.667 138.667 -187 313.667 -187 525
c0 241.333 79 433 237 575c142 128.667 337 193 585 193zM885.001 1311c-180 0 -323.334 -52.333 -430.001 -157s-160 -245.667 -160 -423c0 -188 59 -334 177 -438c106.667 -94.667 246.334 -142 419.001 -142c183.333 0 328.5 52.167 435.5 156.5s160.5 245.5 160.5 423.5
c0 188 -58.667 334 -176 438c-106.667 94.667 -248.667 142 -426 142zM555 1577v213h205v-213h-205zM1047 1577v213h205v-213h-205z" />
    <glyph glyph-name="multiply" unicode="&#xd7;" horiz-adv-x="1229" vert-adv-y="1433" 
d="M499 518l-356 356l115 115l354 -356l358 356l115 -115l-358 -356l358 -356l-115 -115l-358 359l-354 -359l-115 115z" />
    <glyph glyph-name="Oslash" unicode="&#xd8;" horiz-adv-x="1782" vert-adv-y="1433" 
d="M146 -45l-72 78l188 178c-122.667 144.667 -184 318 -184 520c0 240.667 79 432.334 237 575.001c142.667 128.667 334.667 193 576 193c220.667 0 405 -57.333 553 -172l191 180l73 -75l-188 -179c122.667 -147.333 184 -321.333 184 -522
c0 -240.667 -79 -432.334 -237 -575.001c-142.667 -128.667 -335 -193 -577 -193c-222 0 -406 58 -552 174zM1368 1110l-878 -831c111.333 -84.667 245 -127 401 -127c183.333 0 328.5 52 435.5 156s160.5 245 160.5 423c0 148 -39.667 274.333 -119 379zM414 354l879 830
c-112 84.667 -246 127 -402 127c-183.333 0 -328.5 -52 -435.5 -156s-160.5 -245.333 -160.5 -424c0 -147.333 39.667 -273 119 -377z" />
    <glyph glyph-name="Ugrave" unicode="&#xd9;" horiz-adv-x="1630" vert-adv-y="1433" 
d="M1477 1462v-909c0 -393.333 -220.667 -590 -662 -590c-440.667 0 -661 196.667 -661 590v909h217v-936c0 -250 148.333 -375 445 -375c296 0 444 125 444 375v936h217zM774 1558l-268 287h256l176 -287h-164z" />
    <glyph glyph-name="Uacute" unicode="&#xda;" horiz-adv-x="1630" vert-adv-y="1433" 
d="M1477 1462v-909c0 -393.333 -220.667 -590 -662 -590c-440.667 0 -661 196.667 -661 590v909h217v-936c0 -250 148.333 -375 445 -375c296 0 444 125 444 375v936h217zM693 1558l176 287h256l-268 -287h-164z" />
    <glyph glyph-name="Ucircumflex" unicode="&#xdb;" horiz-adv-x="1630" vert-adv-y="1433" 
d="M1477 1462v-909c0 -393.333 -220.667 -590 -662 -590c-440.667 0 -661 196.667 -661 590v909h217v-936c0 -250 148.333 -375 445 -375c296 0 444 125 444 375v936h217zM992 1559l-176 180l-176 -180h-199l266 286h217l267 -286h-199z" />
    <glyph glyph-name="Udieresis" unicode="&#xdc;" horiz-adv-x="1630" vert-adv-y="1433" 
d="M1477 1462v-909c0 -393.333 -220.667 -590 -662 -590c-440.667 0 -661 196.667 -661 590v909h217v-936c0 -250 148.333 -375 445 -375c296 0 444 125 444 375v936h217zM467 1577v213h205v-213h-205zM959 1577v213h205v-213h-205z" />
    <glyph glyph-name="Yacute" unicode="&#xdd;" horiz-adv-x="1479" vert-adv-y="1433" 
d="M742 797l485 665h264l-645 -850v-612h-217v602l-641 860h276zM611 1558l176 287h256l-268 -287h-164z" />
    <glyph glyph-name="Thorn" unicode="&#xde;" horiz-adv-x="1479" vert-adv-y="1433" 
d="M166 0v1462h217v-248h537c179.333 0 310.333 -45 393 -135c64 -70 96 -165 96 -285c0 -147.333 -45.667 -262 -137 -344c-83.333 -74.667 -196 -112 -338 -112h-551v-338h-217zM383 526h522c191.333 0 287 87.333 287 262c0 75.333 -21.667 133.833 -65 175.5
s-104.333 62.5 -183 62.5h-561v-500z" />
    <glyph glyph-name="germandbls" unicode="&#xdf;" horiz-adv-x="1327" vert-adv-y="1433" 
d="M569 719v171.999c18 -2.66699 47.333 -4 88 -4c202 0 303 71.333 303 214c0 71.333 -26.167 126.833 -78.5 166.5s-125.5 59.5 -219.5 59.5c-208 0 -312 -87.333 -312 -262v-1065h-205v1083c0 132 45.167 234.333 135.5 307s217.5 109 381.5 109
c158 0 283.333 -34.667 376 -104s139 -163.333 139 -282c0 -138.667 -67.667 -234.667 -203 -288v-4c183.333 -55.333 275 -184.333 275 -387c0 -141.333 -48.5 -255.166 -145.5 -341.499s-225.167 -129.5 -384.5 -129.5c-32.667 0 -78.667 2.66699 -138 8l-22 2v172
c51.333 -6.66699 92.666 -10 123.999 -10c108.667 0 194 26.667 256 80s93 126.333 93 219c0 77.333 -24.167 142 -72.5 194s-110.166 79.667 -185.499 83z" />
    <glyph glyph-name="agrave" unicode="&#xe0;" horiz-adv-x="1327" vert-adv-y="1433" 
d="M315 737l-192.002 0.00195312c16.667 122.667 60.334 212.334 131.001 269.001c86 69.333 218.333 104 397 104c332 0 498 -101.667 498 -305v-578c0 -61.333 31.333 -92 94 -92c20.667 0 44 2.66699 70 8v-143c-52 -8 -104.667 -12 -158 -12
c-61.333 0 -105.666 11 -132.999 33s-45.333 60.667 -54 116c-98 -116 -253 -174 -465 -174c-135.333 0 -240.5 28.5 -315.5 85.5s-112.5 136.833 -112.5 239.5c0 101.333 35.667 177.666 107 228.999s189.333 85.666 354 102.999l234 25c70 7.33301 118.5 20.333 145.5 39
s40.5 49 40.5 91c0 116.667 -102.333 175 -307 175c-110 0 -191.333 -16.833 -244 -50.5s-82.667 -87.834 -90 -162.501zM955.998 561.002c-28.667 -29.333 -95.668 -50.333 -201.001 -63l-231 -29c-162.667 -20 -244 -77 -244 -171c0 -54 22.833 -96.667 68.5 -128
s107.834 -47 186.501 -47c118.667 0 218.5 29 299.5 87s121.5 129.333 121.5 214v137zM619.997 1231l-268 287h256l176 -287h-164z" />
    <glyph glyph-name="aacute" unicode="&#xe1;" horiz-adv-x="1327" vert-adv-y="1433" 
d="M315 737l-192.002 0.00195312c16.667 122.667 60.334 212.334 131.001 269.001c86 69.333 218.333 104 397 104c332 0 498 -101.667 498 -305v-578c0 -61.333 31.333 -92 94 -92c20.667 0 44 2.66699 70 8v-143c-52 -8 -104.667 -12 -158 -12
c-61.333 0 -105.666 11 -132.999 33s-45.333 60.667 -54 116c-98 -116 -253 -174 -465 -174c-135.333 0 -240.5 28.5 -315.5 85.5s-112.5 136.833 -112.5 239.5c0 101.333 35.667 177.666 107 228.999s189.333 85.666 354 102.999l234 25c70 7.33301 118.5 20.333 145.5 39
s40.5 49 40.5 91c0 116.667 -102.333 175 -307 175c-110 0 -191.333 -16.833 -244 -50.5s-82.667 -87.834 -90 -162.501zM955.998 561.002c-28.667 -29.333 -95.668 -50.333 -201.001 -63l-231 -29c-162.667 -20 -244 -77 -244 -171c0 -54 22.833 -96.667 68.5 -128
s107.834 -47 186.501 -47c118.667 0 218.5 29 299.5 87s121.5 129.333 121.5 214v137zM549.997 1231l176 287h256l-268 -287h-164z" />
    <glyph glyph-name="acircumflex" unicode="&#xe2;" horiz-adv-x="1327" vert-adv-y="1433" 
d="M315 737l-192.002 0.00195312c16.667 122.667 60.334 212.334 131.001 269.001c86 69.333 218.333 104 397 104c332 0 498 -101.667 498 -305v-578c0 -61.333 31.333 -92 94 -92c20.667 0 44 2.66699 70 8v-143c-52 -8 -104.667 -12 -158 -12
c-61.333 0 -105.666 11 -132.999 33s-45.333 60.667 -54 116c-98 -116 -253 -174 -465 -174c-135.333 0 -240.5 28.5 -315.5 85.5s-112.5 136.833 -112.5 239.5c0 101.333 35.667 177.666 107 228.999s189.333 85.666 354 102.999l234 25c70 7.33301 118.5 20.333 145.5 39
s40.5 49 40.5 91c0 116.667 -102.333 175 -307 175c-110 0 -191.333 -16.833 -244 -50.5s-82.667 -87.834 -90 -162.501zM955.998 561.002c-28.667 -29.333 -95.668 -50.333 -201.001 -63l-231 -29c-162.667 -20 -244 -77 -244 -171c0 -54 22.833 -96.667 68.5 -128
s107.834 -47 186.501 -47c118.667 0 218.5 29 299.5 87s121.5 129.333 121.5 214v137zM839.997 1231l-176 180l-176 -180h-199l266 287h217l267 -287h-199z" />
    <glyph glyph-name="atilde" unicode="&#xe3;" horiz-adv-x="1327" vert-adv-y="1433" 
d="M315 737l-192.002 0.00195312c16.667 122.667 60.334 212.334 131.001 269.001c86 69.333 218.333 104 397 104c332 0 498 -101.667 498 -305v-578c0 -61.333 31.333 -92 94 -92c20.667 0 44 2.66699 70 8v-143c-52 -8 -104.667 -12 -158 -12
c-61.333 0 -105.666 11 -132.999 33s-45.333 60.667 -54 116c-98 -116 -253 -174 -465 -174c-135.333 0 -240.5 28.5 -315.5 85.5s-112.5 136.833 -112.5 239.5c0 101.333 35.667 177.666 107 228.999s189.333 85.666 354 102.999l234 25c70 7.33301 118.5 20.333 145.5 39
s40.5 49 40.5 91c0 116.667 -102.333 175 -307 175c-110 0 -191.333 -16.833 -244 -50.5s-82.667 -87.834 -90 -162.501zM955.998 561.002c-28.667 -29.333 -95.668 -50.333 -201.001 -63l-231 -29c-162.667 -20 -244 -77 -244 -171c0 -54 22.833 -96.667 68.5 -128
s107.834 -47 186.501 -47c118.667 0 218.5 29 299.5 87s121.5 129.333 121.5 214v137zM382.997 1247h-120.999c8 64.667 24.667 116 50 154c43.333 65.333 104.666 98 183.999 98c56 0 122.667 -16.333 200 -49c68 -28.667 121.667 -43 161 -43c26.667 0 47.167 7 61.5 21
s25.5 37.667 33.5 71h121c-8 -64.667 -24.667 -116 -50 -154c-43.333 -65.333 -105.333 -98 -186 -98c-54.667 0 -120.667 16.333 -198 49c-67.333 28.667 -121.333 43 -162 43c-26 0 -46.167 -7 -60.5 -21s-25.5 -37.667 -33.5 -71z" />
    <glyph glyph-name="adieresis" unicode="&#xe4;" horiz-adv-x="1327" vert-adv-y="1433" 
d="M315 737l-192.002 0.00195312c16.667 122.667 60.334 212.334 131.001 269.001c86 69.333 218.333 104 397 104c332 0 498 -101.667 498 -305v-578c0 -61.333 31.333 -92 94 -92c20.667 0 44 2.66699 70 8v-143c-52 -8 -104.667 -12 -158 -12
c-61.333 0 -105.666 11 -132.999 33s-45.333 60.667 -54 116c-98 -116 -253 -174 -465 -174c-135.333 0 -240.5 28.5 -315.5 85.5s-112.5 136.833 -112.5 239.5c0 101.333 35.667 177.666 107 228.999s189.333 85.666 354 102.999l234 25c70 7.33301 118.5 20.333 145.5 39
s40.5 49 40.5 91c0 116.667 -102.333 175 -307 175c-110 0 -191.333 -16.833 -244 -50.5s-82.667 -87.834 -90 -162.501zM955.998 561.002c-28.667 -29.333 -95.668 -50.333 -201.001 -63l-231 -29c-162.667 -20 -244 -77 -244 -171c0 -54 22.833 -96.667 68.5 -128
s107.834 -47 186.501 -47c118.667 0 218.5 29 299.5 87s121.5 129.333 121.5 214v137zM315.997 1249v213h205v-213h-205zM806.997 1249v213h205v-213h-205z" />
    <glyph glyph-name="aring" unicode="&#xe5;" horiz-adv-x="1327" vert-adv-y="1433" 
d="M315 737l-192.002 0.00195312c16.667 122.667 60.334 212.334 131.001 269.001c86 69.333 218.333 104 397 104c332 0 498 -101.667 498 -305v-578c0 -61.333 31.333 -92 94 -92c20.667 0 44 2.66699 70 8v-143c-52 -8 -104.667 -12 -158 -12
c-61.333 0 -105.666 11 -132.999 33s-45.333 60.667 -54 116c-98 -116 -253 -174 -465 -174c-135.333 0 -240.5 28.5 -315.5 85.5s-112.5 136.833 -112.5 239.5c0 101.333 35.667 177.666 107 228.999s189.333 85.666 354 102.999l234 25c70 7.33301 118.5 20.333 145.5 39
s40.5 49 40.5 91c0 116.667 -102.333 175 -307 175c-110 0 -191.333 -16.833 -244 -50.5s-82.667 -87.834 -90 -162.501zM955.998 561.002c-28.667 -29.333 -95.668 -50.333 -201.001 -63l-231 -29c-162.667 -20 -244 -77 -244 -171c0 -54 22.833 -96.667 68.5 -128
s107.834 -47 186.501 -47c118.667 0 218.5 29 299.5 87s121.5 129.333 121.5 214v137zM663.997 1645c65.333 0 121.168 -23.499 167.501 -70.499s69.5 -103.5 69.5 -169.5c0 -66.667 -23.333 -123.334 -70 -170.001s-103.334 -70 -170.001 -70
c-66 0 -122.333 23.333 -169 70s-70 103.334 -70 170.001c0 67.333 23.333 124.166 70 170.499s104 69.5 172 69.5zM659.999 1534c-32.667 0 -62 -13.168 -88 -39.501s-39 -56.166 -39 -89.499c0 -34 13 -64 39 -90s55.667 -39 89 -39c34 0 64 13 90 39s39 56 39 90
s-13 64 -39 90s-56.333 39 -91 39z" />
    <glyph glyph-name="ae" unicode="&#xe6;" horiz-adv-x="2200" vert-adv-y="1433" 
d="M2116 475h-965.998c17.333 -120 55.166 -206.667 113.499 -260s144.5 -80 258.5 -80c165.333 0 281.333 63.667 348 191h218c-109.333 -242 -298.333 -363 -567 -363c-118 0 -214.833 18 -290.5 54s-142.167 96 -199.5 180c-106 -156 -279.333 -234 -520 -234
c-138.667 0 -245.834 28.333 -321.501 85s-113.5 137 -113.5 241c0 102 34.833 178.833 104.5 230.5s184.5 85.5 344.5 101.5l246 24c69.333 7.33301 117.666 20.333 144.999 39s41 49 41 91c0 116.667 -102.333 175 -307 175c-110 0 -191.333 -16.833 -244 -50.5
s-82.667 -87.834 -90 -162.501h-192c16.667 122.667 60.334 212.334 131.001 269.001c86 69.333 217.667 104 395 104c208 0 362.333 -60 463 -180c106.667 120 248.667 180 426 180c171.333 0 309 -52.667 413 -158c109.333 -110.667 164 -260.667 164 -450v-27zM1150 635
l749.001 -0.000976562c-42 202 -166.667 303 -374 303c-100.667 0 -183.334 -26.167 -248.001 -78.5s-107 -127.166 -127 -224.499zM957.003 519.999c-68 -18.667 -135 -30.334 -201 -35.001l-202 -14c-182 -12.667 -273 -70.667 -273 -174
c0 -53.333 23 -95.666 69 -126.999s108 -47 186 -47c118.667 0 218.5 29 299.5 87s121.5 129.333 121.5 214v96z" />
    <glyph glyph-name="ccedilla" unicode="&#xe7;" horiz-adv-x="1290" vert-adv-y="1433" 
d="M618 -36c-114.667 6.66699 -210.332 32.666 -286.999 77.999c-168.667 99.333 -253 262.666 -253 489.999c0 176 52.833 316.333 158.5 421s247.5 157 425.5 157c312.667 0 497.667 -131.667 555 -395h-217c-34 148.667 -142.333 223 -325 223
c-120.667 0 -214.167 -35.167 -280.5 -105.5s-99.5 -169.166 -99.5 -296.499s33.167 -226 99.5 -296s159.833 -105 280.5 -105c92 0 163.167 19.833 213.5 59.5s88.833 105.834 115.5 198.501h217c-72.667 -269.333 -238.667 -412 -498 -428l-49 -82
c6 0.666992 14.667 2 26 4c18 2.66699 33 4 45 4c120.667 0 181 -45 181 -135c0 -52 -22.5 -93.667 -67.5 -125s-104.5 -47 -178.5 -47c-44 0 -116.333 9.66699 -217 29l27 96c55.333 -18 105.666 -27 150.999 -27c75.333 0 113 21.333 113 64c0 39.333 -29 59 -87 59
c-26 0 -57 -4.66699 -93 -14l-37 39z" />
    <glyph glyph-name="egrave" unicode="&#xe8;" horiz-adv-x="1366" vert-adv-y="1433" 
d="M1282 475l-987.001 0.000976562c12.667 -97.333 49 -174.333 109 -231c78 -72.667 174.667 -109 290 -109c161.333 0 275.333 63.667 342 191h218c-109.333 -242 -297.666 -363 -564.999 -363c-190.667 0 -342 56 -454 168c-104.667 105.333 -157 240.666 -157 405.999
s52.333 300.333 157 405c112.667 112 265 168 457 168c182.667 0 326.667 -54.333 432 -163s158 -257 158 -445v-27zM300.999 635.001h764c-42 202 -166.667 303 -374 303c-102.667 0 -188.167 -26.5 -256.5 -79.5s-112.833 -127.5 -133.5 -223.5zM635.999 1231l-268 287
h256l176 -287h-164z" />
    <glyph glyph-name="eacute" unicode="&#xe9;" horiz-adv-x="1366" vert-adv-y="1433" 
d="M1282 475l-987.001 0.000976562c12.667 -97.333 49 -174.333 109 -231c78 -72.667 174.667 -109 290 -109c161.333 0 275.333 63.667 342 191h218c-109.333 -242 -297.666 -363 -564.999 -363c-190.667 0 -342 56 -454 168c-104.667 105.333 -157 240.666 -157 405.999
s52.333 300.333 157 405c112.667 112 265 168 457 168c182.667 0 326.667 -54.333 432 -163s158 -257 158 -445v-27zM300.999 635.001h764c-42 202 -166.667 303 -374 303c-102.667 0 -188.167 -26.5 -256.5 -79.5s-112.833 -127.5 -133.5 -223.5zM562.999 1231l176 287h256
l-268 -287h-164z" />
    <glyph glyph-name="ecircumflex" unicode="&#xea;" horiz-adv-x="1366" vert-adv-y="1433" 
d="M1282 475l-987.001 0.000976562c12.667 -97.333 49 -174.333 109 -231c78 -72.667 174.667 -109 290 -109c161.333 0 275.333 63.667 342 191h218c-109.333 -242 -297.666 -363 -564.999 -363c-190.667 0 -342 56 -454 168c-104.667 105.333 -157 240.666 -157 405.999
s52.333 300.333 157 405c112.667 112 265 168 457 168c182.667 0 326.667 -54.333 432 -163s158 -257 158 -445v-27zM300.999 635.001h764c-42 202 -166.667 303 -374 303c-102.667 0 -188.167 -26.5 -256.5 -79.5s-112.833 -127.5 -133.5 -223.5zM864.999 1231l-176 180
l-176 -180h-199l266 287h217l267 -287h-199z" />
    <glyph glyph-name="edieresis" unicode="&#xeb;" horiz-adv-x="1366" vert-adv-y="1433" 
d="M1282 475l-987.001 0.000976562c12.667 -97.333 49 -174.333 109 -231c78 -72.667 174.667 -109 290 -109c161.333 0 275.333 63.667 342 191h218c-109.333 -242 -297.666 -363 -564.999 -363c-190.667 0 -342 56 -454 168c-104.667 105.333 -157 240.666 -157 405.999
s52.333 300.333 157 405c112.667 112 265 168 457 168c182.667 0 326.667 -54.333 432 -163s158 -257 158 -445v-27zM300.999 635.001h764c-42 202 -166.667 303 -374 303c-102.667 0 -188.167 -26.5 -256.5 -79.5s-112.833 -127.5 -133.5 -223.5zM337.999 1249v213h205
v-213h-205zM828.999 1249v213h205v-213h-205z" />
    <glyph glyph-name="igrave" unicode="&#xec;" horiz-adv-x="455" vert-adv-y="1433" 
d="M125 0v1073h205v-1073h-205zM177 1231l-268 287h256l176 -287h-164z" />
    <glyph glyph-name="iacute" unicode="&#xed;" horiz-adv-x="455" vert-adv-y="1433" 
d="M124 0v1073h205v-1073h-205zM116 1231l176 287h256l-268 -287h-164z" />
    <glyph glyph-name="icircumflex" unicode="&#xee;" horiz-adv-x="455" vert-adv-y="1433" 
d="M125 0v1073h205v-1073h-205zM404 1231l-176 180l-176 -180h-199l266 287h217l267 -287h-199z" />
    <glyph glyph-name="idieresis" unicode="&#xef;" horiz-adv-x="455" vert-adv-y="1433" 
d="M125 0v1073h205v-1073h-205zM-121 1229v213h205v-213h-205zM370 1229v213h205v-213h-205z" />
    <glyph glyph-name="eth" unicode="&#xf0;" horiz-adv-x="1401" vert-adv-y="1433" 
d="M289 1241l229.003 102.001c-71.333 31.333 -140.333 57.333 -207 78l142 115c88 -30 173.333 -66.333 256 -109l243 109l84 -74l-221 -98c82.667 -56.667 148.5 -107.834 197.5 -153.501s95.5 -98.5 139.5 -158.5c114 -156.667 171 -323.667 171 -501
c0 -188 -59.667 -335.333 -179 -442c-109.333 -97.333 -257 -146 -443 -146c-198.667 0 -354 56 -466 168c-104.667 104.667 -157 238.334 -157 401.001c0 160 55 294.667 165 404c55.333 55.333 120.166 98.166 194.499 128.499s152.166 45.5 233.499 45.5
c109.333 0 201.666 -32 276.999 -96l4 4c-88 103.333 -193.667 192 -317 266l-264 -117zM696.003 938.001c-130 0 -231.333 -40.332 -304 -120.999c-64.667 -72.667 -97 -166.334 -97 -281.001c0 -129.333 40.667 -231 122 -305c70.667 -64 165 -96 283 -96
c133.333 0 236.333 40.333 309 121c64.667 72 97 165.667 97 281c0 129.333 -40.667 231 -122 305c-70.667 64 -166.667 96 -288 96z" />
    <glyph glyph-name="ntilde" unicode="&#xf1;" horiz-adv-x="1329" vert-adv-y="1433" 
d="M125 0l0.000976562 1073h205v-162h4c93.333 132.667 234.666 199 423.999 199c112.667 0 206.667 -21.667 282 -65c109.333 -64 164 -168.667 164 -314v-731h-205v690c0 165.333 -102.667 248 -308 248c-110 0 -197.667 -29 -263 -87s-98 -135.667 -98 -233v-618h-205z
M380.001 1247h-120.999c8 64.667 24.667 116 50 154c43.333 65.333 104.666 98 183.999 98c56 0 122.667 -16.333 200 -49c68 -28.667 121.667 -43 161 -43c26.667 0 47.167 7 61.5 21s25.5 37.667 33.5 71h121c-8 -64.667 -24.667 -116 -50 -154
c-43.333 -65.333 -105.333 -98 -186 -98c-54.667 0 -120.667 16.333 -198 49c-67.333 28.667 -121.333 43 -162 43c-26 0 -46.167 -7 -60.5 -21s-25.5 -37.667 -33.5 -71z" />
    <glyph glyph-name="ograve" unicode="&#xf2;" horiz-adv-x="1401" vert-adv-y="1433" 
d="M707 1110c193.333 0 346.333 -56 459 -168c104.667 -104.667 157 -240 157 -406c0 -174 -56.5 -313 -169.5 -417s-264.167 -156 -453.5 -156c-188.667 0 -339.5 52 -452.5 156s-169.5 242.667 -169.5 416c0 176 56.667 315.833 170 419.5s266.333 155.5 459 155.5z
M696 938c-122 0 -219.333 -36.3311 -292 -108.998s-109 -170.334 -109 -293.001c0 -123.333 36.5 -221 109.5 -293s171.5 -108 295.5 -108c125.333 0 224.333 36.167 297 108.5s109 170.166 109 293.499c0 124 -36.667 221.833 -110 293.5s-173.333 107.5 -300 107.5z
M644 1231l-268 287h256l176 -287h-164z" />
    <glyph glyph-name="oacute" unicode="&#xf3;" horiz-adv-x="1401" vert-adv-y="1433" 
d="M707 1110c193.333 0 346.333 -56 459 -168c104.667 -104.667 157 -240 157 -406c0 -174 -56.5 -313 -169.5 -417s-264.167 -156 -453.5 -156c-188.667 0 -339.5 52 -452.5 156s-169.5 242.667 -169.5 416c0 176 56.667 315.833 170 419.5s266.333 155.5 459 155.5z
M696 938c-122 0 -219.333 -36.3311 -292 -108.998s-109 -170.334 -109 -293.001c0 -123.333 36.5 -221 109.5 -293s171.5 -108 295.5 -108c125.333 0 224.333 36.167 297 108.5s109 170.166 109 293.499c0 124 -36.667 221.833 -110 293.5s-173.333 107.5 -300 107.5z
M584 1231l176 287h256l-268 -287h-164z" />
    <glyph glyph-name="ocircumflex" unicode="&#xf4;" horiz-adv-x="1401" vert-adv-y="1433" 
d="M707 1110c193.333 0 346.333 -56 459 -168c104.667 -104.667 157 -240 157 -406c0 -174 -56.5 -313 -169.5 -417s-264.167 -156 -453.5 -156c-188.667 0 -339.5 52 -452.5 156s-169.5 242.667 -169.5 416c0 176 56.667 315.833 170 419.5s266.333 155.5 459 155.5z
M696 938c-122 0 -219.333 -36.3311 -292 -108.998s-109 -170.334 -109 -293.001c0 -123.333 36.5 -221 109.5 -293s171.5 -108 295.5 -108c125.333 0 224.333 36.167 297 108.5s109 170.166 109 293.499c0 124 -36.667 221.833 -110 293.5s-173.333 107.5 -300 107.5z
M877 1231l-176 180l-176 -180h-199l266 287h217l267 -287h-199z" />
    <glyph glyph-name="otilde" unicode="&#xf5;" horiz-adv-x="1401" vert-adv-y="1433" 
d="M707 1110c193.333 0 346.333 -56 459 -168c104.667 -104.667 157 -240 157 -406c0 -174 -56.5 -313 -169.5 -417s-264.167 -156 -453.5 -156c-188.667 0 -339.5 52 -452.5 156s-169.5 242.667 -169.5 416c0 176 56.667 315.833 170 419.5s266.333 155.5 459 155.5z
M696 938c-122 0 -219.333 -36.3311 -292 -108.998s-109 -170.334 -109 -293.001c0 -123.333 36.5 -221 109.5 -293s171.5 -108 295.5 -108c125.333 0 224.333 36.167 297 108.5s109 170.166 109 293.499c0 124 -36.667 221.833 -110 293.5s-173.333 107.5 -300 107.5z
M416 1247h-120.999c8 64.667 24.667 116 50 154c43.333 65.333 104.666 98 183.999 98c56 0 122.667 -16.333 200 -49c68 -28.667 121.667 -43 161 -43c26.667 0 47.167 7 61.5 21s25.5 37.667 33.5 71h121c-8 -64.667 -24.667 -116 -50 -154
c-43.333 -65.333 -105.333 -98 -186 -98c-54.667 0 -120.667 16.333 -198 49c-67.333 28.667 -121.333 43 -162 43c-26 0 -46.167 -7 -60.5 -21s-25.5 -37.667 -33.5 -71z" />
    <glyph glyph-name="odieresis" unicode="&#xf6;" horiz-adv-x="1401" vert-adv-y="1433" 
d="M707 1110c193.333 0 346.333 -56 459 -168c104.667 -104.667 157 -240 157 -406c0 -174 -56.5 -313 -169.5 -417s-264.167 -156 -453.5 -156c-188.667 0 -339.5 52 -452.5 156s-169.5 242.667 -169.5 416c0 176 56.667 315.833 170 419.5s266.333 155.5 459 155.5z
M696 938c-122 0 -219.333 -36.3311 -292 -108.998s-109 -170.334 -109 -293.001c0 -123.333 36.5 -221 109.5 -293s171.5 -108 295.5 -108c125.333 0 224.333 36.167 297 108.5s109 170.166 109 293.499c0 124 -36.667 221.833 -110 293.5s-173.333 107.5 -300 107.5z
M352 1249v213h205v-213h-205zM843 1249v213h205v-213h-205z" />
    <glyph glyph-name="divide" unicode="&#xf7;" horiz-adv-x="1229" vert-adv-y="1433" 
d="M616 1086c38 0 71.166 -14.3311 99.499 -42.998s42.5 -62.334 42.5 -101.001s-14.167 -72.167 -42.5 -100.5s-62.166 -42.5 -101.499 -42.5c-38.667 0 -72.167 14.167 -100.5 42.5s-42.5 62.166 -42.5 101.499c0 38.667 14.167 72.167 42.5 100.5s62.5 42.5 102.5 42.5z
M615.999 238.002c38 0 71.166 -14.3311 99.499 -42.998s42.5 -62.334 42.5 -101.001s-14.167 -72.167 -42.5 -100.5s-62.166 -42.5 -101.499 -42.5c-38.667 0 -72.167 14.167 -100.5 42.5s-42.5 62.166 -42.5 101.499c0 38.667 14.167 72.167 42.5 100.5
s62.5 42.5 102.5 42.5zM95.998 432.004v172h1036v-172h-1036z" />
    <glyph glyph-name="oslash" unicode="&#xf8;" horiz-adv-x="1401" vert-adv-y="1433" 
d="M1116 983l147.999 137l59 -63l-141 -131c94 -109.333 141 -239.333 141 -390c0 -174 -56.5 -313 -169.5 -417s-263.833 -156 -452.5 -156c-167.333 0 -306 42.333 -416 127l-148 -137l-59 63l143 134c-95.333 106.667 -143 235.667 -143 387
c0 165.333 52.333 300.333 157 405c112.667 112 267.667 168 465 168c162.667 0 301.334 -42.333 416.001 -127zM1032 786l-604 -563c72 -58.667 162.667 -88 272 -88c124.667 0 223.5 36 296.5 108s109.5 169.667 109.5 293c0 94 -24.667 177.333 -74 250zM368.999 287
l604 562.999c-74 58.667 -165 88 -273 88c-124 0 -222.5 -36.167 -295.5 -108.5s-109.5 -170.166 -109.5 -293.499c0 -96 24.667 -179 74 -249z" />
    <glyph glyph-name="ugrave" unicode="&#xf9;" horiz-adv-x="1329" vert-adv-y="1433" 
d="M1204 1073l-0.00195312 -1073h-205v162h-4c-93.333 -132.667 -234.666 -199 -423.999 -199c-112.667 0 -206.667 21.667 -282 65c-109.333 63.333 -164 168 -164 314v731h205v-690c0 -165.333 103 -248 309 -248c108.667 0 195.834 29 261.501 87s98.5 135.667 98.5 233
v618h205zM622.998 1231l-268 287h256l176 -287h-164z" />
    <glyph glyph-name="uacute" unicode="&#xfa;" horiz-adv-x="1329" vert-adv-y="1433" 
d="M1204 1073l-0.00195312 -1073h-205v162h-4c-93.333 -132.667 -234.666 -199 -423.999 -199c-112.667 0 -206.667 21.667 -282 65c-109.333 63.333 -164 168 -164 314v731h205v-690c0 -165.333 103 -248 309 -248c108.667 0 195.834 29 261.501 87s98.5 135.667 98.5 233
v618h205zM553.998 1231l176 287h256l-268 -287h-164z" />
    <glyph glyph-name="ucircumflex" unicode="&#xfb;" horiz-adv-x="1329" vert-adv-y="1433" 
d="M1204 1073l-0.00195312 -1073h-205v162h-4c-93.333 -132.667 -234.666 -199 -423.999 -199c-112.667 0 -206.667 21.667 -282 65c-109.333 63.333 -164 168 -164 314v731h205v-690c0 -165.333 103 -248 309 -248c108.667 0 195.834 29 261.501 87s98.5 135.667 98.5 233
v618h205zM840.998 1231l-176 180l-176 -180h-199l266 287h217l267 -287h-199z" />
    <glyph glyph-name="udieresis" unicode="&#xfc;" horiz-adv-x="1329" vert-adv-y="1433" 
d="M1204 1073l-0.00195312 -1073h-205v162h-4c-93.333 -132.667 -234.666 -199 -423.999 -199c-112.667 0 -206.667 21.667 -282 65c-109.333 63.333 -164 168 -164 314v731h205v-690c0 -165.333 103 -248 309 -248c108.667 0 195.834 29 261.501 87s98.5 135.667 98.5 233
v618h205zM316.998 1249v213h205v-213h-205zM807.998 1249v213h205v-213h-205z" />
    <glyph glyph-name="yacute" unicode="&#xfd;" horiz-adv-x="1176" vert-adv-y="1433" 
d="M594 225l362.001 848h229l-561 -1257c-46.667 -106 -95 -177 -145 -213s-124.667 -54 -224 -54c-24.667 0 -77.667 2.66699 -159 8v173c11.333 -0.666992 24.666 -2 39.999 -4c30 -3.33301 57.333 -5 82 -5c60 0 103.333 10 130 30s56.667 64.667 90 134l47 98l-495 1090
h235zM468.001 1231l176 287h256l-268 -287h-164z" />
    <glyph glyph-name="thorn" unicode="&#xfe;" horiz-adv-x="1403" vert-adv-y="1433" 
d="M125 -414l0.00195312 1889h205v-551h4c44.667 56.667 102.167 99.834 172.5 129.501s150.166 44.5 239.499 44.5c84 0 163 -14.333 237 -43s137 -69.334 189 -122.001c102 -104 153 -238.333 153 -403c0 -164 -51 -298 -153 -402
c-108.667 -110 -251.334 -165 -428.001 -165c-183.333 0 -320 58 -410 174h-4v-551h-205zM710.002 926c-126 0 -224.667 -39.998 -296 -119.998c-64 -72 -96 -164.333 -96 -277c0 -120.667 35.667 -216.334 107 -287.001c72 -71.333 168.667 -107 290 -107
c120 0 215.333 35.333 286 106c71.333 71.333 107 167.333 107 288c0 129.333 -40.333 230.666 -121 303.999c-68 62 -160.333 93 -277 93z" />
    <glyph glyph-name="ydieresis" unicode="&#xff;" horiz-adv-x="1176" vert-adv-y="1433" 
d="M594 225l362.001 848h229l-561 -1257c-46.667 -106 -95 -177 -145 -213s-124.667 -54 -224 -54c-24.667 0 -77.667 2.66699 -159 8v173c11.333 -0.666992 24.666 -2 39.999 -4c30 -3.33301 57.333 -5 82 -5c60 0 103.333 10 130 30s56.667 64.667 90 134l47 98l-495 1090
h235zM240.001 1249v213h205v-213h-205zM731.001 1249v213h205v-213h-205z" />
    <glyph glyph-name="Amacron" unicode="&#x100;" horiz-adv-x="1554" vert-adv-y="1433" 
d="M1315 0l-186 426h-717l-187 -426h-233l662 1462h247l662 -1462h-248zM1049 614l-281 647l-274 -647h555zM376 1605v160h803v-160h-803z" />
    <glyph glyph-name="amacron" unicode="&#x101;" horiz-adv-x="1327" vert-adv-y="1433" 
d="M315 737l-192.002 0.00195312c16.667 122.667 60.334 212.334 131.001 269.001c86 69.333 218.333 104 397 104c332 0 498 -101.667 498 -305v-578c0 -61.333 31.333 -92 94 -92c20.667 0 44 2.66699 70 8v-143c-52 -8 -104.667 -12 -158 -12
c-61.333 0 -105.666 11 -132.999 33s-45.333 60.667 -54 116c-98 -116 -253 -174 -465 -174c-135.333 0 -240.5 28.5 -315.5 85.5s-112.5 136.833 -112.5 239.5c0 101.333 35.667 177.666 107 228.999s189.333 85.666 354 102.999l234 25c70 7.33301 118.5 20.333 145.5 39
s40.5 49 40.5 91c0 116.667 -102.333 175 -307 175c-110 0 -191.333 -16.833 -244 -50.5s-82.667 -87.834 -90 -162.501zM955.998 561.002c-28.667 -29.333 -95.668 -50.333 -201.001 -63l-231 -29c-162.667 -20 -244 -77 -244 -171c0 -54 22.833 -96.667 68.5 -128
s107.834 -47 186.501 -47c118.667 0 218.5 29 299.5 87s121.5 129.333 121.5 214v137zM298.997 1288v160h748v-160h-748z" />
    <glyph glyph-name="Abreve" unicode="&#x102;" horiz-adv-x="1554" vert-adv-y="1433" 
d="M1315 0l-186 426h-717l-187 -426h-233l662 1462h247l662 -1462h-248zM1049 614l-281 647l-274 -647h555zM421 1854h135c18.667 -97.333 92.334 -146 221.001 -146s202.667 48.667 222 146h135c-5.33301 -53.333 -15.333 -95.5 -30 -126.5s-37.667 -59.833 -69 -86.5
c-64 -53.333 -150 -80 -258 -80c-120.667 0 -213.334 33 -278.001 99c-24.667 26 -42.667 52.833 -54 80.5s-19.333 65.5 -24 113.5z" />
    <glyph glyph-name="abreve" unicode="&#x103;" horiz-adv-x="1327" vert-adv-y="1433" 
d="M315 737l-192.002 0.00195312c16.667 122.667 60.334 212.334 131.001 269.001c86 69.333 218.333 104 397 104c332 0 498 -101.667 498 -305v-578c0 -61.333 31.333 -92 94 -92c20.667 0 44 2.66699 70 8v-143c-52 -8 -104.667 -12 -158 -12
c-61.333 0 -105.666 11 -132.999 33s-45.333 60.667 -54 116c-98 -116 -253 -174 -465 -174c-135.333 0 -240.5 28.5 -315.5 85.5s-112.5 136.833 -112.5 239.5c0 101.333 35.667 177.666 107 228.999s189.333 85.666 354 102.999l234 25c70 7.33301 118.5 20.333 145.5 39
s40.5 49 40.5 91c0 116.667 -102.333 175 -307 175c-110 0 -191.333 -16.833 -244 -50.5s-82.667 -87.834 -90 -162.501zM955.998 561.002c-28.667 -29.333 -95.668 -50.333 -201.001 -63l-231 -29c-162.667 -20 -244 -77 -244 -171c0 -54 22.833 -96.667 68.5 -128
s107.834 -47 186.501 -47c118.667 0 218.5 29 299.5 87s121.5 129.333 121.5 214v137zM301.997 1516l135 0.000976562c18.667 -96.667 92.334 -145 221.001 -145s202.667 48.333 222 145h135c-5.33301 -53.333 -15.333 -95.333 -30 -126s-37.667 -59.334 -69 -86.001
c-64 -53.333 -150 -80 -258 -80c-120.667 0 -213.334 33 -278.001 99c-24.667 25.333 -42.667 51.833 -54 79.5s-19.333 65.5 -24 113.5z" />
    <glyph glyph-name="Aogonek" unicode="&#x104;" horiz-adv-x="1554" vert-adv-y="1433" 
d="M1429 0l-113.998 -0.000976562l-186 426h-717l-187 -426h-233l662 1462h247l662 -1462h-23c-62 -32.667 -109.667 -68.667 -143 -108s-50 -79.666 -50 -120.999c0 -57.333 34.667 -86 104 -86c41.333 0 95.666 6.66699 162.999 20l24 -72
c-72.667 -22.667 -143.334 -34 -212.001 -34c-142.667 0 -214 52 -214 156c0 50 19.167 96.333 57.5 139s91.5 78 159.5 106zM1049 613.999l-281 647l-274 -647h555z" />
    <glyph glyph-name="aogonek" unicode="&#x105;" horiz-adv-x="1327" vert-adv-y="1433" 
d="M1134 -12c-54 3.33301 -93.167 15.8281 -117.5 37.4951s-40.5 58.834 -48.5 111.501c-40 -46.667 -91 -84 -153 -112c-92.667 -41.333 -196.667 -62 -312 -62c-162 0 -279.333 39.667 -352 119c-50.667 54.667 -76 123.334 -76 206.001c0 105.333 38 183.333 114 234
c72.667 48.667 188.334 81.334 347.001 98.001l234 25c70 7.33301 118.5 20.333 145.5 39s40.5 49 40.5 91c0 60 -24.833 104.167 -74.5 132.5s-127.167 42.5 -232.5 42.5c-100.667 0 -179 -15.333 -235 -46c-32 -17.333 -55.5 -38.666 -70.5 -63.999
s-24.5 -59.666 -28.5 -102.999h-192c9.33301 69.333 22.666 121.333 39.999 156c72.667 144.667 235.334 217 488.001 217c130.667 0 237 -17.667 319 -53c119.333 -51.333 179 -135.333 179 -252v-578c0 -61.333 31.333 -92 94 -92c20.667 0 44 2.66699 70 8v-143
c-22.667 -3.33301 -40.334 -5.66602 -53.001 -6.99902c-58 -31.333 -102.667 -66.166 -134 -104.499s-47 -77.5 -47 -117.5c0 -57.333 34.667 -86 104 -86c42 0 96.333 6.66699 163 20l25 -72c-73.333 -22.667 -144 -34 -212 -34c-143.333 0 -215 52 -215 156
c0 45.333 16.833 88.666 50.5 129.999s80.167 75.666 139.5 102.999zM956 560.995c-16.667 -17.333 -39.001 -30.333 -67.001 -39s-72.667 -16.667 -134 -24l-231 -29c-85.333 -10.667 -147.333 -29.5 -186 -56.5s-58 -65.167 -58 -114.5c0 -58.667 27.333 -104 82 -136
c44.667 -26 102.334 -39 173.001 -39c68.667 0 133.5 11 194.5 33s110.833 52.333 149.5 91c51.333 51.333 77 110.333 77 177v137z" />
    <glyph glyph-name="Cacute" unicode="&#x106;" horiz-adv-x="1669" vert-adv-y="1433" 
d="M1577 936l-217.002 -0.00195312c-52 250 -219.333 375 -502 375c-184 0 -325.667 -55.333 -425 -166c-92 -102.667 -138 -244 -138 -424c0 -177.333 49 -316.666 147 -417.999s233 -152 405 -152c140.667 0 252.334 32.833 335.001 98.5s142 168.834 178 309.501h217
c-28 -171.333 -98 -307.666 -210 -408.999c-138 -124.667 -312.333 -187 -523 -187c-246 0 -440.333 77.667 -583 233c-122 133.333 -183 311.333 -183 534c0 234 69.667 421 209 561c138 138.667 323 208 555 208c246 0 437.333 -67.667 574 -203
c49.333 -48.667 85.333 -98.334 108 -149.001s40.334 -121 53.001 -211zM722.998 1558l176 287h256l-268 -287h-164z" />
    <glyph glyph-name="cacute" unicode="&#x107;" horiz-adv-x="1290" vert-adv-y="1433" 
d="M1004 393l216.999 -0.00195312c-48.667 -160 -119 -272.667 -211 -338c-87.333 -61.333 -202.666 -92 -345.999 -92c-194.667 0 -344 57.667 -448 173c-92 102 -138 234 -138 396c0 176 52.833 316.333 158.5 421s247.5 157 425.5 157
c312.667 0 497.667 -131.667 555 -395h-217c-34 148.667 -142.333 223 -325 223c-120.667 0 -214.167 -35.167 -280.5 -105.5s-99.5 -169.166 -99.5 -296.499s33.167 -226 99.5 -296s159.833 -105 280.5 -105c92 0 163.167 19.833 213.5 59.5s88.833 105.834 115.5 198.501z
M541.999 1231l176 287h256l-268 -287h-164z" />
    <glyph glyph-name="Ccircumflex" unicode="&#x108;" horiz-adv-x="1669" vert-adv-y="1433" 
d="M1577 936l-217.002 -0.00195312c-52 250 -219.333 375 -502 375c-184 0 -325.667 -55.333 -425 -166c-92 -102.667 -138 -244 -138 -424c0 -177.333 49 -316.666 147 -417.999s233 -152 405 -152c140.667 0 252.334 32.833 335.001 98.5s142 168.834 178 309.501h217
c-28 -171.333 -98 -307.666 -210 -408.999c-138 -124.667 -312.333 -187 -523 -187c-246 0 -440.333 77.667 -583 233c-122 133.333 -183 311.333 -183 534c0 234 69.667 421 209 561c138 138.667 323 208 555 208c246 0 437.333 -67.667 574 -203
c49.333 -48.667 85.333 -98.334 108 -149.001s40.334 -121 53.001 -211zM1004 1559l-176 180l-176 -180h-199l266 286h217l267 -286h-199z" />
    <glyph glyph-name="ccircumflex" unicode="&#x109;" horiz-adv-x="1290" vert-adv-y="1433" 
d="M1004 393l216.999 -0.00195312c-48.667 -160 -119 -272.667 -211 -338c-87.333 -61.333 -202.666 -92 -345.999 -92c-194.667 0 -344 57.667 -448 173c-92 102 -138 234 -138 396c0 176 52.833 316.333 158.5 421s247.5 157 425.5 157
c312.667 0 497.667 -131.667 555 -395h-217c-34 148.667 -142.333 223 -325 223c-120.667 0 -214.167 -35.167 -280.5 -105.5s-99.5 -169.166 -99.5 -296.499s33.167 -226 99.5 -296s159.833 -105 280.5 -105c92 0 163.167 19.833 213.5 59.5s88.833 105.834 115.5 198.501z
M825.999 1231l-176 180l-176 -180h-199l266 287h217l267 -287h-199z" />
    <glyph glyph-name="Cdotaccent" unicode="&#x10a;" horiz-adv-x="1669" vert-adv-y="1433" 
d="M1577 936l-217.002 -0.00195312c-52 250 -219.333 375 -502 375c-184 0 -325.667 -55.333 -425 -166c-92 -102.667 -138 -244 -138 -424c0 -177.333 49 -316.666 147 -417.999s233 -152 405 -152c140.667 0 252.334 32.833 335.001 98.5s142 168.834 178 309.501h217
c-28 -171.333 -98 -307.666 -210 -408.999c-138 -124.667 -312.333 -187 -523 -187c-246 0 -440.333 77.667 -583 233c-122 133.333 -183 311.333 -183 534c0 234 69.667 421 209 561c138 138.667 323 208 555 208c246 0 437.333 -67.667 574 -203
c49.333 -48.667 85.333 -98.334 108 -149.001s40.334 -121 53.001 -211zM733.998 1577v213h205v-213h-205z" />
    <glyph glyph-name="cdotaccent" unicode="&#x10b;" horiz-adv-x="1290" vert-adv-y="1433" 
d="M1004 393l216.999 -0.00195312c-48.667 -160 -119 -272.667 -211 -338c-87.333 -61.333 -202.666 -92 -345.999 -92c-194.667 0 -344 57.667 -448 173c-92 102 -138 234 -138 396c0 176 52.833 316.333 158.5 421s247.5 157 425.5 157
c312.667 0 497.667 -131.667 555 -395h-217c-34 148.667 -142.333 223 -325 223c-120.667 0 -214.167 -35.167 -280.5 -105.5s-99.5 -169.166 -99.5 -296.499s33.167 -226 99.5 -296s159.833 -105 280.5 -105c92 0 163.167 19.833 213.5 59.5s88.833 105.834 115.5 198.501z
M543.999 1249v213h205v-213h-205z" />
    <glyph glyph-name="Ccaron" unicode="&#x10c;" horiz-adv-x="1669" vert-adv-y="1433" 
d="M1577 936l-217.002 -0.00195312c-52 250 -219.333 375 -502 375c-184 0 -325.667 -55.333 -425 -166c-92 -102.667 -138 -244 -138 -424c0 -177.333 49 -316.666 147 -417.999s233 -152 405 -152c140.667 0 252.334 32.833 335.001 98.5s142 168.834 178 309.501h217
c-28 -171.333 -98 -307.666 -210 -408.999c-138 -124.667 -312.333 -187 -523 -187c-246 0 -440.333 77.667 -583 233c-122 133.333 -183 311.333 -183 534c0 234 69.667 421 209 561c138 138.667 323 208 555 208c246 0 437.333 -67.667 574 -203
c49.333 -48.667 85.333 -98.334 108 -149.001s40.334 -121 53.001 -211zM851.998 1665l176 180h199l-267 -286h-217l-266 286h199z" />
    <glyph glyph-name="ccaron" unicode="&#x10d;" horiz-adv-x="1290" vert-adv-y="1433" 
d="M1004 393l216.999 -0.00195312c-48.667 -160 -119 -272.667 -211 -338c-87.333 -61.333 -202.666 -92 -345.999 -92c-194.667 0 -344 57.667 -448 173c-92 102 -138 234 -138 396c0 176 52.833 316.333 158.5 421s247.5 157 425.5 157
c312.667 0 497.667 -131.667 555 -395h-217c-34 148.667 -142.333 223 -325 223c-120.667 0 -214.167 -35.167 -280.5 -105.5s-99.5 -169.166 -99.5 -296.499s33.167 -226 99.5 -296s159.833 -105 280.5 -105c92 0 163.167 19.833 213.5 59.5s88.833 105.834 115.5 198.501z
M658.999 1338l176 180h199l-267 -287h-217l-266 287h199z" />
    <glyph glyph-name="Dcaron" unicode="&#x10e;" horiz-adv-x="1630" vert-adv-y="1433" 
d="M158 0v1462h741c206 0 364.333 -62.333 475 -187c109.333 -122.667 164 -297.667 164 -525c0 -189.333 -36.667 -347.333 -110 -474c-106.667 -184 -278.667 -276 -516 -276h-754zM375 188h526c280 0 420 183.667 420 551c0 356.667 -153.667 535 -461 535h-485v-1086z
M766 1665l176 180h199l-267 -286h-217l-266 286h199z" />
    <glyph glyph-name="dcaron" unicode="&#x10f;" horiz-adv-x="1611" vert-adv-y="1433" 
d="M1073 0l-0.00195312 137.001h-4c-92 -116 -229.333 -174 -412 -174c-171.333 0 -310.666 52.5 -417.999 157.5s-161 241.5 -161 409.5c0 165.333 51 299.666 153 402.999c108.667 110 251.334 165 428.001 165c182 0 318.667 -58 410 -174h4v551h205v-1475h-205z
M683.998 926.001c-118 0 -212.334 -35.833 -283.001 -107.5s-106 -167.167 -106 -286.5c0 -122 35.333 -218.667 106 -290s166.667 -107 288 -107c120.667 0 216.834 35.833 288.501 107.5s107.5 168.167 107.5 289.5c0 120.667 -36 216.5 -108 287.5
s-169.667 106.5 -293 106.5zM1353 1308l-0.000976562 166h203v-146c0 -133.333 -67.667 -213 -203 -239v70c35.333 10.667 59.833 26.167 73.5 46.5s21.834 54.5 24.501 102.5h-98z" />
    <glyph glyph-name="Dcroat" unicode="&#x110;" horiz-adv-x="1630" vert-adv-y="1433" 
d="M157 858v604h741c206 0 364.333 -62.333 475 -187c109.333 -122.667 164 -297.667 164 -525c0 -189.333 -36.667 -347.333 -110 -474c-106.667 -184 -279 -276 -517 -276h-753v711h-143v147h143zM374 858h471v-147h-471v-523h526c280 0 420 183.667 420 551
c0 356.667 -153.667 535 -461 535h-485v-416z" />
    <glyph glyph-name="dcroat" unicode="&#x111;" horiz-adv-x="1403" vert-adv-y="1433" 
d="M1278 1218l-0.000976562 -1218h-205v137h-4c-38.667 -48 -85 -85.667 -139 -113c-81.333 -40.667 -172.333 -61 -273 -61c-84 0 -163 14.333 -237 43s-137 69.334 -189 122.001c-102 103.333 -153 237.333 -153 402c0 165.333 51 299.666 153 402.999
c108.667 110 251.334 165 428.001 165c181.333 0 318 -58 410 -174h4v294h-447v139h447v118h205v-118h164v-139h-164zM683.999 926c-117.333 0 -211.332 -35.333 -281.999 -106c-71.333 -71.333 -107 -167.333 -107 -288c0 -128.667 40.333 -229.667 121 -303
c68 -62.667 158.667 -94 272 -94c129.333 0 229.666 40 300.999 120c64 72 96 164.333 96 277c0 119.333 -35.667 215 -107 287c-71.333 71.333 -169.333 107 -294 107z" />
    <glyph glyph-name="Emacron" unicode="&#x112;" horiz-adv-x="1442" vert-adv-y="1433" 
d="M158 0v1462h1175v-188h-958v-424h930v-188h-930v-474h979v-188h-1196zM355 1605v160h803v-160h-803z" />
    <glyph glyph-name="emacron" unicode="&#x113;" horiz-adv-x="1366" vert-adv-y="1433" 
d="M1282 475l-987.001 0.000976562c12.667 -97.333 49 -174.333 109 -231c78 -72.667 174.667 -109 290 -109c161.333 0 275.333 63.667 342 191h218c-109.333 -242 -297.666 -363 -564.999 -363c-190.667 0 -342 56 -454 168c-104.667 105.333 -157 240.666 -157 405.999
s52.333 300.333 157 405c112.667 112 265 168 457 168c182.667 0 326.667 -54.333 432 -163s158 -257 158 -445v-27zM300.999 635.001h764c-42 202 -166.667 303 -374 303c-102.667 0 -188.167 -26.5 -256.5 -79.5s-112.833 -127.5 -133.5 -223.5zM305.999 1288v160h748
v-160h-748z" />
    <glyph glyph-name="Ebreve" unicode="&#x114;" horiz-adv-x="1442" vert-adv-y="1433" 
d="M158 0v1462h1175v-188h-958v-424h930v-188h-930v-474h979v-188h-1196zM400 1854h135c18.667 -97.333 92.334 -146 221.001 -146s202.667 48.667 222 146h135c-5.33301 -53.333 -15.333 -95.5 -30 -126.5s-37.667 -59.833 -69 -86.5c-64 -53.333 -150 -80 -258 -80
c-120.667 0 -213.334 33 -278.001 99c-24.667 26 -42.667 52.833 -54 80.5s-19.333 65.5 -24 113.5z" />
    <glyph glyph-name="ebreve" unicode="&#x115;" horiz-adv-x="1366" vert-adv-y="1433" 
d="M1282 475l-987.001 0.000976562c12.667 -97.333 49 -174.333 109 -231c78 -72.667 174.667 -109 290 -109c161.333 0 275.333 63.667 342 191h218c-109.333 -242 -297.666 -363 -564.999 -363c-190.667 0 -342 56 -454 168c-104.667 105.333 -157 240.666 -157 405.999
s52.333 300.333 157 405c112.667 112 265 168 457 168c182.667 0 326.667 -54.333 432 -163s158 -257 158 -445v-27zM300.999 635.001h764c-42 202 -166.667 303 -374 303c-102.667 0 -188.167 -26.5 -256.5 -79.5s-112.833 -127.5 -133.5 -223.5zM323.999 1516
l135 0.000976562c18.667 -96.667 92.334 -145 221.001 -145s202.667 48.333 222 145h135c-5.33301 -53.333 -15.333 -95.333 -30 -126s-37.667 -59.334 -69 -86.001c-64 -53.333 -150 -80 -258 -80c-120.667 0 -213.334 33 -278.001 99
c-24.667 25.333 -42.667 51.833 -54 79.5s-19.333 65.5 -24 113.5z" />
    <glyph glyph-name="Edotaccent" unicode="&#x116;" horiz-adv-x="1442" vert-adv-y="1433" 
d="M158 0v1462h1175v-188h-958v-424h930v-188h-930v-474h979v-188h-1196zM645 1577v213h205v-213h-205z" />
    <glyph glyph-name="edotaccent" unicode="&#x117;" horiz-adv-x="1366" vert-adv-y="1433" 
d="M1282 475l-987.001 0.000976562c12.667 -97.333 49 -174.333 109 -231c78 -72.667 174.667 -109 290 -109c161.333 0 275.333 63.667 342 191h218c-109.333 -242 -297.666 -363 -564.999 -363c-190.667 0 -342 56 -454 168c-104.667 105.333 -157 240.666 -157 405.999
s52.333 300.333 157 405c112.667 112 265 168 457 168c182.667 0 326.667 -54.333 432 -163s158 -257 158 -445v-27zM300.999 635.001h764c-42 202 -166.667 303 -374 303c-102.667 0 -188.167 -26.5 -256.5 -79.5s-112.833 -127.5 -133.5 -223.5zM577.999 1249v213h205
v-213h-205z" />
    <glyph glyph-name="Eogonek" unicode="&#x118;" horiz-adv-x="1442" vert-adv-y="1433" 
d="M1209 0h-1051v1462h1175v-188h-958v-424h930v-188h-930v-474h979v-188h-35c-128.667 -68.667 -193 -145 -193 -229c0 -57.333 34.667 -86 104 -86c41.333 0 95.666 6.66699 162.999 20l24 -72c-72.667 -22.667 -143 -34 -211 -34c-143.333 0 -215 52 -215 156
c0 50 19.167 96.333 57.5 139s91.833 78 160.5 106z" />
    <glyph glyph-name="eogonek" unicode="&#x119;" horiz-adv-x="1366" vert-adv-y="1433" 
d="M693 -37c-168.667 0 -307.668 44 -417.001 132c-132 106 -198 253.333 -198 442c0 165.333 52.333 300.333 157 405c112.667 112 265 168 457 168c189.333 0 338 -59.333 446 -178c96 -106.667 144 -250 144 -430v-27h-987c8.66699 -68 27 -123 55 -165
c35.333 -54 83.5 -96.5 144.5 -127.5s127.5 -46.5 199.5 -46.5c81.333 0 150.333 15.667 207 47s101.667 79 135 143h218c-76 -187.333 -214.667 -303 -416 -347c-47.333 -28.667 -84.666 -61.5 -111.999 -98.5s-41 -73.5 -41 -109.5c0 -57.333 34.667 -86 104 -86
c40 0 94.333 6.66699 163 20l24 -71c-72 -23.333 -142.667 -35 -212 -35c-142.667 0 -214 52.333 -214 157c0 80 47.667 149 143 207zM300.999 635h764c-14 66.667 -35.333 119.667 -64 159c-70 96 -173.333 144 -310 144c-108.667 0 -200 -31.667 -274 -95
c-32 -27.333 -56.667 -56.5 -74 -87.5s-31.333 -71.167 -42 -120.5z" />
    <glyph glyph-name="Ecaron" unicode="&#x11a;" horiz-adv-x="1442" vert-adv-y="1433" 
d="M158 0v1462h1175v-188h-958v-424h930v-188h-930v-474h979v-188h-1196zM753 1665l176 180h199l-267 -286h-217l-266 286h199z" />
    <glyph glyph-name="ecaron" unicode="&#x11b;" horiz-adv-x="1366" vert-adv-y="1433" 
d="M1282 475l-987.001 0.000976562c12.667 -97.333 49 -174.333 109 -231c78 -72.667 174.667 -109 290 -109c161.333 0 275.333 63.667 342 191h218c-109.333 -242 -297.666 -363 -564.999 -363c-190.667 0 -342 56 -454 168c-104.667 105.333 -157 240.666 -157 405.999
s52.333 300.333 157 405c112.667 112 265 168 457 168c182.667 0 326.667 -54.333 432 -163s158 -257 158 -445v-27zM300.999 635.001h764c-42 202 -166.667 303 -374 303c-102.667 0 -188.167 -26.5 -256.5 -79.5s-112.833 -127.5 -133.5 -223.5zM679.999 1338l176 180h199
l-267 -287h-217l-266 287h199z" />
    <glyph glyph-name="Gcircumflex" unicode="&#x11c;" horiz-adv-x="1782" vert-adv-y="1433" 
d="M958 600l0.00195312 187.998h672v-788h-156l-37 209c-77.333 -87.333 -159.833 -150.166 -247.5 -188.499s-193.167 -57.5 -316.5 -57.5c-252.667 0 -448 77.667 -586 233c-122 136.667 -183 310.667 -183 522c0 252 79 449.333 237 592c140 126 321 189 543 189
c222.667 0 399 -55 529 -165c49.333 -42 87.666 -86.667 114.999 -134s53 -113.666 77 -198.999h-229c-40.667 108.667 -99.5 187.334 -176.5 236.001s-180.833 73 -311.5 73c-184 0 -326 -56.667 -426 -170c-94 -106 -141 -246 -141 -420
c0 -188.667 55.667 -333.334 167 -434.001c100 -90 233.333 -135 400 -135c156 0 281.667 39 377 117s152.666 188.667 171.999 332h-479zM1067 1559l-176 180l-176 -180h-199l266 286h217l267 -286h-199z" />
    <glyph glyph-name="gcircumflex" unicode="&#x11d;" horiz-adv-x="1403" vert-adv-y="1433" 
d="M1085 915l0.000976562 157.999h205v-983c0 -188.667 -47.667 -325.667 -143 -411c-96.667 -86.667 -257.667 -130 -483 -130c-172.667 0 -299.667 25.167 -381 75.5s-134 136.5 -158 258.5h204c20 -63.333 56 -108.166 108 -134.499s130.333 -39.5 235 -39.5
c275.333 0 413 108 413 324v155h-4c-99.333 -132 -237.333 -198 -414 -198c-128.667 0 -241.334 27.667 -338.001 83c-168 96 -252 252.667 -252 470c0 218 84 375.333 252 472c96 55.333 207.333 83 334 83c190 0 329.333 -61 418 -183h4zM685.001 925.999
c-117.333 0 -211.833 -35.333 -283.5 -106s-107.5 -163.667 -107.5 -279s35.833 -207.333 107.5 -276s167.5 -103 287.5 -103s216 34.5 288 103.5s108 160.833 108 275.5c0 116.667 -36.333 210 -109 280s-169.667 105 -291 105zM860.001 1231l-176 180l-176 -180h-199
l266 287h217l267 -287h-199z" />
    <glyph glyph-name="Gbreve" unicode="&#x11e;" horiz-adv-x="1782" vert-adv-y="1433" 
d="M958 600l0.00195312 187.998h672v-788h-156l-37 209c-77.333 -87.333 -159.833 -150.166 -247.5 -188.499s-193.167 -57.5 -316.5 -57.5c-252.667 0 -448 77.667 -586 233c-122 136.667 -183 310.667 -183 522c0 252 79 449.333 237 592c140 126 321 189 543 189
c222.667 0 399 -55 529 -165c49.333 -42 87.666 -86.667 114.999 -134s53 -113.666 77 -198.999h-229c-40.667 108.667 -99.5 187.334 -176.5 236.001s-180.833 73 -311.5 73c-184 0 -326 -56.667 -426 -170c-94 -106 -141 -246 -141 -420
c0 -188.667 55.667 -333.334 167 -434.001c100 -90 233.333 -135 400 -135c156 0 281.667 39 377 117s152.666 188.667 171.999 332h-479zM529.002 1854h135c18.667 -97.333 92.334 -146 221.001 -146s202.667 48.667 222 146h135
c-5.33301 -53.333 -15.333 -95.5 -30 -126.5s-37.667 -59.833 -69 -86.5c-64 -53.333 -150 -80 -258 -80c-120.667 0 -213.334 33 -278.001 99c-24.667 26 -42.667 52.833 -54 80.5s-19.333 65.5 -24 113.5z" />
    <glyph glyph-name="gbreve" unicode="&#x11f;" horiz-adv-x="1403" vert-adv-y="1433" 
d="M1085 915l0.000976562 157.999h205v-983c0 -188.667 -47.667 -325.667 -143 -411c-96.667 -86.667 -257.667 -130 -483 -130c-172.667 0 -299.667 25.167 -381 75.5s-134 136.5 -158 258.5h204c20 -63.333 56 -108.166 108 -134.499s130.333 -39.5 235 -39.5
c275.333 0 413 108 413 324v155h-4c-99.333 -132 -237.333 -198 -414 -198c-128.667 0 -241.334 27.667 -338.001 83c-168 96 -252 252.667 -252 470c0 218 84 375.333 252 472c96 55.333 207.333 83 334 83c190 0 329.333 -61 418 -183h4zM685.001 925.999
c-117.333 0 -211.833 -35.333 -283.5 -106s-107.5 -163.667 -107.5 -279s35.833 -207.333 107.5 -276s167.5 -103 287.5 -103s216 34.5 288 103.5s108 160.833 108 275.5c0 116.667 -36.333 210 -109 280s-169.667 105 -291 105zM328.001 1516l135 0.000976562
c18.667 -96.667 92.334 -145 221.001 -145s202.667 48.333 222 145h135c-5.33301 -53.333 -15.333 -95.333 -30 -126s-37.667 -59.334 -69 -86.001c-64 -53.333 -150 -80 -258 -80c-120.667 0 -213.334 33 -278.001 99c-24.667 25.333 -42.667 51.833 -54 79.5
s-19.333 65.5 -24 113.5z" />
    <glyph glyph-name="Gdotaccent" unicode="&#x120;" horiz-adv-x="1782" vert-adv-y="1433" 
d="M958 600l0.00195312 187.998h672v-788h-156l-37 209c-77.333 -87.333 -159.833 -150.166 -247.5 -188.499s-193.167 -57.5 -316.5 -57.5c-252.667 0 -448 77.667 -586 233c-122 136.667 -183 310.667 -183 522c0 252 79 449.333 237 592c140 126 321 189 543 189
c222.667 0 399 -55 529 -165c49.333 -42 87.666 -86.667 114.999 -134s53 -113.666 77 -198.999h-229c-40.667 108.667 -99.5 187.334 -176.5 236.001s-180.833 73 -311.5 73c-184 0 -326 -56.667 -426 -170c-94 -106 -141 -246 -141 -420
c0 -188.667 55.667 -333.334 167 -434.001c100 -90 233.333 -135 400 -135c156 0 281.667 39 377 117s152.666 188.667 171.999 332h-479zM783.002 1577v213h205v-213h-205z" />
    <glyph glyph-name="gdotaccent" unicode="&#x121;" horiz-adv-x="1403" vert-adv-y="1433" 
d="M1085 915l0.000976562 157.999h205v-983c0 -188.667 -47.667 -325.667 -143 -411c-96.667 -86.667 -257.667 -130 -483 -130c-172.667 0 -299.667 25.167 -381 75.5s-134 136.5 -158 258.5h204c20 -63.333 56 -108.166 108 -134.499s130.333 -39.5 235 -39.5
c275.333 0 413 108 413 324v155h-4c-99.333 -132 -237.333 -198 -414 -198c-128.667 0 -241.334 27.667 -338.001 83c-168 96 -252 252.667 -252 470c0 218 84 375.333 252 472c96 55.333 207.333 83 334 83c190 0 329.333 -61 418 -183h4zM685.001 925.999
c-117.333 0 -211.833 -35.333 -283.5 -106s-107.5 -163.667 -107.5 -279s35.833 -207.333 107.5 -276s167.5 -103 287.5 -103s216 34.5 288 103.5s108 160.833 108 275.5c0 116.667 -36.333 210 -109 280s-169.667 105 -291 105zM585.001 1249v213h205v-213h-205z" />
    <glyph glyph-name="Gcommaaccent" unicode="&#x122;" horiz-adv-x="1782" vert-adv-y="1433" 
d="M958 600l0.00195312 187.998h672v-788h-156l-37 209c-77.333 -87.333 -159.833 -150.166 -247.5 -188.499s-193.167 -57.5 -316.5 -57.5c-252.667 0 -448 77.667 -586 233c-122 136.667 -183 310.667 -183 522c0 252 79 449.333 237 592c140 126 321 189 543 189
c222.667 0 399 -55 529 -165c49.333 -42 87.666 -86.667 114.999 -134s53 -113.666 77 -198.999h-229c-40.667 108.667 -99.5 187.334 -176.5 236.001s-180.833 73 -311.5 73c-184 0 -326 -56.667 -426 -170c-94 -106 -141 -246 -141 -420
c0 -188.667 55.667 -333.334 167 -434.001c100 -90 233.333 -135 400 -135c156 0 281.667 39 377 117s152.666 188.667 171.999 332h-479zM796.002 -244.002l-0.000976562 165.999h203v-146c0 -133.333 -67.667 -213 -203 -239v70c35.333 10.667 59.833 26.334 73.5 47.001
s21.834 54.667 24.501 102h-98z" />
    <glyph glyph-name="gcommaaccent" unicode="&#x123;" horiz-adv-x="1403" vert-adv-y="1433" 
d="M1085 915l0.000976562 157.999h205v-983c0 -188.667 -47.667 -325.667 -143 -411c-96.667 -86.667 -257.667 -130 -483 -130c-172.667 0 -299.667 25.167 -381 75.5s-134 136.5 -158 258.5h204c20 -63.333 56 -108.166 108 -134.499s130.333 -39.5 235 -39.5
c275.333 0 413 108 413 324v155h-4c-99.333 -132 -237.333 -198 -414 -198c-128.667 0 -241.334 27.667 -338.001 83c-168 96 -252 252.667 -252 470c0 218 84 375.333 252 472c96 55.333 207.333 83 334 83c190 0 329.333 -61 418 -183h4zM685.001 925.999
c-117.333 0 -211.833 -35.333 -283.5 -106s-107.5 -163.667 -107.5 -279s35.833 -207.333 107.5 -276s167.5 -103 287.5 -103s216 34.5 288 103.5s108 160.833 108 275.5c0 116.667 -36.333 210 -109 280s-169.667 105 -291 105zM777.001 1372l0.000976562 -166h-203v146
c0 133.333 67.667 213 203 239v-70c-35.333 -10.667 -59.833 -26.167 -73.5 -46.5s-21.834 -54.5 -24.501 -102.5h98z" />
    <glyph glyph-name="Hcircumflex" unicode="&#x124;" horiz-adv-x="1745" vert-adv-y="1433" 
d="M1371 0v689h-996v-689h-217v1462h217v-585h996v585h217v-1462h-217zM1049 1559l-176 180l-176 -180h-199l266 286h217l267 -286h-199z" />
    <glyph glyph-name="hcircumflex" unicode="&#x125;" horiz-adv-x="1329" vert-adv-y="1433" 
d="M125 0l0.000976562 1475h205v-564h4c93.333 132.667 234.666 199 423.999 199c112.667 0 206.667 -21.667 282 -65c109.333 -64 164 -168.667 164 -314v-731h-205v690c0 165.333 -102.667 248 -308 248c-109.333 0 -196.833 -29 -262.5 -87s-98.5 -135.667 -98.5 -233
v-618h-205zM438.001 1559l-176 180l-176 -180h-199l266 286h217l267 -286h-199z" />
    <glyph glyph-name="Hbar" unicode="&#x126;" horiz-adv-x="1745" vert-adv-y="1433" 
d="M1587 1122v-1122h-217v689h-996v-689h-217v1122h-96v160h96v180h217v-180h996v180h217v-180h96v-160h-96zM1370 1122h-996v-245h996v245z" />
    <glyph glyph-name="hbar" unicode="&#x127;" horiz-adv-x="1329" vert-adv-y="1433" 
d="M330 1222l-0.000976562 -311h4c44 62 95 108.333 153 139c76 40 166.333 60 271 60c112.667 0 206.334 -21.667 281.001 -65c110 -64 165 -168.667 165 -314v-731h-205v690c0 165.333 -103 248 -309 248c-102.667 0 -186.667 -26.333 -252 -79
c-72 -58.667 -108 -139 -108 -241v-618h-205v1222h-88v160h88v93h205v-93h455v-160h-455z" />
    <glyph glyph-name="Itilde" unicode="&#x128;" horiz-adv-x="569" vert-adv-y="1433" 
d="M176 0v1462h217v-1462h-217zM0 1575h-120.999c8 64.667 24.667 116 50 154c43.333 65.333 104.666 98 183.999 98c56 0 122.667 -16.333 200 -49c68 -28.667 121.667 -43 161 -43c26.667 0 47.167 6.83301 61.5 20.5s25.5 37.5 33.5 71.5h121
c-8 -64.667 -24.667 -116 -50 -154c-43.333 -65.333 -105 -98 -185 -98c-55.333 0 -121.666 16.333 -198.999 49c-67.333 28.667 -121 43 -161 43c-26.667 0 -47.334 -7 -62.001 -21s-25.667 -37.667 -33 -71z" />
    <glyph glyph-name="itilde" unicode="&#x129;" horiz-adv-x="455" vert-adv-y="1433" 
d="M125 0v1073h205v-1073h-205zM-57 1247h-120.999c8 64.667 24.667 116 50 154c43.333 65.333 104.666 98 183.999 98c56 0 122.667 -16.333 200 -49c68 -28.667 121.667 -43 161 -43c26.667 0 47.167 7 61.5 21s25.5 37.667 33.5 71h121c-8 -64.667 -24.667 -116 -50 -154
c-43.333 -65.333 -105.333 -98 -186 -98c-54.667 0 -120.667 16.333 -198 49c-67.333 28.667 -121.333 43 -162 43c-26 0 -46.167 -7 -60.5 -21s-25.5 -37.667 -33.5 -71z" />
    <glyph glyph-name="Imacron" unicode="&#x12a;" horiz-adv-x="569" vert-adv-y="1433" 
d="M176 0v1462h217v-1462h-217zM-117 1605v160h803v-160h-803z" />
    <glyph glyph-name="imacron" unicode="&#x12b;" horiz-adv-x="455" vert-adv-y="1433" 
d="M125 0v1073h205v-1073h-205zM-147 1288v160h748v-160h-748z" />
    <glyph glyph-name="Ibreve" unicode="&#x12c;" horiz-adv-x="569" vert-adv-y="1433" 
d="M176 0v1462h217v-1462h-217zM-72 1854h135c18.667 -97.333 92.334 -146 221.001 -146s202.667 48.667 222 146h135c-5.33301 -53.333 -15.333 -95.5 -30 -126.5s-37.667 -59.833 -69 -86.5c-64 -53.333 -150 -80 -258 -80c-120.667 0 -213.334 33 -278.001 99
c-24.667 26 -42.667 52.833 -54 80.5s-19.333 65.5 -24 113.5z" />
    <glyph glyph-name="ibreve" unicode="&#x12d;" horiz-adv-x="455" vert-adv-y="1433" 
d="M125 0v1073h205v-1073h-205zM-129 1516l135 0.000976562c18.667 -96.667 92.334 -145 221.001 -145s202.667 48.333 222 145h135c-5.33301 -53.333 -15.333 -95.333 -30 -126s-37.667 -59.334 -69 -86.001c-64 -53.333 -150 -80 -258 -80
c-120.667 0 -213.334 33 -278.001 99c-24.667 25.333 -42.667 51.833 -54 79.5s-19.333 65.5 -24 113.5z" />
    <glyph glyph-name="Iogonek" unicode="&#x12e;" horiz-adv-x="569" vert-adv-y="1433" 
d="M268 0l-91 -0.000976562v1462h217v-1462h-15c-62 -32.667 -109.667 -68.667 -143 -108s-50 -79.666 -50 -120.999c0 -58 34.667 -87 104 -87c38 0 92.333 7 163 21l24 -72c-73.333 -23.333 -144 -35 -212 -35c-142.667 0 -214 52.333 -214 157
c0 49.333 19.167 95.5 57.5 138.5s91.5 78.5 159.5 106.5z" />
    <glyph glyph-name="iogonek" unicode="&#x12f;" horiz-adv-x="455" vert-adv-y="1433" 
d="M198 0l-73.001 0.00195312v1073h205v-1073h-21c-62 -32.667 -109.667 -68.667 -143 -108s-50 -80 -50 -122c0 -57.333 35.333 -86 106 -86c39.333 0 93 7 161 21l24 -72c-71.333 -23.333 -141.666 -35 -210.999 -35c-143.333 0 -215 52.333 -215 157
c0 49.333 19.167 95.666 57.5 138.999s91.5 78.666 159.5 105.999zM124.999 1250v225h205v-225h-205z" />
    <glyph glyph-name="Idotaccent" unicode="&#x130;" horiz-adv-x="569" vert-adv-y="1433" 
d="M176 0v1462h217v-1462h-217zM182 1577v213h205v-213h-205z" />
    <glyph glyph-name="dotlessi" unicode="&#x131;" horiz-adv-x="455" vert-adv-y="1433" 
d="M125 0v1073h205v-1073h-205z" />
    <glyph glyph-name="Jcircumflex" unicode="&#x134;" horiz-adv-x="1176" vert-adv-y="1433" 
d="M47 498h205v-70c0 -195.333 95.667 -293 287 -293c181.333 0 272 97 272 291v1036h217v-991c0 -338.667 -162.333 -508 -487 -508c-237.333 0 -389 83.667 -455 251c-25.333 65.333 -38.333 160 -39 284zM1084 1559l-176 180l-176 -180h-199l266 286h217l267 -286h-199z
" />
    <glyph glyph-name="jcircumflex" unicode="&#x135;" horiz-adv-x="455" vert-adv-y="1433" 
d="M-106 -410l-0.000976562 172c18.667 -2.66699 42.334 -4 71.001 -4c56.667 0 97.5 10 122.5 30s37.5 53 37.5 99v1186h205v-1139c0 -134 -28.333 -227 -85 -279c-51.333 -46 -134.333 -69 -249 -69c-13.333 0 -47.333 1.33301 -102 4zM380.999 1231l-176 180l-176 -180
h-199l266 287h217l267 -287h-199z" />
    <glyph glyph-name="Kcommaaccent" unicode="&#x136;" horiz-adv-x="1554" vert-adv-y="1433" 
d="M1247 0l-598 713l-266 -236v-477h-217v1462h217v-735l817 735h307l-694 -606l733 -856h-299zM733 -235l-0.000976562 165.999h203v-146c0 -133.333 -67.667 -213 -203 -239v70c35.333 10.667 59.833 26.334 73.5 47.001s21.834 54.667 24.501 102h-98z" />
    <glyph glyph-name="kcommaaccent" unicode="&#x137;" horiz-adv-x="1214" vert-adv-y="1433" 
d="M346 614l545 459h311l-504 -403l543 -670h-279l-428 536l-188 -149v-387h-205v1475h205v-861zM553 -234l-0.000976562 166h203v-146c0 -133.333 -67.667 -213.333 -203 -240v70c35.333 10.667 59.833 26.5 73.5 47.5s21.834 55.167 24.501 102.5h-98z" />
    <glyph glyph-name="Lacute" unicode="&#x139;" horiz-adv-x="1290" vert-adv-y="1433" 
d="M166 0v1462h217v-1274h889v-188h-1106zM192 1558l176 287h256l-268 -287h-164z" />
    <glyph glyph-name="lacute" unicode="&#x13a;" horiz-adv-x="455" vert-adv-y="1433" 
d="M125 0v1475h205v-1475h-205zM141 1542l176 287h256l-268 -287h-164z" />
    <glyph glyph-name="Lcommaaccent" unicode="&#x13b;" horiz-adv-x="1290" vert-adv-y="1433" 
d="M166 0v1462h217v-1274h889v-188h-1106zM617 -235l-0.000976562 165.999h203v-146c0 -133.333 -67.667 -213 -203 -239v70c35.333 10.667 59.833 26.334 73.5 47.001s21.834 54.667 24.501 102h-98z" />
    <glyph glyph-name="lcommaaccent" unicode="&#x13c;" horiz-adv-x="455" vert-adv-y="1433" 
d="M125 0v1475h205v-1475h-205zM126 -234l-0.000976562 166h203v-146c0 -133.333 -67.667 -213.333 -203 -240v70c35.333 10.667 59.833 26.5 73.5 47.5s21.834 55.167 24.501 102.5h-98z" />
    <glyph glyph-name="Lcaron" unicode="&#x13d;" horiz-adv-x="1290" vert-adv-y="1433" 
d="M166 0v1462h217v-1274h889v-188h-1106zM747 1296l-0.000976562 166h203v-146c0 -133.333 -67.667 -213 -203 -239v70c35.333 10 59.833 25.5 73.5 46.5s21.834 55.167 24.501 102.5h-98z" />
    <glyph glyph-name="lcaron" unicode="&#x13e;" horiz-adv-x="670" vert-adv-y="1433" 
d="M125 0v1475h205v-1475h-205zM398 1308l-0.000976562 166h203v-146c0 -133.333 -67.667 -213 -203 -239v70c35.333 10.667 59.833 26.167 73.5 46.5s21.834 54.5 24.501 102.5h-98z" />
    <glyph glyph-name="Ldot" unicode="&#x13f;" horiz-adv-x="1290" vert-adv-y="1433" 
d="M166 0v1462h217v-1274h889v-188h-1106zM742 800c41.333 0 76.666 -14.833 105.999 -44.5s44 -65.5 44 -107.5s-14.833 -77.667 -44.5 -107s-65.167 -44 -106.5 -44c-42.667 0 -78.667 14.667 -108 44s-44 65 -44 107c0 42.667 14.833 78.667 44.5 108
s65.834 44 108.501 44z" />
    <glyph glyph-name="ldot" unicode="&#x140;" horiz-adv-x="763" vert-adv-y="1433" 
d="M125 0v1475h205v-1475h-205zM548 785c41.333 0 76.666 -14.833 105.999 -44.5s44 -65.5 44 -107.5s-14.833 -77.667 -44.5 -107s-65.167 -44 -106.5 -44c-42.667 0 -78.667 14.667 -108 44s-44 65 -44 107c0 42.667 14.833 78.667 44.5 108s65.834 44 108.501 44z" />
    <glyph glyph-name="Lslash" unicode="&#x141;" horiz-adv-x="1290" vert-adv-y="1433" 
d="M383 778l430 295v-172l-430 -295v-418h889v-188h-1106v458l-160 -110v172l160 110v832h217v-684z" />
    <glyph glyph-name="lslash" unicode="&#x142;" horiz-adv-x="455" vert-adv-y="1433" 
d="M330 889l112 86v-172l-112 -86v-717h-205v561l-113 -86v172l113 86v742h205v-586z" />
    <glyph glyph-name="Nacute" unicode="&#x143;" horiz-adv-x="1745" vert-adv-y="1433" 
d="M1327 0l-940 1163h-4v-1163h-217v1462h252l940 -1163h4v1163h217v-1462h-252zM729 1558l176 287h256l-268 -287h-164z" />
    <glyph glyph-name="nacute" unicode="&#x144;" horiz-adv-x="1329" vert-adv-y="1433" 
d="M125 0l0.000976562 1073h205v-162h4c93.333 132.667 234.666 199 423.999 199c112.667 0 206.667 -21.667 282 -65c109.333 -64 164 -168.667 164 -314v-731h-205v690c0 165.333 -102.667 248 -308 248c-110 0 -197.667 -29 -263 -87s-98 -135.667 -98 -233v-618h-205z
M572.001 1231l176 287h256l-268 -287h-164z" />
    <glyph glyph-name="Ncommaaccent" unicode="&#x145;" horiz-adv-x="1745" vert-adv-y="1433" 
d="M1327 0l-940 1163h-4v-1163h-217v1462h252l940 -1163h4v1163h217v-1462h-252zM771 -235l-0.000976562 165.999h203v-146c0 -133.333 -67.667 -213 -203 -239v70c35.333 10.667 59.833 26.334 73.5 47.001s21.834 54.667 24.501 102h-98z" />
    <glyph glyph-name="ncommaaccent" unicode="&#x146;" horiz-adv-x="1329" vert-adv-y="1433" 
d="M125 0l0.000976562 1073h205v-162h4c93.333 132.667 234.666 199 423.999 199c112.667 0 206.667 -21.667 282 -65c109.333 -64 164 -168.667 164 -314v-731h-205v690c0 165.333 -102.667 248 -308 248c-110 0 -197.667 -29 -263 -87s-98 -135.667 -98 -233v-618h-205z
M563.001 -234l-0.000976562 166h203v-146c0 -133.333 -67.667 -213.333 -203 -240v70c35.333 10.667 59.833 26.5 73.5 47.5s21.834 55.167 24.501 102.5h-98z" />
    <glyph glyph-name="Ncaron" unicode="&#x147;" horiz-adv-x="1745" vert-adv-y="1433" 
d="M1327 0l-940 1163h-4v-1163h-217v1462h252l940 -1163h4v1163h217v-1462h-252zM873 1665l176 180h199l-267 -286h-217l-266 286h199z" />
    <glyph glyph-name="ncaron" unicode="&#x148;" horiz-adv-x="1329" vert-adv-y="1433" 
d="M125 0l0.000976562 1073h205v-162h4c93.333 132.667 234.666 199 423.999 199c112.667 0 206.667 -21.667 282 -65c109.333 -64 164 -168.667 164 -314v-731h-205v690c0 165.333 -102.667 248 -308 248c-110 0 -197.667 -29 -263 -87s-98 -135.667 -98 -233v-618h-205z
M674.001 1338l176 180h199l-267 -287h-217l-266 287h199z" />
    <glyph glyph-name="napostrophe" unicode="&#x149;" horiz-adv-x="1492" vert-adv-y="1433" 
d="M288 0l0.000976562 1073h205v-162h4c93.333 132.667 234.666 199 423.999 199c112.667 0 206.667 -21.667 282 -65c109.333 -64 164 -168.667 164 -314v-731h-205v690c0 165.333 -102.667 248 -308 248c-110 0 -197.667 -29 -263 -87s-98 -135.667 -98 -233v-618h-205z
M74.001 1305l-0.000976562 166h203v-146c0 -133.333 -67.667 -213 -203 -239v70c35.333 10.667 59.833 26.167 73.5 46.5s21.834 54.5 24.501 102.5h-98z" />
    <glyph glyph-name="Omacron" unicode="&#x14c;" horiz-adv-x="1782" vert-adv-y="1433" 
d="M900 1499c265.333 0 470.667 -80.999 616 -242.999c125.333 -138.667 188 -313.667 188 -525c0 -240.667 -79 -432.334 -237 -575.001c-142.667 -128.667 -334.667 -193 -576 -193c-271.333 0 -480 81 -626 243c-124.667 138.667 -187 313.667 -187 525
c0 241.333 79 433 237 575c142 128.667 337 193 585 193zM885.001 1311c-180 0 -323.334 -52.333 -430.001 -157s-160 -245.667 -160 -423c0 -188 59 -334 177 -438c106.667 -94.667 246.334 -142 419.001 -142c183.333 0 328.5 52.167 435.5 156.5s160.5 245.5 160.5 423.5
c0 188 -58.667 334 -176 438c-106.667 94.667 -248.667 142 -426 142zM490 1605v160h803v-160h-803z" />
    <glyph glyph-name="omacron" unicode="&#x14d;" horiz-adv-x="1401" vert-adv-y="1433" 
d="M707 1110c193.333 0 346.333 -56 459 -168c104.667 -104.667 157 -240 157 -406c0 -174 -56.5 -313 -169.5 -417s-264.167 -156 -453.5 -156c-188.667 0 -339.5 52 -452.5 156s-169.5 242.667 -169.5 416c0 176 56.667 315.833 170 419.5s266.333 155.5 459 155.5z
M696 938c-122 0 -219.333 -36.3311 -292 -108.998s-109 -170.334 -109 -293.001c0 -123.333 36.5 -221 109.5 -293s171.5 -108 295.5 -108c125.333 0 224.333 36.167 297 108.5s109 170.166 109 293.499c0 124 -36.667 221.833 -110 293.5s-173.333 107.5 -300 107.5z
M326 1288v160h748v-160h-748z" />
    <glyph glyph-name="Obreve" unicode="&#x14e;" horiz-adv-x="1782" vert-adv-y="1433" 
d="M900 1499c265.333 0 470.667 -80.999 616 -242.999c125.333 -138.667 188 -313.667 188 -525c0 -240.667 -79 -432.334 -237 -575.001c-142.667 -128.667 -334.667 -193 -576 -193c-271.333 0 -480 81 -626 243c-124.667 138.667 -187 313.667 -187 525
c0 241.333 79 433 237 575c142 128.667 337 193 585 193zM885.001 1311c-180 0 -323.334 -52.333 -430.001 -157s-160 -245.667 -160 -423c0 -188 59 -334 177 -438c106.667 -94.667 246.334 -142 419.001 -142c183.333 0 328.5 52.167 435.5 156.5s160.5 245.5 160.5 423.5
c0 188 -58.667 334 -176 438c-106.667 94.667 -248.667 142 -426 142zM535 1854h135c18.667 -97.333 92.334 -146 221.001 -146s202.667 48.667 222 146h135c-5.33301 -53.333 -15.333 -95.5 -30 -126.5s-37.667 -59.833 -69 -86.5c-64 -53.333 -150 -80 -258 -80
c-120.667 0 -213.334 33 -278.001 99c-24.667 26 -42.667 52.833 -54 80.5s-19.333 65.5 -24 113.5z" />
    <glyph glyph-name="obreve" unicode="&#x14f;" horiz-adv-x="1401" vert-adv-y="1433" 
d="M707 1110c193.333 0 346.333 -56 459 -168c104.667 -104.667 157 -240 157 -406c0 -174 -56.5 -313 -169.5 -417s-264.167 -156 -453.5 -156c-188.667 0 -339.5 52 -452.5 156s-169.5 242.667 -169.5 416c0 176 56.667 315.833 170 419.5s266.333 155.5 459 155.5z
M696 938c-122 0 -219.333 -36.3311 -292 -108.998s-109 -170.334 -109 -293.001c0 -123.333 36.5 -221 109.5 -293s171.5 -108 295.5 -108c125.333 0 224.333 36.167 297 108.5s109 170.166 109 293.499c0 124 -36.667 221.833 -110 293.5s-173.333 107.5 -300 107.5z
M344 1516l135 0.000976562c18.667 -96.667 92.334 -145 221.001 -145s202.667 48.333 222 145h135c-5.33301 -53.333 -15.333 -95.333 -30 -126s-37.667 -59.334 -69 -86.001c-64 -53.333 -150 -80 -258 -80c-120.667 0 -213.334 33 -278.001 99
c-24.667 25.333 -42.667 51.833 -54 79.5s-19.333 65.5 -24 113.5z" />
    <glyph glyph-name="Ohungarumlaut" unicode="&#x150;" horiz-adv-x="1782" vert-adv-y="1433" 
d="M900 1499c265.333 0 470.667 -80.999 616 -242.999c125.333 -138.667 188 -313.667 188 -525c0 -240.667 -79 -432.334 -237 -575.001c-142.667 -128.667 -334.667 -193 -576 -193c-271.333 0 -480 81 -626 243c-124.667 138.667 -187 313.667 -187 525
c0 241.333 79 433 237 575c142 128.667 337 193 585 193zM885.001 1311c-180 0 -323.334 -52.333 -430.001 -157s-160 -245.667 -160 -423c0 -188 59 -334 177 -438c106.667 -94.667 246.334 -142 419.001 -142c183.333 0 328.5 52.167 435.5 156.5s160.5 245.5 160.5 423.5
c0 188 -58.667 334 -176 438c-106.667 94.667 -248.667 142 -426 142zM970 1581l176 287h256l-268 -287h-164zM554 1581l176 287h256l-268 -287h-164z" />
    <glyph glyph-name="ohungarumlaut" unicode="&#x151;" horiz-adv-x="1401" vert-adv-y="1433" 
d="M707 1110c193.333 0 346.333 -56 459 -168c104.667 -104.667 157 -240 157 -406c0 -174 -56.5 -313 -169.5 -417s-264.167 -156 -453.5 -156c-188.667 0 -339.5 52 -452.5 156s-169.5 242.667 -169.5 416c0 176 56.667 315.833 170 419.5s266.333 155.5 459 155.5z
M696 938c-122 0 -219.333 -36.3311 -292 -108.998s-109 -170.334 -109 -293.001c0 -123.333 36.5 -221 109.5 -293s171.5 -108 295.5 -108c125.333 0 224.333 36.167 297 108.5s109 170.166 109 293.499c0 124 -36.667 221.833 -110 293.5s-173.333 107.5 -300 107.5z
M787 1231l176 287h256l-268 -287h-164zM374 1231l176 287h256l-268 -287h-164z" />
    <glyph glyph-name="OE" unicode="&#x152;" horiz-adv-x="2390" vert-adv-y="1433" 
d="M1236 0v165h-4c-112.667 -134.667 -261 -202 -445 -202c-226.667 0 -403 88 -529 264c-102.667 142 -154 310 -154 504c0 210 58.333 387.667 175 533c126 156.667 296.667 235 512 235c186 0 334.333 -60 445 -180v143h1049v-188h-850v-424h821v-188h-821v-474h866v-188
h-1065zM1230 461v568.998c0 67.333 -43.333 132 -130 194c-80.667 58 -176 87 -286 87c-149.333 0 -269 -50.333 -359 -151c-89.333 -100 -134 -243 -134 -429c0 -205.333 55.333 -358.666 166 -459.999c86 -79.333 193.667 -119 323 -119c128.667 0 238 44.333 328 133
c61.333 60.667 92 119.334 92 176.001z" />
    <glyph glyph-name="oe" unicode="&#x153;" horiz-adv-x="2275" vert-adv-y="1433" 
d="M2214 475l-954 0.000976562c26 -226.667 147.667 -340 365 -340c162 0 276.333 63.667 343 191h217c-108.667 -242 -297 -363 -565 -363c-200 0 -355.667 71 -467 213c-116 -142 -275 -213 -477 -213c-201.333 0 -355.333 59 -462 177
c-90.667 101.333 -136 232.666 -136 393.999c0 166.667 52.333 302 157 406c113.333 113.333 262.333 170 447 170c202 0 364 -73.667 486 -221c120.667 147.333 275.667 221 465 221c173.333 0 312 -52.667 416 -158c110 -110.667 165 -260.667 165 -450v-27zM677 938.001
c-114.667 0 -207.001 -36.832 -277.001 -110.499s-105 -170.834 -105 -291.501c0 -119.333 35.333 -216 106 -290s163 -111 277 -111c118 0 212.333 37.333 283 112s106 174 106 298c0 118 -35.667 213 -107 285s-165.666 108 -282.999 108zM1260 635.002h737
c-42 202 -166.667 303 -374 303c-202 0 -323 -101 -363 -303z" />
    <glyph glyph-name="Racute" unicode="&#x154;" horiz-adv-x="1554" vert-adv-y="1433" 
d="M166 0v1462h905c122.667 0 219.834 -35.167 291.501 -105.5s107.5 -165.5 107.5 -285.5c0 -180 -81.667 -299.333 -245 -358v-4c143.333 -26.667 215.666 -160.334 216.999 -401.001c8 -166 29.667 -268.667 65 -308h-229c-22 28 -36 101.333 -42 220
c-8 154.667 -32.167 260.167 -72.5 316.5s-111.5 84.5 -213.5 84.5h-567v-621h-217zM383 809.001h606c176 0 264 77.333 264 232c0 74 -22.5 131.333 -67.5 172s-108.5 61 -190.5 61h-612v-465zM621 1558l176 287h256l-268 -287h-164z" />
    <glyph glyph-name="racute" unicode="&#x155;" horiz-adv-x="834" vert-adv-y="1433" 
d="M125 0l-0.000976562 1073h205v-197h4c94.667 156 218.334 234 371.001 234c42.667 0 80.667 -4 114 -12v-222c-58 14 -106.333 21 -145 21c-108 0 -192.333 -31.167 -253 -93.5s-91 -148.5 -91 -258.5v-545h-205zM309.999 1231l176 287h256l-268 -287h-164z" />
    <glyph glyph-name="Rcommaaccent" unicode="&#x156;" horiz-adv-x="1554" vert-adv-y="1433" 
d="M166 0v1462h905c122.667 0 219.834 -35.167 291.501 -105.5s107.5 -165.5 107.5 -285.5c0 -180 -81.667 -299.333 -245 -358v-4c143.333 -26.667 215.666 -160.334 216.999 -401.001c8 -166 29.667 -268.667 65 -308h-229c-22 28 -36 101.333 -42 220
c-8 154.667 -32.167 260.167 -72.5 316.5s-111.5 84.5 -213.5 84.5h-567v-621h-217zM383 809.001h606c176 0 264 77.333 264 232c0 74 -22.5 131.333 -67.5 172s-108.5 61 -190.5 61h-612v-465zM729 -234.999l-0.000976562 165.999h203v-146
c0 -133.333 -67.667 -213 -203 -239v70c35.333 10.667 59.833 26.334 73.5 47.001s21.834 54.667 24.501 102h-98z" />
    <glyph glyph-name="rcommaaccent" unicode="&#x157;" horiz-adv-x="834" vert-adv-y="1433" 
d="M125 0l-0.000976562 1073h205v-197h4c94.667 156 218.334 234 371.001 234c42.667 0 80.667 -4 114 -12v-222c-58 14 -106.333 21 -145 21c-108 0 -192.333 -31.167 -253 -93.5s-91 -148.5 -91 -258.5v-545h-205zM126.999 -234l-0.000976562 166h203v-146
c0 -133.333 -67.667 -213.333 -203 -240v70c35.333 10.667 59.833 26.5 73.5 47.5s21.834 55.167 24.501 102.5h-98z" />
    <glyph glyph-name="Rcaron" unicode="&#x158;" horiz-adv-x="1554" vert-adv-y="1433" 
d="M166 0v1462h905c122.667 0 219.834 -35.167 291.501 -105.5s107.5 -165.5 107.5 -285.5c0 -180 -81.667 -299.333 -245 -358v-4c143.333 -26.667 215.666 -160.334 216.999 -401.001c8 -166 29.667 -268.667 65 -308h-229c-22 28 -36 101.333 -42 220
c-8 154.667 -32.167 260.167 -72.5 316.5s-111.5 84.5 -213.5 84.5h-567v-621h-217zM383 809.001h606c176 0 264 77.333 264 232c0 74 -22.5 131.333 -67.5 172s-108.5 61 -190.5 61h-612v-465zM772 1665l176 180h199l-267 -286h-217l-266 286h199z" />
    <glyph glyph-name="rcaron" unicode="&#x159;" horiz-adv-x="834" vert-adv-y="1433" 
d="M125 0l-0.000976562 1073h205v-197h4c94.667 156 218.334 234 371.001 234c42.667 0 80.667 -4 114 -12v-222c-58 14 -106.333 21 -145 21c-108 0 -192.333 -31.167 -253 -93.5s-91 -148.5 -91 -258.5v-545h-205zM438.999 1338l176 180h199l-267 -287h-217l-266 287h199z
" />
    <glyph glyph-name="Sacute" unicode="&#x15a;" horiz-adv-x="1366" vert-adv-y="1433" 
d="M33 481l217.003 -0.000976562c7.33301 -99.333 40.666 -174.666 99.999 -225.999c80.667 -69.333 203 -104 367 -104c124.667 0 222.5 22.167 293.5 66.5s106.5 105.5 106.5 183.5c0 113.333 -91 185 -273 215l-332 55c-289.333 48.667 -434 177 -434 385
c0 137.333 52.333 245.5 157 324.5s248 118.5 430 118.5c222.667 0 389 -55.333 499 -166c38.667 -38.667 66.667 -78.834 84 -120.501s30 -99.167 38 -172.5h-217c-34 180.667 -173.667 271 -419 271c-108.667 0 -195 -21.5 -259 -64.5s-96 -100.833 -96 -173.5
c0 -102.667 80 -167.667 240 -195l358 -61c294 -50.667 441 -179 441 -385c0 -169.333 -71.667 -294.666 -215 -375.999c-109.333 -62 -249 -93 -419 -93c-252 0 -435 62 -549 186c-40.667 44 -69.334 89.5 -86.001 136.5s-27.334 112.167 -32.001 195.5zM539.003 1558
l176 287h256l-268 -287h-164z" />
    <glyph glyph-name="sacute" unicode="&#x15b;" horiz-adv-x="1214" vert-adv-y="1433" 
d="M63 338l205.002 -0.000976562c8 -143.333 122.667 -215 344 -215c214 0 321 57.333 321 172c0 74.667 -67.333 121 -202 139l-338 45c-88.667 12 -159.334 44.167 -212.001 96.5s-79 116.5 -79 192.5c0 106 44 189.5 132 250.5s208.333 91.5 361 91.5
c314 0 487.667 -120 521 -360h-205c-16 133.333 -122.667 200 -320 200c-189.333 0 -284 -55.667 -284 -167c0 -70 59.333 -113 178 -129l291 -39c249.333 -34 374 -131 374 -291c0 -115.333 -46.833 -204.333 -140.5 -267s-226.834 -94 -399.501 -94
c-174 0 -304.5 29.833 -391.5 89.5s-138.833 154.834 -155.5 285.501zM454.002 1231l176 287h256l-268 -287h-164z" />
    <glyph glyph-name="Scircumflex" unicode="&#x15c;" horiz-adv-x="1366" vert-adv-y="1433" 
d="M33 481l217.003 -0.000976562c7.33301 -99.333 40.666 -174.666 99.999 -225.999c80.667 -69.333 203 -104 367 -104c124.667 0 222.5 22.167 293.5 66.5s106.5 105.5 106.5 183.5c0 113.333 -91 185 -273 215l-332 55c-289.333 48.667 -434 177 -434 385
c0 137.333 52.333 245.5 157 324.5s248 118.5 430 118.5c222.667 0 389 -55.333 499 -166c38.667 -38.667 66.667 -78.834 84 -120.501s30 -99.167 38 -172.5h-217c-34 180.667 -173.667 271 -419 271c-108.667 0 -195 -21.5 -259 -64.5s-96 -100.833 -96 -173.5
c0 -102.667 80 -167.667 240 -195l358 -61c294 -50.667 441 -179 441 -385c0 -169.333 -71.667 -294.666 -215 -375.999c-109.333 -62 -249 -93 -419 -93c-252 0 -435 62 -549 186c-40.667 44 -69.334 89.5 -86.001 136.5s-27.334 112.167 -32.001 195.5zM860.003 1559
l-176 180l-176 -180h-199l266 286h217l267 -286h-199z" />
    <glyph glyph-name="scircumflex" unicode="&#x15d;" horiz-adv-x="1214" vert-adv-y="1433" 
d="M63 338l205.002 -0.000976562c8 -143.333 122.667 -215 344 -215c214 0 321 57.333 321 172c0 74.667 -67.333 121 -202 139l-338 45c-88.667 12 -159.334 44.167 -212.001 96.5s-79 116.5 -79 192.5c0 106 44 189.5 132 250.5s208.333 91.5 361 91.5
c314 0 487.667 -120 521 -360h-205c-16 133.333 -122.667 200 -320 200c-189.333 0 -284 -55.667 -284 -167c0 -70 59.333 -113 178 -129l291 -39c249.333 -34 374 -131 374 -291c0 -115.333 -46.833 -204.333 -140.5 -267s-226.834 -94 -399.501 -94
c-174 0 -304.5 29.833 -391.5 89.5s-138.833 154.834 -155.5 285.501zM792.002 1231l-176 180l-176 -180h-199l266 287h217l267 -287h-199z" />
    <glyph glyph-name="Scedilla" unicode="&#x15e;" horiz-adv-x="1366" vert-adv-y="1433" 
d="M631 -35c-150 8.66699 -273.666 41.001 -370.999 97.001c-75.333 42.667 -130.5 96.334 -165.5 161.001s-55.5 150.667 -61.5 258h217c4 -58 12.667 -101 26 -129c62 -134 209 -201 441 -201c118 0 212.667 20.333 284 61c77.333 44 116 107 116 189
c0 58.667 -22 105.334 -66 140.001s-113 59.667 -207 75l-332 55c-111.333 18.667 -199 46.667 -263 84c-114 66.667 -171 167 -171 301c0 160 69.333 279.333 208 358c100 56.667 226.333 85 379 85c222.667 0 389 -55.333 499 -166
c38.667 -38.667 66.667 -78.834 84 -120.501s30 -99.167 38 -172.5h-217c-16 85.333 -51.667 148.666 -107 189.999c-72 54 -176 81 -312 81c-99.333 0 -180 -18 -242 -54c-75.333 -43.333 -113 -104.666 -113 -183.999c0 -102.667 80 -167.667 240 -195l358 -61
c116 -20 207 -49.667 273 -89c112 -66.667 168 -165.334 168 -296.001c0 -98.667 -26.167 -183.834 -78.5 -255.501s-127.833 -125.5 -226.5 -161.5c-86 -32 -184 -49.333 -294 -52l-48 -80l25 4c18.667 2.66699 34 4 46 4c55.333 0 99.333 -12.167 132 -36.5
s49 -57.166 49 -98.499c0 -58.667 -27 -103.334 -81 -134.001c-45.333 -25.333 -100.333 -38 -165 -38c-44.667 0 -117 9.66699 -217 29l27 96c55.333 -18 105.666 -27 150.999 -27c33.333 0 60.5 5.83301 81.5 17.5s31.5 27.167 31.5 46.5c0 17.333 -8 31.5 -24 42.5
s-37 16.5 -63 16.5c-26.667 0 -57.667 -4.66699 -93 -14l-37 39z" />
    <glyph glyph-name="scedilla" unicode="&#x15f;" horiz-adv-x="1214" vert-adv-y="1433" 
d="M542 -35c-301.333 17.333 -461.001 141.671 -479.001 373.004h205c2.66699 -56.667 24.667 -103 66 -139c58 -50.667 150.667 -76 278 -76c102.667 0 181.834 14.833 237.501 44.5s83.5 72.167 83.5 127.5c0 40 -15.667 70.833 -47 92.5s-83 37.167 -155 46.5l-338 45
c-84.667 11.333 -153.667 42 -207 92c-56 52 -84 117.667 -84 197c0 118 53.667 207.667 161 269c85.333 48.667 196 73 332 73c188 0 327 -44 417 -132c32 -30.667 55.333 -62.334 70 -95.001s26 -77 34 -133h-205c-6.66699 53.333 -29.667 96.666 -69 129.999
c-56.667 46.667 -140.334 70 -251.001 70c-90.667 0 -160.667 -14.5 -210 -43.5s-74 -70.167 -74 -123.5c0 -38 13.667 -66.833 41 -86.5s73 -33.834 137 -42.501l291 -39c128.667 -17.333 223.167 -49.5 283.5 -96.5s90.5 -111.833 90.5 -194.5
c0 -111.333 -42.5 -197.5 -127.5 -258.5s-210.5 -94.833 -376.5 -101.5l-48 -81c8 1.33301 16.667 2.66602 26 3.99902c17.333 3.33301 32 5 44 5c56 0 100.333 -12.167 133 -36.5s49 -57.5 49 -99.5c0 -58 -27 -102.667 -81 -134c-45.333 -25.333 -100.333 -38 -165 -38
c-45.333 0 -117.666 9.66699 -216.999 29l27 96c54.667 -18 105 -27 151 -27c33.333 0 60.5 6 81.5 18s31.5 27.333 31.5 46c0 18 -8 32.5 -24 43.5s-37 16.5 -63 16.5c-24.667 0 -55.667 -5 -93 -15l-37 39z" />
    <glyph glyph-name="Scaron" unicode="&#x160;" horiz-adv-x="1366" vert-adv-y="1433" 
d="M33 481l217.003 -0.000976562c7.33301 -99.333 40.666 -174.666 99.999 -225.999c80.667 -69.333 203 -104 367 -104c124.667 0 222.5 22.167 293.5 66.5s106.5 105.5 106.5 183.5c0 113.333 -91 185 -273 215l-332 55c-289.333 48.667 -434 177 -434 385
c0 137.333 52.333 245.5 157 324.5s248 118.5 430 118.5c222.667 0 389 -55.333 499 -166c38.667 -38.667 66.667 -78.834 84 -120.501s30 -99.167 38 -172.5h-217c-34 180.667 -173.667 271 -419 271c-108.667 0 -195 -21.5 -259 -64.5s-96 -100.833 -96 -173.5
c0 -102.667 80 -167.667 240 -195l358 -61c294 -50.667 441 -179 441 -385c0 -169.333 -71.667 -294.666 -215 -375.999c-109.333 -62 -249 -93 -419 -93c-252 0 -435 62 -549 186c-40.667 44 -69.334 89.5 -86.001 136.5s-27.334 112.167 -32.001 195.5zM696.003 1665
l176 180h199l-267 -286h-217l-266 286h199z" />
    <glyph glyph-name="scaron" unicode="&#x161;" horiz-adv-x="1214" vert-adv-y="1433" 
d="M63 338l205.002 -0.000976562c8 -143.333 122.667 -215 344 -215c214 0 321 57.333 321 172c0 74.667 -67.333 121 -202 139l-338 45c-88.667 12 -159.334 44.167 -212.001 96.5s-79 116.5 -79 192.5c0 106 44 189.5 132 250.5s208.333 91.5 361 91.5
c314 0 487.667 -120 521 -360h-205c-16 133.333 -122.667 200 -320 200c-189.333 0 -284 -55.667 -284 -167c0 -70 59.333 -113 178 -129l291 -39c249.333 -34 374 -131 374 -291c0 -115.333 -46.833 -204.333 -140.5 -267s-226.834 -94 -399.501 -94
c-174 0 -304.5 29.833 -391.5 89.5s-138.833 154.834 -155.5 285.501zM607.002 1338l176 180h199l-267 -287h-217l-266 287h199z" />
    <glyph glyph-name="Tcommaaccent" unicode="&#x162;" horiz-adv-x="1327" vert-adv-y="1433" 
d="M555 0v1274h-553v188h1323v-188h-553v-1274h-217zM562 -235l-0.000976562 165.999h203v-146c0 -133.333 -67.667 -213 -203 -239v70c35.333 10.667 59.833 26.334 73.5 47.001s21.834 54.667 24.501 102h-98z" />
    <glyph glyph-name="tcommaaccent" unicode="&#x163;" horiz-adv-x="758" vert-adv-y="1433" 
d="M215 1073v330h205v-330h307v-160h-307v-661c0 -78 55 -117 165 -117c40.667 0 88 5 142 15v-173c-59.333 -9.33301 -131.333 -14 -216 -14c-197.333 0 -296 84.667 -296 254v696h-221v160h221zM217 -234l-0.000976562 166h203v-146
c0 -133.333 -67.667 -213.333 -203 -240v70c35.333 10.667 59.833 26.5 73.5 47.5s21.834 55.167 24.501 102.5h-98z" />
    <glyph glyph-name="Tcaron" unicode="&#x164;" horiz-adv-x="1327" vert-adv-y="1433" 
d="M555 0v1274h-553v188h1323v-188h-553v-1274h-217zM664 1665l176 180h199l-267 -286h-217l-266 286h199z" />
    <glyph glyph-name="tcaron" unicode="&#x165;" horiz-adv-x="840" vert-adv-y="1433" 
d="M215 1073v330h205v-330h307v-160h-307v-661c0 -78 55 -117 165 -117c40.667 0 88 5 142 15v-173c-59.333 -9.33301 -131.333 -14 -216 -14c-197.333 0 -296 84.667 -296 254v696h-221v160h221zM577 1456l-0.000976562 166h203v-146c0 -133.333 -67.667 -213 -203 -239v70
c35.333 10.667 59.833 26.167 73.5 46.5s21.834 54.5 24.501 102.5h-98z" />
    <glyph glyph-name="Tbar" unicode="&#x166;" horiz-adv-x="1327" vert-adv-y="1433" 
d="M772 868v-868h-217v868h-293v160h293v246h-553v188h1323v-188h-553v-246h293v-160h-293z" />
    <glyph glyph-name="tbar" unicode="&#x167;" horiz-adv-x="758" vert-adv-y="1433" 
d="M420 1073h307v-160h-307v-175h307v-160h-307v-326c0 -78 55 -117 165 -117c40.667 0 88 5 142 15v-173c-59.333 -9.33301 -131.333 -14 -216 -14c-100.667 0 -175.167 20.833 -223.5 62.5s-72.5 105.5 -72.5 191.5v361h-221v160h221v175h-221v160h221v330h205v-330z" />
    <glyph glyph-name="Utilde" unicode="&#x168;" horiz-adv-x="1630" vert-adv-y="1433" 
d="M1477 1462v-909c0 -393.333 -220.667 -590 -662 -590c-440.667 0 -661 196.667 -661 590v909h217v-936c0 -250 148.333 -375 445 -375c296 0 444 125 444 375v936h217zM531 1575h-120.999c8 64.667 24.667 116 50 154c43.333 65.333 104.666 98 183.999 98
c56 0 122.667 -16.333 200 -49c68 -28.667 121.667 -43 161 -43c26.667 0 47.167 6.83301 61.5 20.5s25.5 37.5 33.5 71.5h121c-8 -64.667 -24.667 -116 -50 -154c-43.333 -65.333 -105 -98 -185 -98c-55.333 0 -121.666 16.333 -198.999 49c-67.333 28.667 -121 43 -161 43
c-26.667 0 -47.334 -7 -62.001 -21s-25.667 -37.667 -33 -71z" />
    <glyph glyph-name="utilde" unicode="&#x169;" horiz-adv-x="1329" vert-adv-y="1433" 
d="M1204 1073l-0.00195312 -1073h-205v162h-4c-93.333 -132.667 -234.666 -199 -423.999 -199c-112.667 0 -206.667 21.667 -282 65c-109.333 63.333 -164 168 -164 314v731h205v-690c0 -165.333 103 -248 309 -248c108.667 0 195.834 29 261.501 87s98.5 135.667 98.5 233
v618h205zM379.998 1247h-120.999c8 64.667 24.667 116 50 154c43.333 65.333 104.666 98 183.999 98c56 0 122.667 -16.333 200 -49c68 -28.667 121.667 -43 161 -43c26.667 0 47.167 7 61.5 21s25.5 37.667 33.5 71h121c-8 -64.667 -24.667 -116 -50 -154
c-43.333 -65.333 -105.333 -98 -186 -98c-54.667 0 -120.667 16.333 -198 49c-67.333 28.667 -121.333 43 -162 43c-26 0 -46.167 -7 -60.5 -21s-25.5 -37.667 -33.5 -71z" />
    <glyph glyph-name="Umacron" unicode="&#x16a;" horiz-adv-x="1630" vert-adv-y="1433" 
d="M1477 1462v-909c0 -393.333 -220.667 -590 -662 -590c-440.667 0 -661 196.667 -661 590v909h217v-936c0 -250 148.333 -375 445 -375c296 0 444 125 444 375v936h217zM414 1605v160h803v-160h-803z" />
    <glyph glyph-name="umacron" unicode="&#x16b;" horiz-adv-x="1329" vert-adv-y="1433" 
d="M1204 1073l-0.00195312 -1073h-205v162h-4c-93.333 -132.667 -234.666 -199 -423.999 -199c-112.667 0 -206.667 21.667 -282 65c-109.333 63.333 -164 168 -164 314v731h205v-690c0 -165.333 103 -248 309 -248c108.667 0 195.834 29 261.501 87s98.5 135.667 98.5 233
v618h205zM290.998 1288v160h748v-160h-748z" />
    <glyph glyph-name="Ubreve" unicode="&#x16c;" horiz-adv-x="1630" vert-adv-y="1433" 
d="M1477 1462v-909c0 -393.333 -220.667 -590 -662 -590c-440.667 0 -661 196.667 -661 590v909h217v-936c0 -250 148.333 -375 445 -375c296 0 444 125 444 375v936h217zM459 1854h135c18.667 -97.333 92.334 -146 221.001 -146s202.667 48.667 222 146h135
c-5.33301 -53.333 -15.333 -95.5 -30 -126.5s-37.667 -59.833 -69 -86.5c-64 -53.333 -150 -80 -258 -80c-120.667 0 -213.334 33 -278.001 99c-24.667 26 -42.667 52.833 -54 80.5s-19.333 65.5 -24 113.5z" />
    <glyph glyph-name="ubreve" unicode="&#x16d;" horiz-adv-x="1329" vert-adv-y="1433" 
d="M1204 1073l-0.00195312 -1073h-205v162h-4c-93.333 -132.667 -234.666 -199 -423.999 -199c-112.667 0 -206.667 21.667 -282 65c-109.333 63.333 -164 168 -164 314v731h205v-690c0 -165.333 103 -248 309 -248c108.667 0 195.834 29 261.501 87s98.5 135.667 98.5 233
v618h205zM307.998 1516l135 0.000976562c18.667 -96.667 92.334 -145 221.001 -145s202.667 48.333 222 145h135c-5.33301 -53.333 -15.333 -95.333 -30 -126s-37.667 -59.334 -69 -86.001c-64 -53.333 -150 -80 -258 -80c-120.667 0 -213.334 33 -278.001 99
c-24.667 25.333 -42.667 51.833 -54 79.5s-19.333 65.5 -24 113.5z" />
    <glyph glyph-name="Uring" unicode="&#x16e;" horiz-adv-x="1630" vert-adv-y="1433" 
d="M1477 1462v-909c0 -393.333 -220.667 -590 -662 -590c-440.667 0 -661 196.667 -661 590v909h217v-936c0 -250 148.333 -375 445 -375c296 0 444 125 444 375v936h217zM818 1972c65.333 0 121.168 -23.499 167.501 -70.499s69.5 -103.5 69.5 -169.5
c0 -66.667 -23.333 -123.167 -70 -169.5s-103.334 -69.5 -170.001 -69.5c-66 0 -122.333 23.167 -169 69.5s-70 102.833 -70 169.5c0 67.333 23.333 124.166 70 170.499s104 69.5 172 69.5zM814.002 1861c-32.667 0 -62 -13 -88 -39s-39 -56 -39 -90
c0 -33.333 13 -63 39 -89s55.667 -39 89 -39c34 0 64 13 90 39s39 55.667 39 89c0 34 -13 64 -39 90s-56.333 39 -91 39z" />
    <glyph glyph-name="uring" unicode="&#x16f;" horiz-adv-x="1329" vert-adv-y="1433" 
d="M1204 1073l-0.00195312 -1073h-205v162h-4c-93.333 -132.667 -234.666 -199 -423.999 -199c-112.667 0 -206.667 21.667 -282 65c-109.333 63.333 -164 168 -164 314v731h205v-690c0 -165.333 103 -248 309 -248c108.667 0 195.834 29 261.501 87s98.5 135.667 98.5 233
v618h205zM666.998 1645c65.333 0 121.168 -23.499 167.501 -70.499s69.5 -103.5 69.5 -169.5c0 -66.667 -23.333 -123.334 -70 -170.001s-103.334 -70 -170.001 -70c-66 0 -122.333 23.333 -169 70s-70 103.334 -70 170.001c0 67.333 23.333 124.166 70 170.499
s104 69.5 172 69.5zM663 1534c-32.667 0 -62 -13.168 -88 -39.501s-39 -56.166 -39 -89.499c0 -34 13 -64 39 -90s55.667 -39 89 -39c34 0 64 13 90 39s39 56 39 90s-13 64 -39 90s-56.333 39 -91 39z" />
    <glyph glyph-name="Uhungarumlaut" unicode="&#x170;" horiz-adv-x="1630" vert-adv-y="1433" 
d="M1477 1462v-909c0 -393.333 -220.667 -590 -662 -590c-440.667 0 -661 196.667 -661 590v909h217v-936c0 -250 148.333 -375 445 -375c296 0 444 125 444 375v936h217zM903 1581l176 287h256l-268 -287h-164zM487 1581l176 287h256l-268 -287h-164z" />
    <glyph glyph-name="uhungarumlaut" unicode="&#x171;" horiz-adv-x="1329" vert-adv-y="1433" 
d="M1204 1073l-0.00195312 -1073h-205v162h-4c-93.333 -132.667 -234.666 -199 -423.999 -199c-112.667 0 -206.667 21.667 -282 65c-109.333 63.333 -164 168 -164 314v731h205v-690c0 -165.333 103 -248 309 -248c108.667 0 195.834 29 261.501 87s98.5 135.667 98.5 233
v618h205zM750.998 1231l176 287h256l-268 -287h-164zM337.998 1231l176 287h256l-268 -287h-164z" />
    <glyph glyph-name="Uogonek" unicode="&#x172;" horiz-adv-x="1630" vert-adv-y="1433" 
d="M869 -36c-22.667 -0.666992 -43.332 -1 -61.999 -1c-435.333 0 -653 196.667 -653 590v909h217v-936c0 -120 36.333 -212 109 -276c75.333 -66 187.333 -99 336 -99c164 0 283.333 40.667 358 122c57.333 62 86 146.333 86 253v936h217v-909
c0.666992 -330.667 -153 -521.667 -461 -573c-48.667 -29.333 -86.834 -62.5 -114.501 -99.5s-41.5 -73.5 -41.5 -109.5c0 -57.333 34.667 -86 104 -86c41.333 0 95.333 6.66699 162 20l25 -72c-73.333 -22.667 -144 -34 -212 -34c-142.667 0 -214 52 -214 156
c0 79.333 48 149 144 209z" />
    <glyph glyph-name="uogonek" unicode="&#x173;" horiz-adv-x="1329" vert-adv-y="1433" 
d="M1071 0l-71.999 -0.000976562v162h-4c-44 -62 -95 -108.333 -153 -139c-76 -40 -166.333 -60 -271 -60c-112.667 0 -206.667 21.667 -282 65c-109.333 63.333 -164 168 -164 314v731h205v-690c0 -165.333 103 -248 309 -248c102.667 0 186.667 26.333 252 79
c72 58.667 108 139 108 241v618h205v-1073h-22c-62.667 -32.667 -110.5 -68.667 -143.5 -108s-49.5 -79.666 -49.5 -120.999c0 -57.333 34.667 -86 104 -86c42 0 96.333 6.66699 163 20l24 -72c-72.667 -22.667 -143.334 -34 -212.001 -34c-142.667 0 -214 52 -214 156
c0 50 19 96.333 57 139s91.333 78 160 106z" />
    <glyph glyph-name="Wcircumflex" unicode="&#x174;" horiz-adv-x="2238" vert-adv-y="1433" 
d="M1520 0l-406 1212h-4l-403 -1212h-240l-481 1462h236l374 -1188h4l392 1188h258l401 -1188h4l373 1188h225l-495 -1462h-238zM1296 1559l-176 180l-176 -180h-199l266 286h217l267 -286h-199z" />
    <glyph glyph-name="wcircumflex" unicode="&#x175;" horiz-adv-x="1858" vert-adv-y="1433" 
d="M1314 254l308 819h217l-424 -1073h-223l-269 819h-4l-268 -819h-217l-416 1073h227l297 -819h4l267 819h225l272 -819h4zM1099 1231l-176 180l-176 -180h-199l266 287h217l267 -287h-199z" />
    <glyph glyph-name="Ycircumflex" unicode="&#x176;" horiz-adv-x="1479" vert-adv-y="1433" 
d="M742 797l485 665h264l-645 -850v-612h-217v602l-641 860h276zM916 1559l-176 180l-176 -180h-199l266 286h217l267 -286h-199z" />
    <glyph glyph-name="ycircumflex" unicode="&#x177;" horiz-adv-x="1176" vert-adv-y="1433" 
d="M594 225l362.001 848h229l-561 -1257c-46.667 -106 -95 -177 -145 -213s-124.667 -54 -224 -54c-24.667 0 -77.667 2.66699 -159 8v173c11.333 -0.666992 24.666 -2 39.999 -4c30 -3.33301 57.333 -5 82 -5c60 0 103.333 10 130 30s56.667 64.667 90 134l47 98l-495 1090
h235zM764.001 1231l-176 180l-176 -180h-199l266 287h217l267 -287h-199z" />
    <glyph glyph-name="Ydieresis" unicode="&#x178;" horiz-adv-x="1479" vert-adv-y="1433" 
d="M742 797l485 665h264l-645 -850v-612h-217v602l-641 860h276zM391 1577v213h205v-213h-205zM883 1577v213h205v-213h-205z" />
    <glyph glyph-name="Zacute" unicode="&#x179;" horiz-adv-x="1403" vert-adv-y="1433" 
d="M29 0v194l1044 1080h-970v188h1255v-188l-1048 -1086h1065v-188h-1346zM603 1558l176 287h256l-268 -287h-164z" />
    <glyph glyph-name="zacute" unicode="&#x17a;" horiz-adv-x="1214" vert-adv-y="1433" 
d="M55 0v168l790 733h-751v172h1034v-160l-801 -741h832v-172h-1104zM475 1231l176 287h256l-268 -287h-164z" />
    <glyph glyph-name="Zdotaccent" unicode="&#x17b;" horiz-adv-x="1403" vert-adv-y="1433" 
d="M29 0v194l1044 1080h-970v188h1255v-188l-1048 -1086h1065v-188h-1346zM602 1577v213h205v-213h-205z" />
    <glyph glyph-name="zdotaccent" unicode="&#x17c;" horiz-adv-x="1214" vert-adv-y="1433" 
d="M55 0v168l790 733h-751v172h1034v-160l-801 -741h832v-172h-1104zM505 1249v213h205v-213h-205z" />
    <glyph glyph-name="Zcaron" unicode="&#x17d;" horiz-adv-x="1403" vert-adv-y="1433" 
d="M29 0v194l1044 1080h-970v188h1255v-188l-1048 -1086h1065v-188h-1346zM708 1665l176 180h199l-267 -286h-217l-266 286h199z" />
    <glyph glyph-name="zcaron" unicode="&#x17e;" horiz-adv-x="1214" vert-adv-y="1433" 
d="M55 0v168l790 733h-751v172h1034v-160l-801 -741h832v-172h-1104zM607 1338l176 180h199l-267 -287h-217l-266 287h199z" />
    <glyph glyph-name="uni018F" unicode="&#x18f;" horiz-adv-x="1908" vert-adv-y="1433" 
d="M1602 828c-17.333 114.667 -60.002 210.333 -128.002 287c-59.333 67.333 -139 118.333 -239 153c-88 30 -182 45 -282 45c-136.667 0 -255.167 -25.167 -355.5 -75.5s-177.833 -123.5 -232.5 -219.5l-230 36c58.667 116 133 206.667 223 272
c158.667 115.333 357.334 173 596.001 173c228.667 0 419 -51.667 571 -155c106 -72 186.667 -164.333 242 -277c50 -101.333 75 -212.666 75 -333.999c0 -175.333 -51.667 -328.333 -155 -459c-160.667 -204.667 -405 -307 -733 -307
c-229.333 0 -419.666 51.667 -570.999 155c-106 72 -186.333 164.333 -241 277c-50.667 103.333 -76 217 -76 341c0 25.333 1.33301 54.666 4 87.999h1532zM1602 637.999h-1296c16.667 -113.333 59.334 -209 128.001 -287c60 -67.333 139.667 -118.333 239 -153
c86.667 -30 180.334 -45 281.001 -45c180.667 0 328.334 42.833 443.001 128.5s183 204.5 205 356.5z" />
    <glyph glyph-name="florin" unicode="&#x192;" horiz-adv-x="1368" vert-adv-y="1433" 
d="M546 780l74 357.002c44 211.333 157.333 317 340 317c35.333 0 97.333 -4.66699 186 -14c11.333 -0.666992 21 -1.33398 29 -2.00098l-35 -168c-65.333 8 -111.666 12 -138.999 12c-57.333 0 -99.333 -14.667 -126 -44s-48 -84.333 -64 -165l-60 -293h281l-29 -123h-278
l-152 -774c-18 -90.667 -58.833 -160.834 -122.5 -210.501s-144.834 -74.5 -243.501 -74.5c-51.333 0 -114.333 7 -189 21l35 164c58 -16.667 102 -25 132 -25c56.667 0 100 15.833 130 47.5s52.667 85.5 68 161.5l137 690h-271l25 123h272z" />
    <glyph glyph-name="uni01CD" unicode="&#x1cd;" horiz-adv-x="1554" vert-adv-y="1433" 
d="M1315 0l-186 426h-717l-187 -426h-233l662 1462h247l662 -1462h-248zM1049 614l-281 647l-274 -647h555zM778 1665l176 180h199l-267 -286h-217l-266 286h199z" />
    <glyph glyph-name="uni01CE" unicode="&#x1ce;" horiz-adv-x="1327" vert-adv-y="1433" 
d="M315 737l-192.002 0.00195312c16.667 122.667 60.334 212.334 131.001 269.001c86 69.333 218.333 104 397 104c332 0 498 -101.667 498 -305v-578c0 -61.333 31.333 -92 94 -92c20.667 0 44 2.66699 70 8v-143c-52 -8 -104.667 -12 -158 -12
c-61.333 0 -105.666 11 -132.999 33s-45.333 60.667 -54 116c-98 -116 -253 -174 -465 -174c-135.333 0 -240.5 28.5 -315.5 85.5s-112.5 136.833 -112.5 239.5c0 101.333 35.667 177.666 107 228.999s189.333 85.666 354 102.999l234 25c70 7.33301 118.5 20.333 145.5 39
s40.5 49 40.5 91c0 116.667 -102.333 175 -307 175c-110 0 -191.333 -16.833 -244 -50.5s-82.667 -87.834 -90 -162.501zM955.998 561.002c-28.667 -29.333 -95.668 -50.333 -201.001 -63l-231 -29c-162.667 -20 -244 -77 -244 -171c0 -54 22.833 -96.667 68.5 -128
s107.834 -47 186.501 -47c118.667 0 218.5 29 299.5 87s121.5 129.333 121.5 214v137zM657.997 1338l176 180h199l-267 -287h-217l-266 287h199z" />
    <glyph glyph-name="uni01D3" unicode="&#x1d3;" horiz-adv-x="1630" vert-adv-y="1433" 
d="M1477 1462v-909c0 -393.333 -220.667 -590 -662 -590c-440.667 0 -661 196.667 -661 590v909h217v-936c0 -250 148.333 -375 445 -375c296 0 444 125 444 375v936h217zM816 1665l176 180h199l-267 -286h-217l-266 286h199z" />
    <glyph glyph-name="uni01D4" unicode="&#x1d4;" horiz-adv-x="1329" vert-adv-y="1433" 
d="M1204 1073l-0.00195312 -1073h-205v162h-4c-93.333 -132.667 -234.666 -199 -423.999 -199c-112.667 0 -206.667 21.667 -282 65c-109.333 63.333 -164 168 -164 314v731h205v-690c0 -165.333 103 -248 309 -248c108.667 0 195.834 29 261.501 87s98.5 135.667 98.5 233
v618h205zM664.998 1338l176 180h199l-267 -287h-217l-266 287h199z" />
    <glyph glyph-name="uni01E6" unicode="&#x1e6;" horiz-adv-x="1782" vert-adv-y="1433" 
d="M958 600l0.00195312 187.998h672v-788h-156l-37 209c-77.333 -87.333 -159.833 -150.166 -247.5 -188.499s-193.167 -57.5 -316.5 -57.5c-252.667 0 -448 77.667 -586 233c-122 136.667 -183 310.667 -183 522c0 252 79 449.333 237 592c140 126 321 189 543 189
c222.667 0 399 -55 529 -165c49.333 -42 87.666 -86.667 114.999 -134s53 -113.666 77 -198.999h-229c-40.667 108.667 -99.5 187.334 -176.5 236.001s-180.833 73 -311.5 73c-184 0 -326 -56.667 -426 -170c-94 -106 -141 -246 -141 -420
c0 -188.667 55.667 -333.334 167 -434.001c100 -90 233.333 -135 400 -135c156 0 281.667 39 377 117s152.666 188.667 171.999 332h-479zM879.002 1665l176 180h199l-267 -286h-217l-266 286h199z" />
    <glyph glyph-name="uni01E7" unicode="&#x1e7;" horiz-adv-x="1403" vert-adv-y="1433" 
d="M1085 915l0.000976562 157.999h205v-983c0 -188.667 -47.667 -325.667 -143 -411c-96.667 -86.667 -257.667 -130 -483 -130c-172.667 0 -299.667 25.167 -381 75.5s-134 136.5 -158 258.5h204c20 -63.333 56 -108.166 108 -134.499s130.333 -39.5 235 -39.5
c275.333 0 413 108 413 324v155h-4c-99.333 -132 -237.333 -198 -414 -198c-128.667 0 -241.334 27.667 -338.001 83c-168 96 -252 252.667 -252 470c0 218 84 375.333 252 472c96 55.333 207.333 83 334 83c190 0 329.333 -61 418 -183h4zM685.001 925.999
c-117.333 0 -211.833 -35.333 -283.5 -106s-107.5 -163.667 -107.5 -279s35.833 -207.333 107.5 -276s167.5 -103 287.5 -103s216 34.5 288 103.5s108 160.833 108 275.5c0 116.667 -36.333 210 -109 280s-169.667 105 -291 105zM691.001 1338l176 180h199l-267 -287h-217
l-266 287h199z" />
    <glyph glyph-name="uni01F4" unicode="&#x1f4;" horiz-adv-x="1782" vert-adv-y="1433" 
d="M958 600l0.00195312 187.998h672v-788h-156l-37 209c-77.333 -87.333 -159.833 -150.166 -247.5 -188.499s-193.167 -57.5 -316.5 -57.5c-252.667 0 -448 77.667 -586 233c-122 136.667 -183 310.667 -183 522c0 252 79 449.333 237 592c140 126 321 189 543 189
c222.667 0 399 -55 529 -165c49.333 -42 87.666 -86.667 114.999 -134s53 -113.666 77 -198.999h-229c-40.667 108.667 -99.5 187.334 -176.5 236.001s-180.833 73 -311.5 73c-184 0 -326 -56.667 -426 -170c-94 -106 -141 -246 -141 -420
c0 -188.667 55.667 -333.334 167 -434.001c100 -90 233.333 -135 400 -135c156 0 281.667 39 377 117s152.666 188.667 171.999 332h-479zM723.002 1558l176 287h256l-268 -287h-164z" />
    <glyph glyph-name="uni01F5" unicode="&#x1f5;" horiz-adv-x="1403" vert-adv-y="1433" 
d="M1085 915l0.000976562 157.999h205v-983c0 -188.667 -47.667 -325.667 -143 -411c-96.667 -86.667 -257.667 -130 -483 -130c-172.667 0 -299.667 25.167 -381 75.5s-134 136.5 -158 258.5h204c20 -63.333 56 -108.166 108 -134.499s130.333 -39.5 235 -39.5
c275.333 0 413 108 413 324v155h-4c-99.333 -132 -237.333 -198 -414 -198c-128.667 0 -241.334 27.667 -338.001 83c-168 96 -252 252.667 -252 470c0 218 84 375.333 252 472c96 55.333 207.333 83 334 83c190 0 329.333 -61 418 -183h4zM685.001 925.999
c-117.333 0 -211.833 -35.333 -283.5 -106s-107.5 -163.667 -107.5 -279s35.833 -207.333 107.5 -276s167.5 -103 287.5 -103s216 34.5 288 103.5s108 160.833 108 275.5c0 116.667 -36.333 210 -109 280s-169.667 105 -291 105zM540.001 1231l176 287h256l-268 -287h-164z
" />
    <glyph glyph-name="Scommaaccent" unicode="&#x218;" horiz-adv-x="1366" vert-adv-y="1433" 
d="M33 481l217.003 -0.000976562c7.33301 -99.333 40.666 -174.666 99.999 -225.999c80.667 -69.333 203 -104 367 -104c124.667 0 222.5 22.167 293.5 66.5s106.5 105.5 106.5 183.5c0 113.333 -91 185 -273 215l-332 55c-289.333 48.667 -434 177 -434 385
c0 137.333 52.333 245.5 157 324.5s248 118.5 430 118.5c222.667 0 389 -55.333 499 -166c38.667 -38.667 66.667 -78.834 84 -120.501s30 -99.167 38 -172.5h-217c-34 180.667 -173.667 271 -419 271c-108.667 0 -195 -21.5 -259 -64.5s-96 -100.833 -96 -173.5
c0 -102.667 80 -167.667 240 -195l358 -61c294 -50.667 441 -179 441 -385c0 -169.333 -71.667 -294.666 -215 -375.999c-109.333 -62 -249 -93 -419 -93c-252 0 -435 62 -549 186c-40.667 44 -69.334 89.5 -86.001 136.5s-27.334 112.167 -32.001 195.5zM582.003 -266.001
l-0.000976562 165.999h203v-146c0 -133.333 -67.667 -213 -203 -239v70c35.333 10.667 59.833 26.334 73.5 47.001s21.834 54.667 24.501 102h-98z" />
    <glyph glyph-name="scommaaccent" unicode="&#x219;" horiz-adv-x="1214" vert-adv-y="1433" 
d="M63 338l205.002 -0.000976562c8 -143.333 122.667 -215 344 -215c214 0 321 57.333 321 172c0 74.667 -67.333 121 -202 139l-338 45c-88.667 12 -159.334 44.167 -212.001 96.5s-79 116.5 -79 192.5c0 106 44 189.5 132 250.5s208.333 91.5 361 91.5
c314 0 487.667 -120 521 -360h-205c-16 133.333 -122.667 200 -320 200c-189.333 0 -284 -55.667 -284 -167c0 -70 59.333 -113 178 -129l291 -39c249.333 -34 374 -131 374 -291c0 -115.333 -46.833 -204.333 -140.5 -267s-226.834 -94 -399.501 -94
c-174 0 -304.5 29.833 -391.5 89.5s-138.833 154.834 -155.5 285.501zM514.002 -253.001l-0.000976562 166h203v-146c0 -133.333 -67.667 -213.333 -203 -240v70c35.333 10.667 59.833 26.5 73.5 47.5s21.834 55.167 24.501 102.5h-98z" />
    <glyph glyph-name="uni021A" unicode="&#x21a;" horiz-adv-x="1327" vert-adv-y="1433" 
d="M555 0v1274h-553v188h1323v-188h-553v-1274h-217zM562 -235l-0.000976562 165.999h203v-146c0 -133.333 -67.667 -213 -203 -239v70c35.333 10.667 59.833 26.334 73.5 47.001s21.834 54.667 24.501 102h-98z" />
    <glyph glyph-name="uni021B" unicode="&#x21b;" horiz-adv-x="758" vert-adv-y="1433" 
d="M215 1073v330h205v-330h307v-160h-307v-661c0 -78 55 -117 165 -117c40.667 0 88 5 142 15v-173c-59.333 -9.33301 -131.333 -14 -216 -14c-197.333 0 -296 84.667 -296 254v696h-221v160h221zM217 -234l-0.000976562 166h203v-146
c0 -133.333 -67.667 -213.333 -203 -240v70c35.333 10.667 59.833 26.5 73.5 47.5s21.834 55.167 24.501 102.5h-98z" />
    <glyph glyph-name="uni0259" unicode="&#x259;" horiz-adv-x="1345" vert-adv-y="1433" 
d="M76 601l974 -0.00195312c-2 90 -26.333 161 -73 213c-75.333 84.667 -182.333 127 -321 127c-176 0 -294 -67.667 -354 -203h-199c20 86 62 159 126 219c104 97.333 250.667 146 440 146c186 0 333.667 -51 443 -153c104.667 -97.333 157 -231.666 157 -402.999
c0 -181.333 -57.667 -322.666 -173 -423.999c-112 -98 -256 -147 -432 -147c-143.333 0 -267 32.667 -371 98c-88 55.333 -148.333 128.333 -181 219c-24 67.333 -36 170 -36 308zM302 437.998c0 -48.667 10.333 -91.667 31 -129c63.333 -114 174.333 -171 333 -171
c138 0 242 44 312 132c38 47.333 60 103.333 66 168h-742z" />
    <glyph glyph-name="circumflex" unicode="&#x2c6;" horiz-adv-x="1024" vert-adv-y="1433" 
d="M688 1231l-176 180l-176 -180h-199l266 287h217l267 -287h-199z" />
    <glyph glyph-name="caron" unicode="&#x2c7;" horiz-adv-x="1024" vert-adv-y="1433" 
d="M512 1338l176 180h199l-267 -287h-217l-266 287h199z" />
    <glyph glyph-name="uni02C9" unicode="&#x2c9;" horiz-adv-x="1024" vert-adv-y="1433" 
d="M138 1288v160h748v-160h-748z" />
    <glyph glyph-name="breve" unicode="&#x2d8;" horiz-adv-x="1024" vert-adv-y="1433" 
d="M156 1516l135 0.000976562c18.667 -96.667 92.334 -145 221.001 -145s202.667 48.333 222 145h135c-5.33301 -53.333 -15.333 -95.333 -30 -126s-37.667 -59.334 -69 -86.001c-64 -53.333 -150 -80 -258 -80c-120.667 0 -213.334 33 -278.001 99
c-24.667 25.333 -42.667 51.833 -54 79.5s-19.333 65.5 -24 113.5z" />
    <glyph glyph-name="dotaccent" unicode="&#x2d9;" horiz-adv-x="1024" vert-adv-y="1433" 
d="M410 1249v213h205v-213h-205z" />
    <glyph glyph-name="ring" unicode="&#x2da;" horiz-adv-x="1024" vert-adv-y="1433" 
d="M514 1645c65.333 0 121.168 -23.499 167.501 -70.499s69.5 -103.5 69.5 -169.5c0 -66.667 -23.333 -123.334 -70 -170.001s-103.334 -70 -170.001 -70c-66 0 -122.333 23.333 -169 70s-70 103.334 -70 170.001c0 67.333 23.333 124.166 70 170.499s104 69.5 172 69.5z
M510.002 1534c-32.667 0 -62 -13.168 -88 -39.501s-39 -56.166 -39 -89.499c0 -34 13 -64 39 -90s55.667 -39 89 -39c34 0 64 13 90 39s39 56 39 90s-13 64 -39 90s-56.333 39 -91 39z" />
    <glyph glyph-name="ogonek" unicode="&#x2db;" horiz-adv-x="1024" vert-adv-y="1433" 
d="M512 0l111.001 0.000976562c-128.667 -67.333 -193 -143.666 -193 -228.999c0 -57.333 34.333 -86 103 -86c42 0 96.333 6.66699 163 20l25 -72c-72.667 -22.667 -143.334 -34 -212.001 -34c-142.667 0 -214 52 -214 156c0 49.333 19.167 95.666 57.5 138.999
s91.5 78.666 159.5 105.999z" />
    <glyph glyph-name="tilde" unicode="&#x2dc;" horiz-adv-x="1024" vert-adv-y="1433" 
d="M227 1247h-120.999c8 64.667 24.667 116 50 154c43.333 65.333 104.666 98 183.999 98c56 0 122.667 -16.333 200 -49c68 -28.667 121.667 -43 161 -43c26.667 0 47.167 7 61.5 21s25.5 37.667 33.5 71h121c-8 -64.667 -24.667 -116 -50 -154
c-43.333 -65.333 -105.333 -98 -186 -98c-54.667 0 -120.667 16.333 -198 49c-67.333 28.667 -121.333 43 -162 43c-26 0 -46.167 -7 -60.5 -21s-25.5 -37.667 -33.5 -71z" />
    <glyph glyph-name="hungarumlaut" unicode="&#x2dd;" horiz-adv-x="1024" vert-adv-y="1433" 
d="M590 1231l176 287h256l-268 -287h-164zM177 1231l176 287h256l-268 -287h-164z" />
    <glyph glyph-name="tonos" unicode="&#x384;" horiz-adv-x="1207" vert-adv-y="1433" 
d="M500 1575h207v-182l-65 -209h-77l-65 209v182z" />
    <glyph glyph-name="dieresistonos" unicode="&#x385;" horiz-adv-x="1207" vert-adv-y="1433" 
d="M500 1723h207v-182l-65 -209h-77l-65 209v182zM939 1420v-207h-232v207h232zM500 1420v-207h-232v207h232z" />
    <glyph glyph-name="Alphatonos" unicode="&#x386;" horiz-adv-x="1593" vert-adv-y="1433" 
d="M1310 0l-186 426h-717l-187 -426h-233l662 1462h247l662 -1462h-248zM1044 614l-281 647l-274 -647h555zM128 1462h207v-182l-65 -209h-77l-65 209v182z" />
    <glyph glyph-name="anoteleia" unicode="&#x387;" vert-adv-y="1433" 
d="M343 782c41.333 0 76.666 -14.833 105.999 -44.5s44 -65.5 44 -107.5s-14.833 -77.667 -44.5 -107s-65.167 -44 -106.5 -44c-42.667 0 -78.667 14.667 -108 44s-44 65 -44 107c0 42.667 14.833 78.667 44.5 108s65.834 44 108.501 44z" />
    <glyph glyph-name="Epsilontonos" unicode="&#x388;" horiz-adv-x="1607" vert-adv-y="1433" 
d="M306 0v1462h1175v-188h-958v-424h930v-188h-930v-474h979v-188h-1196zM15 1462h207v-182l-65 -209h-77l-65 209v182z" />
    <glyph glyph-name="Etatonos" unicode="&#x389;" horiz-adv-x="1803" vert-adv-y="1433" 
d="M1651 0h-227v689h-893v-689h-227v1462h227v-583h893v583h227v-1462zM4 1462h207v-182l-65 -209h-77l-65 209v182z" />
    <glyph glyph-name="Iotatonos" unicode="&#x38a;" horiz-adv-x="671" vert-adv-y="1433" 
d="M291 0v1462h217v-1462h-217zM18 1462h207v-182l-65 -209h-77l-65 209v182z" />
    <glyph glyph-name="Omicrontonos" unicode="&#x38c;" horiz-adv-x="1872" vert-adv-y="1433" 
d="M953 1499c265.333 0 470.667 -80.999 616 -242.999c125.333 -138.667 188 -313.667 188 -525c0 -240.667 -79 -432.334 -237 -575.001c-142.667 -128.667 -334.667 -193 -576 -193c-271.333 0 -480 81 -626 243c-124.667 138.667 -187 313.667 -187 525
c0 241.333 79 433 237 575c142 128.667 337 193 585 193zM938.001 1311c-180 0 -323.334 -52.333 -430.001 -157s-160 -245.667 -160 -423c0 -188 59 -334 177 -438c106.667 -94.667 246.334 -142 419.001 -142c183.333 0 328.5 52.167 435.5 156.5s160.5 245.5 160.5 423.5
c0 188 -58.667 334 -176 438c-106.667 94.667 -248.667 142 -426 142zM6 1462h207v-182l-65 -209h-77l-65 209v182z" />
    <glyph glyph-name="Upsilontonos" unicode="&#x38e;" horiz-adv-x="1743" vert-adv-y="1433" 
d="M1007 797l485 665h264l-645 -850v-612h-217v602l-641 860h276zM9 1462h207v-182l-65 -209h-77l-65 209v182z" />
    <glyph glyph-name="Omegatonos" unicode="&#x38f;" horiz-adv-x="1912" vert-adv-y="1433" 
d="M123 0l-0.000976562 164.999h486c-131.333 62 -228.666 127.333 -291.999 196c-104.667 113.333 -157 257.333 -157 432c0 216 76.333 385.667 229 509c160 130 362.667 195 608 195c171.333 0 330.666 -37 477.999 -111c238.667 -120 358 -317.667 358 -593
c0 -148.667 -34.667 -271.667 -104 -369s-184 -183.666 -344 -258.999h485v-165h-726v165c134 64 233.333 130 298 198c104 111.333 156 252.666 156 423.999c0 158.667 -50.333 284.334 -151 377.001c-107.333 98.667 -257.333 148 -450 148
c-103.333 0 -198.166 -16.667 -284.499 -50s-154.5 -79.333 -204.5 -138c-75.333 -89.333 -113 -201.333 -113 -336c0 -144.667 35.5 -265.5 106.5 -362.5s187.167 -183.833 348.5 -260.5v-165h-727zM9.99902 1462h207v-182l-65 -209h-77l-65 209v182z" />
    <glyph glyph-name="iotadieresistonos" unicode="&#x390;" horiz-adv-x="482" vert-adv-y="1433" 
d="M136 0v1073h212v-1073h-212zM138 1723h207v-182l-65 -209h-77l-65 209v182zM577 1420v-207h-232v207h232zM138 1420v-207h-232v207h232z" />
    <glyph glyph-name="Alpha" unicode="&#x391;" horiz-adv-x="1554" vert-adv-y="1433" 
d="M1315 0l-186 426h-717l-187 -426h-233l662 1462h247l662 -1462h-248zM1049 614l-281 647l-274 -647h555z" />
    <glyph glyph-name="Beta" unicode="&#x392;" horiz-adv-x="1593" vert-adv-y="1433" 
d="M158 0v1462h813c300.667 0 451 -121.667 451 -365c0 -150.667 -71.333 -254.334 -214 -311.001v-4c184.667 -48.667 277 -167 277 -355c0 -128 -42.5 -231.167 -127.5 -309.5s-196.833 -117.5 -335.5 -117.5h-864zM375 858.001h592c74.667 0 133 18.333 175 55
s63 87.667 63 153c0 138.667 -83.333 208 -250 208h-580v-416zM375 188.001h588c203.333 0 305 82 305 246c0 157.333 -95.667 236 -287 236h-606v-482z" />
    <glyph glyph-name="Gamma" unicode="&#x393;" horiz-adv-x="1290" vert-adv-y="1433" 
d="M166 1462h1106v-188h-889v-1274h-217v1462z" />
    <glyph glyph-name="Delta" unicode="&#x394;" horiz-adv-x="1718" vert-adv-y="1433" 
d="M-13 0l742 1462h252l749 -1462h-1743zM856 1239l-534 -1049h1068z" />
    <glyph glyph-name="Epsilon" unicode="&#x395;" horiz-adv-x="1442" vert-adv-y="1433" 
d="M158 0v1462h1175v-188h-958v-424h930v-188h-930v-474h979v-188h-1196z" />
    <glyph glyph-name="Zeta" unicode="&#x396;" horiz-adv-x="1403" vert-adv-y="1433" 
d="M29 0v194l1044 1080h-970v188h1255v-188l-1048 -1086h1065v-188h-1346z" />
    <glyph glyph-name="Eta" unicode="&#x397;" horiz-adv-x="1745" vert-adv-y="1433" 
d="M1371 0v689h-996v-689h-217v1462h217v-585h996v585h217v-1462h-217z" />
    <glyph glyph-name="Theta" unicode="&#x398;" horiz-adv-x="1782" vert-adv-y="1433" 
d="M1258 815v-176h-754v176h754zM900 1499c265.333 0 470.667 -80.999 616 -242.999c125.333 -138.667 188 -313.667 188 -525c0 -240.667 -79 -432.334 -237 -575.001c-142.667 -128.667 -334.667 -193 -576 -193c-271.333 0 -480 81 -626 243
c-124.667 138.667 -187 313.667 -187 525c0 241.333 79 433 237 575c142 128.667 337 193 585 193zM885.001 1311c-180 0 -323.334 -52.333 -430.001 -157s-160 -245.667 -160 -423c0 -188 59 -334 177 -438c106.667 -94.667 246.334 -142 419.001 -142
c183.333 0 328.5 52.167 435.5 156.5s160.5 245.5 160.5 423.5c0 188 -58.667 334 -176 438c-106.667 94.667 -248.667 142 -426 142z" />
    <glyph glyph-name="Iota" unicode="&#x399;" horiz-adv-x="569" vert-adv-y="1433" 
d="M176 0v1462h217v-1462h-217z" />
    <glyph glyph-name="Kappa" unicode="&#x39a;" horiz-adv-x="1554" vert-adv-y="1433" 
d="M1247 0l-598 713l-266 -236v-477h-217v1462h217v-735l817 735h307l-694 -606l733 -856h-299z" />
    <glyph glyph-name="Lambda" unicode="&#x39b;" horiz-adv-x="1554" vert-adv-y="1433" 
d="M1315 0l-547 1261l-543 -1261h-233l662 1462h247l662 -1462h-248z" />
    <glyph glyph-name="Mu" unicode="&#x39c;" horiz-adv-x="2087" vert-adv-y="1433" 
d="M1043 250l586 1212h301v-1462h-217v1212h-4l-570 -1212h-192l-568 1188h-4v-1188h-217v1462h305z" />
    <glyph glyph-name="Nu" unicode="&#x39d;" horiz-adv-x="1745" vert-adv-y="1433" 
d="M1327 0l-940 1163h-4v-1163h-217v1462h252l940 -1163h4v1163h217v-1462h-252z" />
    <glyph glyph-name="Xi" unicode="&#x39e;" horiz-adv-x="1624" vert-adv-y="1433" 
d="M153 0v190h1319v-190h-1319zM231 653v190h1158v-190h-1158zM157 1272v190h1311v-190h-1311z" />
    <glyph glyph-name="Omicron" unicode="&#x39f;" horiz-adv-x="1782" vert-adv-y="1433" 
d="M900 1499c265.333 0 470.667 -80.999 616 -242.999c125.333 -138.667 188 -313.667 188 -525c0 -240.667 -79 -432.334 -237 -575.001c-142.667 -128.667 -334.667 -193 -576 -193c-271.333 0 -480 81 -626 243c-124.667 138.667 -187 313.667 -187 525
c0 241.333 79 433 237 575c142 128.667 337 193 585 193zM885.001 1311c-180 0 -323.334 -52.333 -430.001 -157s-160 -245.667 -160 -423c0 -188 59 -334 177 -438c106.667 -94.667 246.334 -142 419.001 -142c183.333 0 328.5 52.167 435.5 156.5s160.5 245.5 160.5 423.5
c0 188 -58.667 334 -176 438c-106.667 94.667 -248.667 142 -426 142z" />
    <glyph glyph-name="Pi" unicode="&#x3a0;" horiz-adv-x="1720" vert-adv-y="1433" 
d="M380 1272v-1272h-227v1462h1415v-1462h-227v1272h-961z" />
    <glyph glyph-name="Rho" unicode="&#x3a1;" horiz-adv-x="1479" vert-adv-y="1433" 
d="M166 0v1462h754c326 0 489 -140 489 -420c0 -142 -42.167 -253.5 -126.5 -334.5s-200.5 -121.5 -348.5 -121.5h-551v-586h-217zM383 774h522c191.333 0 287 87.333 287 262c0 75.333 -21.667 133.833 -65 175.5s-104.333 62.5 -183 62.5h-561v-500z" />
    <glyph glyph-name="Sigma" unicode="&#x3a3;" horiz-adv-x="1493" vert-adv-y="1433" 
d="M79 0v187l707 554l-705 532v189h1296v-190h-985l692 -531l-707 -551h1044v-190h-1342z" />
    <glyph glyph-name="Tau" unicode="&#x3a4;" horiz-adv-x="1327" vert-adv-y="1433" 
d="M555 0v1274h-553v188h1323v-188h-553v-1274h-217z" />
    <glyph glyph-name="Upsilon" unicode="&#x3a5;" horiz-adv-x="1479" vert-adv-y="1433" 
d="M742 797l485 665h264l-645 -850v-612h-217v602l-641 860h276z" />
    <glyph glyph-name="Phi" unicode="&#x3a6;" horiz-adv-x="1772" vert-adv-y="1433" 
d="M774 -20l0.000976562 182.999c-132.667 6.66699 -248.334 31.334 -347.001 74.001c-117.333 50.667 -208 125.667 -272 225c-50.667 80 -76 169.667 -76 269c0 162.667 63 295.667 189 399s294.667 160 506 170v182h227v-182c146.667 -7.33301 272.667 -35 378 -83
c210.667 -96 316 -258 316 -486c0 -169.333 -60.833 -303.833 -182.5 -403.5s-292.167 -154.5 -511.5 -164.5v-183h-227zM774.001 1138c-147.333 -10 -260.834 -50.333 -340.501 -121s-119.5 -166 -119.5 -286c0 -156 73.667 -271.333 221 -346
c66.667 -34 146.334 -54 239.001 -60v813zM1001 1138v-813c144.667 9.33301 257.5 49.833 338.5 121.5s121.5 166.5 121.5 284.5c0 120 -39.833 215.333 -119.5 286s-193.167 111 -340.5 121z" />
    <glyph glyph-name="Chi" unicode="&#x3a7;" horiz-adv-x="1442" vert-adv-y="1433" 
d="M725 899l430 563h268l-563 -713l580 -749h-285l-442 592l-441 -592h-270l578 749l-549 713h276z" />
    <glyph glyph-name="Psi" unicode="&#x3a8;" horiz-adv-x="2004" vert-adv-y="1433" 
d="M1116 1462l0.000976562 -1020.99c180.667 7.33301 319.667 45.666 417 114.999c52.667 37.333 87.5 86.666 104.5 147.999s25.5 168.666 25.5 321.999v436h227v-436c0 -176.667 -15.333 -307 -46 -391c-60.667 -168 -219.667 -278.667 -477 -332
c-70.667 -14.667 -154.334 -23.334 -251.001 -26.001v-277h-227v277c-244 7.33301 -434.667 59 -572 155c-99.333 70 -161.333 174.667 -186 314c-11.333 63.333 -17 156.666 -17 279.999v436h227v-436c0 -158.667 9 -267.334 27 -326.001
c50 -160.667 223.667 -247 521 -259v1021h227z" />
    <glyph glyph-name="uni03A9" unicode="&#x3a9;" horiz-adv-x="1831" vert-adv-y="1433" 
d="M42 0l-0.000976562 164.999h486c-131.333 62 -228.666 127.333 -291.999 196c-104.667 113.333 -157 257.333 -157 432c0 216 76.333 385.667 229 509c160 130 362.667 195 608 195c171.333 0 330.666 -37 477.999 -111c238.667 -120 358 -317.667 358 -593
c0 -148.667 -34.667 -271.667 -104 -369s-184 -183.666 -344 -258.999h485v-165h-726v165c134 64 233.333 130 298 198c104 111.333 156 252.666 156 423.999c0 158.667 -50.333 284.334 -151 377.001c-107.333 98.667 -257.333 148 -450 148
c-103.333 0 -198.166 -16.667 -284.499 -50s-154.5 -79.333 -204.5 -138c-75.333 -89.333 -113 -201.333 -113 -336c0 -144.667 35.5 -265.5 106.5 -362.5s187.167 -183.833 348.5 -260.5v-165h-727z" />
    <glyph glyph-name="Iotadieresis" unicode="&#x3aa;" horiz-adv-x="532" vert-adv-y="1433" 
d="M379 0h-227v1462h227v-1462zM162 1634h-204v223h204v-223zM580 1634h-204v223h204v-223z" />
    <glyph glyph-name="Upsilondieresis" unicode="&#x3ab;" horiz-adv-x="1462" vert-adv-y="1433" 
d="M845 0h-227v608l-645 854h292l471 -662l478 662h276l-645 -854v-608zM548 1634h-227v223h227v-223zM1142 1634h-227v223h227v-223z" />
    <glyph glyph-name="alphatonos" unicode="&#x3ac;" horiz-adv-x="1594" vert-adv-y="1433" 
d="M1545 1075l-244 -519.001l262 -556h-232l-142 341c-44.667 -88.667 -90 -159.667 -136 -213c-100 -115.333 -233.667 -173 -401 -173c-170.667 0 -310 57 -418 171c-102 108.667 -153 243.334 -153 404.001c0 184 66.333 331.333 199 442c110 92 238 138 384 138
c117.333 0 216.833 -27.333 298.5 -82s156.167 -143.667 223.5 -267l131 314h228zM1090 555.999c-70 152.667 -134.666 257.332 -193.999 313.999s-134.333 85 -225 85c-114 0 -207.667 -46 -281 -138c-59.333 -74.667 -89 -168.667 -89 -282
c0 -143.333 43.333 -253.666 130 -330.999c69.333 -62 146.666 -93 231.999 -93c92.667 0 170 32.333 232 97s127 180.667 195 348zM661.001 1575h207v-182l-65 -209h-77l-65 209v182z" />
    <glyph glyph-name="epsilontonos" unicode="&#x3ad;" horiz-adv-x="1204" vert-adv-y="1433" 
d="M752 628l0.00195312 -143.001c-28 0.666992 -49 1 -63 1c-259.333 0 -389 -58.667 -389 -176c0 -59.333 28 -107.5 84 -144.5s129.333 -55.5 220 -55.5c180.667 0 298.334 79.667 353.001 239h208c-35.333 -127.333 -102.333 -224.5 -201 -291.5
s-224.334 -100.5 -377.001 -100.5c-196.667 0 -344 56.333 -442 169c-42.667 49.333 -64 106 -64 170c0 64.667 21 120.334 63 167.001s101 80.334 177 101.001c-136.667 61.333 -205 146.333 -205 255c0 63.333 24.333 117.666 73 162.999
c94.667 86.667 230.667 130 408 130c146.667 0 265 -30 355 -90s145.667 -146 167 -258h-206c-19.333 62.667 -47 107 -83 133c-56.667 41.333 -131.667 62 -225 62c-76.667 0 -140.834 -15.5 -192.501 -46.5s-77.5 -69.5 -77.5 -115.5
c0 -52.667 32.167 -94.167 96.5 -124.5s152.166 -45.5 263.499 -45.5c14.667 0 33.667 0.333008 57 1zM501.002 1575h207v-182l-65 -209h-77l-65 209v182z" />
    <glyph glyph-name="etatonos" unicode="&#x3ae;" horiz-adv-x="1329" vert-adv-y="1433" 
d="M125 0l0.000976562 1073h205v-162h4c93.333 132.667 234.666 199 423.999 199c112.667 0 206.667 -21.667 282 -65c109.333 -64 164 -168.667 164 -314v-1178h-205v1137c0 165.333 -102.667 248 -308 248c-110 0 -197.667 -29 -263 -87s-98 -135.667 -98 -233v-618h-205z
M579.001 1575h207v-182l-65 -209h-77l-65 209v182z" />
    <glyph glyph-name="iotatonos" unicode="&#x3af;" horiz-adv-x="482" vert-adv-y="1433" 
d="M135 0v1073h212v-1073h-212zM144 1575h207v-182l-65 -209h-77l-65 209v182z" />
    <glyph glyph-name="upsilondieresistonos" unicode="&#x3b0;" horiz-adv-x="1322" vert-adv-y="1433" 
d="M135 1073l212.001 -0.00195312v-702c0 -59.333 6.5 -104.166 19.5 -134.499s35.833 -55.166 68.5 -74.499c62 -35.333 137.667 -53 227 -53s164.333 18 225 54c33.333 20 56.333 45 69 75s19 74.333 19 133v702h212v-702c0 -81.333 -7.33301 -143.5 -22 -186.5
s-41.334 -80.167 -80.001 -111.5c-95.333 -79.333 -236 -119 -422 -119c-183.333 0 -323 37.667 -419 113c-40.667 32 -69 70.167 -85 114.5s-24 107.5 -24 189.5v702zM557.001 1723h207v-182l-65 -209h-77l-65 209v182zM996.001 1420v-207h-232v207h232zM557.001 1420v-207
h-232v207h232z" />
    <glyph glyph-name="alpha" unicode="&#x3b1;" horiz-adv-x="1594" vert-adv-y="1433" 
d="M1545 1075l-244 -519.001l262 -556h-232l-142 341c-44.667 -88.667 -90 -159.667 -136 -213c-100 -115.333 -233.667 -173 -401 -173c-170.667 0 -310 57 -418 171c-102 108.667 -153 243.334 -153 404.001c0 184 66.333 331.333 199 442c110 92 238 138 384 138
c117.333 0 216.833 -27.333 298.5 -82s156.167 -143.667 223.5 -267l131 314h228zM1090 555.999c-70 152.667 -134.666 257.332 -193.999 313.999s-134.333 85 -225 85c-114 0 -207.667 -46 -281 -138c-59.333 -74.667 -89 -168.667 -89 -282
c0 -143.333 43.333 -253.666 130 -330.999c69.333 -62 146.666 -93 231.999 -93c92.667 0 170 32.333 232 97s127 180.667 195 348z" />
    <glyph glyph-name="beta" unicode="&#x3b2;" horiz-adv-x="1338" vert-adv-y="1433" 
d="M135 -437v1439c0 96.667 7 170 21 220s39.667 92.667 77 128c94.667 90.667 235 136 421 136c156.667 0 281.667 -38.333 375 -115c83.333 -68.667 125 -154 125 -256c0 -130 -71.333 -226.333 -214 -289c211.333 -66.667 317 -198.334 317 -395.001
c0 -151.333 -56 -271.333 -168 -360c-99.333 -78 -229.333 -117 -390 -117c-142 0 -259.333 30.667 -352 92v-483h-212zM347 221.001c80 -74.667 185.002 -112.002 315.002 -112.002c122 0 216.667 31 284 93c61.333 57.333 92 133.333 92 228
c0 102 -36.333 181.333 -109 238c-66 51.333 -147.667 77 -245 77c-30 0 -65 -1.33301 -105 -4v138c99.333 4 170.666 13.667 213.999 29c41.333 14.667 75.166 41.334 101.499 80.001s39.5 81.334 39.5 128.001c0 68 -27 122.333 -81 163s-125.667 61 -215 61
c-104.667 0 -181.667 -25 -231 -75c-40 -40.667 -60 -125.667 -60 -255v-789z" />
    <glyph glyph-name="gamma" unicode="&#x3b3;" horiz-adv-x="1215" vert-adv-y="1433" 
d="M510 -448v483l-503 1038h237l374 -798l353 798h237l-486 -1038v-483h-212z" />
    <glyph glyph-name="delta" unicode="&#x3b4;" horiz-adv-x="1358" vert-adv-y="1433" 
d="M626 1041l-405 252.998v168h932v-175h-633l374 -230c123.333 -76 201 -129.667 233 -161c100 -96 150 -231 150 -405c0 -173.333 -50 -308.666 -150 -405.999c-108 -105.333 -257.333 -158 -448 -158c-187.333 0 -333.833 49.667 -439.5 149s-158.5 237.333 -158.5 414
c0 168.667 47.833 301.334 143.5 398.001s229.5 147.667 401.5 153zM673 899.998c-114.667 0 -205.332 -36.6689 -271.999 -110.002s-100 -173 -100 -299c0 -113.333 26 -204.666 78 -273.999c68 -90 168 -135 300 -135c117.333 0 209.666 36.333 276.999 109
s101 172.334 101 299.001c0 115.333 -26 207 -78 275c-68.667 90 -170.667 135 -306 135z" />
    <glyph glyph-name="epsilon" unicode="&#x3b5;" horiz-adv-x="1204" vert-adv-y="1433" 
d="M752 628l0.00195312 -143.001c-28 0.666992 -49 1 -63 1c-259.333 0 -389 -58.667 -389 -176c0 -59.333 28 -107.5 84 -144.5s129.333 -55.5 220 -55.5c180.667 0 298.334 79.667 353.001 239h208c-35.333 -127.333 -102.333 -224.5 -201 -291.5
s-224.334 -100.5 -377.001 -100.5c-196.667 0 -344 56.333 -442 169c-42.667 49.333 -64 106 -64 170c0 64.667 21 120.334 63 167.001s101 80.334 177 101.001c-136.667 61.333 -205 146.333 -205 255c0 63.333 24.333 117.666 73 162.999
c94.667 86.667 230.667 130 408 130c146.667 0 265 -30 355 -90s145.667 -146 167 -258h-206c-19.333 62.667 -47 107 -83 133c-56.667 41.333 -131.667 62 -225 62c-76.667 0 -140.834 -15.5 -192.501 -46.5s-77.5 -69.5 -77.5 -115.5
c0 -52.667 32.167 -94.167 96.5 -124.5s152.166 -45.5 263.499 -45.5c14.667 0 33.667 0.333008 57 1z" />
    <glyph glyph-name="zeta" unicode="&#x3b6;" horiz-adv-x="1143" vert-adv-y="1433" 
d="M193 1287v174.999h868v-175c-186 -82.667 -337.333 -178.667 -454 -288c-204.667 -192 -307 -380.333 -307 -565c0 -128 42 -210.333 126 -247c39.333 -17.333 124 -31.333 254 -42l116 -9c92 -7.33301 162 -20.333 210 -39c77.333 -30 116 -86 116 -168
c0 -48 -6.66699 -91.667 -20 -131s-47.666 -117.666 -102.999 -234.999h-217c60 122 95.833 198.333 107.5 229s17.5 63.667 17.5 99s-12.833 59.5 -38.5 72.5s-77.834 22.167 -156.501 27.5l-110 8c-116 8 -210 24.667 -282 50c-159.333 56 -239 179 -239 369
c0 233.333 121.667 454.333 365 663c98 84 201.667 152.667 311 206h-564z" />
    <glyph glyph-name="eta" unicode="&#x3b7;" horiz-adv-x="1329" vert-adv-y="1433" 
d="M125 0l0.000976562 1073h205v-162h4c93.333 132.667 234.666 199 423.999 199c112.667 0 206.667 -21.667 282 -65c109.333 -64 164 -168.667 164 -314v-1178h-205v1137c0 165.333 -102.667 248 -308 248c-110 0 -197.667 -29 -263 -87s-98 -135.667 -98 -233v-618h-205z
" />
    <glyph glyph-name="theta" unicode="&#x3b8;" horiz-adv-x="1369" vert-adv-y="1433" 
d="M693 1493c184.667 0 326.001 -57.665 424.001 -172.998c54 -64 92 -140.333 114 -229s33 -210.667 33 -366c0 -145.333 -9.66699 -261.5 -29 -348.5s-52.333 -162.167 -99 -225.5c-96 -131.333 -246.667 -197 -452 -197s-356 65.667 -452 197
c-46.667 63.333 -79.667 138.166 -99 224.499s-29 201.166 -29 344.499c0 158.667 11 282.5 33 371.5s60 165.167 114 228.5c99.333 115.333 246.666 173 441.999 173zM318.001 840.002h736c-4.66699 100 -12.667 175.333 -24 226s-31 98 -59 142
c-55.333 87.333 -150.333 131 -285 131c-126.667 0 -217.5 -37.333 -272.5 -112s-86.833 -203.667 -95.5 -387zM316.001 690.002c2.66699 -187.333 17.999 -315.333 45.999 -384c54 -132.667 161.333 -199 322 -199c173.333 0 284.333 76.667 333 230
c20.667 65.333 32.334 183 35.001 353h-736z" />
    <glyph glyph-name="iota" unicode="&#x3b9;" horiz-adv-x="482" vert-adv-y="1433" 
d="M135 0v1073h212v-1073h-212z" />
    <glyph glyph-name="kappa" unicode="&#x3ba;" horiz-adv-x="1250" vert-adv-y="1433" 
d="M347 615l557 458h276l-464 -378l539 -695h-259l-440 570l-209 -163v-407h-212v1073h212v-458z" />
    <glyph glyph-name="lambda" unicode="&#x3bb;" horiz-adv-x="1166" vert-adv-y="1433" 
d="M7 0l455 1022l-206 440h230l676 -1462h-232l-356 785l-340 -785h-227z" />
    <glyph glyph-name="uni03BC" unicode="&#x3bc;" horiz-adv-x="1322" vert-adv-y="1433" 
d="M953 1073h234.001v-1073h-212v154c-110 -132.667 -247.333 -199 -412 -199c-82.667 0 -154.667 13.333 -216 40v-443h-212v1521h212v-761c0 -64.667 23.5 -116 70.5 -154s110.5 -57 190.5 -57c99.333 0 182.666 32.333 249.999 97c63.333 62 95 159.667 95 293v582z" />
    <glyph glyph-name="nu" unicode="&#x3bd;" horiz-adv-x="1176" vert-adv-y="1433" 
d="M594 225l363 848h229l-483 -1073h-226l-487 1073h236z" />
    <glyph glyph-name="xi" unicode="&#x3be;" horiz-adv-x="1190" vert-adv-y="1433" 
d="M123 1287l0.00195312 175.002h937v-175h-225c-121.333 0 -215 -13 -281 -39c-42.667 -16.667 -77.334 -42.334 -104.001 -77.001s-40 -71 -40 -109c0 -66 40.333 -117.167 121 -153.5s195 -54.5 343 -54.5h120v-176h-128c-376 0 -564 -95 -564 -285
c0 -40 11.167 -78.333 33.5 -115s50.833 -63.334 85.5 -80.001c47.333 -22.667 137.333 -38.667 270 -48l145 -10c121.333 -9.33301 207.166 -29.5 257.499 -60.5s75.5 -79.5 75.5 -145.5c0 -82 -40.667 -205.667 -122 -371h-217c82.667 162 124 271.667 124 329
c0 36.667 -14.667 61.5 -44 74.5s-90 21.833 -182 26.5l-145 8c-136 6.66699 -242.333 31.667 -319 75c-122 68 -183 174.667 -183 320c0 188 130.333 313 391 375c-72.667 16 -129 38 -169 66c-77.333 54.667 -116 122.667 -116 204c0 105.333 66.667 187.333 200 246h-264
z" />
    <glyph glyph-name="omicron" unicode="&#x3bf;" horiz-adv-x="1420" vert-adv-y="1433" 
d="M721 1111c177.333 0 324.333 -52.666 441 -157.999c118.667 -106.667 178 -244 178 -412c0 -193.333 -76 -344.333 -228 -453c-109.333 -78 -243 -117 -401 -117c-186 0 -337 52.667 -453 158c-118 107.333 -177 246.666 -177 417.999c0 188.667 76 337.667 228 447
c108.667 78 246 117 412 117zM702 943.001c-118.667 0 -215.333 -37.332 -290 -111.999s-112 -171.334 -112 -290.001c0 -124 39.333 -222.667 118 -296c74.667 -70.667 172.334 -106 293.001 -106c140 0 247.667 46.333 323 139c58 70 87 158 87 264
c0 122.667 -39 221 -117 295c-74.667 70.667 -175.334 106 -302.001 106z" />
    <glyph glyph-name="pi" unicode="&#x3c0;" horiz-adv-x="1452" vert-adv-y="1433" 
d="M1429 1073v-175h-189v-898h-212v898h-603v-898h-212v898h-190v175h1406z" />
    <glyph glyph-name="rho" unicode="&#x3c1;" horiz-adv-x="1392" vert-adv-y="1433" 
d="M128 -444v949.999c0 112 10 199.333 30 262s56.333 120.334 109 173.001c114 114.667 268.333 172 463 172c188 0 334.333 -57.333 439 -172c95.333 -104 143 -238.333 143 -403c0 -204.667 -65.667 -358 -197 -460c-102 -79.333 -226.333 -119 -373 -119
c-162 0 -296 52.333 -402 157v-560h-212zM710 957.999c-111.333 0 -200.834 -38.668 -268.501 -116.001s-101.5 -179.666 -101.5 -306.999c0 -129.333 33.5 -231.5 100.5 -306.5s158.167 -112.5 273.5 -112.5c126.667 0 224 44 292 132c57.333 74 86 171.667 86 293
c0 129.333 -36 232.333 -108 309c-67.333 72 -158.666 108 -273.999 108z" />
    <glyph glyph-name="sigma1" unicode="&#x3c2;" horiz-adv-x="1255" vert-adv-y="1433" 
d="M857 -444c79.333 174.667 118.999 281.332 118.999 319.999c0 42.667 -41 75 -123 97l-286 78c-142.667 38 -248.667 88.333 -318 151c-51.333 45.333 -92.166 102.333 -122.499 171s-45.5 137.334 -45.5 206.001c0 72.667 16.667 144.5 50 215.5
s78.333 130.167 135 177.5c110.667 93.333 253.667 140 429 140c155.333 0 281.833 -35.5 379.5 -106.5s153.167 -168.5 166.5 -292.5h-221c-9.33301 56 -26.333 99.333 -51 130c-60.667 76 -154 114 -280 114c-122 0 -219.333 -40.333 -292 -121
c-64 -70.667 -96 -153.334 -96 -248.001c0 -125.333 46.667 -222.333 140 -291c55.333 -40.667 152 -80.667 290 -120l115 -32c147.333 -42 242 -78.333 284 -109c43.333 -32 65 -72.667 65 -122c0 -61.333 -41 -180.666 -123 -357.999h-215z" />
    <glyph glyph-name="sigma" unicode="&#x3c3;" horiz-adv-x="1412" vert-adv-y="1433" 
d="M1397 1071l0.000976562 -150h-291c113.333 -98.667 170 -232 170 -400s-50 -302.333 -150 -403c-106 -106.667 -255.333 -160 -448 -160c-187.333 0 -333.833 51 -439.5 153s-158.5 243.333 -158.5 424c0 179.333 51 318.333 153 417
c110.667 107.333 256.667 161 438 161c75.333 0 164.666 -14 267.999 -42h458zM674.001 959c-116 0 -207.332 -37.832 -273.999 -113.499s-100 -178.834 -100 -309.501c0 -117.333 26 -212 78 -284c68 -92.667 168 -139 300 -139c117.333 0 209.666 37.5 276.999 112.5
s101 178.167 101 309.5c0 118 -26 213.333 -78 286c-66.667 92 -168 138 -304 138z" />
    <glyph glyph-name="tau" unicode="&#x3c4;" horiz-adv-x="1118" vert-adv-y="1433" 
d="M452 0v898h-437v175h1088v-175h-439v-898h-212z" />
    <glyph glyph-name="upsilon" unicode="&#x3c5;" horiz-adv-x="1322" vert-adv-y="1433" 
d="M135 1073l212.001 -0.00195312v-702c0 -59.333 6.5 -104.166 19.5 -134.499s35.833 -55.166 68.5 -74.499c62 -35.333 137.667 -53 227 -53s164.333 18 225 54c33.333 20 56.333 45 69 75s19 74.333 19 133v702h212v-702c0 -81.333 -7.33301 -143.5 -22 -186.5
s-41.334 -80.167 -80.001 -111.5c-95.333 -79.333 -236 -119 -422 -119c-183.333 0 -323 37.667 -419 113c-40.667 32 -69 70.167 -85 114.5s-24 107.5 -24 189.5v702z" />
    <glyph glyph-name="phi" unicode="&#x3c6;" horiz-adv-x="1620" vert-adv-y="1433" 
d="M707 -444v404.999c-157.333 12.667 -283 47.667 -377 105c-78.667 48 -139.667 114.667 -183 200c-44 88 -66 183.333 -66 286c0 256.667 149 435.334 447 536.001v-166c-141.333 -65.333 -212 -192 -212 -380c0 -134 32 -236.333 96 -307s162.333 -112 295 -124v1000
l88 1c134.667 0 256.334 -18.667 365.001 -56c126 -44 224 -120.333 294 -229c57.333 -88 86 -187.667 86 -299c0 -201.333 -86.333 -355.666 -259 -462.999c-94.667 -58.667 -215.334 -93.334 -362.001 -104.001v-405h-212zM919 110.999c111.333 9.33301 196 40.333 254 93
c88 80.667 132 196.667 132 348c0 123.333 -33.5 220.5 -100.5 291.5s-162.167 109.833 -285.5 116.5v-849z" />
    <glyph glyph-name="chi" unicode="&#x3c7;" horiz-adv-x="1158" vert-adv-y="1433" 
d="M575 524l317 549h232l-433 -730l476 -786h-239l-357 596l-354 -596h-227l466 776l-443 740h243z" />
    <glyph glyph-name="psi" unicode="&#x3c8;" horiz-adv-x="1652" vert-adv-y="1433" 
d="M932 1073l-0.000976562 -951c140.667 11.333 238 43.5 292 96.5s81 143.167 81 270.5v584h212v-588c0 -100 -8.5 -175 -25.5 -225s-50.167 -96.667 -99.5 -140c-94 -82.667 -247.333 -133.334 -460 -152.001v-411h-212v411c-229.333 20 -389.666 77.667 -480.999 173
c-41.333 42.667 -69 87 -83 133s-21 116.333 -21 211v588h212v-584c0 -74.667 5.33301 -130.5 16 -167.5s31.334 -70.167 62.001 -99.5c57.333 -55.333 155.666 -88.666 294.999 -99.999v951h212z" />
    <glyph glyph-name="omega" unicode="&#x3c9;" horiz-adv-x="1687" vert-adv-y="1433" 
d="M738 812l212.001 -0.000976562v-416c0 -82.667 8.33301 -143.667 25 -183c29.333 -70 86 -105 170 -105c76 0 135 32.667 177 98c43.333 67.333 65 154.333 65 261c0 232 -99.667 434 -299 606h247c180.667 -159.333 271 -357.666 271 -594.999
c0 -156.667 -39.833 -282.667 -119.5 -378s-184.834 -143 -315.501 -143c-141.333 0 -250.333 61.667 -327 185c-46 -68 -93.5 -115.833 -142.5 -143.5s-111.5 -41.5 -187.5 -41.5c-114 0 -208.333 36.333 -283 109c-100 98.667 -150 236 -150 412
c0 238 90.667 436.333 272 595h246c-198.667 -171.333 -298 -374 -298 -608c0 -109.333 21.5 -196.333 64.5 -261s100.833 -97 173.5 -97c70 0 120.667 22.667 152 68s47 119 47 221v416z" />
    <glyph glyph-name="iotadieresis" unicode="&#x3ca;" horiz-adv-x="482" vert-adv-y="1433" 
d="M135 0v1073h212v-1073h-212zM174 1433v-206h-262v206h262zM583 1433v-206h-262v206h262z" />
    <glyph glyph-name="upsilondieresis" unicode="&#x3cb;" horiz-adv-x="1322" vert-adv-y="1433" 
d="M135 1073l212.001 -0.00195312v-702c0 -59.333 6.5 -104.166 19.5 -134.499s35.833 -55.166 68.5 -74.499c62 -35.333 137.667 -53 227 -53s164.333 18 225 54c33.333 20 56.333 45 69 75s19 74.333 19 133v702h212v-702c0 -81.333 -7.33301 -143.5 -22 -186.5
s-41.334 -80.167 -80.001 -111.5c-95.333 -79.333 -236 -119 -422 -119c-183.333 0 -323 37.667 -419 113c-40.667 32 -69 70.167 -85 114.5s-24 107.5 -24 189.5v702zM298.001 1462h223v-234h-223v234zM791.001 1462h223v-234h-223v234z" />
    <glyph glyph-name="omicrontonos" unicode="&#x3cc;" horiz-adv-x="1420" vert-adv-y="1433" 
d="M721 1111c177.333 0 324.333 -52.666 441 -157.999c118.667 -106.667 178 -244 178 -412c0 -193.333 -76 -344.333 -228 -453c-109.333 -78 -243 -117 -401 -117c-186 0 -337 52.667 -453 158c-118 107.333 -177 246.666 -177 417.999c0 188.667 76 337.667 228 447
c108.667 78 246 117 412 117zM702 943.001c-118.667 0 -215.333 -37.332 -290 -111.999s-112 -171.334 -112 -290.001c0 -124 39.333 -222.667 118 -296c74.667 -70.667 172.334 -106 293.001 -106c140 0 247.667 46.333 323 139c58 70 87 158 87 264
c0 122.667 -39 221 -117 295c-74.667 70.667 -175.334 106 -302.001 106zM607.001 1575h207v-182l-65 -209h-77l-65 209v182z" />
    <glyph glyph-name="upsilontonos" unicode="&#x3cd;" horiz-adv-x="1322" vert-adv-y="1433" 
d="M135 1073l212.001 -0.00195312v-702c0 -59.333 6.5 -104.166 19.5 -134.499s35.833 -55.166 68.5 -74.499c62 -35.333 137.667 -53 227 -53s164.333 18 225 54c33.333 20 56.333 45 69 75s19 74.333 19 133v702h212v-702c0 -81.333 -7.33301 -143.5 -22 -186.5
s-41.334 -80.167 -80.001 -111.5c-95.333 -79.333 -236 -119 -422 -119c-183.333 0 -323 37.667 -419 113c-40.667 32 -69 70.167 -85 114.5s-24 107.5 -24 189.5v702zM558.001 1575h207v-182l-65 -209h-77l-65 209v182z" />
    <glyph glyph-name="omegatonos" unicode="&#x3ce;" horiz-adv-x="1687" vert-adv-y="1433" 
d="M738 812l212.001 -0.000976562v-416c0 -82.667 8.33301 -143.667 25 -183c29.333 -70 86 -105 170 -105c76 0 135 32.667 177 98c43.333 67.333 65 154.333 65 261c0 232 -99.667 434 -299 606h247c180.667 -159.333 271 -357.666 271 -594.999
c0 -156.667 -39.833 -282.667 -119.5 -378s-184.834 -143 -315.501 -143c-141.333 0 -250.333 61.667 -327 185c-46 -68 -93.5 -115.833 -142.5 -143.5s-111.5 -41.5 -187.5 -41.5c-114 0 -208.333 36.333 -283 109c-100 98.667 -150 236 -150 412
c0 238 90.667 436.333 272 595h246c-198.667 -171.333 -298 -374 -298 -608c0 -109.333 21.5 -196.333 64.5 -261s100.833 -97 173.5 -97c70 0 120.667 22.667 152 68s47 119 47 221v416zM740.001 1575h207v-182l-65 -209h-77l-65 209v182z" />
    <glyph glyph-name="uni03D1" unicode="&#x3d1;" horiz-adv-x="1356" vert-adv-y="1433" 
d="M-1 591l296.004 0.00292969c6.66699 -150 20.667 -250.333 42 -301c51.333 -122 151.666 -183 300.999 -183c180.667 0 294.667 85.333 342 256c17.333 61.333 26.666 164.666 27.999 309.999h-34c-216.667 0 -393.667 35.333 -531 106c-174 88.667 -261 208 -261 358
c0 104.667 41.667 190.167 125 256.5s191 99.5 323 99.5c233.333 0 401.666 -88.667 504.999 -266c48 -83.333 75.333 -221 82 -413c38 0 75.667 1.66699 113 5v-138c-37.333 -2.66699 -75 -4.33398 -113 -5.00098c-0.666992 -198.667 -26.334 -348.334 -77.001 -449.001
c-92 -182 -260 -273 -504 -273c-214.667 0 -365 71.333 -451 214c-48 80.667 -74.333 177 -79 289h-107v134zM1008 811.003c0.666992 26.667 1 48 1 64c0 170.667 -41 296 -123 376c-65.333 64 -151 96 -257 96c-71.333 0 -129.833 -19.5 -175.5 -58.5
s-68.5 -88.833 -68.5 -149.5c0 -96 55 -174.667 165 -236s251.333 -92 424 -92h11h23z" />
    <glyph glyph-name="uni03D5" unicode="&#x3d5;" horiz-adv-x="1630" vert-adv-y="1433" 
d="M710 -443l0.000976562 405.001c-132 7.33301 -243 33 -333 77c-92.667 45.333 -165.334 112.333 -218.001 201c-52 88 -78 187 -78 297c0 171.333 55 307.166 165 407.499s264.667 155.833 464 166.5v351h212v-351c131.333 -7.33301 242 -33 332 -77
c92.667 -46 165.167 -112.833 217.5 -200.5s78.5 -186.5 78.5 -296.5c0 -172 -54.667 -308 -164 -408s-264 -155.667 -464 -167v-405h-212zM709.001 961.001c-88.667 -7.33301 -161.333 -27 -218 -59c-126.667 -72.667 -190 -194.667 -190 -366
c0 -126.667 35 -226.5 105 -299.5s171 -114.5 303 -124.5v849zM921.002 961.001l0.000976562 -849.002c88 6.66699 160.667 26.334 218 59.001c126.667 73.333 190 195 190 365c0 127.333 -34.833 227.333 -104.5 300s-170.834 114.334 -303.501 125.001z" />
    <glyph glyph-name="afii10023" unicode="&#x401;" horiz-adv-x="1453" vert-adv-y="1433" 
d="M1370 0h-1217v1462h1198v-205h-971v-409h913v-205h-913v-438h990v-205zM580 1634h-227v223h227v-223zM1174 1634h-227v223h227v-223z" />
    <glyph glyph-name="afii10051" unicode="&#x402;" horiz-adv-x="1624" vert-adv-y="1433" 
d="M385 0v1272h-404v190h1061v-190h-430v-428c108 99.333 245.667 149 413 149c140 0 255.833 -30.833 347.5 -92.5s137.5 -139.167 137.5 -232.5v-337c0 -94 -35.833 -172.667 -107.5 -236s-160.5 -95 -266.5 -95h-297v190h295c99.333 0 149 42 149 126v324
c0 54.667 -26 97.834 -78 129.501s-123.333 47.5 -214 47.5c-107.333 0 -197.333 -21.667 -270 -65s-109 -97.333 -109 -162v-590h-227z" />
    <glyph glyph-name="afii10052" unicode="&#x403;" horiz-adv-x="1296" vert-adv-y="1433" 
d="M153 1462h1146v-190h-919v-1272h-227v1462zM606 1558l176 287h256l-268 -287h-164z" />
    <glyph glyph-name="afii10053" unicode="&#x404;" horiz-adv-x="1872" vert-adv-y="1433" 
d="M305 649c14.667 -117.333 57.667 -216.335 129 -297.002c116.667 -132.667 290.334 -199 521.001 -199c315.333 0 522 125 620 375l231 -33c-132 -352 -415.667 -528 -851 -528c-230 0 -420.667 51.667 -572 155c-211.333 144.667 -317 348.334 -317 611.001
s105.667 466.334 317 611.001c151.333 103.333 341.666 155 570.999 155c396.667 0 669.667 -148.333 819 -445l-230 -37c-112 196.667 -308 295 -588 295c-180 0 -325.833 -40.833 -437.5 -122.5s-181.5 -198.5 -209.5 -350.5h790v-190h-793z" />
    <glyph glyph-name="afii10054" unicode="&#x405;" horiz-adv-x="1366" vert-adv-y="1433" 
d="M33 481l217.003 -0.000976562c7.33301 -99.333 40.666 -174.666 99.999 -225.999c80.667 -69.333 203 -104 367 -104c124.667 0 222.5 22.167 293.5 66.5s106.5 105.5 106.5 183.5c0 113.333 -91 185 -273 215l-332 55c-289.333 48.667 -434 177 -434 385
c0 137.333 52.333 245.5 157 324.5s248 118.5 430 118.5c222.667 0 389 -55.333 499 -166c38.667 -38.667 66.667 -78.834 84 -120.501s30 -99.167 38 -172.5h-217c-34 180.667 -173.667 271 -419 271c-108.667 0 -195 -21.5 -259 -64.5s-96 -100.833 -96 -173.5
c0 -102.667 80 -167.667 240 -195l358 -61c294 -50.667 441 -179 441 -385c0 -169.333 -71.667 -294.666 -215 -375.999c-109.333 -62 -249 -93 -419 -93c-252 0 -435 62 -549 186c-40.667 44 -69.334 89.5 -86.001 136.5s-27.334 112.167 -32.001 195.5z" />
    <glyph glyph-name="afii10055" unicode="&#x406;" horiz-adv-x="569" vert-adv-y="1433" 
d="M176 0v1462h217v-1462h-217z" />
    <glyph glyph-name="afii10056" unicode="&#x407;" horiz-adv-x="532" vert-adv-y="1433" 
d="M379 0h-227v1462h227v-1462zM162 1634h-204v223h204v-223zM580 1634h-204v223h204v-223z" />
    <glyph glyph-name="afii10057" unicode="&#x408;" horiz-adv-x="1176" vert-adv-y="1433" 
d="M47 498h205v-70c0 -195.333 95.667 -293 287 -293c181.333 0 272 97 272 291v1036h217v-991c0 -338.667 -162.333 -508 -487 -508c-237.333 0 -389 83.667 -455 251c-25.333 65.333 -38.333 160 -39 284z" />
    <glyph glyph-name="afii10058" unicode="&#x409;" horiz-adv-x="2771" vert-adv-y="1433" 
d="M1337 1272l-764 0.00195312v-718c0 -164.667 -45.667 -297.334 -137 -398.001c-94 -104 -214.667 -156 -362 -156h-41v190c208.667 13.333 313 133.333 313 360v912h1218v-607h552c174.667 0 309.667 -31 405 -93c118.667 -76.667 178 -186.334 178 -329.001
c0 -152 -60.333 -266 -181 -342c-96.667 -60.667 -225.334 -91 -386 -91h-795v1272zM1564 665.002v-475h530c116 0 206.333 21 271 63s97 100.333 97 175c0 74 -32.333 132 -97 174s-155 63 -271 63h-530z" />
    <glyph glyph-name="afii10059" unicode="&#x40a;" horiz-adv-x="2772" vert-adv-y="1433" 
d="M1339 665h-959v-665h-227v1462h227v-607h959v607h227v-607h552c174 0 309 -31 405 -93c118.667 -76.667 178 -188 178 -334c0 -148.667 -60.333 -261 -181 -337c-96.667 -60.667 -225.334 -91 -386 -91h-795v665zM1566 665v-475h530c115.333 0 205.5 21 270.5 63
s97.5 100.333 97.5 175c0 74 -32.5 132 -97.5 174s-155.167 63 -270.5 63h-530z" />
    <glyph glyph-name="afii10060" unicode="&#x40b;" horiz-adv-x="1617" vert-adv-y="1433" 
d="M385 0v1272h-404v190h1061v-190h-430v-460c106 102.667 243.667 154 413 154c140 0 255.833 -31.667 347.5 -95s137.5 -143 137.5 -239v-632h-227v623c0 56 -26 100.333 -78 133s-123 49 -213 49c-108 0 -198.333 -22.333 -271 -67s-109 -100 -109 -166v-572h-227z" />
    <glyph glyph-name="afii10061" unicode="&#x40c;" horiz-adv-x="1403" vert-adv-y="1433" 
d="M153 0v1462h227v-592h159l453 592h262l-516 -691l635 -771h-263l-567 680h-163v-680h-227zM543 1558l176 287h256l-268 -287h-164z" />
    <glyph glyph-name="afii10062" unicode="&#x40e;" horiz-adv-x="1482" vert-adv-y="1433" 
d="M297 0v190h140c59.333 0 102.333 9 129 27s56 57.667 88 119l-667 1126h282l503 -908l473 908h278l-699 -1252c-78 -140 -179.333 -210 -304 -210h-223zM399 1854h135c18.667 -97.333 92.334 -146 221.001 -146s202.667 48.667 222 146h135
c-5.33301 -53.333 -15.333 -95.5 -30 -126.5s-37.667 -59.833 -69 -86.5c-64 -53.333 -150 -80 -258 -80c-120.667 0 -213.334 33 -278.001 99c-24.667 26 -42.667 52.833 -54 80.5s-19.333 65.5 -24 113.5z" />
    <glyph glyph-name="afii10145" unicode="&#x40f;" horiz-adv-x="1723" vert-adv-y="1433" 
d="M153 0v1462h227v-1272h964v1272h227v-1462h-599v-320h-227v320h-592z" />
    <glyph glyph-name="afii10017" unicode="&#x410;" horiz-adv-x="1554" vert-adv-y="1433" 
d="M1315 0l-186 426h-717l-187 -426h-233l662 1462h247l662 -1462h-248zM1049 614l-281 647l-274 -647h555z" />
    <glyph glyph-name="afii10018" unicode="&#x411;" horiz-adv-x="1598" vert-adv-y="1433" 
d="M380 855l558 -0.000976562c176 0 312.333 -31 409 -93c119.333 -76.667 179 -188 179 -334c0 -149.333 -60.667 -261.666 -182 -336.999c-97.333 -60.667 -227.333 -91 -390 -91h-801v1462h1206v-190h-979v-417zM380 664.999v-475h536c116.667 0 207.834 21 273.501 63
s98.5 100.333 98.5 175c0 74 -32.833 132 -98.5 174s-156.834 63 -273.501 63h-536z" />
    <glyph glyph-name="afii10019" unicode="&#x412;" horiz-adv-x="1593" vert-adv-y="1433" 
d="M158 0v1462h813c300.667 0 451 -121.667 451 -365c0 -150.667 -71.333 -254.334 -214 -311.001v-4c184.667 -48.667 277 -167 277 -355c0 -128 -42.5 -231.167 -127.5 -309.5s-196.833 -117.5 -335.5 -117.5h-864zM375 858.001h592c74.667 0 133 18.333 175 55
s63 87.667 63 153c0 138.667 -83.333 208 -250 208h-580v-416zM375 188.001h588c203.333 0 305 82 305 246c0 157.333 -95.667 236 -287 236h-606v-482z" />
    <glyph glyph-name="afii10020" unicode="&#x413;" horiz-adv-x="1296" vert-adv-y="1433" 
d="M153 1462h1146v-190h-919v-1272h-227v1462z" />
    <glyph glyph-name="afii10021" unicode="&#x414;" horiz-adv-x="1808" vert-adv-y="1433" 
d="M1531 0h-1299v-320h-227v510c146.667 10.667 258.667 63.5 336 158.5s116 227.167 116 396.5v717h1156v-1272h145v-510h-227v320zM1386 190v1082h-702v-523c0 -274 -93.667 -460.333 -281 -559h983z" />
    <glyph glyph-name="afii10022" unicode="&#x415;" horiz-adv-x="1442" vert-adv-y="1433" 
d="M158 0v1462h1175v-188h-958v-424h930v-188h-930v-474h979v-188h-1196z" />
    <glyph glyph-name="afii10024" unicode="&#x416;" horiz-adv-x="2414" vert-adv-y="1433" 
d="M1092 0v680h-280l-564 -680h-266l633 771l-521 691h265l454 -592h279v592h227v-592h281l452 592h262l-516 -691l635 -771h-259l-567 680h-288v-680h-227z" />
    <glyph glyph-name="afii10025" unicode="&#x417;" horiz-adv-x="1371" vert-adv-y="1433" 
d="M66 449h237.001v-34c0 -90 35.5 -162 106.5 -216s165.833 -81 284.5 -81c128 0 222.333 28 283 84c56 52 84 117.667 84 197c0 181.333 -129.667 272 -389 272h-100v162h83c105.333 0 190 22.5 254 67.5s96 104.167 96 177.5c0 72.667 -28.833 131.334 -86.5 176.001
s-133.167 67 -226.5 67c-98.667 0 -178.334 -23 -239.001 -69s-91 -106 -91 -180v-68h-237v34c0 128 44.667 230.667 134 308c107.333 93.333 250 140 428 140c168 0 306 -41 414 -123c94 -72 141 -163.333 141 -274c0 -81.333 -24.333 -150.666 -73 -207.999
s-117.667 -97.333 -207 -120c84.667 -12.667 152.667 -38.667 204 -78c88 -67.333 132 -157.333 132 -270c0 -138.667 -55 -249.834 -165 -333.501s-256.333 -125.5 -439 -125.5c-195.333 0 -347.833 43.167 -457.5 129.5s-166.5 208.166 -170.5 365.499z" />
    <glyph glyph-name="afii10026" unicode="&#x418;" horiz-adv-x="1729" vert-adv-y="1433" 
d="M153 0v1462h227v-1022l970 858v164h227v-1462h-227v1029l-970 -862v-167h-227z" />
    <glyph glyph-name="afii10027" unicode="&#x419;" horiz-adv-x="1729" vert-adv-y="1433" 
d="M153 0v1462h227v-1022l970 858v164h227v-1462h-227v1029l-970 -862v-167h-227zM509 1854h135c18.667 -97.333 92.334 -146 221.001 -146s202.667 48.667 222 146h135c-5.33301 -53.333 -15.333 -95.5 -30 -126.5s-37.667 -59.833 -69 -86.5
c-64 -53.333 -150 -80 -258 -80c-120.667 0 -213.334 33 -278.001 99c-24.667 26 -42.667 52.833 -54 80.5s-19.333 65.5 -24 113.5z" />
    <glyph glyph-name="afii10028" unicode="&#x41a;" horiz-adv-x="1403" vert-adv-y="1433" 
d="M153 0v1462h227v-592h159l453 592h262l-516 -691l635 -771h-263l-567 680h-163v-680h-227z" />
    <glyph glyph-name="afii10029" unicode="&#x41b;" horiz-adv-x="1705" vert-adv-y="1433" 
d="M1326 0v1272h-769v-725c0 -162.667 -45.667 -293.667 -137 -393c-94 -102.667 -214.667 -154 -362 -154h-41v161c208.667 12.667 313 140 313 382v919h1223v-1462h-227z" />
    <glyph glyph-name="afii10030" unicode="&#x41c;" horiz-adv-x="2087" vert-adv-y="1433" 
d="M1043 250l586 1212h301v-1462h-217v1212h-4l-570 -1212h-192l-568 1188h-4v-1188h-217v1462h305z" />
    <glyph glyph-name="afii10031" unicode="&#x41d;" horiz-adv-x="1745" vert-adv-y="1433" 
d="M1371 0v689h-996v-689h-217v1462h217v-585h996v585h217v-1462h-217z" />
    <glyph glyph-name="afii10032" unicode="&#x41e;" horiz-adv-x="1782" vert-adv-y="1433" 
d="M900 1499c265.333 0 470.667 -80.999 616 -242.999c125.333 -138.667 188 -313.667 188 -525c0 -240.667 -79 -432.334 -237 -575.001c-142.667 -128.667 -334.667 -193 -576 -193c-271.333 0 -480 81 -626 243c-124.667 138.667 -187 313.667 -187 525
c0 241.333 79 433 237 575c142 128.667 337 193 585 193zM885.001 1311c-180 0 -323.334 -52.333 -430.001 -157s-160 -245.667 -160 -423c0 -188 59 -334 177 -438c106.667 -94.667 246.334 -142 419.001 -142c183.333 0 328.5 52.167 435.5 156.5s160.5 245.5 160.5 423.5
c0 188 -58.667 334 -176 438c-106.667 94.667 -248.667 142 -426 142z" />
    <glyph glyph-name="afii10033" unicode="&#x41f;" horiz-adv-x="1720" vert-adv-y="1433" 
d="M380 1272v-1272h-227v1462h1415v-1462h-227v1272h-961z" />
    <glyph glyph-name="afii10034" unicode="&#x420;" horiz-adv-x="1479" vert-adv-y="1433" 
d="M166 0v1462h754c326 0 489 -140 489 -420c0 -142 -42.167 -253.5 -126.5 -334.5s-200.5 -121.5 -348.5 -121.5h-551v-586h-217zM383 774h522c191.333 0 287 87.333 287 262c0 75.333 -21.667 133.833 -65 175.5s-104.333 62.5 -183 62.5h-561v-500z" />
    </font>
</defs>
</svg>
