<?xml version="1.0" standalone="no"?>
<!DOCTYPE svg PUBLIC "-//W3C//DTD SVG 1.1//EN" "http://www.w3.org/Graphics/SVG/1.1/DTD/svg11.dtd" >
<svg>
<metadata>
Created by FontForge 20090914 at Fri Jul 22 14:02:22 2016
 By www-data
(URW)++,Copyright 2010 by (URW)++ Design &#38; Development
</metadata>
<defs>
<font id="HiltiSmall-Bold" horiz-adv-x="1251" vert-adv-y="2048" >
  <font-face 
    font-family="Hilti Small Bold"
    font-weight="400"
    font-variant="small-caps"
    font-stretch="normal"
    units-per-em="2048"
    panose-1="0 0 0 0 0 0 0 0 0 0"
    ascent="1641"
    descent="-407"
    x-height="1060"
    cap-height="1462"
    bbox="-356 -548 2712 2178"
    underline-thickness="176"
    underline-position="-119"
    unicode-range="U+0020-U+299D"
  />
<missing-glyph horiz-adv-x="569" vert-adv-y="1433" 
d="M57 0v1462h455v-1462h-455zM455 57v1348h-341v-1348h341z" />
    <glyph glyph-name=".notdef" horiz-adv-x="569" vert-adv-y="1433" 
d="M57 0v1462h455v-1462h-455zM455 57v1348h-341v-1348h341z" />
    <glyph glyph-name="space" unicode=" " horiz-adv-x="569" vert-adv-y="1433" 
 />
    <glyph glyph-name="exclam" unicode="!" horiz-adv-x="569" vert-adv-y="1433" 
d="M461 1462v-389l-81 -627h-146l-80 622v394h307zM465 314v-314h-317v314h317z" />
    <glyph glyph-name="quotedbl" unicode="&#x22;" horiz-adv-x="948" vert-adv-y="1433" 
d="M747 874h-151l-53 588h258zM351 874h-151l-53 588h258z" />
    <glyph glyph-name="numbersign" unicode="#" horiz-adv-x="1139" vert-adv-y="1433" 
d="M802 459l-52 -371h-182l52 371h-194l-52 -371h-182l52 371h-228l25 178h228l26 181h-229l26 178h228l48 339h182l-48 -339h193l48 339h182l-48 -339h245l-25 -178h-245l-25 -181h245l-25 -178h-245zM670 818h-193l-25 -181h193z" />
    <glyph glyph-name="dollar" unicode="$" horiz-adv-x="1139" vert-adv-y="1433" 
d="M628 1235l0.00195312 -372.999c9.33301 -2.66699 35.666 -9.33398 78.999 -20.001c149.333 -38.667 255.666 -89.5 318.999 -152.5s95 -149.5 95 -259.5c0 -132.667 -43.833 -239.167 -131.5 -319.5s-208.167 -124.5 -361.5 -132.5v-203h-121v204
c-158 9.33301 -280.333 55.833 -367 139.5s-130.334 197.834 -131.001 342.501h284c-1.33301 -158.667 70 -245.667 214 -261v423c-133.333 37.333 -225.333 70.666 -276 99.999c-124.667 72 -187 178 -187 318c0 120 40.333 215.667 121 287s194.667 111.666 342 120.999
v180h121v-180c292.667 -15.333 441.334 -154.666 446.001 -417.999h-271c-6.66699 118.667 -65 186.667 -175 204zM507.002 1238c-127.333 -11.333 -191 -69.666 -191 -174.999c0 -46.667 14 -82.834 42 -108.501s77.667 -47.167 149 -64.5v348zM628.002 200.001
c140.667 17.333 211 82.667 211 196c0 68 -27.333 118 -82 150c-15.333 9.33301 -58.333 25 -129 47v-393z" />
    <glyph glyph-name="percent" unicode="%" horiz-adv-x="2048" vert-adv-y="1433" 
d="M1505 1478l-808 -1534h-182l810 1534h180zM1532 771c108 0 191.166 -33.666 249.499 -100.999s87.5 -163 87.5 -287c0 -133.333 -29.667 -235.333 -89 -306s-145 -106 -257 -106c-110 0 -194.5 33.667 -253.5 101s-88.5 164.333 -88.5 291
c0 131.333 30.333 232.166 91 302.499s147.334 105.5 260.001 105.5zM1523 623.001c-88.667 0 -133 -86 -133 -258c0 -163.333 44.333 -245 133 -245c90 0 135 85.333 135 256c0 164.667 -45 247 -135 247zM529.999 1451c108.667 0 192 -33.5 250 -100.5
s87 -162.833 87 -287.5c0 -133.333 -29.167 -235.333 -87.5 -306s-142.5 -106 -252.5 -106c-112 0 -197.833 34.667 -257.5 104s-89.5 169 -89.5 299c0 127.333 30.333 225.333 91 294s147 103 259 103zM522.999 1302c-89.333 0 -133.999 -86.667 -133.999 -260
c0 -162 43.333 -243 130 -243c49.333 0 84.833 20.833 106.5 62.5s32.5 109.167 32.5 202.5c0 83.333 -10.833 143.833 -32.5 181.5s-55.834 56.5 -102.501 56.5z" />
    <glyph glyph-name="ampersand" unicode="&#x26;" horiz-adv-x="1403" vert-adv-y="1433" 
d="M1257 706c-17.333 -140.667 -63.998 -260.333 -139.998 -359l297 -347h-355l-120 144c-111.333 -116.667 -247.333 -175 -408 -175c-146 0 -263 42 -351 126c-86 82.667 -129 184.667 -129 306c0 90.667 29.167 174.167 87.5 250.5s139.166 137.5 242.499 183.5
c-90.667 108.667 -136 209.667 -136 303c0 99.333 37 181.333 111 246s168 97 282 97c104.667 0 192 -30 262 -90c78.667 -67.333 118 -153.333 118 -258c0 -156.667 -84.667 -279.667 -254 -369l189 -229c25.333 45.333 42.666 102.333 51.999 171h252zM620.002 937.001
c102.667 61.333 154.001 128.999 154.001 202.999c0 38.667 -12.833 70.834 -38.5 96.501s-57.834 38.5 -96.501 38.5s-71 -12.167 -97 -36.5s-39 -54.5 -39 -90.5c0 -56 39 -126.333 117 -211zM532.003 645c-131.333 -65.333 -197 -144 -197 -236
c0 -54.667 20.167 -101.167 60.5 -139.5s89.5 -57.5 147.5 -57.5c86.667 0 167 42.667 241 128z" />
    <glyph glyph-name="quotesingle" unicode="'" horiz-adv-x="569" vert-adv-y="1433" 
d="M360 874h-151l-53 588h257z" />
    <glyph glyph-name="parenleft" unicode="(" horiz-adv-x="606" vert-adv-y="1433" 
d="M554 1462c-154 -279.333 -231.001 -580 -231.001 -902c0 -192 22.667 -372 68 -540c28.667 -107.333 62 -199 100 -275c34.667 -69.333 54.334 -109.666 59.001 -120.999h-242c-24.667 34.667 -54.5 87.667 -89.5 159s-60.833 131 -77.5 179
c-68.667 197.333 -103 394.666 -103 591.999c0 317.333 91 620 273 908h243z" />
    <glyph glyph-name="parenright" unicode=")" horiz-adv-x="606" vert-adv-y="1433" 
d="M52 -376c154 276.667 231.001 577.002 231.001 901.002c0 192 -22.667 372.333 -68 541c-28.667 108 -62 199.667 -100 275c-34.667 69.333 -54.334 109.666 -59.001 120.999h242c24.667 -36 54.5 -89.333 89.5 -160s60.833 -130 77.5 -178
c68.667 -196.667 103 -393.334 103 -590.001c0 -324.667 -91 -628 -273 -910h-243z" />
    <glyph glyph-name="asterisk" unicode="*" horiz-adv-x="834" vert-adv-y="1433" 
d="M790 1138l-242 -80l150 -201l-134 -100l-151 211l-145 -211l-138 100l153 201l-239 80l54 159l236 -90l-4 255h172l-6 -255l236 90z" />
    <glyph glyph-name="plus" unicode="+" horiz-adv-x="1229" vert-adv-y="1433" 
d="M110 618v196h406v407h196v-407h407v-196h-407v-406h-196v406h-406z" />
    <glyph glyph-name="comma" unicode="," horiz-adv-x="569" vert-adv-y="1433" 
d="M448 320l0.000976562 -250.999c6 -236 -102.667 -373 -326 -411v146c93.333 25.333 142.666 90.666 147.999 195.999h-148v320h326z" />
    <glyph glyph-name="hyphen" unicode="-" horiz-adv-x="834" vert-adv-y="1433" 
d="M695 675v-260h-556v260h556z" />
    <glyph glyph-name="period" unicode="." horiz-adv-x="569" vert-adv-y="1433" 
d="M451 325v-325h-332v325h332z" />
    <glyph glyph-name="slash" unicode="/" horiz-adv-x="760" vert-adv-y="1433" 
d="M781 1462l-677 -1838h-266l680 1838h263z" />
    <glyph glyph-name="zero" unicode="0" horiz-adv-x="1139" vert-adv-y="1433" 
d="M575 1449c163.333 0 290.834 -64.833 382.501 -194.5s137.5 -310.5 137.5 -542.5c0 -206.667 -37.333 -372.667 -112 -498c-94.667 -157.333 -231.334 -236 -410.001 -236c-167.333 0 -297.833 64.667 -391.5 194s-140.5 309 -140.5 539c0 213.333 39.333 383 118 509
c95.333 152.667 234 229 416 229zM565.001 1212c-83.333 0 -143.833 -41 -181.5 -123s-56.5 -213 -56.5 -393c0 -320.667 81 -481 243 -481c159.333 0 239 166 239 498c0 172.667 -19.5 299 -58.5 379s-100.833 120 -185.5 120z" />
    <glyph glyph-name="one" unicode="1" horiz-adv-x="1139" vert-adv-y="1433" 
d="M818 1439v-1439h-292v942h-104h-104h-101h-35v208c242 4 377.667 100.333 407 289h229z" />
    <glyph glyph-name="two" unicode="2" horiz-adv-x="1139" vert-adv-y="1433" 
d="M1084 252l0.000976562 -251.999h-1053c0 142.667 38 263 114 361c35.333 45.333 78.666 88.333 129.999 129s157 115.667 317 225c70 48 119 92.167 147 132.5s42 87.166 42 140.499c0 62 -18.833 112.167 -56.5 150.5s-87.167 57.5 -148.5 57.5
c-150 0 -227.333 -104.667 -232 -314h-281v30c0 172 49.667 305 149 399c96.667 92 221.667 138 375 138c144.667 0 262.5 -40.833 353.5 -122.5s136.5 -187.5 136.5 -317.5c0 -120 -39.667 -223.333 -119 -310c-36 -38.667 -120 -102.334 -252 -191.001
c-162 -109.333 -264.667 -197.666 -308 -264.999c96 6 177.667 9 245 9h441z" />
    <glyph glyph-name="three" unicode="3" horiz-adv-x="1139" vert-adv-y="1433" 
d="M65 971c4.66699 148 51.5 264.667 140.5 350s208.167 128 357.5 128c140 0 252.667 -34.333 338 -103c93.333 -74 140 -170 140 -288c0 -70 -18.167 -130.667 -54.5 -182s-85.5 -85.666 -147.5 -102.999c79.333 -18.667 141.666 -57.334 186.999 -116.001
s68 -130.667 68 -216c0 -135.333 -49.833 -246.333 -149.5 -333s-227.834 -130 -384.501 -130c-162.667 0 -292 45 -388 135s-144 211.333 -144 364v20h281c0 -86 21.333 -152.5 64 -199.5s103.334 -70.5 182.001 -70.5c70.667 0 127.834 19.667 171.501 59
s65.5 91 65.5 155c0 142.667 -86.333 214 -259 214c-25.333 0 -50 -1 -74 -3v206c17.333 -1.33301 33.333 -2 48 -2c169.333 0 254 60 254 180c0 52.667 -18.333 95.167 -55 127.5s-85 48.5 -145 48.5c-140 0 -213 -80.333 -219 -241h-277z" />
    <glyph glyph-name="four" unicode="4" horiz-adv-x="1139" vert-adv-y="1433" 
d="M1112 572v-243h-184v-329h-285v329h-610v270l625 840h270v-867h184zM649 569l0.000976562 273c0 124.667 1.33301 220.667 4 288c-48 -83.333 -90.667 -151.666 -128 -204.999l-121 -176c-8.66699 -12.667 -55.334 -73.334 -140.001 -182.001
c70.667 1.33301 117.667 2 141 2h244z" />
    <glyph glyph-name="five" unicode="5" horiz-adv-x="1139" vert-adv-y="1433" 
d="M1008 1427v-251h-589l-31 -175c-9.33301 -50 -20 -98 -32 -144c70 72.667 160.333 109 271 109c108 0 202 -28.333 282 -85c118.667 -84 178 -212.333 178 -385c0 -151.333 -51 -275.5 -153 -372.5s-232.333 -145.5 -391 -145.5c-154.667 0 -279 40.167 -373 120.5
s-143.667 188.833 -149 325.5h287c6 -62 30.667 -112.333 74 -151s97.333 -58 162 -58c72.667 0 132.167 25.333 178.5 76s69.5 116 69.5 196c0 81.333 -22.667 146.333 -68 195s-106 73 -182 73c-91.333 0 -163 -40.333 -215 -121l-261 4l139 789h803z" />
    <glyph glyph-name="six" unicode="6" horiz-adv-x="1139" vert-adv-y="1433" 
d="M1078 1065h-277.999c-26 108 -90 162 -192 162c-83.333 0 -145.833 -32.333 -187.5 -97s-70.834 -174.667 -87.501 -330c82 107.333 188.667 161 320 161c132 0 240 -44 324 -132s126 -201.333 126 -340c0 -158.667 -53.333 -286 -160 -382
c-96 -86 -211.333 -129 -346 -129c-172.667 0 -307 62.5 -403 187.5s-144 299.833 -144 524.5c0 239.333 51.333 426.666 154 561.999c99.333 131.333 235 197 407 197c129.333 0 235 -33.667 317 -101s132 -161.666 150 -282.999zM582.001 743
c-63.333 0 -116.166 -25 -158.499 -75s-63.5 -112.667 -63.5 -188c0 -76 21.5 -139.167 64.5 -189.5s97.167 -75.5 162.5 -75.5s119.833 25 163.5 75s65.5 112.667 65.5 188c0 77.333 -21.833 140.833 -65.5 190.5s-99.834 74.5 -168.501 74.5z" />
    <glyph glyph-name="seven" unicode="7" horiz-adv-x="1139" vert-adv-y="1433" 
d="M1060 1427l-0.000976562 -241.999l-71 -80c-121.333 -134 -215.666 -293.167 -282.999 -477.5s-107.666 -393.5 -120.999 -627.5h-302c4 225.333 73.333 475 208 749c93.333 189.333 186 328.666 278 417.999c-112.667 -3.33301 -180.334 -5 -203.001 -5h-487v265h981z
" />
    <glyph glyph-name="eight" unicode="8" horiz-adv-x="1139" vert-adv-y="1433" 
d="M297 766c-140.667 46 -210.999 145 -210.999 297c0 111.333 45.667 203.5 137 276.5s207 109.5 347 109.5c139.333 0 254.666 -35.833 345.999 -107.5s137 -162.5 137 -272.5c0 -154 -70.333 -255 -211 -303c178.667 -50.667 268 -164 268 -340
c0 -134 -49.667 -242.167 -149 -324.5s-230 -123.5 -392 -123.5c-163.333 0 -294.333 39.833 -393 119.5s-148 185.5 -148 317.5c0 88.667 23.833 164.167 71.5 226.5s113.5 103.833 197.5 124.5zM566.001 1231c-64 0 -115.669 -17.167 -155.002 -51.5s-59 -79.5 -59 -135.5
c0 -58 19.833 -104.333 59.5 -139s92.834 -52 159.501 -52s119.334 17.333 158.001 52s58 81.667 58 141c0 58 -19.5 103.333 -58.5 136s-93.167 49 -162.5 49zM562.999 660c-71.333 0 -129.833 -21.332 -175.5 -63.999s-68.5 -97.334 -68.5 -164.001
c0 -68.667 23.167 -124.5 69.5 -167.5s106.5 -64.5 180.5 -64.5c74.667 0 135 21 181 63s69 97.667 69 167c0 68.667 -23.5 124.167 -70.5 166.5s-108.833 63.5 -185.5 63.5z" />
    <glyph glyph-name="nine" unicode="9" horiz-adv-x="1139" vert-adv-y="1433" 
d="M61 364h275.999c22.667 -109.333 88.334 -164 197.001 -164c79.333 0 140.5 34.667 183.5 104s70.833 178.333 83.5 327c-80.667 -110.667 -183.667 -166 -309 -166c-132 0 -241 44.5 -327 133.5s-129 202.167 -129 339.5c0 158.667 56.333 287 169 385
c96.667 84 212.667 126 348 126c168 0 299.333 -61.667 394 -185s142 -294.333 142 -513c0 -236.667 -50 -424.667 -150 -564s-234.667 -209 -404 -209c-131.333 0 -239.833 34.833 -325.5 104.5s-135.167 163.5 -148.5 281.5zM547.999 1212
c-64 0 -117.5 -25.3291 -160.5 -75.9961s-64.5 -113.334 -64.5 -188.001c0 -76.667 21.5 -139.834 64.5 -189.501s97.5 -74.5 163.5 -74.5c64.667 0 118.5 24.667 161.5 74s64.5 111.666 64.5 186.999c0 77.333 -21.667 141.166 -65 191.499s-98 75.5 -164 75.5z" />
    <glyph glyph-name="colon" unicode=":" horiz-adv-x="569" vert-adv-y="1433" 
d="M469 1060v-324h-332v324h332zM469 325v-325h-332v325h332z" />
    <glyph glyph-name="semicolon" unicode=";" horiz-adv-x="569" vert-adv-y="1433" 
d="M469 320l0.00195312 -250.999c5.33301 -236 -103.334 -373 -326.001 -411v146c93.333 25.333 142.666 90.666 147.999 195.999h-148v320h326zM469.002 1060v-324h-332v324h332z" />
    <glyph glyph-name="less" unicode="&#x3c;" horiz-adv-x="1229" vert-adv-y="1433" 
d="M1090 1366v-313l-617 -314l616 -316v-311l-950 495v264z" />
    <glyph glyph-name="equal" unicode="=" horiz-adv-x="1229" vert-adv-y="1433" 
d="M110 801v192h1009v-192h-1009zM110 440v192h1009v-192h-1009z" />
    <glyph glyph-name="greater" unicode="&#x3e;" horiz-adv-x="1229" vert-adv-y="1433" 
d="M140 112v314l617 314l-616 315v311l949 -495v-264z" />
    <glyph glyph-name="question" unicode="?" horiz-adv-x="1139" vert-adv-y="1433" 
d="M78 994c8 162 56.668 286.334 146.001 373.001s213.333 130 372 130c150 0 269 -40.333 357 -121c86.667 -78.667 130 -178.334 130 -299.001c0 -81.333 -18.833 -148.833 -56.5 -202.5s-112.5 -119.834 -224.5 -198.501c-61.333 -43.333 -93.333 -120.333 -96 -231h-273
c3.33301 124.667 15.666 209 36.999 253s79 104 173 180c48.667 38.667 81.667 72.334 99 101.001s26 63 26 103c0 49.333 -16.167 89 -48.5 119s-74.833 45 -127.5 45c-137.333 0 -209.333 -84 -216 -252h-298zM726.001 314.001v-314h-319v314h319z" />
    <glyph glyph-name="at" unicode="@" horiz-adv-x="1638" vert-adv-y="1433" 
d="M1365 407l176.998 0.000976562c-46 -100.667 -107.667 -184 -185 -250c-149.333 -128 -317.666 -192 -504.999 -192c-152 0 -291.333 41 -418 123c-121.333 78.667 -212.666 183.667 -273.999 315c-48.667 103.333 -73 213 -73 329c0 233.333 85.667 424.666 257 573.999
c146.667 127.333 318 191 514 191c202.667 0 372.334 -68.333 509.001 -205c122.667 -121.333 184 -264.666 184 -429.999c0 -174.667 -67.333 -314.667 -202 -420c-94 -73.333 -191.667 -110 -293 -110c-81.333 0 -137.666 26.667 -168.999 80
c-74.667 -55.333 -145.667 -83 -213 -83c-81.333 0 -148.333 28.5 -201 85.5s-79 129.167 -79 216.5c0 119.333 41.333 229.333 124 330c92 112 196.333 168 313 168c63.333 0 127.666 -27.333 192.999 -82l18 48h219l-176 -537c-12 -36.667 -18 -59 -18 -67
c0 -18 14.333 -27 43 -27c69.333 0 133.666 40.667 192.999 122s89 169.666 89 264.999c0 144.667 -58 266.667 -174 366c-100.667 86 -221 129 -361 129c-185.333 0 -337 -68 -455 -204c-99.333 -114 -149 -250 -149 -408c0 -165.333 54.667 -306.333 164 -423
c118.667 -126.667 266 -190 442 -190c102 0 198 25.5 288 76.5s162.667 120.833 218 209.5zM884.998 662.001l48.001 135c14.667 42 22 76.667 22 104c0 24 -7.33301 44.667 -22 62s-32.334 26 -53.001 26c-68.667 0 -128.667 -52.667 -180 -158
c-47.333 -97.333 -71 -184 -71 -260c0 -74.667 25.667 -112 77 -112c72 0 131.667 67.667 179 203z" />
    <glyph glyph-name="A" unicode="A" horiz-adv-x="1403" vert-adv-y="1433" 
d="M867 1465l555 -1465h-335l-116 328h-543l-119 -328h-329l557 1465h330zM893 562l-94 263c-42.667 120 -75.334 226 -98.001 318c-23.333 -85.333 -57.666 -191.333 -102.999 -318l-94 -263h389z" />
    <glyph glyph-name="B" unicode="B" horiz-adv-x="1442" vert-adv-y="1433" 
d="M136 1462l658.002 0.000976562c141.333 0 246.666 -17.667 315.999 -53c126.667 -65.333 190 -170.333 190 -315c0 -138 -66.333 -238.333 -199 -301c178.667 -60.667 268 -181.334 268 -362.001c0 -135.333 -45.333 -241 -136 -317s-217.334 -114 -380.001 -114h-717
v1462zM455.002 1211v-341h292c159.333 0 239 57.333 239 172c0 59.333 -18.667 102.333 -56 129s-98.333 40 -183 40h-292zM455.002 652.001v-401h323c94.667 0 163.167 15.833 205.5 47.5s63.5 82.5 63.5 152.5c0 72 -22 123.5 -66 154.5s-117 46.5 -219 46.5h-307z" />
    <glyph glyph-name="C" unicode="C" horiz-adv-x="1518" vert-adv-y="1433" 
d="M1449 564c-13.333 -183.333 -79.168 -329.001 -197.501 -437.001s-271.166 -162 -458.499 -162c-231.333 0 -411.333 81.667 -540 245c-110 139.333 -165 313.333 -165 522c0 226 66.5 410 199.5 552s305.5 213 517.5 213c171.333 0 316.833 -49.5 436.5 -148.5
s185.5 -224.5 197.5 -376.5h-315c-17.333 82.667 -54.333 146.5 -111 191.5s-128 67.5 -214 67.5c-119.333 0 -214 -45.167 -284 -135.5s-105 -212.166 -105 -365.499c0 -152.667 34.833 -274 104.5 -364s163.5 -135 281.5 -135c195.333 0 307 111 335 333h318z" />
    <glyph glyph-name="D" unicode="D" horiz-adv-x="1518" vert-adv-y="1433" 
d="M140 1462l591.001 0.000976562c211.333 0 374.666 -52.667 489.999 -158c146 -133.333 219 -318 219 -554c0 -251.333 -69 -445.333 -207 -582c-60.667 -60.667 -129 -103.834 -205 -129.501s-172.667 -38.5 -290 -38.5h-598v1462zM459.001 1192v-922h246
c137.333 0 236.333 33 297 99c77.333 84 116 207 116 369c0 302.667 -141.667 454 -425 454h-234z" />
    <glyph glyph-name="E" unicode="E" horiz-adv-x="1327" vert-adv-y="1433" 
d="M1232 1462v-270h-778v-312h713v-251h-713v-359h792v-270h-1111v1462h1097z" />
    <glyph glyph-name="F" unicode="F" horiz-adv-x="1214" vert-adv-y="1433" 
d="M1171 1462v-270h-710v-339h618v-251h-618v-602h-319v1462h1029z" />
    <glyph glyph-name="G" unicode="G" horiz-adv-x="1554" vert-adv-y="1433" 
d="M1437 788l0.00195312 -788.002h-204l-32 167c-108 -134.667 -253.667 -202 -437 -202c-223.333 0 -399.666 82.667 -528.999 248c-107.333 138 -161 308.333 -161 511c0 230 70 418.333 210 565c131.333 138.667 300.666 208 507.999 208c168 0 310.333 -48 427 -144
s182.667 -220 198 -372h-309c-16 78.667 -51.833 140 -107.5 184s-126.167 66 -211.5 66c-122.667 0 -218.834 -44.667 -288.501 -134s-104.5 -212.666 -104.5 -369.999c0 -159.333 35.167 -283 105.5 -371s169.5 -132 297.5 -132c100.667 0 183.167 30.333 247.5 91
s98.166 140.334 101.499 239.001h-325v234h614z" />
    <glyph glyph-name="H" unicode="H" horiz-adv-x="1518" vert-adv-y="1433" 
d="M1376 1462v-1462h-319v637h-598v-637h-319v1462h319v-555h598v555h319z" />
    <glyph glyph-name="I" unicode="I" horiz-adv-x="604" vert-adv-y="1433" 
d="M461 1462v-1462h-319v1462h319z" />
    <glyph glyph-name="J" unicode="J" horiz-adv-x="1139" vert-adv-y="1433" 
d="M1003 1462v-984c0 -153.333 -29.333 -268.666 -88 -345.999c-84.667 -111.333 -215.334 -167 -392.001 -167c-166 0 -289 42.5 -369 127.5s-120 215.167 -120 390.5c0 15.333 0.333008 36.666 1 63.999h296v-38c0 -100.667 8 -167.667 24 -201
c26.667 -56 79.334 -84 158.001 -84c64 0 108.5 18 133.5 54s37.5 99 37.5 189v995h319z" />
    <glyph glyph-name="K" unicode="K" horiz-adv-x="1479" vert-adv-y="1433" 
d="M1445 1462l-573 -578l627 -884h-403l-444 656l-184 -184v-472h-319v1462h319v-436c0 -23.333 -1 -84.333 -3 -183c64 75.333 105 122.333 123 141l453 478h404z" />
    <glyph glyph-name="L" unicode="L" horiz-adv-x="1214" vert-adv-y="1433" 
d="M1168 270v-270h-1034v1462h319v-1192h715z" />
    <glyph glyph-name="M" unicode="M" horiz-adv-x="1858" vert-adv-y="1433" 
d="M1717 1462l0.000976562 -1462h-302v437c0 228 6.66699 475.333 20 742c-48 -190.667 -98 -361.334 -150 -512.001l-228 -667h-251l-235 654c-52.667 144.667 -102.334 317.334 -149.001 518.001c12.667 -286.667 19 -520 19 -700v-472h-303v1462h455l218 -636
c47.333 -136 88 -290 122 -462c30 148.667 72 304 126 466l209 632h449z" />
    <glyph glyph-name="N" unicode="N" horiz-adv-x="1518" vert-adv-y="1433" 
d="M1377 1462l-0.000976562 -1462h-321l-437 705c-94 156.667 -155.333 266 -184 328c8.66699 -110 13 -246.667 13 -410v-623h-307v1462h325l426 -690c86.667 -142 150.334 -254.333 191.001 -337c-8.66699 150.667 -13 290 -13 418v609h307z" />
    <glyph glyph-name="O" unicode="O" horiz-adv-x="1593" vert-adv-y="1433" 
d="M810 1497c194 0 357 -64.002 489 -192.002c145.333 -141.333 218 -332.666 218 -573.999c0 -208 -55 -380.333 -165 -517c-134.667 -166 -319 -249 -553 -249c-238 0 -425 85 -561 255c-107.333 134.667 -161 304.334 -161 509.001c0 242.667 69.667 431.667 209 567
c137.333 134 312 201 524 201zM794 1231c-119.333 0 -214.999 -45.5 -286.999 -136.5s-108 -211.167 -108 -360.5c0 -158.667 36 -282 108 -370c72 -88.667 170.667 -133 296 -133c116.667 0 208.667 40.667 276 122c78 93.333 117 220.333 117 381
c0 154 -35.833 275.333 -107.5 364s-169.834 133 -294.501 133z" />
    <glyph glyph-name="P" unicode="P" horiz-adv-x="1366" vert-adv-y="1433" 
d="M139 1462h589.999c176.667 0 306.334 -28 389.001 -84c127.333 -85.333 191 -214 191 -386c0 -148 -45.5 -262.5 -136.5 -343.5s-219.833 -121.5 -386.5 -121.5h-328v-527h-319v1462zM457.999 1192v-414h285c168 0 252 70 252 210c0 136 -89.667 204 -269 204h-268z" />
    <glyph glyph-name="Q" unicode="Q" horiz-adv-x="1593" vert-adv-y="1433" 
d="M1511 20l-150 -162l-216 195c-94.667 -58.667 -212.667 -88 -354 -88c-212 0 -383.333 70.5 -514 211.5s-196 325.833 -196 554.5c0 230 69.667 416 209 558c136.667 138.667 308.667 208 516 208c222 0 398.333 -76.333 529 -229c123.333 -144 185 -320.333 185 -529
c0 -238 -66 -420.667 -198 -548zM1099 397c66 88 99.001 200.667 99.001 338c0 146.667 -33.667 264.667 -101 354c-70.667 94.667 -169.667 142 -297 142c-121.333 0 -217.833 -45 -289.5 -135s-107.5 -211 -107.5 -363c0 -153.333 36 -275.333 108 -366
s168.333 -136 289 -136c49.333 0 94.666 7.33301 135.999 22l-146 128l150 160z" />
    <glyph glyph-name="R" unicode="R" horiz-adv-x="1479" vert-adv-y="1433" 
d="M124 1462l708.002 -0.000976562c140 0 247.333 -22 322 -66c127.333 -74.667 191 -190.334 191 -347.001c0 -85.333 -20.5 -159.666 -61.5 -222.999s-98.167 -108.666 -171.5 -135.999c78.667 -19.333 132.5 -59.5 161.5 -120.5s51.833 -182.167 68.5 -363.5
c9.33301 -101.333 23.666 -164.333 42.999 -189l14 -17h-333c-16.667 30 -31.334 130.333 -44.001 301c-8 103.333 -33.167 174.833 -75.5 214.5s-114.5 59.5 -216.5 59.5h-287v-575h-319v1462zM443.002 1211v-402h305c99.333 0 171.333 15.833 216 47.5s67 83.167 67 154.5
c0 133.333 -90 200 -270 200h-318z" />
    <glyph glyph-name="S" unicode="S" horiz-adv-x="1329" vert-adv-y="1433" 
d="M1211 1029l-303.999 0.00195312c-11.333 146.667 -103.333 220 -276 220c-159.333 0 -239 -56.333 -239 -169c0 -47.333 20 -82 60 -104s138 -52 294 -90c165.333 -40.667 280.333 -82.334 345 -125.001c118 -78 177 -185.667 177 -323
c0 -146 -53.833 -261.333 -161.5 -346s-254.5 -127 -440.5 -127c-199.333 0 -354 45.333 -464 136s-167 219.667 -171 387h318c10.667 -183.333 120.334 -275 329.001 -275c82.667 0 148 17.333 196 52s72 82 72 142c0 62 -37 107.333 -111 136
c-40.667 16 -136.667 45 -288 87c-174.667 48.667 -291.334 99 -350.001 151c-74.667 67.333 -112 159.666 -112 276.999c0 132.667 51.167 239 153.5 319s238.5 120 408.5 120c175.333 0 311.666 -40.5 408.999 -121.5s149 -196.5 155 -346.5z" />
    <glyph glyph-name="T" unicode="T" vert-adv-y="1433" 
d="M1228 1462v-270h-445v-1192h-318v1192h-442v270h1205z" />
    <glyph glyph-name="U" unicode="U" horiz-adv-x="1518" vert-adv-y="1433" 
d="M1382 1462l0.00195312 -864c0 -110 -8.33301 -197 -25 -261s-46.334 -123 -89.001 -177c-102.667 -130 -272 -195 -508 -195c-253.333 0 -431.333 73.667 -534 221c-62.667 90 -94 228.667 -94 416v860h319v-881c0 -111.333 16.333 -191 49 -239
c49.333 -74 138 -111 266 -111c107.333 0 183.666 26.667 228.999 80s68 143.333 68 270v881h319z" />
    <glyph glyph-name="V" unicode="V" horiz-adv-x="1290" vert-adv-y="1433" 
d="M1309 1462l-485.999 -1462h-363l-479 1462h334l191 -591c63.333 -197.333 109.666 -386 138.999 -566c33.333 184 81 372.333 143 565l190 592h331z" />
    <glyph glyph-name="W" unicode="W" horiz-adv-x="1933" vert-adv-y="1433" 
d="M1931 1462l-395.999 -1462h-320l-158 626c-34 134 -65 296.667 -93 488c-22.667 -163.333 -53 -323.333 -91 -480l-156 -634h-324l-390 1462h321l144 -614c45.333 -191.333 76.333 -369.333 93 -534c20 180 52.333 357.333 97 532l158 616h302l156 -602
c43.333 -168.667 75.666 -350.667 96.999 -546c20.667 178 54 364 100 558l142 590h318z" />
    <glyph glyph-name="X" unicode="X" horiz-adv-x="1366" vert-adv-y="1433" 
d="M1338 1462l-470.001 -696.998l513 -765h-384l-218 346c-37.333 59.333 -70.666 120.666 -99.999 183.999c-28 -56 -63.667 -117.667 -107 -185l-221 -345h-365l516 765l-476 697h374l178 -288c47.333 -76.667 84.333 -145.334 111 -206.001c32 65.333 68 130.333 108 195
l187 299h354z" />
    <glyph glyph-name="Y" unicode="Y" horiz-adv-x="1366" vert-adv-y="1433" 
d="M1387 1462l-545 -898v-564h-319v568l-546 894h365l227 -389c39.333 -68 78.333 -148 117 -240c48.667 112 89.667 196.667 123 254l221 375h357z" />
    <glyph glyph-name="Z" unicode="Z" horiz-adv-x="1327" vert-adv-y="1433" 
d="M1256 1462v-242.999l-654 -782c-8.66699 -10.667 -62.667 -69 -162 -175c131.333 5.33301 229 8 293 8h549v-270h-1237v256l674 803c21.333 25.333 65.333 71.666 132 138.999c-106.667 -4 -194.667 -6 -264 -6h-488v270h1157z" />
    <glyph glyph-name="bracketleft" unicode="[" horiz-adv-x="682" vert-adv-y="1433" 
d="M617 1462v-211h-262v-1416h262v-211h-531v1838h531z" />
    <glyph glyph-name="backslash" unicode="\" horiz-adv-x="760" vert-adv-y="1433" 
d="M-22 1462h264l679 -1838h-265z" />
    <glyph glyph-name="bracketright" unicode="]" horiz-adv-x="682" vert-adv-y="1433" 
d="M64 -376v211h262v1416h-262v211h531v-1838h-531z" />
    <glyph glyph-name="asciicircum" unicode="^" horiz-adv-x="1229" vert-adv-y="1433" 
d="M381 773h-279l337 697h350l337 -697h-280l-232 484z" />
    <glyph glyph-name="underscore" unicode="_" horiz-adv-x="1024" vert-adv-y="1433" 
d="M-36 -128h1097v-188h-1097v188z" />
    <glyph glyph-name="grave" unicode="`" horiz-adv-x="530" vert-adv-y="1433" 
d="M-68 1516h306l185 -295h-195z" />
    <glyph glyph-name="a" unicode="a" horiz-adv-x="1176" vert-adv-y="1433" 
d="M1108 0l-296 -0.000976562c-12.667 38 -19 72.333 -19 103c-90 -88 -206.667 -132 -350 -132c-113.333 0 -201 25.333 -263 76c-72 58.667 -108 140 -108 244c0 133.333 61.667 226 185 278c50.667 20.667 142.667 39.667 276 57c115.333 14.667 187.166 29 215.499 43
s42.5 42.333 42.5 85c0 92.667 -63.333 139 -190 139c-67.333 0 -116.5 -11.833 -147.5 -35.5s-51.5 -64.834 -61.5 -123.501h-274c18 236.667 181.333 355 490 355c168 0 292.333 -33.667 373 -101c36.667 -29.333 61.334 -62 74.001 -98s19 -89.667 19 -161
c0 -22.667 -1 -97 -3 -223c-1.33301 -125.333 -2 -196.666 -2 -213.999c0 -133.333 13 -230.666 39 -291.999zM789 515.999c-36.667 -21.333 -104.667 -39.667 -204 -55c-81.333 -12 -137.5 -29.5 -168.5 -52.5s-46.5 -58.167 -46.5 -105.5c0 -96 54 -144 162 -144
c78.667 0 141.167 21.5 187.5 64.5s69.5 100.833 69.5 173.5v119z" />
    <glyph glyph-name="b" unicode="b" vert-adv-y="1433" 
d="M405 1462l-0.00195312 -532.001c78.667 106.667 190.334 160 335.001 160c134.667 0 243.834 -50.5 327.501 -151.5s125.5 -233.167 125.5 -396.5c0 -153.333 -36.333 -281.666 -109 -384.999c-88 -124 -208.667 -186 -362 -186c-150.667 0 -260.667 54.333 -330 163
v-134h-277v1462h290zM644.998 862.999c-76.667 0 -137.499 -29.5 -182.499 -88.5s-67.5 -138.167 -67.5 -237.5c0 -102 22.667 -182.333 68 -241s107.666 -88 186.999 -88c76 0 136.833 30 182.5 90s68.5 139.667 68.5 239c0 100.667 -23 180.167 -69 238.5
s-108.333 87.5 -187 87.5z" />
    <glyph glyph-name="c" unicode="c" horiz-adv-x="1176" vert-adv-y="1433" 
d="M1121 406c-18.667 -136.667 -72.834 -243.334 -162.501 -320.001s-205.167 -115 -346.5 -115c-177.333 0 -315.666 59 -414.999 177c-83.333 99.333 -125 223.333 -125 372c0 172 49.5 309.833 148.5 413.5s230.833 155.5 395.5 155.5
c141.333 0 256.5 -35.833 345.5 -107.5s139.833 -169.167 152.5 -292.5h-285c-22 120.667 -92.333 181 -211 181c-80 0 -142.333 -30 -187 -90s-67 -143.667 -67 -251s21.667 -190.666 65 -249.999s104.333 -89 183 -89c128.667 0 204 72 226 216h283z" />
    <glyph glyph-name="d" unicode="d" vert-adv-y="1433" 
d="M1136 1462l0.00195312 -1462h-277v135c-68.667 -109.333 -175.334 -164 -320.001 -164c-146.667 0 -263.5 51 -350.5 153s-130.5 239 -130.5 411c0 159.333 37.667 287.666 113 384.999c87.333 113.333 204.666 170 351.999 170c145.333 0 253 -53.333 323 -160v532h290z
M598.002 863.001c-76.667 0 -137.168 -29.002 -181.501 -87.002s-66.5 -137.333 -66.5 -238c0 -103.333 22.333 -184.166 67 -242.499s106.667 -87.5 186 -87.5c80 0 142.167 28.5 186.5 85.5s66.5 136.833 66.5 239.5c0 104.667 -22.667 185.834 -68 243.501
s-108.666 86.5 -189.999 86.5z" />
    <glyph glyph-name="e" unicode="e" horiz-adv-x="1176" vert-adv-y="1433" 
d="M1100 329c-28.667 -110 -87.668 -197.169 -177.001 -261.502s-195.666 -96.5 -318.999 -96.5c-163.333 0 -294 49.667 -392 149c-100.667 102.667 -151 237.334 -151 404.001c0 154.667 45.667 284.334 137 389.001c102 117.333 234 176 396 176
c166 0 294.667 -55.333 386 -166s137 -267 137 -469h-761c7.33301 -182.667 90.333 -274 249 -274c102.667 0 174.667 49.667 216 149h279zM820.999 639.998c-8 76.667 -31.832 135.833 -71.499 177.5s-91.834 62.5 -156.501 62.5s-118 -21.5 -160 -64.5
s-67 -101.5 -75 -175.5h463z" />
    <glyph glyph-name="f" unicode="f" horiz-adv-x="682" vert-adv-y="1433" 
d="M671 1462v-214.001c-34 3.33301 -64.333 5 -91 5c-55.333 0 -92 -7.16699 -110 -21.5s-27 -43.5 -27 -87.5v-84h211v-196h-208v-864h-289v864h-173v196h173v56c0 120.667 24 206.334 72 257.001c60.667 63.333 157 95 289 95c33.333 0 84.333 -2 153 -6z" />
    <glyph glyph-name="g" unicode="g" vert-adv-y="1433" 
d="M1123 1060l-0.000976562 -928c0 -148.667 -23.667 -259.667 -71 -333c-84 -129.333 -235 -194 -453 -194c-302.667 0 -468.334 110.667 -497.001 332h292c20.667 -90.667 91 -136 211 -136c84.667 0 145.334 21.333 182.001 64s55 112.667 55 210v121
c-73.333 -109.333 -181 -164 -323 -164c-136 0 -245 46.333 -327 139c-83.333 93.333 -125 220.333 -125 381c0 161.333 41.667 290.333 125 387c86 100 198.667 150 338 150c72.667 0 132.834 -12.833 180.501 -38.5s93.167 -69.5 136.5 -131.5v141h276zM594.999 863
c-72 0 -129.167 -27.332 -171.5 -81.999s-63.5 -128.667 -63.5 -222c0 -96.667 21.5 -172.834 64.5 -228.501s101.833 -83.5 176.5 -83.5c86 0 150.333 35.667 193 107c34 56 51 125.333 51 208c0 93.333 -22.333 166.833 -67 220.5s-105.667 80.5 -183 80.5z" />
    <glyph glyph-name="h" unicode="h" horiz-adv-x="1214" vert-adv-y="1433" 
d="M404 1462v-416l-2 -130c86 115.333 197.333 173 334 173c125.333 0 218.166 -34 278.499 -102s90.5 -172.667 90.5 -314v-673h-289v624c0 78 -11 132 -33 162c-32.667 44 -83.667 66 -153 66c-91.333 0 -156.666 -39 -195.999 -117c-20 -39.333 -30 -111.333 -30 -216
v-519h-290v1462h290z" />
    <glyph glyph-name="i" unicode="i" horiz-adv-x="528" vert-adv-y="1433" 
d="M409 1462v-249h-290v249h290zM409 1060v-1060h-290v1060h290z" />
    <glyph glyph-name="j" unicode="j" horiz-adv-x="569" vert-adv-y="1433" 
d="M427 1060v-1061l2 -90c0 -196.667 -118 -295 -354 -295c-33.333 0 -72 2 -116 6v234c23.333 -1.33301 42.333 -2 57 -2c58 0 92.667 11 104 33s17 89.667 17 203v972h290zM427 1462v-249h-290v249h290z" />
    <glyph glyph-name="k" unicode="k" horiz-adv-x="1176" vert-adv-y="1433" 
d="M1135 1060l-399 -392.999l445 -667h-352l-292 471l-119 -110v-361h-290v1462h290v-632c0 -24.667 -1 -80.334 -3 -167.001c33.333 43.333 58.333 73.333 75 90l300 307h345z" />
    <glyph glyph-name="l" unicode="l" horiz-adv-x="528" vert-adv-y="1433" 
d="M409 1462v-1462h-290v1462h290z" />
    <glyph glyph-name="m" unicode="m" horiz-adv-x="1855" vert-adv-y="1433" 
d="M399 1060l0.00292969 -144.999c84.667 116 196.667 174 336 174c141.333 0 240.666 -58.667 297.999 -176c86.667 117.333 202.667 176 348 176c113.333 0 201.166 -32.833 263.499 -98.5s93.5 -157.834 93.5 -276.501v-714h-290v633c0 68.667 -7.66699 116.667 -23 144
c-26.667 50 -75.667 75 -147 75c-72.667 0 -124.834 -21.5 -156.501 -64.5s-47.5 -113.833 -47.5 -212.5v-575h-290v646c0 73.333 -12.5 126 -37.5 158s-65.833 48 -122.5 48c-141.333 0 -212 -92.333 -212 -277v-575h-290v1060h277z" />
    <glyph glyph-name="n" unicode="n" horiz-adv-x="1214" vert-adv-y="1433" 
d="M392 1060l0.000976562 -148c87.333 118.667 205.333 178 354 178c141.333 0 242.666 -48.667 303.999 -146c37.333 -60 56 -152.333 56 -277v-667h-289v609c0 68.667 -6 119 -18 151c-24 62 -78.667 93 -164 93c-79.333 0 -137.5 -24.5 -174.5 -73.5
s-55.5 -126.167 -55.5 -231.5v-548h-290v1060h277z" />
    <glyph glyph-name="o" unicode="o" vert-adv-y="1433" 
d="M636 1089c158.667 0 288.332 -51.002 388.999 -153.002c99.333 -101.333 149 -236.333 149 -405c0 -173.333 -53 -311.666 -159 -414.999c-99.333 -96.667 -228.666 -145 -387.999 -145c-170 0 -305.333 53.667 -406 161c-96 102.667 -144 235.334 -144 398.001
c0 162 46.667 292.333 140 391c105.333 112 245 168 419 168zM619.998 873.998c-77.333 0 -138.498 -30.833 -183.498 -92.5s-67.5 -145.5 -67.5 -251.5c0 -108.667 22.667 -193.167 68 -253.5s108.666 -90.5 189.999 -90.5c79.333 0 141.5 30.333 186.5 91
s67.5 145 67.5 253c0 108.667 -22.833 193.167 -68.5 253.5s-109.834 90.5 -192.501 90.5z" />
    <glyph glyph-name="p" unicode="p" vert-adv-y="1433" 
d="M392 1060v-132c73.333 107.333 183 161 329 161c140.667 0 254.667 -52 342 -156c86.667 -102 130 -238.333 130 -409c0 -158 -38.333 -286.667 -115 -386c-85.333 -111.333 -201 -167 -347 -167c-139.333 0 -248 53.333 -326 160v-507h-290v1436h277zM644 852
c-77.333 0 -138.167 -28.833 -182.5 -86.5s-66.5 -137.167 -66.5 -238.5c0 -104 22.5 -184.833 67.5 -242.5s107.833 -86.5 188.5 -86.5c77.333 0 138.333 28.667 183 86s67 136 67 236c0 104.667 -22.5 186.167 -67.5 244.5s-108.167 87.5 -189.5 87.5z" />
    <glyph glyph-name="q" unicode="q" vert-adv-y="1433" 
d="M1136 1060v-1436h-290v509c-78 -108 -187 -162 -327 -162s-251.833 50.167 -335.5 150.5s-125.5 234.5 -125.5 402.5c0 173.333 44 311.333 132 414c87.333 100.667 201.333 151 342 151c150 0 259 -53.333 327 -160v131h277zM595 852
c-75.333 0 -135 -29.8301 -179 -89.4971s-66 -140.834 -66 -243.501c0 -100.667 22.167 -179.334 66.5 -236.001s105.833 -85 184.5 -85c80 0 142.333 29 187 87s67 139 67 243c0 103.333 -22.5 183.166 -67.5 239.499s-109.167 84.5 -192.5 84.5z" />
    <glyph glyph-name="r" unicode="r" horiz-adv-x="797" vert-adv-y="1433" 
d="M804 1078l0.000976562 -269c-46.667 8.66699 -86 13 -118 13c-104 0 -181.667 -44 -233 -132c-28.667 -48.667 -43 -131 -43 -247v-443h-290v1060h276v-196c79.333 145.333 194 218 344 218c17.333 0 38.666 -1.33301 63.999 -4z" />
    <glyph glyph-name="s" unicode="s" horiz-adv-x="1100" vert-adv-y="1433" 
d="M988 752h-272c-14.667 94 -80.667 141 -198 141c-108 0 -162 -34.667 -162 -104c0 -35.333 15.5 -61 46.5 -77s102.167 -35.333 213.5 -58c152.667 -30.667 259.834 -70.167 321.501 -118.5s92.5 -117.5 92.5 -207.5c0 -110.667 -43.833 -197.834 -131.5 -261.501
s-207.167 -95.5 -358.5 -95.5c-316.667 0 -483 124.667 -499 374h278c13.333 -118.667 87.666 -178 222.999 -178c60 0 107.667 11.833 143 35.5s53 55.5 53 95.5c0 36.667 -15.167 64 -45.5 82s-94.5 38 -192.5 60c-154 34.667 -256.333 66 -307 94
c-86 48 -129 125 -129 231c0 102.667 40.333 182.334 121 239.001s193.667 85 339 85c291.333 0 446 -112.333 464 -337z" />
    <glyph glyph-name="t" unicode="t" horiz-adv-x="721" vert-adv-y="1433" 
d="M672 1060v-195.999h-217v-500c0 -62 5.66699 -101 17 -117c16.667 -24 52.334 -36 107.001 -36c26 0 57 2 93 6v-221c-66.667 -7.33301 -127.667 -11 -183 -11c-139.333 0 -232 33.333 -278 100c-18.667 27.333 -30.834 59.166 -36.501 95.499s-8.5 100.833 -8.5 193.5
v490h-177v196h177v320h289v-320h217z" />
    <glyph glyph-name="u" unicode="u" horiz-adv-x="1214" vert-adv-y="1433" 
d="M1099 1060v-1060h-277v150c-84 -119.333 -200 -179 -348 -179c-124.667 0 -217.167 34.333 -277.5 103s-90.5 173.667 -90.5 315v671h290v-586c0 -100 9.33301 -165 28 -195c30.667 -47.333 82.667 -71 156 -71c92 0 158.333 39.333 199 118c20 38.667 30 108 30 208v526
h290z" />
    <glyph glyph-name="v" unicode="v" horiz-adv-x="1065" vert-adv-y="1433" 
d="M1058 1060l-360 -1060h-326l-366 1060h305l135 -424c41.333 -130 72.333 -253.333 93 -370c18 96.667 49.667 217.667 95 363l133 431h291z" />
    <glyph glyph-name="w" unicode="w" horiz-adv-x="1667" vert-adv-y="1433" 
d="M1658 1060l-336 -1060h-300l-123 463c-23.333 86 -45.333 193.333 -66 322c-22.667 -131.333 -44.667 -238.333 -66 -321l-117 -464h-302l-338 1060h307l112 -403c27.333 -99.333 56.333 -229 87 -389c24 145.333 51.333 279 82 401l97 391h282l111 -437
c26 -102 50 -219.667 72 -353c27.333 148.667 52.333 264.667 75 348l122 442h301z" />
    <glyph glyph-name="x" unicode="x" horiz-adv-x="1100" vert-adv-y="1433" 
d="M1061 1060l-350 -493.999l394 -566h-335l-153 230c-14.667 22 -38 65.333 -70 130c-30 -58 -54.667 -102 -74 -132l-148 -228h-330l385 559l-351 501h333l113 -169c14 -20 38.667 -63 74 -129c36 61.333 63.333 106.666 82 135.999l106 162h324z" />
    <glyph glyph-name="y" unicode="y" horiz-adv-x="1063" vert-adv-y="1433" 
d="M1078 1060l-389 -1055c-39.333 -106.667 -71.833 -181.834 -97.5 -225.501s-58.167 -78.834 -97.5 -105.501c-32.667 -22 -65.167 -36.333 -97.5 -43s-85.833 -10 -160.5 -10h-28l-119 3v240h34h83c110.667 0 166 44 166 132c0 29.333 -3 51.666 -9 66.999l-378 997h314
l175 -520c18 -52 40.333 -134 67 -246c29.333 115.333 53.333 202 72 260l164 506h301z" />
    <glyph glyph-name="z" unicode="z" horiz-adv-x="1063" vert-adv-y="1433" 
d="M997 1060v-214l-435 -491c-25.333 -28 -70.666 -72.667 -135.999 -134c65.333 4 114.666 6 147.999 6h459v-227h-975v221l424 474c26.667 29.333 76 76.333 148 141c-39.333 -2 -75.333 -3 -108 -3h-422v227h897z" />
    <glyph glyph-name="braceleft" unicode="{" horiz-adv-x="682" vert-adv-y="1433" 
d="M229 542c47.333 -28.667 80.166 -62.3301 98.499 -100.997s27.5 -93.334 27.5 -164.001v-200c0 -98.667 11.833 -163.667 35.5 -195s73.5 -47 149.5 -47h28v-211h-12c-143.333 1.33301 -233.166 4.83301 -269.499 10.5s-71.166 21.167 -104.499 46.5
c-64 49.333 -96 136.666 -96 261.999v283c0 62 -9.33301 108 -28 138s-50.334 50.333 -95.001 61v250c82 19.333 123 80.666 123 183.999v299c0 120 32.667 203.333 98 250c33.333 24 68 38.667 104 44s125.333 8.66602 268 9.99902h12v-210h-29
c-74 0 -123.167 -16.667 -147.5 -50s-36.5 -101.333 -36.5 -204v-192c0 -71.333 -9 -125.666 -27 -162.999s-51 -71 -99 -101z" />
    <glyph glyph-name="bar" unicode="|" horiz-adv-x="457" vert-adv-y="1433" 
d="M70 1462h317v-1828h-317v1828z" />
    <glyph glyph-name="braceright" unicode="}" horiz-adv-x="682" vert-adv-y="1433" 
d="M454 544c-47.333 29.333 -80.167 63.332 -98.5 101.999s-27.5 93.334 -27.5 164.001v199c0 99.333 -12 164.666 -36 195.999s-73.667 47 -149 47h-29v210h12c143.333 -1.33301 233.333 -4.66602 270 -9.99902s71.667 -20.666 105 -45.999c64 -49.333 96 -137 96 -263
v-282c0 -62.667 9.16699 -108.834 27.5 -138.501s49.833 -49.834 94.5 -60.501v-251c-81.333 -20 -122 -81.333 -122 -184v-298c0 -120 -32.667 -203.667 -98 -251c-33.333 -24 -68 -38.5 -104 -43.5s-125.667 -8.5 -269 -10.5h-12v211h29c74.667 0 124.167 16.667 148.5 50
s36.5 101 36.5 203v193c0 70.667 9 124.834 27 162.501s51 71.167 99 100.5z" />
    <glyph glyph-name="asciitilde" unicode="~" horiz-adv-x="1229" vert-adv-y="1433" 
d="M241 483l-154.001 128c80 196 188 294 324 294c50 0 132.667 -25 248 -75c86.667 -38 143.667 -57 171 -57c59.333 0 113.333 46 162 138l154 -128c-43.333 -104.667 -91 -179.167 -143 -223.5s-118.333 -66.5 -199 -66.5c-43.333 0 -124.666 26.333 -243.999 79
c-73.333 32.667 -128.333 49 -165 49c-52.667 0 -104 -46 -154 -138z" />
    <glyph glyph-name="nbspace" unicode="&#xa0;" horiz-adv-x="569" vert-adv-y="1433" 
 />
    <glyph glyph-name="exclamdown" unicode="&#xa1;" horiz-adv-x="569" vert-adv-y="1433" 
d="M110 -402v390l81 628h146l80 -624v-394h-307zM104 747v313h317v-313h-317z" />
    <glyph glyph-name="cent" unicode="&#xa2;" horiz-adv-x="1139" vert-adv-y="1433" 
d="M1112 618c-12.667 -130.667 -59.333 -234.666 -140 -311.999s-186.667 -119.333 -318 -126v-215h-121v215c-129.333 8.66699 -233.333 49.667 -312 123c-112.667 104.667 -169 246.667 -169 426c0 214 73 371 219 471c76.667 52.667 164 82.667 262 90v178h121v-178
c134 -6 240 -44 318 -114c80 -72.667 125.333 -168 136 -286h-278c-14 108.667 -72.667 171 -176 187v-676c109.333 15.333 170 87.666 182 216.999h276zM533.001 1074c-130 -34.667 -194.999 -146.332 -194.999 -334.999c0 -96.667 16.667 -173.834 50 -231.501
s81.666 -93.167 144.999 -106.5v673z" />
    <glyph glyph-name="sterling" unicode="&#xa3;" horiz-adv-x="1139" vert-adv-y="1433" 
d="M1119 984l-286.002 0.00292969c-2 68 -18 119.333 -48 154c-40 45.333 -97.667 68 -173 68c-55.333 0 -101 -15.167 -137 -45.5s-54 -68.833 -54 -115.5c0 -42 12 -91 36 -147c18.667 -44 31.334 -74.667 38.001 -92h273v-170h-216c14.667 -47.333 22 -85.333 22 -114
c0 -53.333 -12.833 -101.833 -38.5 -145.5s-70.834 -92.834 -135.501 -147.501c64.667 28.667 126.334 43 185.001 43c38.667 0 86 -7.33301 142 -22c60 -16 103.667 -24 131 -24c74 0 137 28.667 189 86l124 -212c-37.333 -39.333 -85.166 -70.333 -143.499 -93
s-120.166 -34 -185.499 -34c-38.667 0 -72 2.66699 -100 8s-77.667 18.333 -149 39c-75.333 21.333 -137.333 32 -186 32c-37.333 0 -72 -5.83301 -104 -17.5s-70.333 -32.5 -115 -62.5l-126 187c66.667 47.333 114.667 89 144 125c54 66.667 81 135.667 81 207
c0 40.667 -12.333 89 -37 145h-201v170h131c-48.667 83.333 -73 168.666 -73 255.999c0 102 37.333 188 112 258c92 86 221 129 387 129c161.333 0 286.666 -40.333 375.999 -121s135 -195.334 137 -344.001z" />
    <glyph glyph-name="currency" unicode="&#xa4;" horiz-adv-x="1139" vert-adv-y="1433" 
d="M41 305l117.001 119.001c-66 80 -99 177.667 -99 293c0 123.333 33 221 99 293l-117 118l117 117l116 -115c81.333 63.333 180.666 95 297.999 95c112.667 0 206.667 -30.667 282 -92l119 116l125 -125l-115 -112c61.333 -74 92 -171.667 92 -293
c0 -116.667 -31.333 -216.334 -94 -299.001l113 -115l-113 -112l-117 118c-76 -68 -174 -102 -294 -102c-122 0 -222 33.333 -300 100l-114 -119zM569.001 1006c-85.333 0 -152.001 -33.668 -200.001 -101.001c-37.333 -52.667 -56 -116 -56 -190
c0 -79.333 21.667 -145.666 65 -198.999c48 -58.667 112 -88 192 -88c83.333 0 148 32 194 96c38 53.333 57 118 57 194c0 86 -23.167 155.5 -69.5 208.5s-107.166 79.5 -182.499 79.5z" />
    <glyph glyph-name="yen" unicode="&#xa5;" horiz-adv-x="1139" vert-adv-y="1433" 
d="M863 857h222v-162h-303l-71 -142v-40h301v-162h-301v-351h-285v351h-301v162h301v44l-70 138h-305v162h225l-270 570h315l157 -354c34.667 -78 66 -165.333 94 -262c28 95.333 61.667 187.333 101 276l151 340h306z" />
    <glyph glyph-name="brokenbar" unicode="&#xa6;" horiz-adv-x="457" vert-adv-y="1433" 
d="M70 1462h317v-768h-317v768zM70 336h317v-702h-317v702z" />
    <glyph glyph-name="section" unicode="&#xa7;" horiz-adv-x="1139" vert-adv-y="1433" 
d="M1004 1082l-255.999 -0.00488281c-6.66699 110.667 -61.667 166 -165 166c-44.667 0 -80.834 -11.333 -108.501 -34s-41.5 -52.667 -41.5 -90c0 -34.667 12 -63 36 -85s77.333 -53.667 160 -95c182.667 -92 300 -157.667 352 -197c85.333 -64.667 128 -145.667 128 -243
c0 -66.667 -18.5 -126.167 -55.5 -178.5s-88.167 -90.833 -153.5 -115.5c72.667 -64 109 -140.333 109 -229c0 -109.333 -45 -198.666 -135 -267.999c-76.667 -59.333 -176.667 -89 -300 -89c-139.333 0 -248.666 35.333 -327.999 106s-119.333 168.334 -120 293.001h256
c6 -47.333 16.667 -82.666 32 -105.999c32.667 -48 86 -72 160 -72c48 0 86.5 12.167 115.5 36.5s43.5 56.5 43.5 96.5c0 43.333 -20.167 80.5 -60.5 111.5s-134.833 82.167 -283.5 153.5c-155.333 74.667 -253.333 139.334 -294 194.001
c-43.333 58.667 -65 122.667 -65 192c0 90.667 31.667 165 95 223c34 30.667 73.667 53.334 119 68.001c-57.333 59.333 -86 127.333 -86 204c0 88.667 33.333 164 100 226c80 74.667 188.667 112 326 112c162 0 279.667 -53.667 353 -161
c43.333 -64 65.666 -137 66.999 -219zM385.001 787.995c-33.333 -10 -59.501 -26.6689 -78.501 -50.002s-28.5 -50.666 -28.5 -81.999c0 -26.667 7.16699 -49 21.5 -67s41.5 -38.667 81.5 -62c51.333 -30.667 123 -69.334 215 -116.001c38 -18.667 63.333 -31.667 76 -39
c33.333 -19.333 59.666 -32 78.999 -38c31.333 8.66699 57 25.334 77 50.001s30 51.667 30 81c0 28.667 -8.16699 52.334 -24.5 71.001s-48.166 41.334 -95.499 68.001l-75 42c-39.333 22.667 -102.666 55.667 -189.999 99c-44.667 23.333 -74 37.666 -88 42.999z" />
    <glyph glyph-name="dieresis" unicode="&#xa8;" horiz-adv-x="530" vert-adv-y="1433" 
d="M615 1489v-238h-273v238h273zM184 1489v-238h-272v238h272z" />
    <glyph glyph-name="copyright" unicode="&#xa9;" horiz-adv-x="1638" vert-adv-y="1433" 
d="M1002 604h182.998c-10 -84 -43.333 -152.333 -100 -205c-68.667 -64.667 -154.667 -97 -258 -97c-120 0 -218 39 -294 117c-82 84 -123 192.333 -123 325c0 128.667 39.667 232.667 119 312c76.667 76.667 174.334 115 293.001 115c98.667 0 178.834 -25 240.501 -75
s102.5 -123 122.5 -219h-182c-10 48 -30.333 84.5 -61 109.5s-70 37.5 -118 37.5c-68.667 0 -124.334 -24 -167.001 -72c-46 -52.667 -69 -121.667 -69 -207c0 -98 30 -176 90 -234c42.667 -40.667 92.334 -61 149.001 -61c48 0 87.833 13.833 119.5 41.5
s50.167 65.167 55.5 112.5zM829.998 1496c136.667 0 266.667 -37.665 390 -112.998c122.667 -75.333 216.667 -177 282 -305c55.333 -108.667 83 -224.334 83 -347.001c0 -144.667 -37.667 -278.334 -113 -401.001c-74.667 -122.667 -176.334 -216.667 -305.001 -282
c-109.333 -56 -225 -84 -347 -84c-144 0 -277.333 37.667 -400 113c-123.333 75.333 -217.666 177.333 -282.999 306c-55.333 108.667 -83 224 -83 346c0 145.333 37.333 279.333 112 402c74 121.333 176 215.333 306 282c108.667 55.333 228 83 358 83zM812.998 1351
c-110.667 0 -215.999 -30.668 -315.999 -92.001c-99.333 -61.333 -174.666 -143.666 -225.999 -246.999c-44 -87.333 -66 -180.333 -66 -279c0 -172.667 60.333 -320 181 -442c57.333 -58 123.666 -103 198.999 -135c75.333 -31.333 153.333 -47 234 -47
c116 0 223.667 31 323 93c98 60.667 173.333 143 226 247c44.667 88.667 67 182.667 67 282c0 117.333 -29.667 225.333 -89 324c-58.667 98 -140.667 174.333 -246 229c-86.667 44.667 -182.334 67 -287.001 67z" />
    <glyph glyph-name="ordfeminine" unicode="&#xaa;" horiz-adv-x="705" vert-adv-y="1433" 
d="M686 629h-667v124h667v-124zM649 877l-178.001 -0.000976562c-6 14.667 -10 30.667 -12 48c-51.333 -42.667 -114.666 -64 -189.999 -64c-64.667 0 -115 14 -151 42c-41.333 33.333 -62 79 -62 137c0 75.333 35.667 127.333 107 156c28.667 12 80.667 22.667 156 32
c62 7.33301 100.667 14.5 116 21.5s23 20.833 23 41.5c0 46.667 -34 70 -102 70c-36.667 0 -63 -6.16699 -79 -18.5s-26.667 -34.833 -32 -67.5h-165c9.33301 135.333 103 203 281 203c95.333 0 166.666 -18.667 213.999 -56c20.667 -16.667 34.834 -35 42.501 -55
s11.5 -50 11.5 -90c0 -14.667 -0.666992 -54.667 -2 -120c-0.666992 -45.333 -1 -85.333 -1 -120c0 -69.333 7.66699 -122.666 23 -159.999zM455.999 1153c-18 -9.33301 -53.667 -18 -107 -26c-44 -6.66699 -74.167 -15.667 -90.5 -27s-24.5 -29 -24.5 -53
c0 -48 28.333 -72 85 -72c42 0 75.333 11 100 33s37 52 37 90v55z" />
    <glyph glyph-name="guillemotleft" unicode="&#xab;" horiz-adv-x="909" vert-adv-y="1433" 
d="M402 937v-250l-186 -147l186 -143v-243l-325 253v271zM804 934v-249l-184 -143l184 -143v-241l-322 252v270z" />
    <glyph glyph-name="logicalnot" unicode="&#xac;" horiz-adv-x="1229" vert-adv-y="1433" 
d="M783 0v359h-644v276h951v-635h-307z" />
    <glyph glyph-name="uni00AD" unicode="&#xad;" horiz-adv-x="834" vert-adv-y="1433" 
d="M695 675v-260h-556v260h556z" />
    <glyph glyph-name="registered" unicode="&#xae;" horiz-adv-x="1638" vert-adv-y="1433" 
d="M509 1137l362 -0.00292969c56.667 0 99 -3.16699 127 -9.5s54.667 -19.166 80 -38.499c57.333 -43.333 86 -107 86 -191c0 -43.333 -7 -79 -21 -107s-37.667 -53.667 -71 -77c30 -18 49.333 -38.833 58 -62.5s14.667 -72.167 18 -145.5
c3.33301 -75.333 7.5 -120.666 12.5 -135.999s20.167 -31.666 45.5 -48.999h-226c-14.667 38 -22.667 83.667 -24 137c-2 56 -4.5 93.167 -7.5 111.5s-9.5 32.5 -19.5 42.5c-13.333 13.333 -44.333 20 -93 20h-136v-311h-191v816zM700 968.997l0.000976562 -176h140
c55.333 0 90.666 6.33301 105.999 19c18 15.333 27 38.666 27 69.999c0 34.667 -9 57.834 -27 69.501s-53 17.5 -105 17.5h-141zM830.001 1497c136.667 0 266.67 -37.667 390.003 -113c122.667 -76 216.667 -177.333 282 -304c55.333 -108.667 83 -224.334 83 -347.001
c0 -144 -37.667 -277.667 -113 -401c-74.667 -123.333 -176.334 -217.666 -305.001 -282.999c-108.667 -56 -224.334 -84 -347.001 -84c-144.667 0 -278.334 37.667 -401.001 113s-216.667 177.333 -282 306c-55.333 109.333 -83 225 -83 347c0 145.333 37.333 279 112 401
c74 120.667 176 214.667 306 282c108 55.333 227.333 83 358 83zM812.004 1352c-110.667 0 -216.001 -30.667 -316.001 -92c-99.333 -62 -174.666 -144 -225.999 -246c-44 -87.333 -66 -180.333 -66 -279c0 -172.667 60.333 -320 181 -442c120 -122 264.667 -183 434 -183
c170 0 315.333 61.333 436 184c120 122 180 268.333 180 439c0 118 -29.667 225.667 -89 323c-59.333 98 -141.333 174.333 -246 229c-86.667 44.667 -182.667 67 -288 67z" />
    <glyph glyph-name="macron" unicode="&#xaf;" horiz-adv-x="530" vert-adv-y="1433" 
d="M600 1440v-153h-670v153h670z" />
    <glyph glyph-name="degree" unicode="&#xb0;" horiz-adv-x="819" vert-adv-y="1433" 
d="M416 1475c96 0 178.999 -36.666 248.999 -109.999c62.667 -66 94 -145.333 94 -238c0 -99.333 -35 -183.333 -105 -252c-67.333 -66 -148.333 -99 -243 -99c-103.333 0 -189.666 38.333 -258.999 115c-60.667 66 -91 143.667 -91 233c0 51.333 10.667 100.666 32 147.999
s50.333 86.333 87 117c68 57.333 146.667 86 236 86zM404.999 1341c-51.333 0 -96.667 -19 -136 -57c-46.667 -44 -70 -96.667 -70 -158c0 -53.333 17 -100.333 51 -141c42 -50 95.333 -75 160 -75c57.333 0 107 21 149 63s63 91.667 63 149c0 60 -19.667 110.333 -59 151
c-43.333 45.333 -96 68 -158 68z" />
    <glyph glyph-name="plusminus" unicode="&#xb1;" horiz-adv-x="1229" vert-adv-y="1433" 
d="M110 618v196h406v407h196v-407h407v-196h-407v-377h-196v377h-406zM110 -29v196h1009v-196h-1009z" />
    <glyph glyph-name="twosuperior" unicode="&#xb2;" horiz-adv-x="803" vert-adv-y="1433" 
d="M739 749l0.000976562 -163.997h-689c0.666992 104 33 187.333 97 250c38.667 37.333 127 99.666 265 186.999c44 27.333 74.5 52.333 91.5 75s25.5 49 25.5 79c0 34.667 -11.333 62.667 -34 84s-52.334 32 -89.001 32c-47.333 0 -82.166 -14.833 -104.499 -44.5
s-34.5 -76.834 -36.5 -141.501h-194v19c0 107.333 32.667 189.666 98 246.999c63.333 55.333 144.666 83 243.999 83c88.667 0 162.667 -22.333 222 -67c66 -49.333 99 -116 99 -200c0 -73.333 -26 -136 -78 -188c-24 -23.333 -78 -61.333 -162 -114
c-100 -61.333 -162.333 -108.333 -187 -141c54.667 2.66699 102 4 142 4h290z" />
    <glyph glyph-name="threesuperior" unicode="&#xb3;" horiz-adv-x="803" vert-adv-y="1433" 
d="M70 1158c2.66699 74.667 22.334 135.666 59.001 182.999c60 76 149.333 114 268 114c90.667 0 164 -20.667 220 -62c62 -45.333 93 -104 93 -176c0 -76.667 -36.667 -132.667 -110 -168c96 -34 144 -99.333 144 -196c0 -83.333 -32.5 -151.166 -97.5 -203.499
s-148.833 -78.5 -251.5 -78.5c-108.667 0 -194.334 28.667 -257.001 86c-60.667 55.333 -91 134 -91 236h194v-11c0 -46.667 13.167 -83.167 39.5 -109.5s63.166 -39.5 110.499 -39.5c43.333 0 78.333 11 105 33s40 50.667 40 86c0 79.333 -54.667 119 -164 119
c-15.333 0 -31.666 -1 -48.999 -3v138c16.667 -0.666992 29.667 -1 39 -1c102.667 0 154 33 154 99c0 29.333 -11 52.833 -33 70.5s-51.333 26.5 -88 26.5c-86.667 0 -131 -47.667 -133 -143h-192z" />
    <glyph glyph-name="acute" unicode="&#xb4;" horiz-adv-x="530" vert-adv-y="1433" 
d="M599 1516l-296 -295h-195l185 295h306z" />
    <glyph glyph-name="mu" unicode="&#xb5;" horiz-adv-x="1214" vert-adv-y="1433" 
d="M131 -372l0.000976562 1425h267v-556c0 -95.333 14 -163 42 -203c42.667 -62 97.667 -93 165 -93c65.333 0 116.833 27.167 154.5 81.5s56.5 129.166 56.5 224.499v546h267v-1053h-267v153c-44.667 -116.667 -116.334 -175 -215.001 -175c-85.333 0 -153 45 -203 135
v-485h-267z" />
    <glyph glyph-name="paragraph" unicode="&#xb6;" horiz-adv-x="1270" vert-adv-y="1433" 
d="M518 -376l0.00195312 1078c-14.667 -0.666992 -25.667 -1 -33 -1c-100.667 0 -187.667 28.333 -261 85c-86.667 68 -130 165 -130 291c0 74 15.833 139.667 47.5 197s76.5 101.333 134.5 132c39.333 20.667 82.166 35.167 128.499 43.5s108.166 12.5 185.499 12.5h546
v-134h-94v-1704h-175v1704h-174v-1704h-175z" />
    <glyph glyph-name="periodcentered" unicode="&#xb7;" horiz-adv-x="569" vert-adv-y="1433" 
d="M451 708v-325h-332v325h332z" />
    <glyph glyph-name="cedilla" unicode="&#xb8;" horiz-adv-x="530" vert-adv-y="1433" 
d="M314 0l-87.001 -128.999c34 6 61.667 9 83 9c52.667 0 95.5 -13.5 128.5 -40.5s49.5 -61.833 49.5 -104.5c0 -44 -13.667 -82.333 -41 -115c-44 -51.333 -113.667 -77 -209 -77c-76 0 -154 16 -234 48l39 86c59.333 -22.667 112.333 -34 159 -34
c32.667 0 58.834 7.16699 78.501 21.5s29.5 33.166 29.5 56.499c0 22 -9 40 -27 54s-41.667 21 -71 21c-22.667 0 -47.667 -5.33301 -75 -16l-43 40l124 180h96z" />
    <glyph glyph-name="onesuperior" unicode="&#xb9;" horiz-adv-x="803" vert-adv-y="1433" 
d="M568 1449v-864h-202v556h-59h-66h-65h-29v137c84.667 2 148.667 18 192 48c32.667 22.667 55.667 63.667 69 123h160z" />
    <glyph glyph-name="ordmasculine" unicode="&#xba;" horiz-adv-x="752" vert-adv-y="1433" 
d="M709 629h-667v124h667v-124zM381 1478c90.667 0 164.667 -28.334 222 -85.001c56.667 -56 85 -130.333 85 -223c0 -95.333 -30.333 -171.666 -91 -228.999c-56.667 -53.333 -130.334 -80 -221.001 -80c-97.333 0 -174.666 29.667 -231.999 89
c-54.667 56.667 -82 129.667 -82 219c0 88.667 26.667 160.667 80 216c59.333 62 139 93 239 93zM372 1351c-41.333 0 -74.166 -16.167 -98.499 -48.5s-36.5 -76.5 -36.5 -132.5c0 -58 12.167 -102.833 36.5 -134.5s58.5 -47.5 102.5 -47.5c42.667 0 76.167 16 100.5 48
s36.5 76.333 36.5 133c0 58 -12.333 102.833 -37 134.5s-59.334 47.5 -104.001 47.5z" />
    <glyph glyph-name="guillemotright" unicode="&#xbb;" horiz-adv-x="909" vert-adv-y="1433" 
d="M508 937l325 -259v-271l-325 -253v243l186 143l-186 147v250zM106 934l320 -254v-270l-320 -252v241l183 143l-183 143v249z" />
    <glyph glyph-name="onequarter" unicode="&#xbc;" horiz-adv-x="1827" vert-adv-y="1433" 
d="M490 1449v-864h-202v556h-59h-66h-65h-29v137c84.667 2 148.667 18 192 48c32.667 22.667 55.667 63.667 69 123h160zM1311 1442l-800 -1442h-171l803 1442h168zM1708 352v-158h-118v-194h-193v194h-395v169l405 501h183v-512h118zM1403 345v312l-238 -312h238z" />
    <glyph glyph-name="onehalf" unicode="&#xbd;" horiz-adv-x="1821" vert-adv-y="1433" 
d="M487 1449v-864h-202v556h-59h-66h-65h-29v137c84.667 2 148.667 18 192 48c32.667 22.667 55.667 63.667 69 123h160zM1320 1442l-800 -1442h-171l803 1442h168zM1716 164l0.000976562 -163.999h-689c1.33301 104 33.666 187 96.999 249
c22.667 23.333 48.334 45 77.001 65s91.334 60.667 188.001 122c44 28 74.5 53.167 91.5 75.5s25.5 48.833 25.5 79.5c0 34.667 -11.333 62.5 -34 83.5s-52.334 31.5 -89.001 31.5c-90.667 0 -137.667 -61.667 -141 -185h-194v23c0 104.667 32.667 185.667 98 243
c63.333 55.333 144.666 83 243.999 83c88.667 0 163 -22.333 223 -67c65.333 -50 98 -116.667 98 -200c0 -72.667 -26 -135.334 -78 -188.001c-23.333 -23.333 -77.333 -61.333 -162 -114c-98.667 -60.667 -161 -107.667 -187 -141c54.667 2.66699 102 4 142 4h290z" />
    <glyph glyph-name="threequarters" unicode="&#xbe;" horiz-adv-x="1821" vert-adv-y="1433" 
d="M107 1158c2.66699 74.667 22.334 135.666 59.001 182.999c60 76 149.333 114 268 114c90.667 0 164 -20.667 220 -62c62 -45.333 93 -104 93 -176c0 -76.667 -36.667 -132.667 -110 -168c96 -34 144 -99.333 144 -196c0 -83.333 -32.5 -151.166 -97.5 -203.499
s-148.833 -78.5 -251.5 -78.5c-108.667 0 -194.334 28.667 -257.001 86c-60.667 55.333 -91 134 -91 236h194v-11c0 -46.667 13.167 -83.167 39.5 -109.5s63.166 -39.5 110.499 -39.5c43.333 0 78.333 11 105 33s40 50.667 40 86c0 79.333 -54.667 119 -164 119
c-15.333 0 -31.666 -1 -48.999 -3v138c16.667 -0.666992 29.667 -1 39 -1c102.667 0 154 33 154 99c0 29.333 -11 52.833 -33 70.5s-51.333 26.5 -88 26.5c-86.667 0 -131 -47.667 -133 -143h-192zM1470 1442l-799 -1442h-171l803 1442h167zM1742 351.999v-158h-119v-194
h-193v194h-395v169l405 501h183v-512h119zM1436 344.999v312l-238 -312h238z" />
    <glyph glyph-name="questiondown" unicode="&#xbf;" horiz-adv-x="1139" vert-adv-y="1433" 
d="M1060 66c-8 -162 -56.6699 -286.332 -146.003 -372.999s-213 -130 -371 -130c-149.333 0 -268 40.333 -356 121c-86.667 78 -130 177.667 -130 299c0 81.333 18.667 148.833 56 202.5s112.333 120.167 225 199.5c61.333 43.333 93.333 120.333 96 231h272
c-3.33301 -124.667 -15.666 -209.167 -36.999 -253.5s-78.666 -104.5 -171.999 -180.5c-48.667 -38.667 -81.667 -72.334 -99 -101.001s-26 -63 -26 -103c0 -49.333 16 -89 48 -119s74.333 -45 127 -45c136.667 0 208.334 84 215.001 252h298zM413.997 746.001v314h317v-314
h-317z" />
    <glyph glyph-name="Agrave" unicode="&#xc0;" horiz-adv-x="1403" vert-adv-y="1433" 
d="M867 1465l555 -1465h-335l-116 328h-543l-119 -328h-329l557 1465h330zM893 562l-94 263c-42.667 120 -75.334 226 -98.001 318c-23.333 -85.333 -57.666 -191.333 -102.999 -318l-94 -263h389zM355 1851h335l185 -266h-214z" />
    <glyph glyph-name="Aacute" unicode="&#xc1;" horiz-adv-x="1403" vert-adv-y="1433" 
d="M867 1465l555 -1465h-335l-116 328h-543l-119 -328h-329l557 1465h330zM893 562l-94 263c-42.667 120 -75.334 226 -98.001 318c-23.333 -85.333 -57.666 -191.333 -102.999 -318l-94 -263h389zM1051 1851l-306 -266h-214l185 266h335z" />
    <glyph glyph-name="Acircumflex" unicode="&#xc2;" horiz-adv-x="1403" vert-adv-y="1433" 
d="M867 1465l555 -1465h-335l-116 328h-543l-119 -328h-329l557 1465h330zM893 562l-94 263c-42.667 120 -75.334 226 -98.001 318c-23.333 -85.333 -57.666 -191.333 -102.999 -318l-94 -263h389zM1076 1591h-260l-119 141l-122 -141h-249l238 273h275z" />
    <glyph glyph-name="Atilde" unicode="&#xc3;" horiz-adv-x="1403" vert-adv-y="1433" 
d="M867 1465l555 -1465h-335l-116 328h-543l-119 -328h-329l557 1465h330zM893 562l-94 263c-42.667 120 -75.334 226 -98.001 318c-23.333 -85.333 -57.666 -191.333 -102.999 -318l-94 -263h389zM1091 1861c-32 -174 -112.667 -261.001 -242 -261.001
c-22 0 -39.5 1.83301 -52.5 5.5s-43.833 14.834 -92.5 33.501c-66.667 26.667 -113.667 40 -141 40c-20 0 -37.333 -7.5 -52 -22.5s-25 -35.833 -31 -62.5h-142c11.333 68 33.333 122 66 162c51.333 64.667 107.333 97 168 97c33.333 0 83 -12.667 149 -38
c60 -23.333 105 -35 135 -35c40.667 0 71.667 27 93 81h142z" />
    <glyph glyph-name="Adieresis" unicode="&#xc4;" horiz-adv-x="1403" vert-adv-y="1433" 
d="M867 1465l555 -1465h-335l-116 328h-543l-119 -328h-329l557 1465h330zM893 562l-94 263c-42.667 120 -75.334 226 -98.001 318c-23.333 -85.333 -57.666 -191.333 -102.999 -318l-94 -263h389zM1070 1847v-234h-283v234h283zM616 1847v-234h-283v234h283z" />
    <glyph glyph-name="Aring" unicode="&#xc5;" horiz-adv-x="1403" vert-adv-y="1433" 
d="M867 1465l555 -1465h-335l-116 328h-543l-119 -328h-329l557 1465h330zM893 562l-94 263c-42.667 120 -75.334 226 -98.001 318c-23.333 -85.333 -57.666 -191.333 -102.999 -318l-94 -263h389zM705 2024c69.333 0 128.001 -27 176.001 -81c42 -46 63 -100 63 -162
c0 -72 -26.667 -132 -80 -180c-46.667 -42 -101 -63 -163 -63c-72 0 -132.333 26.667 -181 80c-41.333 46.667 -62 101.667 -62 165c0 70 27 129.333 81 178c45.333 42 100.666 63 165.999 63zM699.001 1897c-30.667 0 -57.333 -11.501 -80 -34.501s-34 -50.167 -34 -81.5
c0 -32 11.333 -59.333 34 -82s50 -34 82 -34s59.333 11.333 82 34s34 50.334 34 83.001c0 32 -11.5 59.167 -34.5 81.5s-50.833 33.5 -83.5 33.5z" />
    <glyph glyph-name="AE" unicode="&#xc6;" horiz-adv-x="2009" vert-adv-y="1433" 
d="M1914 1462v-270h-688v-312h646v-251h-646v-359h706v-270h-1009v317h-465l-147 -317h-344l701 1462h1246zM923 551v653h-70l-294 -653h364z" />
    <glyph glyph-name="Ccedilla" unicode="&#xc7;" horiz-adv-x="1518" vert-adv-y="1433" 
d="M812 -35l-59.001 -90.998c30 6.66699 56 10 78 10c54 0 97.833 -13.833 131.5 -41.5s50.5 -63.834 50.5 -108.501c0 -54.667 -23.5 -99.334 -70.5 -134.001s-107.5 -52 -181.5 -52s-151.667 16 -233 48l40 85c63.333 -23.333 118 -35 164 -35c67.333 0 101 25.333 101 76
c0 22 -8.66699 40.5 -26 55.5s-39 22.5 -65 22.5c-22 0 -49.333 -5.66699 -82 -17l-42 42l96 143c-165.333 16.667 -301 77 -407 181c-146 144 -219 338.333 -219 583c0 226 66.5 410 199.5 552s305.5 213 517.5 213c171.333 0 316.833 -49.5 436.5 -148.5
s185.5 -224.5 197.5 -376.5h-315c-17.333 82.667 -54.333 146.5 -111 191.5s-128 67.5 -214 67.5c-119.333 0 -214 -45.167 -284 -135.5s-105 -212.166 -105 -365.499c0 -152.667 34.833 -274 104.5 -364s163.5 -135 281.5 -135c195.333 0 307 111 335 333h318
c-12.667 -178.667 -75.667 -321.334 -189 -428.001s-262.666 -163.667 -447.999 -171z" />
    <glyph glyph-name="Egrave" unicode="&#xc8;" horiz-adv-x="1327" vert-adv-y="1433" 
d="M1232 1462v-270h-778v-312h713v-251h-713v-359h792v-270h-1111v1462h1097zM344 1851h335l185 -266h-214z" />
    <glyph glyph-name="Eacute" unicode="&#xc9;" horiz-adv-x="1327" vert-adv-y="1433" 
d="M1232 1462v-270h-778v-312h713v-251h-713v-359h792v-270h-1111v1462h1097zM1037 1851l-306 -266h-214l185 266h335z" />
    <glyph glyph-name="Ecircumflex" unicode="&#xca;" horiz-adv-x="1327" vert-adv-y="1433" 
d="M1232 1462v-270h-778v-312h713v-251h-713v-359h792v-270h-1111v1462h1097zM1066 1591h-260l-119 141l-122 -141h-249l238 273h275z" />
    <glyph glyph-name="Edieresis" unicode="&#xcb;" horiz-adv-x="1327" vert-adv-y="1433" 
d="M1232 1462v-270h-778v-312h713v-251h-713v-359h792v-270h-1111v1462h1097zM1059 1847v-234h-283v234h283zM605 1847v-234h-283v234h283z" />
    <glyph glyph-name="Igrave" unicode="&#xcc;" horiz-adv-x="604" vert-adv-y="1433" 
d="M461 1462v-1462h-319v1462h319zM-45 1851h335l185 -266h-214z" />
    <glyph glyph-name="Iacute" unicode="&#xcd;" horiz-adv-x="604" vert-adv-y="1433" 
d="M461 1462v-1462h-319v1462h319zM648 1851l-306 -266h-214l185 266h335z" />
    <glyph glyph-name="Icircumflex" unicode="&#xce;" horiz-adv-x="604" vert-adv-y="1433" 
d="M461 1462v-1462h-319v1462h319zM676 1591h-260l-119 141l-122 -141h-249l238 273h275z" />
    <glyph glyph-name="Idieresis" unicode="&#xcf;" horiz-adv-x="604" vert-adv-y="1433" 
d="M461 1462v-1462h-319v1462h319zM608 1847v-234h-257v234h257zM252 1847v-234h-257v234h257z" />
    <glyph glyph-name="Eth" unicode="&#xd0;" horiz-adv-x="1518" vert-adv-y="1433" 
d="M140 1462l591.002 0.000976562c109.333 0 203.166 -12.667 281.499 -38s147.5 -65.333 207.5 -120c146 -132 219 -317 219 -555c0 -250 -69 -443.667 -207 -581c-60.667 -60.667 -128.834 -103.834 -204.501 -129.501s-172.5 -38.5 -290.5 -38.5h-597v659h-132v205h132
v598zM458.002 1193v-329h322v-205h-322v-389h246c75.333 0 135.5 7.5 180.5 22.5s84.167 40.5 117.5 76.5c77.333 84 116 206.667 116 368c0 170 -47.667 293.667 -143 371c-37.333 30.667 -77.833 52.5 -121.5 65.5s-97.167 19.5 -160.5 19.5h-235z" />
    <glyph glyph-name="Ntilde" unicode="&#xd1;" horiz-adv-x="1518" vert-adv-y="1433" 
d="M1377 1462l-0.000976562 -1462h-321l-437 705c-94 156.667 -155.333 266 -184 328c8.66699 -110 13 -246.667 13 -410v-623h-307v1462h325l426 -690c86.667 -142 150.334 -254.333 191.001 -337c-8.66699 150.667 -13 290 -13 418v609h307zM1152 1861
c-32 -174 -112.667 -261.001 -242 -261.001c-22 0 -39.5 1.83301 -52.5 5.5s-43.833 14.834 -92.5 33.501c-66.667 26.667 -113.667 40 -141 40c-20 0 -37.333 -7.5 -52 -22.5s-25 -35.833 -31 -62.5h-142c11.333 68 33.333 122 66 162c51.333 64.667 107.333 97 168 97
c33.333 0 83 -12.667 149 -38c60 -23.333 105 -35 135 -35c40.667 0 71.667 27 93 81h142z" />
    <glyph glyph-name="Ograve" unicode="&#xd2;" horiz-adv-x="1593" vert-adv-y="1433" 
d="M810 1497c194 0 357 -64.002 489 -192.002c145.333 -141.333 218 -332.666 218 -573.999c0 -208 -55 -380.333 -165 -517c-134.667 -166 -319 -249 -553 -249c-238 0 -425 85 -561 255c-107.333 134.667 -161 304.334 -161 509.001c0 242.667 69.667 431.667 209 567
c137.333 134 312 201 524 201zM794 1231c-119.333 0 -214.999 -45.5 -286.999 -136.5s-108 -211.167 -108 -360.5c0 -158.667 36 -282 108 -370c72 -88.667 170.667 -133 296 -133c116.667 0 208.667 40.667 276 122c78 93.333 117 220.333 117 381
c0 154 -35.833 275.333 -107.5 364s-169.834 133 -294.501 133zM451.001 1851h335l185 -266h-214z" />
    <glyph glyph-name="Oacute" unicode="&#xd3;" horiz-adv-x="1593" vert-adv-y="1433" 
d="M810 1497c194 0 357 -64.002 489 -192.002c145.333 -141.333 218 -332.666 218 -573.999c0 -208 -55 -380.333 -165 -517c-134.667 -166 -319 -249 -553 -249c-238 0 -425 85 -561 255c-107.333 134.667 -161 304.334 -161 509.001c0 242.667 69.667 431.667 209 567
c137.333 134 312 201 524 201zM794 1231c-119.333 0 -214.999 -45.5 -286.999 -136.5s-108 -211.167 -108 -360.5c0 -158.667 36 -282 108 -370c72 -88.667 170.667 -133 296 -133c116.667 0 208.667 40.667 276 122c78 93.333 117 220.333 117 381
c0 154 -35.833 275.333 -107.5 364s-169.834 133 -294.501 133zM1174 1851l-306 -266h-214l185 266h335z" />
    <glyph glyph-name="Ocircumflex" unicode="&#xd4;" horiz-adv-x="1593" vert-adv-y="1433" 
d="M810 1497c194 0 357 -64.002 489 -192.002c145.333 -141.333 218 -332.666 218 -573.999c0 -208 -55 -380.333 -165 -517c-134.667 -166 -319 -249 -553 -249c-238 0 -425 85 -561 255c-107.333 134.667 -161 304.334 -161 509.001c0 242.667 69.667 431.667 209 567
c137.333 134 312 201 524 201zM794 1231c-119.333 0 -214.999 -45.5 -286.999 -136.5s-108 -211.167 -108 -360.5c0 -158.667 36 -282 108 -370c72 -88.667 170.667 -133 296 -133c116.667 0 208.667 40.667 276 122c78 93.333 117 220.333 117 381
c0 154 -35.833 275.333 -107.5 364s-169.834 133 -294.501 133zM1172 1591h-260l-119 141l-122 -141h-249l238 273h275z" />
    <glyph glyph-name="Otilde" unicode="&#xd5;" horiz-adv-x="1593" vert-adv-y="1433" 
d="M810 1497c194 0 357 -64.002 489 -192.002c145.333 -141.333 218 -332.666 218 -573.999c0 -208 -55 -380.333 -165 -517c-134.667 -166 -319 -249 -553 -249c-238 0 -425 85 -561 255c-107.333 134.667 -161 304.334 -161 509.001c0 242.667 69.667 431.667 209 567
c137.333 134 312 201 524 201zM794 1231c-119.333 0 -214.999 -45.5 -286.999 -136.5s-108 -211.167 -108 -360.5c0 -158.667 36 -282 108 -370c72 -88.667 170.667 -133 296 -133c116.667 0 208.667 40.667 276 122c78 93.333 117 220.333 117 381
c0 154 -35.833 275.333 -107.5 364s-169.834 133 -294.501 133zM1190 1861c-32 -174 -112.667 -261.001 -242 -261.001c-22 0 -39.5 1.83301 -52.5 5.5s-43.833 14.834 -92.5 33.501c-66.667 26.667 -113.667 40 -141 40c-20 0 -37.333 -7.5 -52 -22.5
s-25 -35.833 -31 -62.5h-142c11.333 68 33.333 122 66 162c51.333 64.667 107.333 97 168 97c33.333 0 83 -12.667 149 -38c60 -23.333 105 -35 135 -35c40.667 0 71.667 27 93 81h142z" />
    <glyph glyph-name="Odieresis" unicode="&#xd6;" horiz-adv-x="1593" vert-adv-y="1433" 
d="M810 1497c194 0 357 -64.002 489 -192.002c145.333 -141.333 218 -332.666 218 -573.999c0 -208 -55 -380.333 -165 -517c-134.667 -166 -319 -249 -553 -249c-238 0 -425 85 -561 255c-107.333 134.667 -161 304.334 -161 509.001c0 242.667 69.667 431.667 209 567
c137.333 134 312 201 524 201zM794 1231c-119.333 0 -214.999 -45.5 -286.999 -136.5s-108 -211.167 -108 -360.5c0 -158.667 36 -282 108 -370c72 -88.667 170.667 -133 296 -133c116.667 0 208.667 40.667 276 122c78 93.333 117 220.333 117 381
c0 154 -35.833 275.333 -107.5 364s-169.834 133 -294.501 133zM1166 1847v-234h-283v234h283zM712.001 1847v-234h-283v234h283z" />
    <glyph glyph-name="multiply" unicode="&#xd7;" horiz-adv-x="1229" vert-adv-y="1433" 
d="M296 259l-139 139l319 319l-319 318l139 139l318 -319l319 319l138 -139l-318 -318l318 -319l-138 -139l-319 319z" />
    <glyph glyph-name="Oslash" unicode="&#xd8;" horiz-adv-x="1593" vert-adv-y="1433" 
d="M1511 1390l-148.999 -167.999c94.667 -133.333 142 -292 142 -476c0 -117.333 -14.333 -219 -43 -305s-76 -169.333 -142 -250c-57.333 -70 -131.333 -125.167 -222 -165.5s-186.667 -60.5 -288 -60.5c-200.667 0 -352.334 44.333 -455.001 133l-143 -163l-144 131
l147 171c-56 81.333 -94.833 157.666 -116.5 228.999s-32.5 159.333 -32.5 264c0 240.667 68.667 429.667 206 567c134 133.333 312.333 200 535 200c80.667 0 142.5 -7 185.5 -21s121.5 -52.333 235.5 -115l135 151zM1027 1157c-86.667 49.333 -165.667 74 -237 74
c-124.667 0 -223 -44.833 -295 -134.5s-108 -212.5 -108 -368.5c0 -76.667 14.333 -162.667 43 -258zM1137 993.001l-580.002 -677.999c64.667 -56 143.334 -84 236.001 -84c118.667 0 213.834 45 285.501 135s107.5 209.667 107.5 359
c0 83.333 -16.333 172.666 -49 267.999z" />
    <glyph glyph-name="Ugrave" unicode="&#xd9;" horiz-adv-x="1518" vert-adv-y="1433" 
d="M1382 1462l0.00195312 -864c0 -110 -8.33301 -197 -25 -261s-46.334 -123 -89.001 -177c-102.667 -130 -272 -195 -508 -195c-253.333 0 -431.333 73.667 -534 221c-62.667 90 -94 228.667 -94 416v860h319v-881c0 -111.333 16.333 -191 49 -239
c49.333 -74 138 -111 266 -111c107.333 0 183.666 26.667 228.999 80s68 143.333 68 270v881h319zM411.002 1851h335l185 -266h-214z" />
    <glyph glyph-name="Uacute" unicode="&#xda;" horiz-adv-x="1518" vert-adv-y="1433" 
d="M1382 1462l0.00195312 -864c0 -110 -8.33301 -197 -25 -261s-46.334 -123 -89.001 -177c-102.667 -130 -272 -195 -508 -195c-253.333 0 -431.333 73.667 -534 221c-62.667 90 -94 228.667 -94 416v860h319v-881c0 -111.333 16.333 -191 49 -239
c49.333 -74 138 -111 266 -111c107.333 0 183.666 26.667 228.999 80s68 143.333 68 270v881h319zM1104 1851l-306 -266h-214l185 266h335z" />
    <glyph glyph-name="Ucircumflex" unicode="&#xdb;" horiz-adv-x="1518" vert-adv-y="1433" 
d="M1382 1462l0.00195312 -864c0 -110 -8.33301 -197 -25 -261s-46.334 -123 -89.001 -177c-102.667 -130 -272 -195 -508 -195c-253.333 0 -431.333 73.667 -534 221c-62.667 90 -94 228.667 -94 416v860h319v-881c0 -111.333 16.333 -191 49 -239
c49.333 -74 138 -111 266 -111c107.333 0 183.666 26.667 228.999 80s68 143.333 68 270v881h319zM1132 1591h-260l-119 141l-122 -141h-249l238 273h275z" />
    <glyph glyph-name="Udieresis" unicode="&#xdc;" horiz-adv-x="1518" vert-adv-y="1433" 
d="M1382 1462l0.00195312 -864c0 -110 -8.33301 -197 -25 -261s-46.334 -123 -89.001 -177c-102.667 -130 -272 -195 -508 -195c-253.333 0 -431.333 73.667 -534 221c-62.667 90 -94 228.667 -94 416v860h319v-881c0 -111.333 16.333 -191 49 -239
c49.333 -74 138 -111 266 -111c107.333 0 183.666 26.667 228.999 80s68 143.333 68 270v881h319zM1126 1847v-234h-283v234h283zM672.002 1847v-234h-283v234h283z" />
    <glyph glyph-name="Yacute" unicode="&#xdd;" horiz-adv-x="1366" vert-adv-y="1433" 
d="M1387 1462l-545 -898v-564h-319v568l-546 894h365l227 -389c39.333 -68 78.333 -148 117 -240c48.667 112 89.667 196.667 123 254l221 375h357zM1026 1851l-306 -266h-214l185 266h335z" />
    <glyph glyph-name="Thorn" unicode="&#xde;" horiz-adv-x="1366" vert-adv-y="1433" 
d="M135 1462h319v-204h271c98.667 0 176.667 -6.16699 234 -18.5s109 -34.166 155 -65.499c127.333 -85.333 191 -213.666 191 -384.999c0 -154.667 -52.667 -275.334 -158 -362.001c-44.667 -36.667 -95.667 -63.334 -153 -80.001s-128 -25 -212 -25h-328v-322h-319v1462z
M454 989v-416h285c84.667 0 145.667 15 183 45c46 38 69 93 69 165c0 74 -26.667 129.333 -80 166c-38.667 26.667 -101.667 40 -189 40h-268z" />
    <glyph glyph-name="germandbls" unicode="&#xdf;" vert-adv-y="1433" 
d="M554 218c28.667 -4 53.3359 -6.00098 74.0029 -6.00098c75.333 0 135.166 22.667 179.499 68s66.5 106.666 66.5 183.999c0 163.333 -96 245 -288 245h-32v184c14.667 -0.666992 27 -1 37 -1c146.667 0 220 61.667 220 185c0 57.333 -17.333 103.666 -52 138.999
s-80.334 53 -137.001 53c-70.667 0 -119.834 -20.667 -147.501 -62s-41.5 -114.666 -41.5 -219.999v-987h-290v932c0 169.333 24.333 290.333 73 363c84.667 126 223 189 415 189c138 0 249.167 -35 333.5 -105s126.5 -162 126.5 -276c0 -67.333 -17 -126.833 -51 -178.5
s-80.333 -88.5 -139 -110.5c84 -18.667 149.333 -60.167 196 -124.5s70 -145.166 70 -242.499c0 -139.333 -44.5 -251.166 -133.5 -335.499s-206.5 -126.5 -352.5 -126.5c-36.667 0 -79 2.33301 -127 7v226z" />
    <glyph glyph-name="agrave" unicode="&#xe0;" horiz-adv-x="1176" vert-adv-y="1433" 
d="M1108 0l-296 -0.000976562c-12.667 38 -19 72.333 -19 103c-90 -88 -206.667 -132 -350 -132c-113.333 0 -201 25.333 -263 76c-72 58.667 -108 140 -108 244c0 133.333 61.667 226 185 278c50.667 20.667 142.667 39.667 276 57c115.333 14.667 187.166 29 215.499 43
s42.5 42.333 42.5 85c0 92.667 -63.333 139 -190 139c-67.333 0 -116.5 -11.833 -147.5 -35.5s-51.5 -64.834 -61.5 -123.501h-274c18 236.667 181.333 355 490 355c168 0 292.333 -33.667 373 -101c36.667 -29.333 61.334 -62 74.001 -98s19 -89.667 19 -161
c0 -22.667 -1 -97 -3 -223c-1.33301 -125.333 -2 -196.666 -2 -213.999c0 -133.333 13 -230.666 39 -291.999zM789 515.999c-36.667 -21.333 -104.667 -39.667 -204 -55c-81.333 -12 -137.5 -29.5 -168.5 -52.5s-46.5 -58.167 -46.5 -105.5c0 -96 54 -144 162 -144
c78.667 0 141.167 21.5 187.5 64.5s69.5 100.833 69.5 173.5v119zM262 1516h306l185 -295h-195z" />
    <glyph glyph-name="aacute" unicode="&#xe1;" horiz-adv-x="1176" vert-adv-y="1433" 
d="M1108 0l-296 -0.000976562c-12.667 38 -19 72.333 -19 103c-90 -88 -206.667 -132 -350 -132c-113.333 0 -201 25.333 -263 76c-72 58.667 -108 140 -108 244c0 133.333 61.667 226 185 278c50.667 20.667 142.667 39.667 276 57c115.333 14.667 187.166 29 215.499 43
s42.5 42.333 42.5 85c0 92.667 -63.333 139 -190 139c-67.333 0 -116.5 -11.833 -147.5 -35.5s-51.5 -64.834 -61.5 -123.501h-274c18 236.667 181.333 355 490 355c168 0 292.333 -33.667 373 -101c36.667 -29.333 61.334 -62 74.001 -98s19 -89.667 19 -161
c0 -22.667 -1 -97 -3 -223c-1.33301 -125.333 -2 -196.666 -2 -213.999c0 -133.333 13 -230.666 39 -291.999zM789 515.999c-36.667 -21.333 -104.667 -39.667 -204 -55c-81.333 -12 -137.5 -29.5 -168.5 -52.5s-46.5 -58.167 -46.5 -105.5c0 -96 54 -144 162 -144
c78.667 0 141.167 21.5 187.5 64.5s69.5 100.833 69.5 173.5v119zM933 1516l-296 -295h-195l185 295h306z" />
    <glyph glyph-name="acircumflex" unicode="&#xe2;" horiz-adv-x="1176" vert-adv-y="1433" 
d="M1108 0l-296 -0.000976562c-12.667 38 -19 72.333 -19 103c-90 -88 -206.667 -132 -350 -132c-113.333 0 -201 25.333 -263 76c-72 58.667 -108 140 -108 244c0 133.333 61.667 226 185 278c50.667 20.667 142.667 39.667 276 57c115.333 14.667 187.166 29 215.499 43
s42.5 42.333 42.5 85c0 92.667 -63.333 139 -190 139c-67.333 0 -116.5 -11.833 -147.5 -35.5s-51.5 -64.834 -61.5 -123.501h-274c18 236.667 181.333 355 490 355c168 0 292.333 -33.667 373 -101c36.667 -29.333 61.334 -62 74.001 -98s19 -89.667 19 -161
c0 -22.667 -1 -97 -3 -223c-1.33301 -125.333 -2 -196.666 -2 -213.999c0 -133.333 13 -230.666 39 -291.999zM789 515.999c-36.667 -21.333 -104.667 -39.667 -204 -55c-81.333 -12 -137.5 -29.5 -168.5 -52.5s-46.5 -58.167 -46.5 -105.5c0 -96 54 -144 162 -144
c78.667 0 141.167 21.5 187.5 64.5s69.5 100.833 69.5 173.5v119zM972 1221h-235l-130 175l-132 -175h-224l228 295h266z" />
    <glyph glyph-name="atilde" unicode="&#xe3;" horiz-adv-x="1176" vert-adv-y="1433" 
d="M1108 0l-296 -0.000976562c-12.667 38 -19 72.333 -19 103c-90 -88 -206.667 -132 -350 -132c-113.333 0 -201 25.333 -263 76c-72 58.667 -108 140 -108 244c0 133.333 61.667 226 185 278c50.667 20.667 142.667 39.667 276 57c115.333 14.667 187.166 29 215.499 43
s42.5 42.333 42.5 85c0 92.667 -63.333 139 -190 139c-67.333 0 -116.5 -11.833 -147.5 -35.5s-51.5 -64.834 -61.5 -123.501h-274c18 236.667 181.333 355 490 355c168 0 292.333 -33.667 373 -101c36.667 -29.333 61.334 -62 74.001 -98s19 -89.667 19 -161
c0 -22.667 -1 -97 -3 -223c-1.33301 -125.333 -2 -196.666 -2 -213.999c0 -133.333 13 -230.666 39 -291.999zM789 515.999c-36.667 -21.333 -104.667 -39.667 -204 -55c-81.333 -12 -137.5 -29.5 -168.5 -52.5s-46.5 -58.167 -46.5 -105.5c0 -96 54 -144 162 -144
c78.667 0 141.167 21.5 187.5 64.5s69.5 100.833 69.5 173.5v119zM952 1502c-28.667 -168.667 -102.667 -252.999 -222 -252.999c-28 0 -53.667 3.66699 -77 11s-67.333 25.333 -132 54c-19.333 8.66699 -38 13 -56 13c-22 0 -40.333 -7.33301 -55 -22
s-24.334 -35.334 -29.001 -62.001h-132c10.667 65.333 30.334 118.333 59.001 159c44.667 63.333 98.667 95 162 95c34 0 80.333 -12.333 139 -37s102 -37 130 -37c35.333 0 62.333 26.333 81 79h132z" />
    <glyph glyph-name="adieresis" unicode="&#xe4;" horiz-adv-x="1176" vert-adv-y="1433" 
d="M1108 0l-296 -0.000976562c-12.667 38 -19 72.333 -19 103c-90 -88 -206.667 -132 -350 -132c-113.333 0 -201 25.333 -263 76c-72 58.667 -108 140 -108 244c0 133.333 61.667 226 185 278c50.667 20.667 142.667 39.667 276 57c115.333 14.667 187.166 29 215.499 43
s42.5 42.333 42.5 85c0 92.667 -63.333 139 -190 139c-67.333 0 -116.5 -11.833 -147.5 -35.5s-51.5 -64.834 -61.5 -123.501h-274c18 236.667 181.333 355 490 355c168 0 292.333 -33.667 373 -101c36.667 -29.333 61.334 -62 74.001 -98s19 -89.667 19 -161
c0 -22.667 -1 -97 -3 -223c-1.33301 -125.333 -2 -196.666 -2 -213.999c0 -133.333 13 -230.666 39 -291.999zM789 515.999c-36.667 -21.333 -104.667 -39.667 -204 -55c-81.333 -12 -137.5 -29.5 -168.5 -52.5s-46.5 -58.167 -46.5 -105.5c0 -96 54 -144 162 -144
c78.667 0 141.167 21.5 187.5 64.5s69.5 100.833 69.5 173.5v119zM957 1489v-238h-273v238h273zM526 1489v-238h-272v238h272z" />
    <glyph glyph-name="aring" unicode="&#xe5;" horiz-adv-x="1176" vert-adv-y="1433" 
d="M1108 0l-296 -0.000976562c-12.667 38 -19 72.333 -19 103c-90 -88 -206.667 -132 -350 -132c-113.333 0 -201 25.333 -263 76c-72 58.667 -108 140 -108 244c0 133.333 61.667 226 185 278c50.667 20.667 142.667 39.667 276 57c115.333 14.667 187.166 29 215.499 43
s42.5 42.333 42.5 85c0 92.667 -63.333 139 -190 139c-67.333 0 -116.5 -11.833 -147.5 -35.5s-51.5 -64.834 -61.5 -123.501h-274c18 236.667 181.333 355 490 355c168 0 292.333 -33.667 373 -101c36.667 -29.333 61.334 -62 74.001 -98s19 -89.667 19 -161
c0 -22.667 -1 -97 -3 -223c-1.33301 -125.333 -2 -196.666 -2 -213.999c0 -133.333 13 -230.666 39 -291.999zM789 515.999c-36.667 -21.333 -104.667 -39.667 -204 -55c-81.333 -12 -137.5 -29.5 -168.5 -52.5s-46.5 -58.167 -46.5 -105.5c0 -96 54 -144 162 -144
c78.667 0 141.167 21.5 187.5 64.5s69.5 100.833 69.5 173.5v119zM607 1619c64.667 0 119.667 -25.333 165 -76c39.333 -43.333 59 -94 59 -152c0 -68 -25.333 -124.667 -76 -170c-43.333 -39.333 -94 -59 -152 -59c-68 0 -124.333 25.333 -169 76
c-39.333 43.333 -59 95 -59 155c0 65.333 25.333 121 76 167c42.667 39.333 94.667 59 156 59zM601 1495c-27.333 0 -51.167 -10.333 -71.5 -31s-30.5 -45.334 -30.5 -74.001s10.167 -53.167 30.5 -73.5s44.833 -30.5 73.5 -30.5s53.167 10.333 73.5 31
s30.5 45.334 30.5 74.001s-10.333 53.167 -31 73.5s-45.667 30.5 -75 30.5z" />
    <glyph glyph-name="ae" unicode="&#xe6;" horiz-adv-x="1858" vert-adv-y="1433" 
d="M1775 330c-28 -110.667 -86.332 -198.168 -174.999 -262.501s-195.334 -96.5 -320.001 -96.5c-83.333 0 -159.166 15.833 -227.499 47.5s-120.5 75.167 -156.5 130.5c-100 -118.667 -248 -178 -444 -178c-124.667 0 -221.334 27.833 -290.001 83.5
s-103 133.834 -103 234.501c0 118.667 46.667 203.667 140 255c56 30.667 174.667 58.667 356 84c90.667 13.333 150.667 28 180 44s44 43 44 81c0 93.333 -63 140 -189 140c-124.667 0 -193.334 -55 -206.001 -165h-280c8.66699 114.667 47.667 199 117 253
c91.333 72 215 108 371 108c172.667 0 291 -46.667 355 -140c80.667 93.333 190.334 140 329.001 140c154 0 278.333 -53 373 -159s142 -245.667 142 -419c0 -8.66699 -0.333008 -25 -1 -49h-755c0.666992 -88.667 22.167 -158 64.5 -208s100.5 -75 174.5 -75
c105.333 0 180.333 50.333 225 151h276zM1503 632.999c-5.33301 77.333 -28.666 137.833 -69.999 181.5s-96 65.5 -164 65.5c-138.667 0 -217.334 -82.333 -236.001 -247h470zM778.001 515.999c-32.667 -24.667 -102 -45.001 -208 -61.001
c-80.667 -12 -136 -28.833 -166 -50.5s-45 -55.5 -45 -101.5c0 -98.667 57 -148 171 -148c76 0 136.333 21.333 181 64s67 100.334 67 173.001v124z" />
    <glyph glyph-name="ccedilla" unicode="&#xe7;" horiz-adv-x="1176" vert-adv-y="1433" 
d="M648 -29l-68.001 -100.001c33.333 6 60.333 9 81 9c53.333 0 96.5 -13.5 129.5 -40.5s49.5 -61.833 49.5 -104.5c0 -58 -22.667 -104.5 -68 -139.5s-105.666 -52.5 -180.999 -52.5c-76 0 -154 15.667 -234 47l39 87c59.333 -22.667 112.333 -34 159 -34
c71.333 0 107 25.667 107 77c0 50 -32.667 75 -98 75c-22 0 -47 -5.33301 -75 -16l-42 40l105 154c-146 11.333 -262.5 66.666 -349.5 165.999s-130.5 226.333 -130.5 381c0 172 49.5 309.833 148.5 413.5s230.833 155.5 395.5 155.5c141.333 0 256.5 -35.833 345.5 -107.5
s139.833 -169.167 152.5 -292.5h-285c-22 120.667 -92.333 181 -211 181c-80 0 -142.333 -30 -187 -90s-67 -143.667 -67 -251s21.667 -190.666 65 -249.999s104.333 -89 183 -89c128.667 0 204 72 226 216h283c-17.333 -129.333 -67.5 -232.166 -150.5 -308.499
s-190.5 -118.5 -322.5 -126.5z" />
    <glyph glyph-name="egrave" unicode="&#xe8;" horiz-adv-x="1176" vert-adv-y="1433" 
d="M1100 329c-28.667 -110 -87.668 -197.169 -177.001 -261.502s-195.666 -96.5 -318.999 -96.5c-163.333 0 -294 49.667 -392 149c-100.667 102.667 -151 237.334 -151 404.001c0 154.667 45.667 284.334 137 389.001c102 117.333 234 176 396 176
c166 0 294.667 -55.333 386 -166s137 -267 137 -469h-761c7.33301 -182.667 90.333 -274 249 -274c102.667 0 174.667 49.667 216 149h279zM820.999 639.998c-8 76.667 -31.832 135.833 -71.499 177.5s-91.834 62.5 -156.501 62.5s-118 -21.5 -160 -64.5
s-67 -101.5 -75 -175.5h463zM262 1516h306l185 -295h-195z" />
    <glyph glyph-name="eacute" unicode="&#xe9;" horiz-adv-x="1176" vert-adv-y="1433" 
d="M1100 329c-28.667 -110 -87.668 -197.169 -177.001 -261.502s-195.666 -96.5 -318.999 -96.5c-163.333 0 -294 49.667 -392 149c-100.667 102.667 -151 237.334 -151 404.001c0 154.667 45.667 284.334 137 389.001c102 117.333 234 176 396 176
c166 0 294.667 -55.333 386 -166s137 -267 137 -469h-761c7.33301 -182.667 90.333 -274 249 -274c102.667 0 174.667 49.667 216 149h279zM820.999 639.998c-8 76.667 -31.832 135.833 -71.499 177.5s-91.834 62.5 -156.501 62.5s-118 -21.5 -160 -64.5
s-67 -101.5 -75 -175.5h463zM917 1516l-296 -295h-195l185 295h306z" />
    <glyph glyph-name="ecircumflex" unicode="&#xea;" horiz-adv-x="1176" vert-adv-y="1433" 
d="M1100 329c-28.667 -110 -87.668 -197.169 -177.001 -261.502s-195.666 -96.5 -318.999 -96.5c-163.333 0 -294 49.667 -392 149c-100.667 102.667 -151 237.334 -151 404.001c0 154.667 45.667 284.334 137 389.001c102 117.333 234 176 396 176
c166 0 294.667 -55.333 386 -166s137 -267 137 -469h-761c7.33301 -182.667 90.333 -274 249 -274c102.667 0 174.667 49.667 216 149h279zM820.999 639.998c-8 76.667 -31.832 135.833 -71.499 177.5s-91.834 62.5 -156.501 62.5s-118 -21.5 -160 -64.5
s-67 -101.5 -75 -175.5h463zM958 1221h-235l-130 175l-132 -175h-224l228 295h266z" />
    <glyph glyph-name="edieresis" unicode="&#xeb;" horiz-adv-x="1176" vert-adv-y="1433" 
d="M1100 329c-28.667 -110 -87.668 -197.169 -177.001 -261.502s-195.666 -96.5 -318.999 -96.5c-163.333 0 -294 49.667 -392 149c-100.667 102.667 -151 237.334 -151 404.001c0 154.667 45.667 284.334 137 389.001c102 117.333 234 176 396 176
c166 0 294.667 -55.333 386 -166s137 -267 137 -469h-761c7.33301 -182.667 90.333 -274 249 -274c102.667 0 174.667 49.667 216 149h279zM820.999 639.998c-8 76.667 -31.832 135.833 -71.499 177.5s-91.834 62.5 -156.501 62.5s-118 -21.5 -160 -64.5
s-67 -101.5 -75 -175.5h463zM949 1489v-238h-273v238h273zM518 1489v-238h-272v238h272z" />
    <glyph glyph-name="igrave" unicode="&#xec;" horiz-adv-x="528" vert-adv-y="1433" 
d="M408 1060v-1060h-290v1060h290zM-70 1516h306l185 -295h-195z" />
    <glyph glyph-name="iacute" unicode="&#xed;" horiz-adv-x="528" vert-adv-y="1433" 
d="M408 1060v-1060h-290v1060h290zM596 1516l-296 -295h-195l185 295h306z" />
    <glyph glyph-name="icircumflex" unicode="&#xee;" horiz-adv-x="528" vert-adv-y="1433" 
d="M408 1060v-1060h-290v1060h290zM623 1221h-235l-130 175l-132 -175h-224l228 295h266z" />
    <glyph glyph-name="idieresis" unicode="&#xef;" horiz-adv-x="528" vert-adv-y="1433" 
d="M408 1060v-1060h-290v1060h290zM563 1489v-238h-251v238h251zM212 1489v-238h-250v238h250z" />
    <glyph glyph-name="eth" unicode="&#xf0;" vert-adv-y="1433" 
d="M403 1296l159 65l-53 109l167 73l62 -108l172 69l69 -137l-155 -64l171 -273c68 -108 112 -188.667 132 -242c31.333 -84 47 -169.667 47 -257c0 -170 -52 -307.333 -156 -412c-99.333 -99.333 -229 -149 -389 -149c-184 0 -326 60.333 -426 181
c-84 101.333 -126 227 -126 377c0 139.333 35.333 258.333 106 357c46 63.333 105 113.333 177 150s147.667 55 227 55c26 0 60.333 -3 103 -9l-68 139l-168 -70zM620 874c-75.333 0 -136.333 -30.667 -183 -92c-45.333 -60.667 -68 -144.667 -68 -252
c0 -111.333 22.667 -196.333 68 -255c46.667 -60 110 -90 190 -90c75.333 0 135.333 27.333 180 82c49.333 60.667 74 148 74 262c0 108 -22 191.667 -66 251c-46 62.667 -111 94 -195 94z" />
    <glyph glyph-name="ntilde" unicode="&#xf1;" horiz-adv-x="1214" vert-adv-y="1433" 
d="M392 1060l0.000976562 -148c87.333 118.667 205.333 178 354 178c141.333 0 242.666 -48.667 303.999 -146c37.333 -60 56 -152.333 56 -277v-667h-289v609c0 68.667 -6 119 -18 151c-24 62 -78.667 93 -164 93c-79.333 0 -137.5 -24.5 -174.5 -73.5
s-55.5 -126.167 -55.5 -231.5v-548h-290v1060h277zM971.001 1502c-28.667 -168.667 -102.667 -252.999 -222 -252.999c-28 0 -53.667 3.66699 -77 11s-67.333 25.333 -132 54c-19.333 8.66699 -38 13 -56 13c-22 0 -40.333 -7.33301 -55 -22
s-24.334 -35.334 -29.001 -62.001h-132c10.667 65.333 30.334 118.333 59.001 159c44.667 63.333 98.667 95 162 95c34 0 80.333 -12.333 139 -37s102 -37 130 -37c35.333 0 62.333 26.333 81 79h132z" />
    <glyph glyph-name="ograve" unicode="&#xf2;" vert-adv-y="1433" 
d="M636 1089c158.667 0 288.332 -51.002 388.999 -153.002c99.333 -101.333 149 -236.333 149 -405c0 -173.333 -53 -311.666 -159 -414.999c-99.333 -96.667 -228.666 -145 -387.999 -145c-170 0 -305.333 53.667 -406 161c-96 102.667 -144 235.334 -144 398.001
c0 162 46.667 292.333 140 391c105.333 112 245 168 419 168zM619.998 873.998c-77.333 0 -138.498 -30.833 -183.498 -92.5s-67.5 -145.5 -67.5 -251.5c0 -108.667 22.667 -193.167 68 -253.5s108.666 -90.5 189.999 -90.5c79.333 0 141.5 30.333 186.5 91
s67.5 145 67.5 253c0 108.667 -22.833 193.167 -68.5 253.5s-109.834 90.5 -192.501 90.5zM298 1516h306l185 -295h-195z" />
    <glyph glyph-name="oacute" unicode="&#xf3;" vert-adv-y="1433" 
d="M636 1089c158.667 0 288.332 -51.002 388.999 -153.002c99.333 -101.333 149 -236.333 149 -405c0 -173.333 -53 -311.666 -159 -414.999c-99.333 -96.667 -228.666 -145 -387.999 -145c-170 0 -305.333 53.667 -406 161c-96 102.667 -144 235.334 -144 398.001
c0 162 46.667 292.333 140 391c105.333 112 245 168 419 168zM619.998 873.998c-77.333 0 -138.498 -30.833 -183.498 -92.5s-67.5 -145.5 -67.5 -251.5c0 -108.667 22.667 -193.167 68 -253.5s108.666 -90.5 189.999 -90.5c79.333 0 141.5 30.333 186.5 91
s67.5 145 67.5 253c0 108.667 -22.833 193.167 -68.5 253.5s-109.834 90.5 -192.501 90.5zM953 1516l-296 -295h-195l185 295h306z" />
    <glyph glyph-name="ocircumflex" unicode="&#xf4;" vert-adv-y="1433" 
d="M636 1089c158.667 0 288.332 -51.002 388.999 -153.002c99.333 -101.333 149 -236.333 149 -405c0 -173.333 -53 -311.666 -159 -414.999c-99.333 -96.667 -228.666 -145 -387.999 -145c-170 0 -305.333 53.667 -406 161c-96 102.667 -144 235.334 -144 398.001
c0 162 46.667 292.333 140 391c105.333 112 245 168 419 168zM619.998 873.998c-77.333 0 -138.498 -30.833 -183.498 -92.5s-67.5 -145.5 -67.5 -251.5c0 -108.667 22.667 -193.167 68 -253.5s108.666 -90.5 189.999 -90.5c79.333 0 141.5 30.333 186.5 91
s67.5 145 67.5 253c0 108.667 -22.833 193.167 -68.5 253.5s-109.834 90.5 -192.501 90.5zM986 1221h-235l-130 175l-132 -175h-224l228 295h266z" />
    <glyph glyph-name="otilde" unicode="&#xf5;" vert-adv-y="1433" 
d="M636 1089c158.667 0 288.332 -51.002 388.999 -153.002c99.333 -101.333 149 -236.333 149 -405c0 -173.333 -53 -311.666 -159 -414.999c-99.333 -96.667 -228.666 -145 -387.999 -145c-170 0 -305.333 53.667 -406 161c-96 102.667 -144 235.334 -144 398.001
c0 162 46.667 292.333 140 391c105.333 112 245 168 419 168zM619.998 873.998c-77.333 0 -138.498 -30.833 -183.498 -92.5s-67.5 -145.5 -67.5 -251.5c0 -108.667 22.667 -193.167 68 -253.5s108.666 -90.5 189.999 -90.5c79.333 0 141.5 30.333 186.5 91
s67.5 145 67.5 253c0 108.667 -22.833 193.167 -68.5 253.5s-109.834 90.5 -192.501 90.5zM980 1502c-28.667 -168.667 -102.667 -252.999 -222 -252.999c-28 0 -53.667 3.66699 -77 11s-67.333 25.333 -132 54c-19.333 8.66699 -38 13 -56 13
c-22 0 -40.333 -7.33301 -55 -22s-24.334 -35.334 -29.001 -62.001h-132c10.667 65.333 30.334 118.333 59.001 159c44.667 63.333 98.667 95 162 95c34 0 80.333 -12.333 139 -37s102 -37 130 -37c35.333 0 62.333 26.333 81 79h132z" />
    <glyph glyph-name="odieresis" unicode="&#xf6;" vert-adv-y="1433" 
d="M636 1089c158.667 0 288.332 -51.002 388.999 -153.002c99.333 -101.333 149 -236.333 149 -405c0 -173.333 -53 -311.666 -159 -414.999c-99.333 -96.667 -228.666 -145 -387.999 -145c-170 0 -305.333 53.667 -406 161c-96 102.667 -144 235.334 -144 398.001
c0 162 46.667 292.333 140 391c105.333 112 245 168 419 168zM619.998 873.998c-77.333 0 -138.498 -30.833 -183.498 -92.5s-67.5 -145.5 -67.5 -251.5c0 -108.667 22.667 -193.167 68 -253.5s108.666 -90.5 189.999 -90.5c79.333 0 141.5 30.333 186.5 91
s67.5 145 67.5 253c0 108.667 -22.833 193.167 -68.5 253.5s-109.834 90.5 -192.501 90.5zM977 1489v-238h-273v238h273zM546 1489v-238h-272v238h272z" />
    <glyph glyph-name="divide" unicode="&#xf7;" horiz-adv-x="1229" vert-adv-y="1433" 
d="M617 1237c39.333 0 73.335 -14.5 102.002 -43.5s43 -63.5 43 -103.5c0 -41.333 -14.5 -76.333 -43.5 -105s-63.833 -43 -104.5 -43s-75.334 14.5 -104.001 43.5s-43 64.167 -43 105.5c0 40.667 14.667 75.167 44 103.5s64.666 42.5 105.999 42.5zM617.002 491
c39.333 0 73.335 -14.5 102.002 -43.5s43 -63.5 43 -103.5c0 -41.333 -14.333 -76.333 -43 -105s-63.667 -43 -105 -43c-40.667 0 -75.334 14.5 -104.001 43.5s-43 64.167 -43 105.5c0 40.667 14.667 75.167 44 103.5s64.666 42.5 105.999 42.5zM110.004 618v196h1009v-196
h-1009z" />
    <glyph glyph-name="oslash" unicode="&#xf8;" vert-adv-y="1433" 
d="M1167 1022l-109.001 -125c77.333 -88 116 -203 116 -345c0 -175.333 -49.167 -316 -147.5 -422s-228.833 -159 -391.5 -159c-124.667 0 -233 28.667 -325 86l-124 -130l-106 106l114 126c-47.333 79.333 -78.666 143.5 -93.999 192.5s-23 109.5 -23 181.5
c0 166.667 54.333 302.667 163 408c100.667 98.667 222.667 148 366 148c145.333 0 259 -29.333 341 -88l114 123zM769.999 826c-43.333 32 -94 48 -152 48c-78 0 -140.333 -31.5 -187 -94.5s-70 -147.5 -70 -253.5c0 -46 9.33301 -98.333 28 -157zM856.999 693
l-378.001 -457c48.667 -33.333 95.667 -50 141 -50c84.667 0 150.334 29.833 197.001 89.5s70 143.167 70 250.5c0 50 -10 105.667 -30 167z" />
    <glyph glyph-name="ugrave" unicode="&#xf9;" horiz-adv-x="1214" vert-adv-y="1433" 
d="M1099 1060v-1060h-277v150c-84 -119.333 -200 -179 -348 -179c-124.667 0 -217.167 34.333 -277.5 103s-90.5 173.667 -90.5 315v671h290v-586c0 -100 9.33301 -165 28 -195c30.667 -47.333 82.667 -71 156 -71c92 0 158.333 39.333 199 118c20 38.667 30 108 30 208v526
h290zM264 1516h306l185 -295h-195z" />
    <glyph glyph-name="uacute" unicode="&#xfa;" horiz-adv-x="1214" vert-adv-y="1433" 
d="M1099 1060v-1060h-277v150c-84 -119.333 -200 -179 -348 -179c-124.667 0 -217.167 34.333 -277.5 103s-90.5 173.667 -90.5 315v671h290v-586c0 -100 9.33301 -165 28 -195c30.667 -47.333 82.667 -71 156 -71c92 0 158.333 39.333 199 118c20 38.667 30 108 30 208v526
h290zM946 1516l-296 -295h-195l185 295h306z" />
    <glyph glyph-name="ucircumflex" unicode="&#xfb;" horiz-adv-x="1214" vert-adv-y="1433" 
d="M1099 1060v-1060h-277v150c-84 -119.333 -200 -179 -348 -179c-124.667 0 -217.167 34.333 -277.5 103s-90.5 173.667 -90.5 315v671h290v-586c0 -100 9.33301 -165 28 -195c30.667 -47.333 82.667 -71 156 -71c92 0 158.333 39.333 199 118c20 38.667 30 108 30 208v526
h290zM963 1221h-235l-130 175l-132 -175h-224l228 295h266z" />
    <glyph glyph-name="udieresis" unicode="&#xfc;" horiz-adv-x="1214" vert-adv-y="1433" 
d="M1099 1060v-1060h-277v150c-84 -119.333 -200 -179 -348 -179c-124.667 0 -217.167 34.333 -277.5 103s-90.5 173.667 -90.5 315v671h290v-586c0 -100 9.33301 -165 28 -195c30.667 -47.333 82.667 -71 156 -71c92 0 158.333 39.333 199 118c20 38.667 30 108 30 208v526
h290zM954 1489v-238h-273v238h273zM523 1489v-238h-272v238h272z" />
    <glyph glyph-name="yacute" unicode="&#xfd;" horiz-adv-x="1063" vert-adv-y="1433" 
d="M1078 1060l-389 -1055c-39.333 -106.667 -71.833 -181.834 -97.5 -225.501s-58.167 -78.834 -97.5 -105.501c-32.667 -22 -65.167 -36.333 -97.5 -43s-85.833 -10 -160.5 -10h-28l-119 3v240h34h83c110.667 0 166 44 166 132c0 29.333 -3 51.666 -9 66.999l-378 997h314
l175 -520c18 -52 40.333 -134 67 -246c29.333 115.333 53.333 202 72 260l164 506h301zM873 1516l-296 -295h-195l185 295h306z" />
    <glyph glyph-name="thorn" unicode="&#xfe;" vert-adv-y="1433" 
d="M405 1462l0.000976562 -535c73.333 108 179.333 162 318 162c139.333 0 252.666 -52 339.999 -156c86.667 -102 130 -238.333 130 -409c0 -158 -38.333 -286.667 -115 -386c-85.333 -111.333 -201 -167 -347 -167c-139.333 0 -248 53.333 -326 160v-507h-290v1838h290z
M644.001 852c-77.333 0 -138.167 -29 -182.5 -87s-66.5 -137.333 -66.5 -238c0 -107.333 23.333 -189.333 70 -246c45.333 -55.333 107.333 -83 186 -83c77.333 0 137.666 27.667 180.999 83c46 58 69 137.667 69 239c0 106 -23.333 188.667 -70 248
c-43.333 56 -105.666 84 -186.999 84z" />
    <glyph glyph-name="ydieresis" unicode="&#xff;" horiz-adv-x="1063" vert-adv-y="1433" 
d="M1078 1060l-389 -1055c-39.333 -106.667 -71.833 -181.834 -97.5 -225.501s-58.167 -78.834 -97.5 -105.501c-32.667 -22 -65.167 -36.333 -97.5 -43s-85.833 -10 -160.5 -10h-28l-119 3v240h34h83c110.667 0 166 44 166 132c0 29.333 -3 51.666 -9 66.999l-378 997h314
l175 -520c18 -52 40.333 -134 67 -246c29.333 115.333 53.333 202 72 260l164 506h301zM883 1489v-238h-273v238h273zM452 1489v-238h-272v238h272z" />
    <glyph glyph-name="Amacron" unicode="&#x100;" horiz-adv-x="1403" vert-adv-y="1433" 
d="M867 1465l555 -1465h-335l-116 328h-543l-119 -328h-329l557 1465h330zM893 562l-94 263c-42.667 120 -75.334 226 -98.001 318c-23.333 -85.333 -57.666 -191.333 -102.999 -318l-94 -263h389zM1058 1810v-165h-714v165h714z" />
    <glyph glyph-name="amacron" unicode="&#x101;" horiz-adv-x="1176" vert-adv-y="1433" 
d="M1108 0l-296 -0.000976562c-12.667 38 -19 72.333 -19 103c-90 -88 -206.667 -132 -350 -132c-113.333 0 -201 25.333 -263 76c-72 58.667 -108 140 -108 244c0 133.333 61.667 226 185 278c50.667 20.667 142.667 39.667 276 57c115.333 14.667 187.166 29 215.499 43
s42.5 42.333 42.5 85c0 92.667 -63.333 139 -190 139c-67.333 0 -116.5 -11.833 -147.5 -35.5s-51.5 -64.834 -61.5 -123.501h-274c18 236.667 181.333 355 490 355c168 0 292.333 -33.667 373 -101c36.667 -29.333 61.334 -62 74.001 -98s19 -89.667 19 -161
c0 -22.667 -1 -97 -3 -223c-1.33301 -125.333 -2 -196.666 -2 -213.999c0 -133.333 13 -230.666 39 -291.999zM789 515.999c-36.667 -21.333 -104.667 -39.667 -204 -55c-81.333 -12 -137.5 -29.5 -168.5 -52.5s-46.5 -58.167 -46.5 -105.5c0 -96 54 -144 162 -144
c78.667 0 141.167 21.5 187.5 64.5s69.5 100.833 69.5 173.5v119zM930 1440v-153h-670v153h670z" />
    <glyph glyph-name="Abreve" unicode="&#x102;" horiz-adv-x="1403" vert-adv-y="1433" 
d="M867 1465l555 -1465h-335l-116 328h-543l-119 -328h-329l557 1465h330zM893 562l-94 263c-42.667 120 -75.334 226 -98.001 318c-23.333 -85.333 -57.666 -191.333 -102.999 -318l-94 -263h389zM345 1869h150.001c24 -82 92 -123 204 -123c114 0 183.333 41 208 123h149
c-2.66699 -70 -22.334 -128 -59.001 -174c-61.333 -77.333 -160 -116 -296 -116s-235 38.667 -297 116c-36 46 -55.667 104 -59 174z" />
    <glyph glyph-name="abreve" unicode="&#x103;" horiz-adv-x="1176" vert-adv-y="1433" 
d="M1108 0l-296 -0.000976562c-12.667 38 -19 72.333 -19 103c-90 -88 -206.667 -132 -350 -132c-113.333 0 -201 25.333 -263 76c-72 58.667 -108 140 -108 244c0 133.333 61.667 226 185 278c50.667 20.667 142.667 39.667 276 57c115.333 14.667 187.166 29 215.499 43
s42.5 42.333 42.5 85c0 92.667 -63.333 139 -190 139c-67.333 0 -116.5 -11.833 -147.5 -35.5s-51.5 -64.834 -61.5 -123.501h-274c18 236.667 181.333 355 490 355c168 0 292.333 -33.667 373 -101c36.667 -29.333 61.334 -62 74.001 -98s19 -89.667 19 -161
c0 -22.667 -1 -97 -3 -223c-1.33301 -125.333 -2 -196.666 -2 -213.999c0 -133.333 13 -230.666 39 -291.999zM789 515.999c-36.667 -21.333 -104.667 -39.667 -204 -55c-81.333 -12 -137.5 -29.5 -168.5 -52.5s-46.5 -58.167 -46.5 -105.5c0 -96 54 -144 162 -144
c78.667 0 141.167 21.5 187.5 64.5s69.5 100.833 69.5 173.5v119zM280 1513h142.001c21.333 -85.333 81.666 -128 180.999 -128c101.333 0 162 42.667 182 128h142c-2.66699 -70 -20.667 -127.667 -54 -173c-56 -77.333 -145.667 -116 -269 -116s-213.333 38.667 -270 116
c-33.333 45.333 -51.333 103 -54 173z" />
    <glyph glyph-name="Aogonek" unicode="&#x104;" horiz-adv-x="1403" vert-adv-y="1433" 
d="M1413 0c-80 -60 -119.999 -119.001 -119.999 -177.001c0 -30.667 12 -55 36 -73s56.333 -27 97 -27c18.667 0 43.667 4 75 12v-122c-48.667 -14 -92.334 -21 -131.001 -21c-74.667 0 -135.167 17.667 -181.5 53s-69.5 81 -69.5 137c0 72.667 48.667 145.334 146 218.001
h-178l-116 328h-543l-119 -328h-329l557 1465h330l555 -1465h-9zM893.001 561.999l-94 263c-42.667 120 -75.334 226 -98.001 318c-23.333 -85.333 -57.666 -191.333 -102.999 -318l-94 -263h389z" />
    <glyph glyph-name="aogonek" unicode="&#x105;" horiz-adv-x="1176" vert-adv-y="1433" 
d="M1098 0c-80.667 -60.667 -120.996 -119.667 -120.996 -177c0 -30.667 12.167 -55 36.5 -73s56.5 -27 96.5 -27c19.333 0 44.666 4 75.999 12v-122c-48.667 -14 -92.334 -21 -131.001 -21c-74.667 0 -135.334 17.5 -182.001 52.5s-70 80.833 -70 137.5
c0 38.667 11.167 74.834 33.5 108.501s59.833 70.167 112.5 109.5h-137c-12.667 38 -19 72.333 -19 103c-90 -88 -206.667 -132 -350 -132c-113.333 0 -201 25.333 -263 76c-72 58.667 -108 140 -108 244c0 133.333 61.667 226 185 278c50.667 20.667 142.667 39.667 276 57
c115.333 14.667 187.166 29 215.499 43s42.5 42.333 42.5 85c0 92.667 -63.333 139 -190 139c-67.333 0 -116.5 -11.833 -147.5 -35.5s-51.5 -64.834 -61.5 -123.501h-274c8.66699 110 51 195.667 127 257c82 65.333 203 98 363 98c168 0 292.333 -33.667 373 -101
c36.667 -29.333 61.334 -62 74.001 -98s19 -89.667 19 -161c0 -22.667 -1 -97 -3 -223c-1.33301 -125.333 -2 -197 -2 -215c0 -78.667 2.66699 -137.667 8 -177s15.666 -77.333 30.999 -114h-10zM789.004 516c-36.667 -22.667 -104.667 -41.0029 -204 -55.0029
c-70 -10 -120 -23.333 -150 -40c-43.333 -23.333 -65 -62.666 -65 -117.999c0 -45.333 14.333 -80.666 43 -105.999s68.334 -38 119.001 -38c85.333 0 154.666 29.333 207.999 88c18.667 20.667 31.5 41.834 38.5 63.501s10.5 50.5 10.5 86.5v119z" />
    <glyph glyph-name="Cacute" unicode="&#x106;" horiz-adv-x="1518" vert-adv-y="1433" 
d="M1449 564c-13.333 -183.333 -79.168 -329.001 -197.501 -437.001s-271.166 -162 -458.499 -162c-231.333 0 -411.333 81.667 -540 245c-110 139.333 -165 313.333 -165 522c0 226 66.5 410 199.5 552s305.5 213 517.5 213c171.333 0 316.833 -49.5 436.5 -148.5
s185.5 -224.5 197.5 -376.5h-315c-17.333 82.667 -54.333 146.5 -111 191.5s-128 67.5 -214 67.5c-119.333 0 -214 -45.167 -284 -135.5s-105 -212.166 -105 -365.499c0 -152.667 34.833 -274 104.5 -364s163.5 -135 281.5 -135c195.333 0 307 111 335 333h318zM1148 1851
l-306 -266h-214l185 266h335z" />
    <glyph glyph-name="cacute" unicode="&#x107;" horiz-adv-x="1176" vert-adv-y="1433" 
d="M1121 406c-18.667 -136.667 -72.834 -243.334 -162.501 -320.001s-205.167 -115 -346.5 -115c-177.333 0 -315.666 59 -414.999 177c-83.333 99.333 -125 223.333 -125 372c0 172 49.5 309.833 148.5 413.5s230.833 155.5 395.5 155.5
c141.333 0 256.5 -35.833 345.5 -107.5s139.833 -169.167 152.5 -292.5h-285c-22 120.667 -92.333 181 -211 181c-80 0 -142.333 -30 -187 -90s-67 -143.667 -67 -251s21.667 -190.666 65 -249.999s104.333 -89 183 -89c128.667 0 204 72 226 216h283zM943 1516l-296 -295
h-195l185 295h306z" />
    <glyph glyph-name="Ccircumflex" unicode="&#x108;" horiz-adv-x="1518" vert-adv-y="1433" 
d="M1449 564c-13.333 -183.333 -79.168 -329.001 -197.501 -437.001s-271.166 -162 -458.499 -162c-231.333 0 -411.333 81.667 -540 245c-110 139.333 -165 313.333 -165 522c0 226 66.5 410 199.5 552s305.5 213 517.5 213c171.333 0 316.833 -49.5 436.5 -148.5
s185.5 -224.5 197.5 -376.5h-315c-17.333 82.667 -54.333 146.5 -111 191.5s-128 67.5 -214 67.5c-119.333 0 -214 -45.167 -284 -135.5s-105 -212.166 -105 -365.499c0 -152.667 34.833 -274 104.5 -364s163.5 -135 281.5 -135c195.333 0 307 111 335 333h318zM1165 1591
h-260l-119 141l-122 -141h-249l238 273h275z" />
    <glyph glyph-name="ccircumflex" unicode="&#x109;" horiz-adv-x="1176" vert-adv-y="1433" 
d="M1121 406c-18.667 -136.667 -72.834 -243.334 -162.501 -320.001s-205.167 -115 -346.5 -115c-177.333 0 -315.666 59 -414.999 177c-83.333 99.333 -125 223.333 -125 372c0 172 49.5 309.833 148.5 413.5s230.833 155.5 395.5 155.5
c141.333 0 256.5 -35.833 345.5 -107.5s139.833 -169.167 152.5 -292.5h-285c-22 120.667 -92.333 181 -211 181c-80 0 -142.333 -30 -187 -90s-67 -143.667 -67 -251s21.667 -190.666 65 -249.999s104.333 -89 183 -89c128.667 0 204 72 226 216h283zM973 1221h-235
l-130 175l-132 -175h-224l228 295h266z" />
    <glyph glyph-name="Cdotaccent" unicode="&#x10a;" horiz-adv-x="1518" vert-adv-y="1433" 
d="M1449 564c-13.333 -183.333 -79.168 -329.001 -197.501 -437.001s-271.166 -162 -458.499 -162c-231.333 0 -411.333 81.667 -540 245c-110 139.333 -165 313.333 -165 522c0 226 66.5 410 199.5 552s305.5 213 517.5 213c171.333 0 316.833 -49.5 436.5 -148.5
s185.5 -224.5 197.5 -376.5h-315c-17.333 82.667 -54.333 146.5 -111 191.5s-128 67.5 -214 67.5c-119.333 0 -214 -45.167 -284 -135.5s-105 -212.166 -105 -365.499c0 -152.667 34.833 -274 104.5 -364s163.5 -135 281.5 -135c195.333 0 307 111 335 333h318z
M933.998 1847v-234h-283v234h283z" />
    <glyph glyph-name="cdotaccent" unicode="&#x10b;" horiz-adv-x="1176" vert-adv-y="1433" 
d="M1121 406c-18.667 -136.667 -72.834 -243.334 -162.501 -320.001s-205.167 -115 -346.5 -115c-177.333 0 -315.666 59 -414.999 177c-83.333 99.333 -125 223.333 -125 372c0 172 49.5 309.833 148.5 413.5s230.833 155.5 395.5 155.5
c141.333 0 256.5 -35.833 345.5 -107.5s139.833 -169.167 152.5 -292.5h-285c-22 120.667 -92.333 181 -211 181c-80 0 -142.333 -30 -187 -90s-67 -143.667 -67 -251s21.667 -190.666 65 -249.999s104.333 -89 183 -89c128.667 0 204 72 226 216h283zM746 1489v-238h-272
v238h272z" />
    <glyph glyph-name="Ccaron" unicode="&#x10c;" horiz-adv-x="1518" vert-adv-y="1433" 
d="M1449 564c-13.333 -183.333 -79.168 -329.001 -197.501 -437.001s-271.166 -162 -458.499 -162c-231.333 0 -411.333 81.667 -540 245c-110 139.333 -165 313.333 -165 522c0 226 66.5 410 199.5 552s305.5 213 517.5 213c171.333 0 316.833 -49.5 436.5 -148.5
s185.5 -224.5 197.5 -376.5h-315c-17.333 82.667 -54.333 146.5 -111 191.5s-128 67.5 -214 67.5c-119.333 0 -214 -45.167 -284 -135.5s-105 -212.166 -105 -365.499c0 -152.667 34.833 -274 104.5 -364s163.5 -135 281.5 -135c195.333 0 307 111 335 333h318zM1144 1864
l-237 -273h-275l-238 273h249l122 -141l119 141h260z" />
    <glyph glyph-name="ccaron" unicode="&#x10d;" horiz-adv-x="1176" vert-adv-y="1433" 
d="M1121 406c-18.667 -136.667 -72.834 -243.334 -162.501 -320.001s-205.167 -115 -346.5 -115c-177.333 0 -315.666 59 -414.999 177c-83.333 99.333 -125 223.333 -125 372c0 172 49.5 309.833 148.5 413.5s230.833 155.5 395.5 155.5
c141.333 0 256.5 -35.833 345.5 -107.5s139.833 -169.167 152.5 -292.5h-285c-22 120.667 -92.333 181 -211 181c-80 0 -142.333 -30 -187 -90s-67 -143.667 -67 -251s21.667 -190.666 65 -249.999s104.333 -89 183 -89c128.667 0 204 72 226 216h283zM972 1516l-226 -295
h-267l-231 295h233l132 -180l133 180h226z" />
    <glyph glyph-name="Dcaron" unicode="&#x10e;" horiz-adv-x="1518" vert-adv-y="1433" 
d="M140 1462l591.001 0.000976562c211.333 0 374.666 -52.667 489.999 -158c146 -133.333 219 -318 219 -554c0 -251.333 -69 -445.333 -207 -582c-60.667 -60.667 -129 -103.834 -205 -129.501s-172.667 -38.5 -290 -38.5h-598v1462zM459.001 1192v-922h246
c137.333 0 236.333 33 297 99c77.333 84 116 207 116 369c0 302.667 -141.667 454 -425 454h-234zM1067 1864l-237 -273h-275l-238 273h249l122 -141l119 141h260z" />
    <glyph glyph-name="dcaron" unicode="&#x10f;" horiz-adv-x="1554" vert-adv-y="1433" 
d="M1148 1462l0.00195312 -1462h-277v135c-68.667 -109.333 -175.334 -164 -320.001 -164c-146.667 0 -263.5 51 -350.5 153s-130.5 239 -130.5 411c0 159.333 37.667 287.666 113 384.999c87.333 113.333 204.666 170 351.999 170c145.333 0 253 -53.333 323 -160v532h290z
M610.002 863.001c-76.667 0 -137.168 -29.002 -181.501 -87.002s-66.5 -137.333 -66.5 -238c0 -103.333 22.333 -184.166 67 -242.499s106.667 -87.5 186 -87.5c80 0 142.167 28.5 186.5 85.5s66.5 136.833 66.5 239.5c0 104.667 -22.667 185.834 -68 243.501
s-108.666 86.5 -189.999 86.5zM1539 1462l-0.00195312 -156c0 -58 -5.33301 -100.333 -16 -127c-31.333 -76.667 -112.666 -117 -243.999 -121v93c52 4.66699 88.333 14.5 109 29.5s33.334 41.167 38.001 78.5h-147v203h260z" />
    <glyph glyph-name="Dcroat" unicode="&#x110;" horiz-adv-x="1518" vert-adv-y="1433" 
d="M140 1462l591.002 0.000976562c109.333 0 203.166 -12.667 281.499 -38s147.5 -65.333 207.5 -120c146 -132 219 -317 219 -555c0 -250 -69 -443.667 -207 -581c-60.667 -60.667 -128.834 -103.834 -204.501 -129.501s-172.5 -38.5 -290.5 -38.5h-597v659h-132v205h132
v598zM458.002 1193v-329h322v-205h-322v-389h246c75.333 0 135.5 7.5 180.5 22.5s84.167 40.5 117.5 76.5c77.333 84 116 206.667 116 368c0 170 -47.667 293.667 -143 371c-37.333 30.667 -77.833 52.5 -121.5 65.5s-97.167 19.5 -160.5 19.5h-235z" />
    <glyph glyph-name="dcroat" unicode="&#x111;" horiz-adv-x="1275" vert-adv-y="1433" 
d="M1148 1169l0.00195312 -1169h-277v135c-68.667 -109.333 -175.334 -164 -320.001 -164c-147.333 0 -265 52.667 -353 158c-85.333 101.333 -128 236 -128 404c0 156.667 37.667 282 113 376c88.667 110.667 206.667 166 354 166c69.333 0 131.666 -12.5 186.999 -37.5
s100 -60.833 134 -107.5v239h-303v168h303v125h290v-125h124v-168h-124zM610.002 848c-74.667 0 -134.333 -26.3311 -179 -78.998c-46 -54.667 -69 -132.334 -69 -233.001c0 -101.333 22.667 -182 68 -242c43.333 -57.333 105 -86 185 -86c80.667 0 143 28.667 187 86
s66 136.666 66 237.999c0 103.333 -23.667 182.333 -71 237c-46 52.667 -108.333 79 -187 79z" />
    <glyph glyph-name="Emacron" unicode="&#x112;" horiz-adv-x="1327" vert-adv-y="1433" 
d="M1232 1462v-270h-778v-312h713v-251h-713v-359h792v-270h-1111v1462h1097zM1048 1810v-165h-714v165h714z" />
    <glyph glyph-name="emacron" unicode="&#x113;" horiz-adv-x="1176" vert-adv-y="1433" 
d="M1100 329c-28.667 -110 -87.668 -197.169 -177.001 -261.502s-195.666 -96.5 -318.999 -96.5c-163.333 0 -294 49.667 -392 149c-100.667 102.667 -151 237.334 -151 404.001c0 154.667 45.667 284.334 137 389.001c102 117.333 234 176 396 176
c166 0 294.667 -55.333 386 -166s137 -267 137 -469h-761c7.33301 -182.667 90.333 -274 249 -274c102.667 0 174.667 49.667 216 149h279zM820.999 639.998c-8 76.667 -31.832 135.833 -71.499 177.5s-91.834 62.5 -156.501 62.5s-118 -21.5 -160 -64.5
s-67 -101.5 -75 -175.5h463zM941 1440v-153h-670v153h670z" />
    <glyph glyph-name="Ebreve" unicode="&#x114;" horiz-adv-x="1327" vert-adv-y="1433" 
d="M1232 1462v-270h-778v-312h713v-251h-713v-359h792v-270h-1111v1462h1097zM335 1869h150.001c24 -82 92 -123 204 -123c114 0 183.333 41 208 123h149c-2.66699 -70 -22.334 -128 -59.001 -174c-61.333 -77.333 -160 -116 -296 -116s-235 38.667 -297 116
c-36 46 -55.667 104 -59 174z" />
    <glyph glyph-name="ebreve" unicode="&#x115;" horiz-adv-x="1176" vert-adv-y="1433" 
d="M1100 329c-28.667 -110 -87.668 -197.169 -177.001 -261.502s-195.666 -96.5 -318.999 -96.5c-163.333 0 -294 49.667 -392 149c-100.667 102.667 -151 237.334 -151 404.001c0 154.667 45.667 284.334 137 389.001c102 117.333 234 176 396 176
c166 0 294.667 -55.333 386 -166s137 -267 137 -469h-761c7.33301 -182.667 90.333 -274 249 -274c102.667 0 174.667 49.667 216 149h279zM820.999 639.998c-8 76.667 -31.832 135.833 -71.499 177.5s-91.834 62.5 -156.501 62.5s-118 -21.5 -160 -64.5
s-67 -101.5 -75 -175.5h463zM266 1513h142.001c21.333 -85.333 81.666 -128 180.999 -128c101.333 0 162 42.667 182 128h142c-2.66699 -70 -20.667 -127.667 -54 -173c-56 -77.333 -145.667 -116 -269 -116s-213.333 38.667 -270 116c-33.333 45.333 -51.333 103 -54 173z
" />
    <glyph glyph-name="Edotaccent" unicode="&#x116;" horiz-adv-x="1327" vert-adv-y="1433" 
d="M1232 1462v-270h-778v-312h713v-251h-713v-359h792v-270h-1111v1462h1097zM832 1847v-234h-283v234h283z" />
    <glyph glyph-name="edotaccent" unicode="&#x117;" horiz-adv-x="1176" vert-adv-y="1433" 
d="M1100 329c-28.667 -110 -87.668 -197.169 -177.001 -261.502s-195.666 -96.5 -318.999 -96.5c-163.333 0 -294 49.667 -392 149c-100.667 102.667 -151 237.334 -151 404.001c0 154.667 45.667 284.334 137 389.001c102 117.333 234 176 396 176
c166 0 294.667 -55.333 386 -166s137 -267 137 -469h-761c7.33301 -182.667 90.333 -274 249 -274c102.667 0 174.667 49.667 216 149h279zM820.999 639.998c-8 76.667 -31.832 135.833 -71.499 177.5s-91.834 62.5 -156.501 62.5s-118 -21.5 -160 -64.5
s-67 -101.5 -75 -175.5h463zM742 1489v-238h-272v238h272z" />
    <glyph glyph-name="Eogonek" unicode="&#x118;" horiz-adv-x="1327" vert-adv-y="1433" 
d="M1231 0c-80 -58.667 -119.999 -117.668 -119.999 -177.001c0 -30 12 -54.167 36 -72.5s56.333 -27.5 97 -27.5c18.667 0 43.667 4 75 12v-122c-48.667 -14 -92.334 -21 -131.001 -21c-74.667 0 -135.167 17.667 -181.5 53s-69.5 81 -69.5 137
c0 72.667 48.667 145.334 146 218.001h-948v1462h1097v-270h-778v-312h713v-251h-713v-359h792v-270h-15z" />
    <glyph glyph-name="eogonek" unicode="&#x119;" horiz-adv-x="1176" vert-adv-y="1433" 
d="M761 -10c-72 -54.667 -107.997 -110.001 -107.997 -166.001c0 -30.667 12 -55.167 36 -73.5s56.333 -27.5 97 -27.5c19.333 0 44.666 4 75.999 12v-122c-48.667 -14 -92.667 -21 -132 -21c-74.667 0 -135.167 17.5 -181.5 52.5s-69.5 80.833 -69.5 137.5
c0 68.667 36.333 131.667 109 189c-122.667 4.66699 -224.334 34.334 -305.001 89.001c-72 49.333 -127 115.333 -165 198c-38 81.333 -57 170 -57 266c0 154 45.667 283.667 137 389c102 117.333 234 176 396 176c130.667 0 242 -39 334 -117
c66 -56 114.167 -125.167 144.5 -207.5s45.5 -185.833 45.5 -310.5h-761c2 -52.667 10.333 -96.667 25 -132c39.333 -94.667 114 -142 224 -142c102 0 174 49.667 216 149h279c-21.333 -79.333 -61 -149.333 -119 -210c-60.667 -63.333 -134.334 -106.333 -221.001 -129z
M822.003 639.999c-5.33301 52.667 -17.667 96 -37 130c-18.667 34 -45 60.833 -79 80.5s-71.333 29.5 -112 29.5c-65.333 0 -119 -21.5 -161 -64.5s-66.667 -101.5 -74 -175.5h463z" />
    <glyph glyph-name="Ecaron" unicode="&#x11a;" horiz-adv-x="1327" vert-adv-y="1433" 
d="M1232 1462v-270h-778v-312h713v-251h-713v-359h792v-270h-1111v1462h1097zM1066 1864l-237 -273h-275l-238 273h249l122 -141l119 141h260z" />
    <glyph glyph-name="ecaron" unicode="&#x11b;" horiz-adv-x="1176" vert-adv-y="1433" 
d="M1100 329c-28.667 -110 -87.668 -197.169 -177.001 -261.502s-195.666 -96.5 -318.999 -96.5c-163.333 0 -294 49.667 -392 149c-100.667 102.667 -151 237.334 -151 404.001c0 154.667 45.667 284.334 137 389.001c102 117.333 234 176 396 176
c166 0 294.667 -55.333 386 -166s137 -267 137 -469h-761c7.33301 -182.667 90.333 -274 249 -274c102.667 0 174.667 49.667 216 149h279zM820.999 639.998c-8 76.667 -31.832 135.833 -71.499 177.5s-91.834 62.5 -156.501 62.5s-118 -21.5 -160 -64.5
s-67 -101.5 -75 -175.5h463zM957 1516l-226 -295h-267l-231 295h233l132 -180l133 180h226z" />
    <glyph glyph-name="Gcircumflex" unicode="&#x11c;" horiz-adv-x="1554" vert-adv-y="1433" 
d="M1437 788l0.00195312 -788.002h-204l-32 167c-108 -134.667 -253.667 -202 -437 -202c-223.333 0 -399.666 82.667 -528.999 248c-107.333 138 -161 308.333 -161 511c0 230 70 418.333 210 565c131.333 138.667 300.666 208 507.999 208c168 0 310.333 -48 427 -144
s182.667 -220 198 -372h-309c-16 78.667 -51.833 140 -107.5 184s-126.167 66 -211.5 66c-122.667 0 -218.834 -44.667 -288.501 -134s-104.5 -212.666 -104.5 -369.999c0 -159.333 35.167 -283 105.5 -371s169.5 -132 297.5 -132c100.667 0 183.167 30.333 247.5 91
s98.166 140.334 101.499 239.001h-325v234h614zM1163 1591h-260l-119 141l-122 -141h-249l238 273h275z" />
    <glyph glyph-name="gcircumflex" unicode="&#x11d;" vert-adv-y="1433" 
d="M1123 1060l-0.000976562 -928c0 -148.667 -23.667 -259.667 -71 -333c-84 -129.333 -235 -194 -453 -194c-302.667 0 -468.334 110.667 -497.001 332h292c20.667 -90.667 91 -136 211 -136c84.667 0 145.334 21.333 182.001 64s55 112.667 55 210v121
c-73.333 -109.333 -181 -164 -323 -164c-136 0 -245 46.333 -327 139c-83.333 93.333 -125 220.333 -125 381c0 161.333 41.667 290.333 125 387c86 100 198.667 150 338 150c72.667 0 132.834 -12.833 180.501 -38.5s93.167 -69.5 136.5 -131.5v141h276zM594.999 863
c-72 0 -129.167 -27.332 -171.5 -81.999s-63.5 -128.667 -63.5 -222c0 -96.667 21.5 -172.834 64.5 -228.501s101.833 -83.5 176.5 -83.5c86 0 150.333 35.667 193 107c34 56 51 125.333 51 208c0 93.333 -22.333 166.833 -67 220.5s-105.667 80.5 -183 80.5zM990.999 1221
h-235l-130 175l-132 -175h-224l228 295h266z" />
    <glyph glyph-name="Gbreve" unicode="&#x11e;" horiz-adv-x="1554" vert-adv-y="1433" 
d="M1437 788l0.00195312 -788.002h-204l-32 167c-108 -134.667 -253.667 -202 -437 -202c-223.333 0 -399.666 82.667 -528.999 248c-107.333 138 -161 308.333 -161 511c0 230 70 418.333 210 565c131.333 138.667 300.666 208 507.999 208c168 0 310.333 -48 427 -144
s182.667 -220 198 -372h-309c-16 78.667 -51.833 140 -107.5 184s-126.167 66 -211.5 66c-122.667 0 -218.834 -44.667 -288.501 -134s-104.5 -212.666 -104.5 -369.999c0 -159.333 35.167 -283 105.5 -371s169.5 -132 297.5 -132c100.667 0 183.167 30.333 247.5 91
s98.166 140.334 101.499 239.001h-325v234h614zM430.002 1869h150.001c24 -82 92 -123 204 -123c114 0 183.333 41 208 123h149c-2.66699 -70 -22.334 -128 -59.001 -174c-61.333 -77.333 -160 -116 -296 -116s-235 38.667 -297 116c-36 46 -55.667 104 -59 174z" />
    <glyph glyph-name="gbreve" unicode="&#x11f;" vert-adv-y="1433" 
d="M1123 1060l-0.000976562 -928c0 -148.667 -23.667 -259.667 -71 -333c-84 -129.333 -235 -194 -453 -194c-302.667 0 -468.334 110.667 -497.001 332h292c20.667 -90.667 91 -136 211 -136c84.667 0 145.334 21.333 182.001 64s55 112.667 55 210v121
c-73.333 -109.333 -181 -164 -323 -164c-136 0 -245 46.333 -327 139c-83.333 93.333 -125 220.333 -125 381c0 161.333 41.667 290.333 125 387c86 100 198.667 150 338 150c72.667 0 132.834 -12.833 180.501 -38.5s93.167 -69.5 136.5 -131.5v141h276zM594.999 863
c-72 0 -129.167 -27.332 -171.5 -81.999s-63.5 -128.667 -63.5 -222c0 -96.667 21.5 -172.834 64.5 -228.501s101.833 -83.5 176.5 -83.5c86 0 150.333 35.667 193 107c34 56 51 125.333 51 208c0 93.333 -22.333 166.833 -67 220.5s-105.667 80.5 -183 80.5zM284.999 1513
h142.001c21.333 -85.333 81.666 -128 180.999 -128c101.333 0 162 42.667 182 128h142c-2.66699 -70 -20.667 -127.667 -54 -173c-56 -77.333 -145.667 -116 -269 -116s-213.333 38.667 -270 116c-33.333 45.333 -51.333 103 -54 173z" />
    <glyph glyph-name="Gdotaccent" unicode="&#x120;" horiz-adv-x="1554" vert-adv-y="1433" 
d="M1437 788l0.00195312 -788.002h-204l-32 167c-108 -134.667 -253.667 -202 -437 -202c-223.333 0 -399.666 82.667 -528.999 248c-107.333 138 -161 308.333 -161 511c0 230 70 418.333 210 565c131.333 138.667 300.666 208 507.999 208c168 0 310.333 -48 427 -144
s182.667 -220 198 -372h-309c-16 78.667 -51.833 140 -107.5 184s-126.167 66 -211.5 66c-122.667 0 -218.834 -44.667 -288.501 -134s-104.5 -212.666 -104.5 -369.999c0 -159.333 35.167 -283 105.5 -371s169.5 -132 297.5 -132c100.667 0 183.167 30.333 247.5 91
s98.166 140.334 101.499 239.001h-325v234h614zM940.002 1847v-234h-283v234h283z" />
    <glyph glyph-name="gdotaccent" unicode="&#x121;" vert-adv-y="1433" 
d="M1123 1060l-0.000976562 -928c0 -148.667 -23.667 -259.667 -71 -333c-84 -129.333 -235 -194 -453 -194c-302.667 0 -468.334 110.667 -497.001 332h292c20.667 -90.667 91 -136 211 -136c84.667 0 145.334 21.333 182.001 64s55 112.667 55 210v121
c-73.333 -109.333 -181 -164 -323 -164c-136 0 -245 46.333 -327 139c-83.333 93.333 -125 220.333 -125 381c0 161.333 41.667 290.333 125 387c86 100 198.667 150 338 150c72.667 0 132.834 -12.833 180.501 -38.5s93.167 -69.5 136.5 -131.5v141h276zM594.999 863
c-72 0 -129.167 -27.332 -171.5 -81.999s-63.5 -128.667 -63.5 -222c0 -96.667 21.5 -172.834 64.5 -228.501s101.833 -83.5 176.5 -83.5c86 0 150.333 35.667 193 107c34 56 51 125.333 51 208c0 93.333 -22.333 166.833 -67 220.5s-105.667 80.5 -183 80.5zM746.999 1489
v-238h-272v238h272z" />
    <glyph glyph-name="Gcommaaccent" unicode="&#x122;" horiz-adv-x="1554" vert-adv-y="1433" 
d="M1437 788l0.00195312 -788.002h-204l-32 167c-108 -134.667 -253.667 -202 -437 -202c-223.333 0 -399.666 82.667 -528.999 248c-107.333 138 -161 308.333 -161 511c0 230 70 418.333 210 565c131.333 138.667 300.666 208 507.999 208c168 0 310.333 -48 427 -144
s182.667 -220 198 -372h-309c-16 78.667 -51.833 140 -107.5 184s-126.167 66 -211.5 66c-122.667 0 -218.834 -44.667 -288.501 -134s-104.5 -212.666 -104.5 -369.999c0 -159.333 35.167 -283 105.5 -371s169.5 -132 297.5 -132c100.667 0 183.167 30.333 247.5 91
s98.166 140.334 101.499 239.001h-325v234h614zM899.002 -132.002l0.00195312 -155.999c0 -100 -31.667 -169 -95 -207c-41.333 -24.667 -101.333 -38.334 -180 -41.001v93c57.333 5.33301 96.166 15 116.499 29s33.166 40.333 38.499 79h-155v203h275z" />
    <glyph glyph-name="gcommaaccent" unicode="&#x123;" vert-adv-y="1433" 
d="M1123 1060l-0.000976562 -928c0 -148.667 -23.667 -259.667 -71 -333c-84 -129.333 -235 -194 -453 -194c-302.667 0 -468.334 110.667 -497.001 332h292c20.667 -90.667 91 -136 211 -136c84.667 0 145.334 21.333 182.001 64s55 112.667 55 210v121
c-73.333 -109.333 -181 -164 -323 -164c-136 0 -245 46.333 -327 139c-83.333 93.333 -125 220.333 -125 381c0 161.333 41.667 290.333 125 387c86 100 198.667 150 338 150c72.667 0 132.834 -12.833 180.501 -38.5s93.167 -69.5 136.5 -131.5v141h276zM594.999 863
c-72 0 -129.167 -27.332 -171.5 -81.999s-63.5 -128.667 -63.5 -222c0 -96.667 21.5 -172.834 64.5 -228.501s101.833 -83.5 176.5 -83.5c86 0 150.333 35.667 193 107c34 56 51 125.333 51 208c0 93.333 -22.333 166.833 -67 220.5s-105.667 80.5 -183 80.5zM467.999 1243
l0.000976562 156c0 58 5.33301 100.333 16 127c31.333 76 112.666 116.667 243.999 122v-94c-52.667 -4.66699 -89.167 -14.5 -109.5 -29.5s-32.833 -41.167 -37.5 -78.5h147v-203h-260z" />
    <glyph glyph-name="Hcircumflex" unicode="&#x124;" horiz-adv-x="1518" vert-adv-y="1433" 
d="M1376 1462v-1462h-319v637h-598v-637h-319v1462h319v-555h598v555h319zM1133 1591h-260l-119 141l-122 -141h-249l238 273h275z" />
    <glyph glyph-name="hcircumflex" unicode="&#x125;" horiz-adv-x="1214" vert-adv-y="1433" 
d="M404 1462v-416l-2 -130c86 115.333 197.333 173 334 173c125.333 0 218.166 -34 278.499 -102s90.5 -172.667 90.5 -314v-673h-289v624c0 78 -11 132 -33 162c-32.667 44 -83.667 66 -153 66c-91.333 0 -156.666 -39 -195.999 -117c-20 -39.333 -30 -111.333 -30 -216
v-519h-290v1462h290zM751 1591h-260l-119 141l-122 -141h-249l238 273h275z" />
    <glyph glyph-name="Hbar" unicode="&#x126;" horiz-adv-x="1521" vert-adv-y="1433" 
d="M1377 1301h132v-205h-132v-1096h-319v637h-598v-637h-318v1096h-132v205h132v161h318v-161h598v161h319v-161zM460 1096v-189h598v189h-598z" />
    <glyph glyph-name="hbar" unicode="&#x127;" horiz-adv-x="1240" vert-adv-y="1433" 
d="M416 0h-290v1169h-124v168h124v125h290v-125h302v-168h-302v-123c0 -10.667 -0.666992 -54 -2 -130c34 46 66 79.667 96 101c68.667 48.667 147.667 73 237 73c146.667 0 251.667 -50 315 -150c37.333 -58.667 56 -147.667 56 -267v-673h-290v624
c0 78.667 -11 133 -33 163c-32.667 44 -83.667 66 -153 66c-92 0 -157.333 -39.333 -196 -118c-12 -23.333 -20 -49.5 -24 -78.5s-6 -74.833 -6 -137.5v-519z" />
    <glyph glyph-name="Itilde" unicode="&#x128;" horiz-adv-x="604" vert-adv-y="1433" 
d="M461 1462v-1462h-319v1462h319zM678 1861c-32 -174 -112.667 -261.001 -242 -261.001c-22 0 -39.5 1.83301 -52.5 5.5s-43.833 14.834 -92.5 33.501c-66.667 26.667 -113.667 40 -141 40c-20 0 -37.333 -7.5 -52 -22.5s-25 -35.833 -31 -62.5h-142
c11.333 68 33.333 122 66 162c51.333 64.667 107.333 97 168 97c33.333 0 83 -12.667 149 -38c60 -23.333 105 -35 135 -35c40.667 0 71.667 27 93 81h142z" />
    <glyph glyph-name="itilde" unicode="&#x129;" horiz-adv-x="528" vert-adv-y="1433" 
d="M408 1060v-1060h-290v1060h290zM614 1502c-28.667 -168.667 -102.667 -252.999 -222 -252.999c-28 0 -53.667 3.66699 -77 11s-67.333 25.333 -132 54c-19.333 8.66699 -38 13 -56 13c-22 0 -40.333 -7.33301 -55 -22s-24.334 -35.334 -29.001 -62.001h-132
c10.667 65.333 30.334 118.333 59.001 159c44.667 63.333 98.667 95 162 95c34 0 80.333 -12.333 139 -37s102 -37 130 -37c35.333 0 62.333 26.333 81 79h132z" />
    <glyph glyph-name="Imacron" unicode="&#x12a;" horiz-adv-x="604" vert-adv-y="1433" 
d="M460 1462v-1462h-319v1462h319zM658 1810v-165h-714v165h714z" />
    <glyph glyph-name="imacron" unicode="&#x12b;" horiz-adv-x="528" vert-adv-y="1433" 
d="M408 1060v-1060h-290v1060h290zM598 1440v-153h-670v153h670z" />
    <glyph glyph-name="Ibreve" unicode="&#x12c;" horiz-adv-x="604" vert-adv-y="1433" 
d="M461 1462v-1462h-319v1462h319zM-54 1869h150.001c24 -82 92 -123 204 -123c114 0 183.333 41 208 123h149c-2.66699 -70 -22.334 -128 -59.001 -174c-61.333 -77.333 -160 -116 -296 -116s-235 38.667 -297 116c-36 46 -55.667 104 -59 174z" />
    <glyph glyph-name="ibreve" unicode="&#x12d;" horiz-adv-x="528" vert-adv-y="1433" 
d="M408 1060v-1060h-290v1060h290zM-61 1513h142.001c21.333 -85.333 81.666 -128 180.999 -128c101.333 0 162 42.667 182 128h142c-2.66699 -70 -20.667 -127.667 -54 -173c-56 -77.333 -145.667 -116 -269 -116s-213.333 38.667 -270 116
c-33.333 45.333 -51.333 103 -54 173z" />
    <glyph glyph-name="Iogonek" unicode="&#x12e;" horiz-adv-x="604" vert-adv-y="1433" 
d="M447 0c-79.333 -60.667 -119 -119.668 -119 -177.001c0 -30.667 12 -55 36 -73s56 -27 96 -27c18.667 0 43.667 4 75 12v-122c-48.667 -14 -92.667 -21 -132 -21c-74 0 -134.167 17.667 -180.5 53s-69.5 81 -69.5 137c0 72.667 48.667 145.334 146 218.001h-157v1462h319
v-1462h-14z" />
    <glyph glyph-name="iogonek" unicode="&#x12f;" horiz-adv-x="529" vert-adv-y="1433" 
d="M393 0c-79.333 -59.333 -119 -118.334 -119 -177.001c0 -30 12 -54.167 36 -72.5s55.667 -27.5 95 -27.5c18.667 0 44 4 76 12v-122c-49.333 -14 -93.333 -21 -132 -21c-74 0 -134.167 17.667 -180.5 53s-69.5 81 -69.5 137c0 72.667 48.667 145.334 146 218.001h-126
v1060h290v-1060h-16zM409 1462v-249h-290v249h290z" />
    <glyph glyph-name="Idotaccent" unicode="&#x130;" horiz-adv-x="604" vert-adv-y="1433" 
d="M461 1462v-1462h-319v1462h319zM443 1847v-234h-283v234h283z" />
    <glyph glyph-name="dotlessi" unicode="&#x131;" horiz-adv-x="528" vert-adv-y="1433" 
d="M408 1060v-1060h-290v1060h290z" />
    <glyph glyph-name="IJ" unicode="&#x132;" horiz-adv-x="1709" vert-adv-y="1433" 
d="M461 1462v-1462h-319v1462h319zM1590 1462v-984c0 -153.333 -29.333 -268.666 -88 -345.999c-84.667 -111.333 -215.334 -167 -392.001 -167c-166 0 -289 42.5 -369 127.5s-120 215.167 -120 390.5c0 15.333 0.333008 36.666 1 63.999h296v-38
c0 -100.667 8 -167.667 24 -201c26.667 -56 79.334 -84 158.001 -84c64 0 108.5 18 133.5 54s37.5 99 37.5 189v995h319z" />
    <glyph glyph-name="ij" unicode="&#x133;" horiz-adv-x="1094" vert-adv-y="1433" 
d="M418 1462v-249h-290v249h290zM418 1060v-1060h-290v1060h290zM963 1060v-1061l2 -90c0 -196.667 -118 -295 -354 -295c-33.333 0 -72 2 -116 6v234c23.333 -1.33301 42.333 -2 57 -2c58 0 92.667 11 104 33s17 89.667 17 203v972h290zM963 1462v-249h-290v249h290z" />
    <glyph glyph-name="Jcircumflex" unicode="&#x134;" horiz-adv-x="1139" vert-adv-y="1433" 
d="M1003 1462v-984c0 -153.333 -29.333 -268.666 -88 -345.999c-84.667 -111.333 -215.334 -167 -392.001 -167c-166 0 -289 42.5 -369 127.5s-120 215.167 -120 390.5c0 15.333 0.333008 36.666 1 63.999h296v-38c0 -100.667 8 -167.667 24 -201
c26.667 -56 79.334 -84 158.001 -84c64 0 108.5 18 133.5 54s37.5 99 37.5 189v995h319zM1209 1591h-260l-119 141l-122 -141h-249l238 273h275z" />
    <glyph glyph-name="jcircumflex" unicode="&#x135;" horiz-adv-x="569" vert-adv-y="1433" 
d="M427 1060l-0.000976562 -1061l2 -91c0 -59.333 -13.5 -112.333 -40.5 -159s-63.833 -80.667 -110.5 -102c-49.333 -22 -116.666 -33 -201.999 -33c-34 0 -73 2 -117 6v234c23.333 -1.33301 42.333 -2 57 -2c62.667 0 99.667 17.333 111 52c6.66699 22 10 83.333 10 184
v972h290zM632.999 1221h-235l-130 175l-132 -175h-224l228 295h266z" />
    <glyph glyph-name="Kcommaaccent" unicode="&#x136;" horiz-adv-x="1479" vert-adv-y="1433" 
d="M1445 1462l-573 -578l627 -884h-403l-444 656l-184 -184v-472h-319v1462h319v-436c0 -23.333 -1 -84.333 -3 -183c64 75.333 105 122.333 123 141l453 478h404zM904 -132l0.00195312 -155.999c0 -100 -31.667 -169 -95 -207
c-41.333 -24.667 -101.333 -38.334 -180 -41.001v93c57.333 5.33301 96.166 15 116.499 29s33.166 40.333 38.499 79h-155v203h275z" />
    <glyph glyph-name="kcommaaccent" unicode="&#x137;" horiz-adv-x="1176" vert-adv-y="1433" 
d="M1135 1060l-399 -392.999l445 -667h-352l-292 471l-119 -110v-361h-290v1462h290v-632c0 -24.667 -1 -80.334 -3 -167.001c33.333 43.333 58.333 73.333 75 90l300 307h345zM749 -131.999l-0.000976562 -156c0 -58 -5.33301 -100.333 -16 -127
c-31.333 -76.667 -112.666 -117 -243.999 -121v93c52 4.66699 88.167 14.5 108.5 29.5s33.5 41.167 39.5 78.5h-148v203h260z" />
    <glyph glyph-name="kgreenlandic" unicode="&#x138;" horiz-adv-x="1172" vert-adv-y="1433" 
d="M1134 1060l-399 -392.999l445 -667h-352l-292 471l-119 -110v-361h-290v1060h290v-230c0 -24.667 -1 -80.334 -3 -167.001c33.333 43.333 58.333 73.333 75 90l300 307h345z" />
    <glyph glyph-name="Lacute" unicode="&#x139;" horiz-adv-x="1214" vert-adv-y="1433" 
d="M1168 270v-270h-1034v1462h319v-1192h715zM694 1851l-306 -266h-214l185 266h335z" />
    <glyph glyph-name="lacute" unicode="&#x13a;" horiz-adv-x="528" vert-adv-y="1433" 
d="M409 1462v-1462h-290v1462h290zM635 1872l-296 -295h-195l185 295h306z" />
    <glyph glyph-name="Lcommaaccent" unicode="&#x13b;" horiz-adv-x="1214" vert-adv-y="1433" 
d="M1168 270v-270h-1034v1462h319v-1192h715zM789 -132l0.00195312 -155.999c0 -100 -31.667 -169 -95 -207c-41.333 -24.667 -101.333 -38.334 -180 -41.001v93c57.333 5.33301 96.166 15 116.499 29s33.166 40.333 38.499 79h-155v203h275z" />
    <glyph glyph-name="lcommaaccent" unicode="&#x13c;" horiz-adv-x="528" vert-adv-y="1433" 
d="M409 1462v-1462h-290v1462h290zM394 -132l-0.000976562 -156c0 -58 -5.33301 -100.333 -16 -127c-31.333 -76.667 -112.666 -117 -243.999 -121v93c52 4.66699 88.167 14.5 108.5 29.5s33.5 41.167 39.5 78.5h-148v203h260z" />
    <glyph glyph-name="Lcaron" unicode="&#x13d;" horiz-adv-x="1214" vert-adv-y="1433" 
d="M1168 270v-270h-1034v1462h319v-1192h715zM973 1462l0.00195312 -156c0 -100.667 -31.667 -169.667 -95 -207c-40.667 -24.667 -100.667 -38.667 -180 -42v94c57.333 5.33301 96.166 15 116.499 29s33.166 40.333 38.499 79h-155v203h275z" />
    <glyph glyph-name="lcaron" unicode="&#x13e;" horiz-adv-x="828" vert-adv-y="1433" 
d="M409 1462v-1462h-290v1462h290zM793 1462l-0.00195312 -156c0 -58 -5.33301 -100.333 -16 -127c-31.333 -76.667 -112.666 -117 -243.999 -121v93c52 4.66699 88.333 14.5 109 29.5s33.334 41.167 38.001 78.5h-147v203h260z" />
    <glyph glyph-name="Ldot" unicode="&#x13f;" horiz-adv-x="1231" vert-adv-y="1433" 
d="M1176 270v-270h-1034v1462h319v-1192h715zM1100 999v-360h-366v360h366z" />
    <glyph glyph-name="ldot" unicode="&#x140;" horiz-adv-x="911" vert-adv-y="1433" 
d="M417 1462v-1462h-290v1462h290zM911 955v-360h-366v360h366z" />
    <glyph glyph-name="Lslash" unicode="&#x141;" horiz-adv-x="1214" vert-adv-y="1433" 
d="M134 776v686h318v-534l300 209v-248l-300 -208v-411h715v-270h-1033v529l-132 -99v247z" />
    <glyph glyph-name="lslash" unicode="&#x142;" horiz-adv-x="528" vert-adv-y="1433" 
d="M119 791v671h289v-530l132 92v-205l-132 -93v-726h-289v586l-132 -95v205z" />
    <glyph glyph-name="Nacute" unicode="&#x143;" horiz-adv-x="1518" vert-adv-y="1433" 
d="M1377 1462l-0.000976562 -1462h-321l-437 705c-94 156.667 -155.333 266 -184 328c8.66699 -110 13 -246.667 13 -410v-623h-307v1462h325l426 -690c86.667 -142 150.334 -254.333 191.001 -337c-8.66699 150.667 -13 290 -13 418v609h307zM1106 1851l-306 -266h-214
l185 266h335z" />
    <glyph glyph-name="nacute" unicode="&#x144;" horiz-adv-x="1214" vert-adv-y="1433" 
d="M392 1060l0.000976562 -148c87.333 118.667 205.333 178 354 178c141.333 0 242.666 -48.667 303.999 -146c37.333 -60 56 -152.333 56 -277v-667h-289v609c0 68.667 -6 119 -18 151c-24 62 -78.667 93 -164 93c-79.333 0 -137.5 -24.5 -174.5 -73.5
s-55.5 -126.167 -55.5 -231.5v-548h-290v1060h277zM949.001 1516l-296 -295h-195l185 295h306z" />
    <glyph glyph-name="Ncommaaccent" unicode="&#x145;" horiz-adv-x="1518" vert-adv-y="1433" 
d="M1377 1462l-0.000976562 -1462h-321l-437 705c-94 156.667 -155.333 266 -184 328c8.66699 -110 13 -246.667 13 -410v-623h-307v1462h325l426 -690c86.667 -142 150.334 -254.333 191.001 -337c-8.66699 150.667 -13 290 -13 418v609h307zM895.999 -132
l0.00195312 -155.999c0 -100 -31.667 -169 -95 -207c-41.333 -24.667 -101.333 -38.334 -180 -41.001v93c57.333 5.33301 96.166 15 116.499 29s33.166 40.333 38.499 79h-155v203h275z" />
    <glyph glyph-name="ncommaaccent" unicode="&#x146;" horiz-adv-x="1214" vert-adv-y="1433" 
d="M392 1060l0.000976562 -148c87.333 118.667 205.333 178 354 178c141.333 0 242.666 -48.667 303.999 -146c37.333 -60 56 -152.333 56 -277v-667h-289v609c0 68.667 -6 119 -18 151c-24 62 -78.667 93 -164 93c-79.333 0 -137.5 -24.5 -174.5 -73.5
s-55.5 -126.167 -55.5 -231.5v-548h-290v1060h277zM746.001 -132l-0.000976562 -156c0 -58 -5.33301 -100.333 -16 -127c-31.333 -76.667 -112.666 -117 -243.999 -121v93c52 4.66699 88.167 14.5 108.5 29.5s33.5 41.167 39.5 78.5h-148v203h260z" />
    <glyph glyph-name="Ncaron" unicode="&#x147;" horiz-adv-x="1518" vert-adv-y="1433" 
d="M1377 1462l-0.000976562 -1462h-321l-437 705c-94 156.667 -155.333 266 -184 328c8.66699 -110 13 -246.667 13 -410v-623h-307v1462h325l426 -690c86.667 -142 150.334 -254.333 191.001 -337c-8.66699 150.667 -13 290 -13 418v609h307zM1134 1864l-237 -273h-275
l-238 273h249l122 -141l119 141h260z" />
    <glyph glyph-name="ncaron" unicode="&#x148;" horiz-adv-x="1214" vert-adv-y="1433" 
d="M392 1060l0.000976562 -148c87.333 118.667 205.333 178 354 178c141.333 0 242.666 -48.667 303.999 -146c37.333 -60 56 -152.333 56 -277v-667h-289v609c0 68.667 -6 119 -18 151c-24 62 -78.667 93 -164 93c-79.333 0 -137.5 -24.5 -174.5 -73.5
s-55.5 -126.167 -55.5 -231.5v-548h-290v1060h277zM973.001 1516l-226 -295h-267l-231 295h233l132 -180l133 180h226z" />
    <glyph glyph-name="napostrophe" unicode="&#x149;" horiz-adv-x="1658" vert-adv-y="1433" 
d="M414 1462v-249c0 -141.333 -34.667 -245.666 -104 -312.999c-58 -56 -132 -89 -222 -99v145c93.333 23.333 142.333 88.666 147 195.999h-147v320h326zM822 1060l-0.000976562 -148c32 43.333 63.333 76.333 94 99c72.667 52.667 159.667 79 261 79
c89.333 0 165 -22 227 -66c48.667 -34.667 83 -78.667 103 -132s30 -128.333 30 -225v-667h-289v609c0 68.667 -6 119 -18 151c-11.333 28 -30.666 50 -57.999 66c-31.333 18 -67 27 -107 27c-44.667 0 -85 -10.5 -121 -31.5s-62.667 -49.5 -80 -85.5
c-19.333 -40 -29 -102.667 -29 -188v-548h-289v1060h276z" />
    <glyph glyph-name="Eng" unicode="&#x14a;" horiz-adv-x="1521" vert-adv-y="1433" 
d="M461 1462l0.00292969 -185.001c43.333 54.667 84.666 95.334 123.999 122.001c95.333 65.333 209 98 341 98c114 0 209.333 -27 286 -81c61.333 -43.333 104.333 -98.166 129 -164.499s37 -159.5 37 -279.5v-973c0 -94.667 -8.66699 -166 -26 -214
c-42.667 -114 -161.334 -171 -356.001 -171c-34 0 -72.333 2 -115 6v234c22 -1.33301 41 -2 57 -2c62.667 0 99.667 17.333 111 52c6.66699 21.333 10 82.666 10 183.999v811c0 95.333 -9 164 -27 206c-16.667 38.667 -45 68.667 -85 90c-46 24 -97.667 36 -155 36
c-94.667 0 -172 -27.333 -232 -82c-36.667 -33.333 -62.334 -74 -77.001 -122s-22 -115.667 -22 -203v-824h-319v1462h319z" />
    <glyph glyph-name="eng" unicode="&#x14b;" horiz-adv-x="1240" vert-adv-y="1433" 
d="M404 1060l0.00195312 -147.999c32 43.333 63.333 76.333 94 99c72 52.667 158.667 79 260 79c89.333 0 165 -22 227 -66c49.333 -34.667 83.833 -78.5 103.5 -131.5s29.5 -128.167 29.5 -225.5v-668l2 -91c0 -59.333 -13.333 -112.333 -40 -159
s-63.334 -80.667 -110.001 -102c-49.333 -22 -117.333 -33 -204 -33c-34 0 -72.667 2 -116 6v234c22 -1.33301 41 -2 57 -2c63.333 0 100.666 17.333 111.999 52c6.66699 21.333 10 82.666 10 183.999v521c0 68.667 -6.33301 119 -19 151c-10.667 28 -30 50 -58 66
c-30.667 18 -66 27 -106 27c-44 0 -84 -10.5 -120 -31.5s-62.667 -49.5 -80 -85.5c-19.333 -40 -29 -102.667 -29 -188v-548h-290v1060h277z" />
    <glyph glyph-name="Omacron" unicode="&#x14c;" horiz-adv-x="1593" vert-adv-y="1433" 
d="M810 1497c194 0 357 -64.002 489 -192.002c145.333 -141.333 218 -332.666 218 -573.999c0 -208 -55 -380.333 -165 -517c-134.667 -166 -319 -249 -553 -249c-238 0 -425 85 -561 255c-107.333 134.667 -161 304.334 -161 509.001c0 242.667 69.667 431.667 209 567
c137.333 134 312 201 524 201zM794 1231c-119.333 0 -214.999 -45.5 -286.999 -136.5s-108 -211.167 -108 -360.5c0 -158.667 36 -282 108 -370c72 -88.667 170.667 -133 296 -133c116.667 0 208.667 40.667 276 122c78 93.333 117 220.333 117 381
c0 154 -35.833 275.333 -107.5 364s-169.834 133 -294.501 133zM1154 1810v-165h-714v165h714z" />
    <glyph glyph-name="omacron" unicode="&#x14d;" vert-adv-y="1433" 
d="M636 1089c158.667 0 288.332 -51.002 388.999 -153.002c99.333 -101.333 149 -236.333 149 -405c0 -173.333 -53 -311.666 -159 -414.999c-99.333 -96.667 -228.666 -145 -387.999 -145c-170 0 -305.333 53.667 -406 161c-96 102.667 -144 235.334 -144 398.001
c0 162 46.667 292.333 140 391c105.333 112 245 168 419 168zM619.998 873.998c-77.333 0 -138.498 -30.833 -183.498 -92.5s-67.5 -145.5 -67.5 -251.5c0 -108.667 22.667 -193.167 68 -253.5s108.666 -90.5 189.999 -90.5c79.333 0 141.5 30.333 186.5 91
s67.5 145 67.5 253c0 108.667 -22.833 193.167 -68.5 253.5s-109.834 90.5 -192.501 90.5zM961 1440v-153h-670v153h670z" />
    <glyph glyph-name="Obreve" unicode="&#x14e;" horiz-adv-x="1593" vert-adv-y="1433" 
d="M810 1497c194 0 357 -64.002 489 -192.002c145.333 -141.333 218 -332.666 218 -573.999c0 -208 -55 -380.333 -165 -517c-134.667 -166 -319 -249 -553 -249c-238 0 -425 85 -561 255c-107.333 134.667 -161 304.334 -161 509.001c0 242.667 69.667 431.667 209 567
c137.333 134 312 201 524 201zM794 1231c-119.333 0 -214.999 -45.5 -286.999 -136.5s-108 -211.167 -108 -360.5c0 -158.667 36 -282 108 -370c72 -88.667 170.667 -133 296 -133c116.667 0 208.667 40.667 276 122c78 93.333 117 220.333 117 381
c0 154 -35.833 275.333 -107.5 364s-169.834 133 -294.501 133zM442.001 1869h150.001c24 -82 92 -123 204 -123c114 0 183.333 41 208 123h149c-2.66699 -70 -22.334 -128 -59.001 -174c-61.333 -77.333 -160 -116 -296 -116s-235 38.667 -297 116
c-36 46 -55.667 104 -59 174z" />
    <glyph glyph-name="obreve" unicode="&#x14f;" vert-adv-y="1433" 
d="M636 1089c158.667 0 288.332 -51.002 388.999 -153.002c99.333 -101.333 149 -236.333 149 -405c0 -173.333 -53 -311.666 -159 -414.999c-99.333 -96.667 -228.666 -145 -387.999 -145c-170 0 -305.333 53.667 -406 161c-96 102.667 -144 235.334 -144 398.001
c0 162 46.667 292.333 140 391c105.333 112 245 168 419 168zM619.998 873.998c-77.333 0 -138.498 -30.833 -183.498 -92.5s-67.5 -145.5 -67.5 -251.5c0 -108.667 22.667 -193.167 68 -253.5s108.666 -90.5 189.999 -90.5c79.333 0 141.5 30.333 186.5 91
s67.5 145 67.5 253c0 108.667 -22.833 193.167 -68.5 253.5s-109.834 90.5 -192.501 90.5zM302 1513h142.001c21.333 -85.333 81.666 -128 180.999 -128c101.333 0 162 42.667 182 128h142c-2.66699 -70 -20.667 -127.667 -54 -173c-56 -77.333 -145.667 -116 -269 -116
s-213.333 38.667 -270 116c-33.333 45.333 -51.333 103 -54 173z" />
    <glyph glyph-name="Ohungarumlaut" unicode="&#x150;" horiz-adv-x="1593" vert-adv-y="1433" 
d="M810 1497c194 0 357 -64.002 489 -192.002c145.333 -141.333 218 -332.666 218 -573.999c0 -208 -55 -380.333 -165 -517c-134.667 -166 -319 -249 -553 -249c-238 0 -425 85 -561 255c-107.333 134.667 -161 304.334 -161 509.001c0 242.667 69.667 431.667 209 567
c137.333 134 312 201 524 201zM794 1231c-119.333 0 -214.999 -45.5 -286.999 -136.5s-108 -211.167 -108 -360.5c0 -158.667 36 -282 108 -370c72 -88.667 170.667 -133 296 -133c116.667 0 208.667 40.667 276 122c78 93.333 117 220.333 117 381
c0 154 -35.833 275.333 -107.5 364s-169.834 133 -294.501 133zM1278 1851l-221 -266h-183l111 266h293zM912.001 1851l-221 -266h-183l111 266h293z" />
    <glyph glyph-name="ohungarumlaut" unicode="&#x151;" vert-adv-y="1433" 
d="M636 1089c158.667 0 288.332 -51.002 388.999 -153.002c99.333 -101.333 149 -236.333 149 -405c0 -173.333 -53 -311.666 -159 -414.999c-99.333 -96.667 -228.666 -145 -387.999 -145c-170 0 -305.333 53.667 -406 161c-96 102.667 -144 235.334 -144 398.001
c0 162 46.667 292.333 140 391c105.333 112 245 168 419 168zM619.998 873.998c-77.333 0 -138.498 -30.833 -183.498 -92.5s-67.5 -145.5 -67.5 -251.5c0 -108.667 22.667 -193.167 68 -253.5s108.666 -90.5 189.999 -90.5c79.333 0 141.5 30.333 186.5 91
s67.5 145 67.5 253c0 108.667 -22.833 193.167 -68.5 253.5s-109.834 90.5 -192.501 90.5zM1079 1516l-211 -295h-167l111 295h267zM728 1516l-211 -295h-167l111 295h267z" />
    <glyph glyph-name="OE" unicode="&#x152;" horiz-adv-x="2238" vert-adv-y="1433" 
d="M2141 1462v-270h-731v-312h668v-251h-668v-359h745v-270h-1044v111c-88.667 -95.333 -211 -143 -367 -143c-194.667 0 -354.667 70.667 -480 212s-188 321.333 -188 540c0 228.667 65 414.667 195 558c130 144 292.667 216 488 216c168 0 285.333 -46 352 -138v106h1030z
M1105 577l0.00195312 314c0 96 -20.667 169.667 -62 221c-60.667 76.667 -144.667 115 -252 115c-119.333 0 -214.833 -45.167 -286.5 -135.5s-107.5 -210.833 -107.5 -361.5c0 -148.667 35.167 -268.5 105.5 -359.5s163.166 -136.5 278.499 -136.5
c99.333 0 178.166 30.833 236.499 92.5s87.5 145.167 87.5 250.5z" />
    <glyph glyph-name="oe" unicode="&#x153;" horiz-adv-x="1896" vert-adv-y="1433" 
d="M1827 335c-34 -116 -94.5029 -205.667 -181.503 -269s-192.833 -95 -317.5 -95c-172 0 -298.667 58.667 -380 176c-81.333 -117.333 -203.666 -176 -366.999 -176c-157.333 0 -282.833 50.5 -376.5 151.5s-140.5 236.5 -140.5 406.5c0 167.333 49 302.5 147 405.5
s226.667 154.5 386 154.5c164 0 284.667 -55.333 362 -166c88 110.667 209.333 166 364 166c164.667 0 291.834 -54.333 381.501 -163s133.834 -262.667 132.501 -462h-763c2 -88 25.833 -157.333 71.5 -208s107.167 -76 184.5 -76c97.333 0 170 51.667 218 155h279z
M1548 635c-6 77.333 -29.499 137.5 -70.499 180.5s-95.833 64.5 -164.5 64.5s-123.834 -21.167 -165.501 -63.5s-67.167 -102.833 -76.5 -181.5h477zM591.998 875c-72 0 -129.333 -30.832 -172 -92.499s-64 -144.834 -64 -249.501c0 -231.333 78.667 -347 236 -347
c154 0 231 118 231 354c0 223.333 -77 335 -231 335z" />
    <glyph glyph-name="Racute" unicode="&#x154;" horiz-adv-x="1479" vert-adv-y="1433" 
d="M124 1462l708.002 -0.000976562c140 0 247.333 -22 322 -66c127.333 -74.667 191 -190.334 191 -347.001c0 -85.333 -20.5 -159.666 -61.5 -222.999s-98.167 -108.666 -171.5 -135.999c78.667 -19.333 132.5 -59.5 161.5 -120.5s51.833 -182.167 68.5 -363.5
c9.33301 -101.333 23.666 -164.333 42.999 -189l14 -17h-333c-16.667 30 -31.334 130.333 -44.001 301c-8 103.333 -33.167 174.833 -75.5 214.5s-114.5 59.5 -216.5 59.5h-287v-575h-319v1462zM443.002 1211v-402h305c99.333 0 171.333 15.833 216 47.5s67 83.167 67 154.5
c0 133.333 -90 200 -270 200h-318zM1059 1851l-306 -266h-214l185 266h335z" />
    <glyph glyph-name="racute" unicode="&#x155;" horiz-adv-x="797" vert-adv-y="1433" 
d="M804 1078l0.000976562 -269c-46.667 8.66699 -86 13 -118 13c-104 0 -181.667 -44 -233 -132c-28.667 -48.667 -43 -131 -43 -247v-443h-290v1060h276v-196c79.333 145.333 194 218 344 218c17.333 0 38.666 -1.33301 63.999 -4zM790.001 1516l-296 -295h-195l185 295
h306z" />
    <glyph glyph-name="Rcommaaccent" unicode="&#x156;" horiz-adv-x="1479" vert-adv-y="1433" 
d="M124 1462l708.002 -0.000976562c140 0 247.333 -22 322 -66c127.333 -74.667 191 -190.334 191 -347.001c0 -85.333 -20.5 -159.666 -61.5 -222.999s-98.167 -108.666 -171.5 -135.999c78.667 -19.333 132.5 -59.5 161.5 -120.5s51.833 -182.167 68.5 -363.5
c9.33301 -101.333 23.666 -164.333 42.999 -189l14 -17h-333c-16.667 30 -31.334 130.333 -44.001 301c-8 103.333 -33.167 174.833 -75.5 214.5s-114.5 59.5 -216.5 59.5h-287v-575h-319v1462zM443.002 1211v-402h305c99.333 0 171.333 15.833 216 47.5s67 83.167 67 154.5
c0 133.333 -90 200 -270 200h-318zM880.002 -132.001l0.00195312 -155.999c0 -100 -31.667 -169 -95 -207c-41.333 -24.667 -101.333 -38.334 -180 -41.001v93c57.333 5.33301 96.166 15 116.499 29s33.166 40.333 38.499 79h-155v203h275z" />
    <glyph glyph-name="rcommaaccent" unicode="&#x157;" horiz-adv-x="797" vert-adv-y="1433" 
d="M804 1078l0.000976562 -269c-46.667 8.66699 -86 13 -118 13c-104 0 -181.667 -44 -233 -132c-28.667 -48.667 -43 -131 -43 -247v-443h-290v1060h276v-196c79.333 145.333 194 218 344 218c17.333 0 38.666 -1.33301 63.999 -4zM398.001 -132l-0.000976562 -156
c0 -58 -5.33301 -100.333 -16 -127c-31.333 -76.667 -112.666 -117 -243.999 -121v93c52 4.66699 88.167 14.5 108.5 29.5s33.5 41.167 39.5 78.5h-148v203h260z" />
    <glyph glyph-name="Rcaron" unicode="&#x158;" horiz-adv-x="1479" vert-adv-y="1433" 
d="M124 1462l708.002 -0.000976562c140 0 247.333 -22 322 -66c127.333 -74.667 191 -190.334 191 -347.001c0 -85.333 -20.5 -159.666 -61.5 -222.999s-98.167 -108.666 -171.5 -135.999c78.667 -19.333 132.5 -59.5 161.5 -120.5s51.833 -182.167 68.5 -363.5
c9.33301 -101.333 23.666 -164.333 42.999 -189l14 -17h-333c-16.667 30 -31.334 130.333 -44.001 301c-8 103.333 -33.167 174.833 -75.5 214.5s-114.5 59.5 -216.5 59.5h-287v-575h-319v1462zM443.002 1211v-402h305c99.333 0 171.333 15.833 216 47.5s67 83.167 67 154.5
c0 133.333 -90 200 -270 200h-318zM1057 1864l-237 -273h-275l-238 273h249l122 -141l119 141h260z" />
    <glyph glyph-name="rcaron" unicode="&#x159;" horiz-adv-x="797" vert-adv-y="1433" 
d="M803 1078l0.000976562 -269c-46.667 8.66699 -86 13 -118 13c-104 0 -181.667 -44 -233 -132c-28.667 -48.667 -43 -131 -43 -247v-443h-290v1060h276v-196c79.333 145.333 194 218 344 218c17.333 0 38.666 -1.33301 63.999 -4zM791.001 1516l-226 -295h-267l-231 295
h233l132 -180l133 180h226z" />
    <glyph glyph-name="Sacute" unicode="&#x15a;" horiz-adv-x="1329" vert-adv-y="1433" 
d="M1211 1029l-303.999 0.00195312c-11.333 146.667 -103.333 220 -276 220c-159.333 0 -239 -56.333 -239 -169c0 -47.333 20 -82 60 -104s138 -52 294 -90c165.333 -40.667 280.333 -82.334 345 -125.001c118 -78 177 -185.667 177 -323
c0 -146 -53.833 -261.333 -161.5 -346s-254.5 -127 -440.5 -127c-199.333 0 -354 45.333 -464 136s-167 219.667 -171 387h318c10.667 -183.333 120.334 -275 329.001 -275c82.667 0 148 17.333 196 52s72 82 72 142c0 62 -37 107.333 -111 136
c-40.667 16 -136.667 45 -288 87c-174.667 48.667 -291.334 99 -350.001 151c-74.667 67.333 -112 159.666 -112 276.999c0 132.667 51.167 239 153.5 319s238.5 120 408.5 120c175.333 0 311.666 -40.5 408.999 -121.5s149 -196.5 155 -346.5zM1015 1851l-306 -266h-214
l185 266h335z" />
    <glyph glyph-name="sacute" unicode="&#x15b;" horiz-adv-x="1100" vert-adv-y="1433" 
d="M988 752h-272c-14.667 94 -80.667 141 -198 141c-108 0 -162 -34.667 -162 -104c0 -35.333 15.5 -61 46.5 -77s102.167 -35.333 213.5 -58c152.667 -30.667 259.834 -70.167 321.501 -118.5s92.5 -117.5 92.5 -207.5c0 -110.667 -43.833 -197.834 -131.5 -261.501
s-207.167 -95.5 -358.5 -95.5c-316.667 0 -483 124.667 -499 374h278c13.333 -118.667 87.666 -178 222.999 -178c60 0 107.667 11.833 143 35.5s53 55.5 53 95.5c0 36.667 -15.167 64 -45.5 82s-94.5 38 -192.5 60c-154 34.667 -256.333 66 -307 94
c-86 48 -129 125 -129 231c0 102.667 40.333 182.334 121 239.001s193.667 85 339 85c291.333 0 446 -112.333 464 -337zM863 1516l-296 -295h-195l185 295h306z" />
    <glyph glyph-name="Scircumflex" unicode="&#x15c;" horiz-adv-x="1329" vert-adv-y="1433" 
d="M1211 1029l-303.999 0.00195312c-11.333 146.667 -103.333 220 -276 220c-159.333 0 -239 -56.333 -239 -169c0 -47.333 20 -82 60 -104s138 -52 294 -90c165.333 -40.667 280.333 -82.334 345 -125.001c118 -78 177 -185.667 177 -323
c0 -146 -53.833 -261.333 -161.5 -346s-254.5 -127 -440.5 -127c-199.333 0 -354 45.333 -464 136s-167 219.667 -171 387h318c10.667 -183.333 120.334 -275 329.001 -275c82.667 0 148 17.333 196 52s72 82 72 142c0 62 -37 107.333 -111 136
c-40.667 16 -136.667 45 -288 87c-174.667 48.667 -291.334 99 -350.001 151c-74.667 67.333 -112 159.666 -112 276.999c0 132.667 51.167 239 153.5 319s238.5 120 408.5 120c175.333 0 311.666 -40.5 408.999 -121.5s149 -196.5 155 -346.5zM1030 1591h-260l-119 141
l-122 -141h-249l238 273h275z" />
    <glyph glyph-name="scircumflex" unicode="&#x15d;" horiz-adv-x="1100" vert-adv-y="1433" 
d="M988 752h-272c-14.667 94 -80.667 141 -198 141c-108 0 -162 -34.667 -162 -104c0 -35.333 15.5 -61 46.5 -77s102.167 -35.333 213.5 -58c152.667 -30.667 259.834 -70.167 321.501 -118.5s92.5 -117.5 92.5 -207.5c0 -110.667 -43.833 -197.834 -131.5 -261.501
s-207.167 -95.5 -358.5 -95.5c-316.667 0 -483 124.667 -499 374h278c13.333 -118.667 87.666 -178 222.999 -178c60 0 107.667 11.833 143 35.5s53 55.5 53 95.5c0 36.667 -15.167 64 -45.5 82s-94.5 38 -192.5 60c-154 34.667 -256.333 66 -307 94
c-86 48 -129 125 -129 231c0 102.667 40.333 182.334 121 239.001s193.667 85 339 85c291.333 0 446 -112.333 464 -337zM905 1221h-235l-130 175l-132 -175h-224l228 295h266z" />
    <glyph glyph-name="Scedilla" unicode="&#x15e;" horiz-adv-x="1329" vert-adv-y="1433" 
d="M693 -35l-60.002 -91.001c30.667 6.66699 57 10 79 10c53.333 0 96.833 -13.833 130.5 -41.5s50.5 -63.834 50.5 -108.501c0 -54.667 -23.5 -99.334 -70.5 -134.001s-107.5 -52 -181.5 -52c-73.333 0 -151 16 -233 48l40 85c63.333 -23.333 118 -35 164 -35
c30 0 54.333 7 73 21s28 32.667 28 56c0 21.333 -8.66699 39.5 -26 54.5s-38.666 22.5 -63.999 22.5c-22.667 0 -50 -5.66699 -82 -17l-43 42l96 142c-176 10.667 -312.833 61.167 -410.5 151.5s-148.5 213.5 -152.5 369.5h318c4.66699 -81.333 25.667 -141.666 63 -180.999
c58.667 -62.667 147.334 -94 266.001 -94c79.333 0 142.333 15.667 189 47c52.667 36 79 85 79 147s-37 107.333 -111 136c-40.667 16 -136.667 45 -288 87c-94.667 26 -168.667 50.667 -222 74s-96 49.333 -128 78c-74.667 66.667 -112 158.667 -112 276
c0 132.667 51.167 239 153.5 319s238.5 120 408.5 120c139.333 0 256 -27.667 350 -83c135.333 -79.333 206.666 -207.666 213.999 -384.999h-304c-6 71.333 -32.5 125.833 -79.5 163.5s-112.5 56.5 -196.5 56.5c-76 0 -134.833 -14.833 -176.5 -44.5
s-62.5 -71.167 -62.5 -124.5c0 -47.333 20.333 -82.166 61 -104.499s138.334 -52.166 293.001 -89.499c165.333 -40.667 280.333 -82.334 345 -125.001c118 -78 177 -185.667 177 -323c0 -142 -51.5 -255.5 -154.5 -340.5s-243.167 -129.167 -420.5 -132.5z" />
    <glyph glyph-name="scedilla" unicode="&#x15f;" horiz-adv-x="1100" vert-adv-y="1433" 
d="M568 -29l-68 -99.999c33.333 6 60.333 9 81 9c53.333 0 96.666 -13.333 129.999 -40s50 -61.667 50 -105c0 -44 -13.667 -82.333 -41 -115c-43.333 -51.333 -113 -77 -209 -77c-75.333 0 -153.333 16 -234 48l39 86c59.333 -22.667 112.333 -34 159 -34
c32.667 0 58.834 7.16699 78.501 21.5s29.5 33.166 29.5 56.499c0 22 -9 40 -27 54s-41.667 21 -71 21c-22.667 0 -47.667 -5.33301 -75 -16l-43 40l105 153c-98 6 -183.333 29 -256 69c-107.333 58.667 -165.666 159.667 -174.999 303h278
c5.33301 -48.667 18 -85.667 38 -111c37.333 -44.667 99 -67 185 -67c60 0 107.667 11.833 143 35.5s53 55.5 53 95.5c0 36.667 -15.167 64 -45.5 82s-94.5 38 -192.5 60c-95.333 21.333 -162.5 38 -201.5 50s-74.167 26.667 -105.5 44
c-40.667 22.667 -72.334 54.5 -95.001 95.5s-34 86.167 -34 135.5c0 111.333 47.333 195.666 142 252.999c76.667 47.333 182.667 71 318 71c180.667 0 310.667 -44.667 390 -134c42.667 -47.333 67.334 -115 74.001 -203h-272c-6 37.333 -16.333 65.333 -31 84
c-30.667 38 -86.334 57 -167.001 57c-51.333 0 -91.166 -9.16699 -119.499 -27.5s-42.5 -43.833 -42.5 -76.5c0 -35.333 15.5 -61 46.5 -77s102.167 -35.333 213.5 -58c140 -28 241 -62.667 303 -104c74 -48.667 111 -122.667 111 -222
c0 -107.333 -40.333 -192.166 -121 -254.499s-194.334 -96.5 -341.001 -102.5z" />
    <glyph glyph-name="Scaron" unicode="&#x160;" horiz-adv-x="1329" vert-adv-y="1433" 
d="M1211 1029l-303.999 0.00195312c-11.333 146.667 -103.333 220 -276 220c-159.333 0 -239 -56.333 -239 -169c0 -47.333 20 -82 60 -104s138 -52 294 -90c165.333 -40.667 280.333 -82.334 345 -125.001c118 -78 177 -185.667 177 -323
c0 -146 -53.833 -261.333 -161.5 -346s-254.5 -127 -440.5 -127c-199.333 0 -354 45.333 -464 136s-167 219.667 -171 387h318c10.667 -183.333 120.334 -275 329.001 -275c82.667 0 148 17.333 196 52s72 82 72 142c0 62 -37 107.333 -111 136
c-40.667 16 -136.667 45 -288 87c-174.667 48.667 -291.334 99 -350.001 151c-74.667 67.333 -112 159.666 -112 276.999c0 132.667 51.167 239 153.5 319s238.5 120 408.5 120c175.333 0 311.666 -40.5 408.999 -121.5s149 -196.5 155 -346.5zM1024 1864l-237 -273h-275
l-238 273h249l122 -141l119 141h260z" />
    <glyph glyph-name="scaron" unicode="&#x161;" horiz-adv-x="1100" vert-adv-y="1433" 
d="M988 752h-272c-14.667 94 -80.667 141 -198 141c-108 0 -162 -34.667 -162 -104c0 -35.333 15.5 -61 46.5 -77s102.167 -35.333 213.5 -58c152.667 -30.667 259.834 -70.167 321.501 -118.5s92.5 -117.5 92.5 -207.5c0 -110.667 -43.833 -197.834 -131.5 -261.501
s-207.167 -95.5 -358.5 -95.5c-316.667 0 -483 124.667 -499 374h278c13.333 -118.667 87.666 -178 222.999 -178c60 0 107.667 11.833 143 35.5s53 55.5 53 95.5c0 36.667 -15.167 64 -45.5 82s-94.5 38 -192.5 60c-154 34.667 -256.333 66 -307 94
c-86 48 -129 125 -129 231c0 102.667 40.333 182.334 121 239.001s193.667 85 339 85c291.333 0 446 -112.333 464 -337zM898 1516l-226 -295h-267l-231 295h233l132 -180l133 180h226z" />
    <glyph glyph-name="Tcommaaccent" unicode="&#x162;" vert-adv-y="1433" 
d="M1228 1462v-270h-445v-1192h-318v1192h-442v270h1205zM763 -132l0.00195312 -155.999c0 -100 -31.667 -169 -95 -207c-41.333 -24.667 -101.333 -38.334 -180 -41.001v93c57.333 5.33301 96.166 15 116.499 29s33.166 40.333 38.499 79h-155v203h275z" />
    <glyph glyph-name="tcommaaccent" unicode="&#x163;" horiz-adv-x="721" vert-adv-y="1433" 
d="M672 1060v-195.999h-217v-500c0 -62 5.66699 -101 17 -117c16.667 -24 52.334 -36 107.001 -36c26 0 57 2 93 6v-221c-66.667 -7.33301 -127.667 -11 -183 -11c-139.333 0 -232 33.333 -278 100c-18.667 27.333 -30.834 59.166 -36.501 95.499s-8.5 100.833 -8.5 193.5
v490h-177v196h177v320h289v-320h217zM449 -131.999l-0.000976562 -156c0 -58 -5.33301 -100.333 -16 -127c-31.333 -76.667 -112.666 -117 -243.999 -121v93c52 4.66699 88.167 14.5 108.5 29.5s33.5 41.167 39.5 78.5h-148v203h260z" />
    <glyph glyph-name="Tcaron" unicode="&#x164;" vert-adv-y="1433" 
d="M1228 1462v-270h-445v-1192h-318v1192h-442v270h1205zM1000 1864l-237 -273h-275l-238 273h249l122 -141l119 141h260z" />
    <glyph glyph-name="tcaron" unicode="&#x165;" horiz-adv-x="855" vert-adv-y="1433" 
d="M665 1060v-195.999h-217v-500c0 -62 5.66699 -101 17 -117c16.667 -24 52.334 -36 107.001 -36c26 0 57 2 93 6v-221c-66.667 -7.33301 -127.667 -11 -183 -11c-139.333 0 -232 33.333 -278 100c-18.667 27.333 -30.834 59.166 -36.501 95.499s-8.5 100.833 -8.5 193.5
v490h-177v196h177v320h289v-320h217zM840 1582l-0.00195312 -156c0 -58 -5.33301 -100.333 -16 -127c-31.333 -76.667 -112.666 -117 -243.999 -121v93c52 4.66699 88.333 14.5 109 29.5s33.334 41.167 38.001 78.5h-147v203h260z" />
    <glyph glyph-name="Tbar" unicode="&#x166;" vert-adv-y="1433" 
d="M783 913h295v-201h-295v-712h-318v712h-292v201h292v279h-442v270h1205v-270h-445v-279z" />
    <glyph glyph-name="tbar" unicode="&#x167;" horiz-adv-x="721" vert-adv-y="1433" 
d="M455 864l0.000976562 -156.998h217v-196h-217v-147c0 -62 5.66699 -101 17 -117c16.667 -24 52.334 -36 107.001 -36c26 0 57 2 93 6v-221c-66.667 -7.33301 -127.667 -11 -183 -11c-73.333 0 -131.833 7.83301 -175.5 23.5s-77.834 41.167 -102.501 76.5
c-18.667 27.333 -30.834 59.166 -36.501 95.499s-8.5 101.166 -8.5 194.499v136h-177v196h177v157h-177v196h177v320h289v-320h217v-196h-217z" />
    <glyph glyph-name="Utilde" unicode="&#x168;" horiz-adv-x="1518" vert-adv-y="1433" 
d="M1382 1462l0.00195312 -864c0 -110 -8.33301 -197 -25 -261s-46.334 -123 -89.001 -177c-102.667 -130 -272 -195 -508 -195c-253.333 0 -431.333 73.667 -534 221c-62.667 90 -94 228.667 -94 416v860h319v-881c0 -111.333 16.333 -191 49 -239
c49.333 -74 138 -111 266 -111c107.333 0 183.666 26.667 228.999 80s68 143.333 68 270v881h319zM1134 1861c-32 -174 -112.667 -261.001 -242 -261.001c-22 0 -39.5 1.83301 -52.5 5.5s-43.833 14.834 -92.5 33.501c-66.667 26.667 -113.667 40 -141 40
c-20 0 -37.333 -7.5 -52 -22.5s-25 -35.833 -31 -62.5h-142c11.333 68 33.333 122 66 162c51.333 64.667 107.333 97 168 97c33.333 0 83 -12.667 149 -38c60 -23.333 105 -35 135 -35c40.667 0 71.667 27 93 81h142z" />
    <glyph glyph-name="utilde" unicode="&#x169;" horiz-adv-x="1214" vert-adv-y="1433" 
d="M1099 1060v-1060h-277v150c-84 -119.333 -200 -179 -348 -179c-124.667 0 -217.167 34.333 -277.5 103s-90.5 173.667 -90.5 315v671h290v-586c0 -100 9.33301 -165 28 -195c30.667 -47.333 82.667 -71 156 -71c92 0 158.333 39.333 199 118c20 38.667 30 108 30 208v526
h290zM954 1502c-28.667 -168.667 -102.667 -252.999 -222 -252.999c-28 0 -53.667 3.66699 -77 11s-67.333 25.333 -132 54c-19.333 8.66699 -38 13 -56 13c-22 0 -40.333 -7.33301 -55 -22s-24.334 -35.334 -29.001 -62.001h-132c10.667 65.333 30.334 118.333 59.001 159
c44.667 63.333 98.667 95 162 95c34 0 80.333 -12.333 139 -37s102 -37 130 -37c35.333 0 62.333 26.333 81 79h132z" />
    <glyph glyph-name="Umacron" unicode="&#x16a;" horiz-adv-x="1518" vert-adv-y="1433" 
d="M1382 1462l0.00195312 -864c0 -110 -8.33301 -197 -25 -261s-46.334 -123 -89.001 -177c-102.667 -130 -272 -195 -508 -195c-253.333 0 -431.333 73.667 -534 221c-62.667 90 -94 228.667 -94 416v860h319v-881c0 -111.333 16.333 -191 49 -239
c49.333 -74 138 -111 266 -111c107.333 0 183.666 26.667 228.999 80s68 143.333 68 270v881h319zM1114 1810v-165h-714v165h714z" />
    <glyph glyph-name="umacron" unicode="&#x16b;" horiz-adv-x="1214" vert-adv-y="1433" 
d="M1099 1060v-1060h-277v150c-84 -119.333 -200 -179 -348 -179c-124.667 0 -217.167 34.333 -277.5 103s-90.5 173.667 -90.5 315v671h290v-586c0 -100 9.33301 -165 28 -195c30.667 -47.333 82.667 -71 156 -71c92 0 158.333 39.333 199 118c20 38.667 30 108 30 208v526
h290zM938 1440v-153h-670v153h670z" />
    <glyph glyph-name="Ubreve" unicode="&#x16c;" horiz-adv-x="1518" vert-adv-y="1433" 
d="M1382 1462l0.00195312 -864c0 -110 -8.33301 -197 -25 -261s-46.334 -123 -89.001 -177c-102.667 -130 -272 -195 -508 -195c-253.333 0 -431.333 73.667 -534 221c-62.667 90 -94 228.667 -94 416v860h319v-881c0 -111.333 16.333 -191 49 -239
c49.333 -74 138 -111 266 -111c107.333 0 183.666 26.667 228.999 80s68 143.333 68 270v881h319zM402.002 1869h150.001c24 -82 92 -123 204 -123c114 0 183.333 41 208 123h149c-2.66699 -70 -22.334 -128 -59.001 -174c-61.333 -77.333 -160 -116 -296 -116
s-235 38.667 -297 116c-36 46 -55.667 104 -59 174z" />
    <glyph glyph-name="ubreve" unicode="&#x16d;" horiz-adv-x="1214" vert-adv-y="1433" 
d="M1099 1060v-1060h-277v150c-84 -119.333 -200 -179 -348 -179c-124.667 0 -217.167 34.333 -277.5 103s-90.5 173.667 -90.5 315v671h290v-586c0 -100 9.33301 -165 28 -195c30.667 -47.333 82.667 -71 156 -71c92 0 158.333 39.333 199 118c20 38.667 30 108 30 208v526
h290zM279 1513h142.001c21.333 -85.333 81.666 -128 180.999 -128c101.333 0 162 42.667 182 128h142c-2.66699 -70 -20.667 -127.667 -54 -173c-56 -77.333 -145.667 -116 -269 -116s-213.333 38.667 -270 116c-33.333 45.333 -51.333 103 -54 173z" />
    <glyph glyph-name="Uring" unicode="&#x16e;" horiz-adv-x="1518" vert-adv-y="1433" 
d="M1382 1462l0.00195312 -864c0 -110 -8.33301 -197 -25 -261s-46.334 -123 -89.001 -177c-102.667 -130 -272 -195 -508 -195c-253.333 0 -431.333 73.667 -534 221c-62.667 90 -94 228.667 -94 416v860h319v-881c0 -111.333 16.333 -191 49 -239
c49.333 -74 138 -111 266 -111c107.333 0 183.666 26.667 228.999 80s68 143.333 68 270v881h319zM761.002 2024c69.333 0 128.001 -27 176.001 -81c42 -46 63 -100 63 -162c0 -72 -26.667 -132 -80 -180c-46.667 -42 -101 -63 -163 -63c-72 0 -132.333 26.667 -181 80
c-41.333 46.667 -62 101.667 -62 165c0 70 27 129.333 81 178c45.333 42 100.666 63 165.999 63zM755.003 1897c-30.667 0 -57.333 -11.501 -80 -34.501s-34 -50.167 -34 -81.5c0 -32 11.333 -59.333 34 -82s50 -34 82 -34s59.333 11.333 82 34s34 50.334 34 83.001
c0 32 -11.5 59.167 -34.5 81.5s-50.833 33.5 -83.5 33.5z" />
    <glyph glyph-name="uring" unicode="&#x16f;" horiz-adv-x="1214" vert-adv-y="1433" 
d="M1099 1060v-1060h-277v150c-84 -119.333 -200 -179 -348 -179c-131.333 0 -230.333 42.333 -297 127c-25.333 32.667 -43.5 71.334 -54.5 116.001s-16.5 103 -16.5 175v671h290v-586c0 -61.333 1.83301 -104.666 5.5 -129.999s11.167 -47 22.5 -65
c30.667 -47.333 82.667 -71 156 -71c92 0 158.333 39.333 199 118c20 38.667 30 108 30 208v526h290zM606 1619c64.667 0 119.999 -25.333 165.999 -76c39.333 -43.333 59 -94 59 -152c0 -68 -25.333 -124.667 -76 -170c-43.333 -39.333 -94.333 -59 -153 -59
c-67.333 0 -123.666 25.333 -168.999 76c-39.333 43.333 -59 95 -59 155c0 65.333 25.333 121 76 167c42.667 39.333 94.667 59 156 59zM600.999 1495c-28 0 -52.166 -10.3311 -72.499 -30.998s-30.5 -45.334 -30.5 -74.001s10.167 -53.167 30.5 -73.5
s45.166 -30.5 74.499 -30.5c28.667 0 53.167 10.167 73.5 30.5s30.5 45.166 30.5 74.499c0 28.667 -10.333 53.167 -31 73.5s-45.667 30.5 -75 30.5z" />
    <glyph glyph-name="Uhungarumlaut" unicode="&#x170;" horiz-adv-x="1518" vert-adv-y="1433" 
d="M1382 1462l0.00195312 -864c0 -110 -8.33301 -197 -25 -261s-46.334 -123 -89.001 -177c-102.667 -130 -272 -195 -508 -195c-253.333 0 -431.333 73.667 -534 221c-62.667 90 -94 228.667 -94 416v860h319v-881c0 -111.333 16.333 -191 49 -239
c49.333 -74 138 -111 266 -111c107.333 0 183.666 26.667 228.999 80s68 143.333 68 270v881h319zM1243 1851l-221 -266h-183l111 266h293zM877.002 1851l-221 -266h-183l111 266h293z" />
    <glyph glyph-name="uhungarumlaut" unicode="&#x171;" horiz-adv-x="1214" vert-adv-y="1433" 
d="M1099 1060v-1060h-277v150c-84 -119.333 -200 -179 -348 -179c-124.667 0 -217.167 34.333 -277.5 103s-90.5 173.667 -90.5 315v671h290v-586c0 -100 9.33301 -165 28 -195c30.667 -47.333 82.667 -71 156 -71c92 0 158.333 39.333 199 118c20 38.667 30 108 30 208v526
h290zM1077 1516l-211 -295h-167l111 295h267zM726 1516l-211 -295h-167l111 295h267z" />
    <glyph glyph-name="Uogonek" unicode="&#x172;" horiz-adv-x="1518" vert-adv-y="1433" 
d="M976 -15c-66.667 -52.667 -99.999 -106.668 -99.999 -162.001c0 -30.667 12 -55 36 -73s56 -27 96 -27c19.333 0 44.666 4 75.999 12v-122c-49.333 -14 -93.333 -21 -132 -21c-74 0 -134.167 17.5 -180.5 52.5s-69.5 80.5 -69.5 136.5c0 66.667 34 128.334 102 185.001
c-10.667 -0.666992 -22.667 -1 -36 -1c-175.333 0 -311.666 31 -408.999 93c-102 65.333 -169.333 158 -202 278c-16.667 63.333 -25 152 -25 266v860h319v-881c0 -111.333 16.333 -191 49 -239c49.333 -74 138 -111 266 -111c107.333 0 183.666 26.667 228.999 80
s68 143.333 68 270v881h319v-864c11.333 -342 -124 -546.333 -406 -613z" />
    <glyph glyph-name="uogonek" unicode="&#x173;" horiz-adv-x="1214" vert-adv-y="1433" 
d="M1089 0c-80 -60 -120 -119.003 -120 -177.003c0 -30.667 12 -55 36 -73s56.333 -27 97 -27c18.667 0 43.667 4 75 12v-122c-48.667 -14 -92.334 -21 -131.001 -21c-75.333 0 -136.166 17.5 -182.499 52.5s-69.5 80.833 -69.5 137.5c0 72.667 48.667 145.334 146 218.001
h-118v150c-84 -119.333 -200 -179 -348 -179c-131.333 0 -230.333 42.333 -297 127c-25.333 32.667 -43.5 71.334 -54.5 116.001s-16.5 103 -16.5 175v671h290v-586c0 -61.333 1.83301 -104.666 5.5 -129.999s11.167 -47 22.5 -65c30.667 -47.333 82.667 -71 156 -71
c92 0 158.333 39.333 199 118c20 38.667 30 108 30 208v526h290v-1060h-10z" />
    <glyph glyph-name="Wcircumflex" unicode="&#x174;" horiz-adv-x="1933" vert-adv-y="1433" 
d="M1931 1462l-395.999 -1462h-320l-158 626c-34 134 -65 296.667 -93 488c-22.667 -163.333 -53 -323.333 -91 -480l-156 -634h-324l-390 1462h321l144 -614c45.333 -191.333 76.333 -369.333 93 -534c20 180 52.333 357.333 97 532l158 616h302l156 -602
c43.333 -168.667 75.666 -350.667 96.999 -546c20.667 178 54 364 100 558l142 590h318zM1342 1591h-260l-119 141l-122 -141h-249l238 273h275z" />
    <glyph glyph-name="wcircumflex" unicode="&#x175;" horiz-adv-x="1667" vert-adv-y="1433" 
d="M1658 1060l-336 -1060h-300l-123 463c-23.333 86 -45.333 193.333 -66 322c-22.667 -131.333 -44.667 -238.333 -66 -321l-117 -464h-302l-338 1060h307l112 -403c27.333 -99.333 56.333 -229 87 -389c24 145.333 51.333 279 82 401l97 391h282l111 -437
c26 -102 50 -219.667 72 -353c27.333 148.667 52.333 264.667 75 348l122 442h301zM1195 1221h-235l-130 175l-132 -175h-224l228 295h266z" />
    <glyph glyph-name="Ycircumflex" unicode="&#x176;" horiz-adv-x="1366" vert-adv-y="1433" 
d="M1387 1462l-545 -898v-564h-319v568l-546 894h365l227 -389c39.333 -68 78.333 -148 117 -240c48.667 112 89.667 196.667 123 254l221 375h357zM1054 1591h-260l-119 141l-122 -141h-249l238 273h275z" />
    <glyph glyph-name="ycircumflex" unicode="&#x177;" horiz-adv-x="1063" vert-adv-y="1433" 
d="M1078 1060l-389 -1055c-39.333 -106.667 -71.833 -181.834 -97.5 -225.501s-58.167 -78.834 -97.5 -105.501c-32.667 -22 -65.167 -36.333 -97.5 -43s-85.833 -10 -160.5 -10h-28l-119 3v240h34h83c110.667 0 166 44 166 132c0 29.333 -3 51.666 -9 66.999l-378 997h314
l175 -520c18 -52 40.333 -134 67 -246c29.333 115.333 53.333 202 72 260l164 506h301zM890 1221h-235l-130 175l-132 -175h-224l228 295h266z" />
    <glyph glyph-name="Ydieresis" unicode="&#x178;" horiz-adv-x="1366" vert-adv-y="1433" 
d="M1387 1462l-545 -898v-564h-319v568l-546 894h365l227 -389c39.333 -68 78.333 -148 117 -240c48.667 112 89.667 196.667 123 254l221 375h357zM1056 1847v-234h-283v234h283zM602 1847v-234h-283v234h283z" />
    <glyph glyph-name="Zacute" unicode="&#x179;" horiz-adv-x="1327" vert-adv-y="1433" 
d="M1256 1462v-242.999l-654 -782c-8.66699 -10.667 -62.667 -69 -162 -175c131.333 5.33301 229 8 293 8h549v-270h-1237v256l674 803c21.333 25.333 65.333 71.666 132 138.999c-106.667 -4 -194.667 -6 -264 -6h-488v270h1157zM1029 1851l-306 -266h-214l185 266h335z
" />
    <glyph glyph-name="zacute" unicode="&#x17a;" horiz-adv-x="1063" vert-adv-y="1433" 
d="M997 1060v-214l-435 -491c-25.333 -28 -70.666 -72.667 -135.999 -134c65.333 4 114.666 6 147.999 6h459v-227h-975v221l424 474c26.667 29.333 76 76.333 148 141c-39.333 -2 -75.333 -3 -108 -3h-422v227h897zM873 1516l-296 -295h-195l185 295h306z" />
    <glyph glyph-name="Zdotaccent" unicode="&#x17b;" horiz-adv-x="1327" vert-adv-y="1433" 
d="M1256 1462v-242.999l-654 -782c-8.66699 -10.667 -62.667 -69 -162 -175c131.333 5.33301 229 8 293 8h549v-270h-1237v256l674 803c21.333 25.333 65.333 71.666 132 138.999c-106.667 -4 -194.667 -6 -264 -6h-488v270h1157zM827 1847v-234h-283v234h283z" />
    <glyph glyph-name="zdotaccent" unicode="&#x17c;" horiz-adv-x="1063" vert-adv-y="1433" 
d="M997 1060v-214l-435 -491c-25.333 -28 -70.666 -72.667 -135.999 -134c65.333 4 114.666 6 147.999 6h459v-227h-975v221l424 474c26.667 29.333 76 76.333 148 141c-39.333 -2 -75.333 -3 -108 -3h-422v227h897zM687 1489v-238h-272v238h272z" />
    <glyph glyph-name="Zcaron" unicode="&#x17d;" horiz-adv-x="1327" vert-adv-y="1433" 
d="M1256 1462v-242.999l-654 -782c-8.66699 -10.667 -62.667 -69 -162 -175c131.333 5.33301 229 8 293 8h549v-270h-1237v256l674 803c21.333 25.333 65.333 71.666 132 138.999c-106.667 -4 -194.667 -6 -264 -6h-488v270h1157zM1055 1864l-237 -273h-275l-238 273h249
l122 -141l119 141h260z" />
    <glyph glyph-name="zcaron" unicode="&#x17e;" horiz-adv-x="1063" vert-adv-y="1433" 
d="M997 1060v-214l-435 -491c-25.333 -28 -70.666 -72.667 -135.999 -134c65.333 4 114.666 6 147.999 6h459v-227h-975v221l424 474c26.667 29.333 76 76.333 148 141c-39.333 -2 -75.333 -3 -108 -3h-422v227h897zM913 1516l-226 -295h-267l-231 295h233l132 -180l133 180
h226z" />
    <glyph glyph-name="longs" unicode="&#x17f;" horiz-adv-x="668" vert-adv-y="1433" 
d="M462 0l-281.001 -0.000976562v873h-153v187h153v131c2.66699 53.333 9 94.833 19 124.5s26.333 55.834 49 78.501c44.667 45.333 113.334 68 206.001 68c38 0 92.333 -2 163 -6v-211c-26 4 -53 6 -81 6c-50 0 -75 -28.333 -75 -85v-1166z" />
    <glyph glyph-name="uni018F" unicode="&#x18f;" horiz-adv-x="1570" vert-adv-y="1433" 
d="M1178 851c-49.333 249.333 -177.666 373.999 -384.999 373.999c-156 0 -270.333 -69 -343 -207l-22 -43l-269 130c133.333 254.667 346 382 638 382c178 0 326.667 -51 446 -153c70 -60.667 126 -136 168 -226c57.333 -121.333 86 -250.333 86 -387
c0 -154 -34.667 -294.667 -104 -422c-68.667 -125.333 -163 -217.666 -283 -276.999c-92.667 -45.333 -201 -68 -325 -68c-208.667 0 -376.667 67.333 -504 202c-64.667 68.667 -115.334 151.667 -152.001 249c-36.667 100 -55 205.667 -55 317c0 34 3 77 9 129h1095z
M1178 594.999l-785.001 0.000976562c14 -80.667 39 -149.334 75 -206.001c73.333 -115.333 179 -173 317 -173c104.667 0 190.834 32.667 258.501 98s112.5 159 134.5 281z" />
    <glyph glyph-name="florin" unicode="&#x192;" horiz-adv-x="1139" vert-adv-y="1433" 
d="M979 981l-30 -169.999h-202l-138 -781c-26 -148.667 -65 -250.334 -117 -305.001c-64 -67.333 -171.667 -101 -323 -101c-37.333 0 -81 1.66699 -131 5l38 217c24 -2 43.667 -3 59 -3c64.667 0 107.667 12.833 129 38.5s41 89.167 59 190.5l130 739h-171l30 170h171
l44 247c23.333 133.333 67.166 227.833 131.499 283.5s161.5 83.5 291.5 83.5c42 0 91 -1.66699 147 -5l-38 -218c-37.333 0.666992 -62 1 -74 1c-54 0 -92.667 -11.5 -116 -34.5s-40.666 -67.5 -51.999 -133.5l-40 -224h202z" />
    <glyph glyph-name="uni01CD" unicode="&#x1cd;" horiz-adv-x="1403" vert-adv-y="1433" 
d="M867 1465l555 -1465h-335l-116 328h-543l-119 -328h-329l557 1465h330zM893 562l-94 263c-42.667 120 -75.334 226 -98.001 318c-23.333 -85.333 -57.666 -191.333 -102.999 -318l-94 -263h389zM1076 1864l-237 -273h-275l-238 273h249l122 -141l119 141h260z" />
    <glyph glyph-name="uni01CE" unicode="&#x1ce;" horiz-adv-x="1176" vert-adv-y="1433" 
d="M1108 0l-296 -0.000976562c-12.667 38 -19 72.333 -19 103c-90 -88 -206.667 -132 -350 -132c-113.333 0 -201 25.333 -263 76c-72 58.667 -108 140 -108 244c0 133.333 61.667 226 185 278c50.667 20.667 142.667 39.667 276 57c115.333 14.667 187.166 29 215.499 43
s42.5 42.333 42.5 85c0 92.667 -63.333 139 -190 139c-67.333 0 -116.5 -11.833 -147.5 -35.5s-51.5 -64.834 -61.5 -123.501h-274c18 236.667 181.333 355 490 355c168 0 292.333 -33.667 373 -101c36.667 -29.333 61.334 -62 74.001 -98s19 -89.667 19 -161
c0 -22.667 -1 -97 -3 -223c-1.33301 -125.333 -2 -196.666 -2 -213.999c0 -133.333 13 -230.666 39 -291.999zM789 515.999c-36.667 -21.333 -104.667 -39.667 -204 -55c-81.333 -12 -137.5 -29.5 -168.5 -52.5s-46.5 -58.167 -46.5 -105.5c0 -96 54 -144 162 -144
c78.667 0 141.167 21.5 187.5 64.5s69.5 100.833 69.5 173.5v119zM955 1516l-226 -295h-267l-231 295h233l132 -180l133 180h226z" />
    <glyph glyph-name="uni01D3" unicode="&#x1d3;" horiz-adv-x="1518" vert-adv-y="1433" 
d="M1382 1462l0.00195312 -864c0 -110 -8.33301 -197 -25 -261s-46.334 -123 -89.001 -177c-102.667 -130 -272 -195 -508 -195c-253.333 0 -431.333 73.667 -534 221c-62.667 90 -94 228.667 -94 416v860h319v-881c0 -111.333 16.333 -191 49 -239
c49.333 -74 138 -111 266 -111c107.333 0 183.666 26.667 228.999 80s68 143.333 68 270v881h319zM1132 1864l-237 -273h-275l-238 273h249l122 -141l119 141h260z" />
    <glyph glyph-name="uni01D4" unicode="&#x1d4;" horiz-adv-x="1214" vert-adv-y="1433" 
d="M1099 1060v-1060h-277v150c-84 -119.333 -200 -179 -348 -179c-124.667 0 -217.167 34.333 -277.5 103s-90.5 173.667 -90.5 315v671h290v-586c0 -100 9.33301 -165 28 -195c30.667 -47.333 82.667 -71 156 -71c92 0 158.333 39.333 199 118c20 38.667 30 108 30 208v526
h290zM965 1516l-226 -295h-267l-231 295h233l132 -180l133 180h226z" />
    <glyph glyph-name="uni01E6" unicode="&#x1e6;" horiz-adv-x="1554" vert-adv-y="1433" 
d="M1437 788l0.00195312 -788.002h-204l-32 167c-108 -134.667 -253.667 -202 -437 -202c-223.333 0 -399.666 82.667 -528.999 248c-107.333 138 -161 308.333 -161 511c0 230 70 418.333 210 565c131.333 138.667 300.666 208 507.999 208c168 0 310.333 -48 427 -144
s182.667 -220 198 -372h-309c-16 78.667 -51.833 140 -107.5 184s-126.167 66 -211.5 66c-122.667 0 -218.834 -44.667 -288.501 -134s-104.5 -212.666 -104.5 -369.999c0 -159.333 35.167 -283 105.5 -371s169.5 -132 297.5 -132c100.667 0 183.167 30.333 247.5 91
s98.166 140.334 101.499 239.001h-325v234h614zM1174 1864l-237 -273h-275l-238 273h249l122 -141l119 141h260z" />
    <glyph glyph-name="uni01E7" unicode="&#x1e7;" vert-adv-y="1433" 
d="M1123 1060l-0.000976562 -928c0 -148.667 -23.667 -259.667 -71 -333c-84 -129.333 -235 -194 -453 -194c-302.667 0 -468.334 110.667 -497.001 332h292c20.667 -90.667 91 -136 211 -136c84.667 0 145.334 21.333 182.001 64s55 112.667 55 210v121
c-73.333 -109.333 -181 -164 -323 -164c-136 0 -245 46.333 -327 139c-83.333 93.333 -125 220.333 -125 381c0 161.333 41.667 290.333 125 387c86 100 198.667 150 338 150c72.667 0 132.834 -12.833 180.501 -38.5s93.167 -69.5 136.5 -131.5v141h276zM594.999 863
c-72 0 -129.167 -27.332 -171.5 -81.999s-63.5 -128.667 -63.5 -222c0 -96.667 21.5 -172.834 64.5 -228.501s101.833 -83.5 176.5 -83.5c86 0 150.333 35.667 193 107c34 56 51 125.333 51 208c0 93.333 -22.333 166.833 -67 220.5s-105.667 80.5 -183 80.5zM972.999 1516
l-226 -295h-267l-231 295h233l132 -180l133 180h226z" />
    <glyph glyph-name="uni01F4" unicode="&#x1f4;" horiz-adv-x="1554" vert-adv-y="1433" 
d="M1437 788l0.00195312 -788.002h-204l-32 167c-108 -134.667 -253.667 -202 -437 -202c-223.333 0 -399.666 82.667 -528.999 248c-107.333 138 -161 308.333 -161 511c0 230 70 418.333 210 565c131.333 138.667 300.666 208 507.999 208c168 0 310.333 -48 427 -144
s182.667 -220 198 -372h-309c-16 78.667 -51.833 140 -107.5 184s-126.167 66 -211.5 66c-122.667 0 -218.834 -44.667 -288.501 -134s-104.5 -212.666 -104.5 -369.999c0 -159.333 35.167 -283 105.5 -371s169.5 -132 297.5 -132c100.667 0 183.167 30.333 247.5 91
s98.166 140.334 101.499 239.001h-325v234h614zM1135 1851l-306 -266h-214l185 266h335z" />
    <glyph glyph-name="uni01F5" unicode="&#x1f5;" vert-adv-y="1433" 
d="M1123 1060l-0.000976562 -928c0 -148.667 -23.667 -259.667 -71 -333c-84 -129.333 -235 -194 -453 -194c-302.667 0 -468.334 110.667 -497.001 332h292c20.667 -90.667 91 -136 211 -136c84.667 0 145.334 21.333 182.001 64s55 112.667 55 210v121
c-73.333 -109.333 -181 -164 -323 -164c-136 0 -245 46.333 -327 139c-83.333 93.333 -125 220.333 -125 381c0 161.333 41.667 290.333 125 387c86 100 198.667 150 338 150c72.667 0 132.834 -12.833 180.501 -38.5s93.167 -69.5 136.5 -131.5v141h276zM594.999 863
c-72 0 -129.167 -27.332 -171.5 -81.999s-63.5 -128.667 -63.5 -222c0 -96.667 21.5 -172.834 64.5 -228.501s101.833 -83.5 176.5 -83.5c86 0 150.333 35.667 193 107c34 56 51 125.333 51 208c0 93.333 -22.333 166.833 -67 220.5s-105.667 80.5 -183 80.5zM938.999 1516
l-296 -295h-195l185 295h306z" />
    <glyph glyph-name="Aringacute" unicode="&#x1fa;" horiz-adv-x="1448" vert-adv-y="1433" 
d="M1004 295h-547l-98 -295h-307l519 1462h334l505 -1462h-309zM923 546l-190 571l-192 -571h382zM722 1887c48.667 0 90.168 -17.668 124.501 -53.001s51.5 -77.666 51.5 -126.999c0 -50.667 -17.5 -93.5 -52.5 -128.5s-77.5 -52.5 -127.5 -52.5
c-50.667 0 -93.334 17.333 -128.001 52c-35.333 35.333 -53 78 -53 128c0 51.333 17.833 94.333 53.5 129s79.5 52 131.5 52zM718.001 1791c-22.667 0 -42.5 -8.33105 -59.5 -24.998s-25.5 -36.334 -25.5 -59.001c0 -23.333 8.33301 -43.333 25 -60s37 -25 61 -25
c23.333 0 43 8.16699 59 24.5s24 36.5 24 60.5c0 23.333 -8 43.166 -24 59.499s-36 24.5 -60 24.5zM853.001 2178l-253 -301h-140l140 301h253z" />
    <glyph glyph-name="aringacute" unicode="&#x1fb;" horiz-adv-x="1115" vert-adv-y="1433" 
d="M559 1507c48 0 88.999 -17.666 122.999 -52.999c36 -36.667 54 -79 54 -127c0 -50 -17.667 -92.667 -53 -128s-78 -53 -128 -53c-51.333 0 -94.333 17.667 -129 53c-35.333 35.333 -53 77.666 -53 126.999c0 51.333 17.833 94.333 53.5 129s79.834 52 132.501 52z
M554.999 1411c-23.333 0 -43.501 -8.33105 -60.501 -24.998s-25.5 -36.334 -25.5 -59.001c0 -23.333 8.5 -43.333 25.5 -60s37.5 -25 61.5 -25c22.667 0 42.334 8.33301 59.001 25s25 36.667 25 60s-8.16699 43.166 -24.5 59.499s-36.5 24.5 -60.5 24.5zM689.998 1798
l-253 -300h-140l140 300h253zM1051 35.0029l-0.000976562 -34.999h-306c-21.333 26.667 -32 63.334 -32 110.001c-100 -88.667 -209.667 -133 -329 -133c-104 0 -188.333 32.333 -253 97c-51.333 51.333 -77 122.666 -77 213.999c0 136 54.667 232.667 164 290
c44 23.333 133 45.666 267 66.999c90.667 14 150 28.333 178 43c32 17.333 48 45 48 83c0 72.667 -54 109 -162 109c-70 0 -119 -10.5 -147 -31.5s-45.333 -60.167 -52 -117.5h-270c17.333 250 171.333 375 462 375c296 0 444 -111.333 444 -334v-605
c0.666992 -30 5.33398 -53.5 14.001 -70.5s25.667 -37.5 51 -61.5zM710.997 516.004c-26 -12 -65.333 -23 -118 -33l-97 -19c-55.333 -10 -95 -25.667 -119 -47c-28 -26 -42 -58.333 -42 -97c0 -36.667 13.5 -65.334 40.5 -86.001s64.167 -31 111.5 -31
c72 0 127.333 20.833 166 62.5s58 100.834 58 177.501v73z" />
    <glyph glyph-name="AEacute" unicode="&#x1fc;" horiz-adv-x="2006" vert-adv-y="1433" 
d="M1457 1885l-253 -301h-141l141 301h253zM863 305h-448l-105 -305h-308l527 1462h1369v-250h-735v-332h680v-251h-680v-378h774v-251h-1074v305zM863 556v655h-134l-229 -655h363z" />
    <glyph glyph-name="aeacute" unicode="&#x1fd;" horiz-adv-x="1794" vert-adv-y="1433" 
d="M1200 1488l-253 -301h-141l141 301h253zM808 166c-29.333 -30.667 -52.001 -53.668 -68.001 -69.001c-86 -80 -195 -120 -327 -120c-123.333 0 -217.333 32.667 -282 98c-51.333 51.333 -77 122.333 -77 213c0 136 54.667 232.667 164 290
c47.333 24.667 136.333 47.334 267 68.001c106.667 16.667 171 34 193 52s33 42.333 33 73c0 72.667 -54.333 109 -163 109c-69.333 0 -118 -10.5 -146 -31.5s-45.333 -60.167 -52 -117.5h-270c17.333 250 171.666 375 462.999 375c157.333 0 275.333 -34.333 354 -103
c88.667 68.667 194.334 103 317.001 103c142 0 259.333 -45 352 -135c104 -100.667 156 -251.667 156 -453c0 -13.333 -0.666992 -30.333 -2 -51h-727c3.33301 -87.333 17 -149 41 -185c39.333 -60 101 -90 185 -90c105.333 0 176 43.333 212 130h277
c-25.333 -86 -71.666 -158 -138.999 -216c-98 -85.333 -219 -128 -363 -128s-261.667 45.333 -353 136c-16.667 16 -31.667 33.333 -45 52zM710.999 515.999c-25.333 -12 -64.667 -23 -118 -33l-97 -20c-56 -10 -95.667 -25.667 -119 -47c-28 -25.333 -42 -57.333 -42 -96
c0 -36 13.667 -64.5 41 -85.5s64.333 -31.5 111 -31.5c71.333 0 126.5 21 165.5 63s58.5 101 58.5 177v73zM1428 652.999c-5.33301 65.333 -20.333 115.333 -45 150c-40.667 58.667 -98.667 88 -174 88c-124.667 0 -195.667 -79.333 -213 -238h432z" />
    <glyph glyph-name="Oslashacute" unicode="&#x1fe;" horiz-adv-x="1561" vert-adv-y="1433" 
d="M1088 1885l-253 -301h-140l140 301h253zM252 219c-29.333 36.667 -55 76.335 -77 119.002c-60.667 121.333 -91 252.666 -91 393.999c0 150.667 34.667 288.667 104 414c124 226 324 339 600 339c190.667 0 345 -54.333 463 -163l164 181l103 -91l-175 -193
c99.333 -136 149 -299 149 -489c0 -152 -34.333 -290 -103 -414c-124.667 -226 -325.334 -339 -602.001 -339c-89.333 0 -168.166 11.167 -236.499 33.5s-135.5 59.166 -201.5 110.499l-181 -200l-102 93zM450 438.001l613 675.999c-69.333 76 -161 114 -275 114
c-112 0 -202 -36.333 -270 -109c-89.333 -95.333 -134 -223.666 -134 -384.999c0 -115.333 22 -214 66 -296zM1141 995l-606.001 -667.999c66.667 -62 151.334 -93 254.001 -93c110 0 199.667 36.333 269 109c88.667 93.333 133 221.333 133 384
c0 105.333 -16.667 194.666 -50 267.999z" />
    <glyph glyph-name="oslashacute" unicode="&#x1ff;" horiz-adv-x="1226" vert-adv-y="1433" 
d="M891 1493l-253 -301h-140l140 301h253zM172 169c-72 92.667 -108 217.001 -108 373.001c0 163.333 41.333 293.666 124 390.999c96.667 114.667 233.667 172 411 172c152 0 274.667 -42 368 -126l135 138l85 -82l-142 -145c60.667 -92 91 -208.667 91 -350
c0 -164 -41 -294.333 -123 -391c-97.333 -114.667 -234.333 -172 -411 -172c-141.333 0 -257.333 36 -348 108l-148 -151l-85 81zM373 374.001l408.999 417c-49.333 58.667 -110 88 -182 88c-37.333 0 -73.166 -8.83301 -107.499 -26.5s-61.5 -41.5 -81.5 -71.5
c-44 -64 -66 -143.667 -66 -239c0 -61.333 9.33301 -117.333 28 -168zM836.999 678.001l-400.001 -407.001c48.667 -45.333 103.334 -68 164.001 -68c36.667 0 72.167 8.83301 106.5 26.5s61.833 41.5 82.5 71.5c43.333 62 65 142 65 240c0 50.667 -6 96.334 -18 137.001z
" />
    <glyph glyph-name="Scommaaccent" unicode="&#x218;" horiz-adv-x="1329" vert-adv-y="1433" 
d="M1211 1029l-303.999 0.00195312c-11.333 146.667 -103.333 220 -276 220c-159.333 0 -239 -56.333 -239 -169c0 -47.333 20 -82 60 -104s138 -52 294 -90c165.333 -40.667 280.333 -82.334 345 -125.001c118 -78 177 -185.667 177 -323
c0 -146 -53.833 -261.333 -161.5 -346s-254.5 -127 -440.5 -127c-199.333 0 -354 45.333 -464 136s-167 219.667 -171 387h318c10.667 -183.333 120.334 -275 329.001 -275c82.667 0 148 17.333 196 52s72 82 72 142c0 62 -37 107.333 -111 136
c-40.667 16 -136.667 45 -288 87c-174.667 48.667 -291.334 99 -350.001 151c-74.667 67.333 -112 159.666 -112 276.999c0 132.667 51.167 239 153.5 319s238.5 120 408.5 120c175.333 0 311.666 -40.5 408.999 -121.5s149 -196.5 155 -346.5zM795.001 -131.998
l0.00195312 -155.999c0 -100 -31.667 -169 -95 -207c-41.333 -24.667 -101.333 -38.334 -180 -41.001v93c57.333 5.33301 96.166 15 116.499 29s33.166 40.333 38.499 79h-155v203h275z" />
    <glyph glyph-name="scommaaccent" unicode="&#x219;" horiz-adv-x="1100" vert-adv-y="1433" 
d="M988 752h-272c-14.667 94 -80.667 141 -198 141c-108 0 -162 -34.667 -162 -104c0 -35.333 15.5 -61 46.5 -77s102.167 -35.333 213.5 -58c152.667 -30.667 259.834 -70.167 321.501 -118.5s92.5 -117.5 92.5 -207.5c0 -110.667 -43.833 -197.834 -131.5 -261.501
s-207.167 -95.5 -358.5 -95.5c-316.667 0 -483 124.667 -499 374h278c13.333 -118.667 87.666 -178 222.999 -178c60 0 107.667 11.833 143 35.5s53 55.5 53 95.5c0 36.667 -15.167 64 -45.5 82s-94.5 38 -192.5 60c-154 34.667 -256.333 66 -307 94
c-86 48 -129 125 -129 231c0 102.667 40.333 182.334 121 239.001s193.667 85 339 85c291.333 0 446 -112.333 464 -337zM666 -132l-0.000976562 -156c0 -58 -5.33301 -100.333 -16 -127c-31.333 -76.667 -112.666 -117 -243.999 -121v93c52 4.66699 88.167 14.5 108.5 29.5
s33.5 41.167 39.5 78.5h-148v203h260z" />
    <glyph glyph-name="uni021A" unicode="&#x21a;" vert-adv-y="1433" 
d="M1228 1462v-270h-445v-1192h-318v1192h-442v270h1205zM763 -132l0.00195312 -155.999c0 -100 -31.667 -169 -95 -207c-41.333 -24.667 -101.333 -38.334 -180 -41.001v93c57.333 5.33301 96.166 15 116.499 29s33.166 40.333 38.499 79h-155v203h275z" />
    <glyph glyph-name="uni021B" unicode="&#x21b;" horiz-adv-x="721" vert-adv-y="1433" 
d="M672 1060v-195.999h-217v-500c0 -62 5.66699 -101 17 -117c16.667 -24 52.334 -36 107.001 -36c26 0 57 2 93 6v-221c-66.667 -7.33301 -127.667 -11 -183 -11c-139.333 0 -232 33.333 -278 100c-18.667 27.333 -30.834 59.166 -36.501 95.499s-8.5 100.833 -8.5 193.5
v490h-177v196h177v320h289v-320h217zM449 -131.999l-0.000976562 -156c0 -58 -5.33301 -100.333 -16 -127c-31.333 -76.667 -112.666 -117 -243.999 -121v93c52 4.66699 88.167 14.5 108.5 29.5s33.5 41.167 39.5 78.5h-148v203h260z" />
    <glyph glyph-name="uni0259" unicode="&#x259;" horiz-adv-x="1142" vert-adv-y="1433" 
d="M58 616l727 -0.000976562c-4 87.333 -17.667 149.333 -41 186c-39.333 60 -101 90 -185 90c-106 0 -176.667 -43.667 -212 -131h-277c25.333 86 71.333 158.333 138 217c98.667 85.333 219.667 128 363 128c146.667 0 264.667 -45.333 354 -136
c94.667 -96 142 -233.667 142 -413c0 -172.667 -42 -311.667 -126 -417c-41.333 -52 -95.333 -92 -162 -120c-67.333 -28.667 -138.333 -43 -213 -43c-144 0 -262.333 45 -355 135c-103.333 100.667 -155 251.334 -155 452.001c0 14 0.666992 31.333 2 52zM350 429.999
c5.33301 -64.667 20.333 -114.667 45 -150c40.667 -58 98.667 -87 174 -87c124 0 195 79 213 237h-432z" />
    <glyph glyph-name="circumflex" unicode="&#x2c6;" horiz-adv-x="530" vert-adv-y="1433" 
d="M626 1221h-235l-130 175l-132 -175h-224l228 295h266z" />
    <glyph glyph-name="caron" unicode="&#x2c7;" horiz-adv-x="530" vert-adv-y="1433" 
d="M627 1516l-226 -295h-267l-231 295h233l132 -180l133 180h226z" />
    <glyph glyph-name="uni02C9" unicode="&#x2c9;" horiz-adv-x="530" vert-adv-y="1433" 
d="M600 1440v-153h-670v153h670z" />
    <glyph glyph-name="breve" unicode="&#x2d8;" horiz-adv-x="530" vert-adv-y="1433" 
d="M-58 1513h142.001c21.333 -85.333 81.666 -128 180.999 -128c101.333 0 162 42.667 182 128h142c-2.66699 -70 -20.667 -127.667 -54 -173c-56 -77.333 -145.667 -116 -269 -116s-213.333 38.667 -270 116c-33.333 45.333 -51.333 103 -54 173z" />
    <glyph glyph-name="dotaccent" unicode="&#x2d9;" horiz-adv-x="530" vert-adv-y="1433" 
d="M401 1489v-238h-272v238h272z" />
    <glyph glyph-name="ring" unicode="&#x2da;" horiz-adv-x="530" vert-adv-y="1433" 
d="M269 1619c64.667 0 119.667 -25.333 165 -76c39.333 -43.333 59 -94 59 -152c0 -68 -25.333 -124.667 -76 -170c-43.333 -39.333 -94 -59 -152 -59c-68 0 -124.333 25.333 -169 76c-39.333 43.333 -59 95 -59 155c0 65.333 25.333 121 76 167
c42.667 39.333 94.667 59 156 59zM263 1495c-27.333 0 -51.167 -10.333 -71.5 -31s-30.5 -45.334 -30.5 -74.001s10.167 -53.167 30.5 -73.5s44.833 -30.5 73.5 -30.5s53.167 10.333 73.5 31s30.5 45.334 30.5 74.001s-10.333 53.167 -31 73.5s-45.667 30.5 -75 30.5z" />
    <glyph glyph-name="ogonek" unicode="&#x2db;" horiz-adv-x="530" vert-adv-y="1433" 
d="M307 0l148.001 -0.000976562c-80 -60.667 -120 -119.667 -120 -177c0 -30 12.167 -54.167 36.5 -72.5s56.5 -27.5 96.5 -27.5c18.667 0 43.667 4 75 12v-122c-48.667 -14 -92.334 -21 -131.001 -21c-74.667 0 -135.167 17.667 -181.5 53s-69.5 81 -69.5 137
c0 38.667 11.167 74.834 33.5 108.501s59.833 70.167 112.5 109.5z" />
    <glyph glyph-name="tilde" unicode="&#x2dc;" horiz-adv-x="530" vert-adv-y="1433" 
d="M617 1502c-28.667 -168.667 -102.667 -252.999 -222 -252.999c-28 0 -53.667 3.66699 -77 11s-67.333 25.333 -132 54c-19.333 8.66699 -38 13 -56 13c-22 0 -40.333 -7.33301 -55 -22s-24.334 -35.334 -29.001 -62.001h-132c10.667 65.333 30.334 118.333 59.001 159
c44.667 63.333 98.667 95 162 95c34 0 80.333 -12.333 139 -37s102 -37 130 -37c35.333 0 62.333 26.333 81 79h132z" />
    <glyph glyph-name="hungarumlaut" unicode="&#x2dd;" horiz-adv-x="530" vert-adv-y="1433" 
d="M703 1516l-211 -295h-167l111 295h267zM352 1516l-211 -295h-167l111 295h267z" />
    <glyph glyph-name="tonos" unicode="&#x384;" horiz-adv-x="1009" vert-adv-y="1433" 
d="M611 1582v-203l-66 -201h-84l-62 201v203h212z" />
    <glyph glyph-name="dieresistonos" unicode="&#x385;" horiz-adv-x="1009" vert-adv-y="1433" 
d="M405 1490v-250h-202v250h202zM806 1490v-250h-202v250h202zM611 1782v-183l-66 -201h-84l-62 201v183h212z" />
    <glyph glyph-name="Alphatonos" unicode="&#x386;" horiz-adv-x="1441" vert-adv-y="1433" 
d="M886 1465l555 -1465h-335l-116 328h-543l-119 -328h-329l557 1465h330zM912 562l-94 263c-42.667 120 -75.334 226 -98.001 318c-23.333 -85.333 -57.666 -191.333 -102.999 -318l-94 -263h389zM328 1463v-203l-66 -201h-84l-62 201v203h212z" />
    <glyph glyph-name="anoteleia" unicode="&#x387;" horiz-adv-x="569" vert-adv-y="1433" 
d="M451 708v-325h-332v325h332z" />
    <glyph glyph-name="Epsilontonos" unicode="&#x388;" horiz-adv-x="1504" vert-adv-y="1433" 
d="M1406 1462v-270h-778v-312h713v-251h-713v-359h792v-270h-1111v1462h1097zM209 1463v-203l-66 -201h-84l-62 201v203h212z" />
    <glyph glyph-name="Etatonos" unicode="&#x389;" horiz-adv-x="1677" vert-adv-y="1433" 
d="M1546 1462v-1462h-319v637h-598v-637h-319v1462h319v-555h598v555h319zM209 1463v-203l-66 -201h-84l-62 201v203h212z" />
    <glyph glyph-name="Iotatonos" unicode="&#x38a;" horiz-adv-x="762" vert-adv-y="1433" 
d="M626 1462v-1462h-319v1462h319zM209 1463v-203l-66 -201h-84l-62 201v203h212z" />
    <glyph glyph-name="Omicrontonos" unicode="&#x38c;" horiz-adv-x="1676" vert-adv-y="1433" 
d="M898 1497c194 0 357 -64.002 489 -192.002c145.333 -141.333 218 -332.666 218 -573.999c0 -208 -55 -380.333 -165 -517c-134.667 -166 -319 -249 -553 -249c-238 0 -425 85 -561 255c-107.333 134.667 -161 304.334 -161 509.001c0 242.667 69.667 431.667 209 567
c137.333 134 312 201 524 201zM882 1231c-119.333 0 -214.999 -45.5 -286.999 -136.5s-108 -211.167 -108 -360.5c0 -158.667 36 -282 108 -370c72 -88.667 170.667 -133 296 -133c116.667 0 208.667 40.667 276 122c78 93.333 117 220.333 117 381
c0 154 -35.833 275.333 -107.5 364s-169.834 133 -294.501 133zM209.001 1463v-203l-66 -201h-84l-62 201v203h212z" />
    <glyph glyph-name="Upsilontonos" unicode="&#x38e;" horiz-adv-x="1620" vert-adv-y="1433" 
d="M1659 1462l-545 -898v-564h-319v568l-546 894h365l227 -389c39.333 -68 78.333 -148 117 -240c48.667 112 89.667 196.667 123 254l221 375h357zM209 1463v-203l-66 -201h-84l-62 201v203h212z" />
    <glyph glyph-name="Omegatonos" unicode="&#x38f;" horiz-adv-x="1562" vert-adv-y="1433" 
d="M183 0v259.001h317c-216 132.667 -324 315.667 -324 549c0 202 73.667 372.333 221 511c127.333 119.333 279.666 179 456.999 179s329.666 -59.667 456.999 -179c146.667 -138.667 220 -309 220 -511c0 -233.333 -108 -416.333 -324 -549h317v-259h-588v239
c93.333 49.333 165.333 118.333 216 207s76 190.334 76 305.001c0 143.333 -40 262.666 -120 357.999c-71.333 84 -155.666 126 -252.999 126c-105.333 0 -194.166 -46.333 -266.499 -139s-108.5 -206.334 -108.5 -341.001c0 -242 97.333 -414 292 -516v-239h-589zM209 1463
v-203l-66 -201h-84l-62 201v203h212z" />
    <glyph glyph-name="iotadieresistonos" unicode="&#x390;" horiz-adv-x="545" vert-adv-y="1433" 
d="M418 1060v-1060h-290v1060h290zM175 1490v-250h-202v250h202zM576 1490v-250h-202v250h202zM381 1782v-183l-66 -201h-84l-62 201v183h212z" />
    <glyph glyph-name="Alpha" unicode="&#x391;" horiz-adv-x="1441" vert-adv-y="1433" 
d="M886 1465l555 -1465h-335l-116 328h-543l-119 -328h-329l557 1465h330zM912 562l-94 263c-42.667 120 -75.334 226 -98.001 318c-23.333 -85.333 -57.666 -191.333 -102.999 -318l-94 -263h389z" />
    <glyph glyph-name="Beta" unicode="&#x392;" horiz-adv-x="1453" vert-adv-y="1433" 
d="M141 1462l658.002 0.000976562c141.333 0 246.666 -17.667 315.999 -53c126.667 -65.333 190 -170.333 190 -315c0 -138 -66.333 -238.333 -199 -301c178.667 -60.667 268 -181.334 268 -362.001c0 -135.333 -45.333 -241 -136 -317s-217.334 -114 -380.001 -114h-717
v1462zM460.002 1211v-341h292c159.333 0 239 57.333 239 172c0 59.333 -18.667 102.333 -56 129s-98.333 40 -183 40h-292zM460.002 652.001v-401h323c94.667 0 163.167 15.833 205.5 47.5s63.5 82.5 63.5 152.5c0 72 -22 123.5 -66 154.5s-117 46.5 -219 46.5h-307z" />
    <glyph glyph-name="Gamma" unicode="&#x393;" horiz-adv-x="1233" vert-adv-y="1433" 
d="M156 0v1462h1039v-256h-730v-1206h-309z" />
    <glyph glyph-name="Delta" unicode="&#x394;" horiz-adv-x="1471" vert-adv-y="1433" 
d="M12 0l527 1462h394l526 -1462h-1447zM418 256h635l-318 907z" />
    <glyph glyph-name="Epsilon" unicode="&#x395;" horiz-adv-x="1339" vert-adv-y="1433" 
d="M1238 1462v-270h-778v-312h713v-251h-713v-359h792v-270h-1111v1462h1097z" />
    <glyph glyph-name="Zeta" unicode="&#x396;" horiz-adv-x="1336" vert-adv-y="1433" 
d="M1260 1462v-242.999l-654 -782c-8.66699 -10.667 -62.667 -69 -162 -175c131.333 5.33301 229 8 293 8h549v-270h-1237v256l674 803c21.333 25.333 65.333 71.666 132 138.999c-106.667 -4 -194.667 -6 -264 -6h-488v270h1157z" />
    <glyph glyph-name="Eta" unicode="&#x397;" horiz-adv-x="1521" vert-adv-y="1433" 
d="M1378 1462v-1462h-319v637h-598v-637h-319v1462h319v-555h598v555h319z" />
    <glyph glyph-name="Theta" unicode="&#x398;" horiz-adv-x="1570" vert-adv-y="1433" 
d="M1062 819v-202h-545v202h545zM800 1486c201.333 0 365.999 -67.334 493.999 -202.001c138 -145.333 207 -333.666 207 -564.999c0 -229.333 -69 -417 -207 -563c-127.333 -134.667 -295.666 -202 -504.999 -202c-208.667 0 -376.667 67.333 -504 202
c-138 146 -207 333 -207 561c0 231.333 66 417.333 198 558s306.667 211 524 211zM783.999 1224c-106 0 -193.668 -36.667 -263.001 -110c-89.333 -94 -134 -225.333 -134 -394c0 -152.667 36.667 -274.834 110 -366.501s171 -137.5 293 -137.5
c110 0 199.333 36.667 268 110c89.333 94.667 134 225.334 134 392.001c0 154.667 -36.667 277.667 -110 369s-172.666 137 -297.999 137z" />
    <glyph glyph-name="Iota" unicode="&#x399;" horiz-adv-x="604" vert-adv-y="1433" 
d="M461 1462v-1462h-319v1462h319z" />
    <glyph glyph-name="Kappa" unicode="&#x39a;" horiz-adv-x="1463" vert-adv-y="1433" 
d="M1437 1462l-573 -578l627 -884h-403l-444 656l-184 -184v-472h-319v1462h319v-436c0 -23.333 -1 -84.333 -3 -183c64 75.333 105 122.333 123 141l453 478h404z" />
    <glyph glyph-name="Lambda" unicode="&#x39b;" horiz-adv-x="1457" vert-adv-y="1433" 
d="M42 0l524 1462h326l524 -1462h-314l-373 1106l-372 -1106h-315z" />
    <glyph glyph-name="Mu" unicode="&#x39c;" horiz-adv-x="1865" vert-adv-y="1433" 
d="M1720 1462l0.000976562 -1462h-302v437c0 228 6.66699 475.333 20 742c-48 -190.667 -98 -361.334 -150 -512.001l-228 -667h-251l-235 654c-52.667 144.667 -102.334 317.334 -149.001 518.001c12.667 -286.667 19 -520 19 -700v-472h-303v1462h455l218 -636
c47.333 -136 88 -290 122 -462c30 148.667 72 304 126 466l209 632h449z" />
    <glyph glyph-name="Nu" unicode="&#x39d;" horiz-adv-x="1521" vert-adv-y="1433" 
d="M1379 1462l-0.000976562 -1462h-321l-437 705c-94 156.667 -155.333 266 -184 328c8.66699 -110 13 -246.667 13 -410v-623h-307v1462h325l426 -690c86.667 -142 150.334 -254.333 191.001 -337c-8.66699 150.667 -13 290 -13 418v609h307z" />
    <glyph glyph-name="Xi" unicode="&#x39e;" horiz-adv-x="1457" vert-adv-y="1433" 
d="M131 0v256h1194v-256h-1194zM202 627v256h1038v-256h-1038zM142 1206v256h1172v-256h-1172z" />
    <glyph glyph-name="Omicron" unicode="&#x39f;" horiz-adv-x="1595" vert-adv-y="1433" 
d="M811 1497c194 0 357 -64.002 489 -192.002c145.333 -141.333 218 -332.666 218 -573.999c0 -208 -55 -380.333 -165 -517c-134.667 -166 -319 -249 -553 -249c-238 0 -425 85 -561 255c-107.333 134.667 -161 304.334 -161 509.001c0 242.667 69.667 431.667 209 567
c137.333 134 312 201 524 201zM795 1231c-119.333 0 -214.999 -45.5 -286.999 -136.5s-108 -211.167 -108 -360.5c0 -158.667 36 -282 108 -370c72 -88.667 170.667 -133 296 -133c116.667 0 208.667 40.667 276 122c78 93.333 117 220.333 117 381
c0 154 -35.833 275.333 -107.5 364s-169.834 133 -294.501 133z" />
    <glyph glyph-name="Pi" unicode="&#x3a0;" horiz-adv-x="1457" vert-adv-y="1433" 
d="M131 0v1462h1194v-1462h-310v1206h-575v-1206h-309z" />
    <glyph glyph-name="Rho" unicode="&#x3a1;" horiz-adv-x="1371" vert-adv-y="1433" 
d="M141 1462h589.999c176.667 0 306.334 -28 389.001 -84c127.333 -85.333 191 -214 191 -386c0 -148 -45.5 -262.5 -136.5 -343.5s-219.833 -121.5 -386.5 -121.5h-328v-527h-319v1462zM459.999 1192v-414h285c168 0 252 70 252 210c0 136 -89.667 204 -269 204h-268z" />
    <glyph glyph-name="Sigma" unicode="&#x3a3;" horiz-adv-x="1233" vert-adv-y="1433" 
d="M61 0v242l478 497l-472 469v254h1083v-256h-693l460 -467l-469 -483h734v-256h-1121z" />
    <glyph glyph-name="Tau" unicode="&#x3a4;" horiz-adv-x="1273" vert-adv-y="1433" 
d="M1239 1462v-270h-445v-1192h-318v1192h-442v270h1205z" />
    <glyph glyph-name="Upsilon" unicode="&#x3a5;" horiz-adv-x="1329" vert-adv-y="1433" 
d="M1368 1462l-545 -898v-564h-319v568l-546 894h365l227 -389c39.333 -68 78.333 -148 117 -240c48.667 112 89.667 196.667 123 254l221 375h357z" />
    <glyph glyph-name="Phi" unicode="&#x3a6;" horiz-adv-x="1570" vert-adv-y="1433" 
d="M657 -28l0.000976562 177.998c-118 11.333 -216 37 -294 77c-88.667 46 -159 114.333 -211 205s-78 190.334 -78 299.001c0 166.667 50.833 300.667 152.5 402s245.167 161.333 430.5 180v177h258v-177c123.333 -12 226 -39.667 308 -83
c85.333 -45.333 152.166 -112.166 200.499 -200.499s72.5 -187.833 72.5 -298.5c0 -170.667 -49.667 -305.667 -149 -405s-243.333 -158 -432 -176v-178h-258zM657.001 1069c-194 -31.333 -291 -143.332 -291 -335.999c0 -94 25 -170.333 75 -229s122 -96.334 216 -113.001
v678zM915.001 390.999c90.667 15.333 161.5 54.001 212.5 116.001s76.5 139.667 76.5 233c0 193.333 -96.333 302.666 -289 327.999v-677z" />
    <glyph glyph-name="Chi" unicode="&#x3a7;" horiz-adv-x="1363" vert-adv-y="1433" 
d="M1336 1462l-470.001 -696.998l513 -765h-384l-218 346c-37.333 59.333 -70.666 120.666 -99.999 183.999c-28 -56 -63.667 -117.667 -107 -185l-221 -345h-365l516 765l-476 697h374l178 -288c47.333 -76.667 84.333 -145.334 111 -206.001c32 65.333 68 130.333 108 195
l187 299h354z" />
    <glyph glyph-name="Psi" unicode="&#x3a8;" horiz-adv-x="1570" vert-adv-y="1433" 
d="M634 0l-0.00195312 259c-185.333 10 -324.666 63.333 -417.999 160c-54.667 57.333 -92 128.5 -112 213.5s-30 215.833 -30 392.5v437h309v-437c0 -153.333 4.33301 -256 13 -308s28 -94.333 58 -127c47.333 -49.333 107.333 -74.666 180 -75.999v948h302v-948
c102.667 1.33301 170.334 35.166 203.001 101.499s49 202.833 49 409.5v437h309v-437c0 -186 -11 -319.333 -33 -400c-61.333 -228.667 -237.333 -350.667 -528 -366v-259h-302z" />
    <glyph glyph-name="uni03A9" unicode="&#x3a9;" horiz-adv-x="1461" vert-adv-y="1433" 
d="M60 0v259.001h317c-216 132.667 -324 315.667 -324 549c0 202 73.667 372.333 221 511c127.333 119.333 279.666 179 456.999 179s329.666 -59.667 456.999 -179c146.667 -138.667 220 -309 220 -511c0 -233.333 -108 -416.333 -324 -549h317v-259h-588v239
c93.333 49.333 165.333 118.333 216 207s76 190.334 76 305.001c0 143.333 -40 262.666 -120 357.999c-71.333 84 -155.666 126 -252.999 126c-105.333 0 -194.166 -46.333 -266.499 -139s-108.5 -206.334 -108.5 -341.001c0 -242 97.333 -414 292 -516v-239h-589z" />
    <glyph glyph-name="Iotadieresis" unicode="&#x3aa;" horiz-adv-x="604" vert-adv-y="1433" 
d="M461 1462v-1462h-319v1462h319zM609 1847v-234h-257v234h257zM253 1847v-234h-257v234h257z" />
    <glyph glyph-name="Upsilondieresis" unicode="&#x3ab;" horiz-adv-x="1329" vert-adv-y="1433" 
d="M1368 1462l-545 -898v-564h-319v568l-546 894h365l227 -389c39.333 -68 78.333 -148 117 -240c48.667 112 89.667 196.667 123 254l221 375h357zM1040 1847v-234h-283v234h283zM586 1847v-234h-283v234h283z" />
    <glyph glyph-name="alphatonos" unicode="&#x3ac;" horiz-adv-x="1367" vert-adv-y="1433" 
d="M1108 551l256 -551.001h-316l-99 273c-102 -202 -236.333 -303 -403 -303c-140.667 0 -256.667 57.333 -348 172c-82 102.667 -123 230.334 -123 383.001c0 172 51 311.667 153 419c90.667 94.667 197.667 142 321 142c164.667 0 295.667 -87.667 393 -263l81 237h301z
M840 550.999c-68.667 214.667 -154.999 322.001 -258.999 322.001c-67.333 0 -122.5 -32 -165.5 -96s-64.5 -145.333 -64.5 -244c0 -114 24.667 -201.667 74 -263c45.333 -56.667 97.666 -85 156.999 -85c54.667 0 100.167 25.667 136.5 77s76.833 147.666 121.5 288.999z
M709.001 1582v-203l-66 -201h-84l-62 201v203h212z" />
    <glyph glyph-name="epsilontonos" unicode="&#x3ad;" horiz-adv-x="1120" vert-adv-y="1433" 
d="M699 628v-186h-31c-133.333 -2 -216.666 -14 -249.999 -36c-36.667 -24 -55 -56.667 -55 -98c0 -42 19.333 -76.167 58 -102.5s89 -39.5 151 -39.5c63.333 0 111.666 12.667 144.999 38s59.333 69.333 78 132h288c-56.667 -243.333 -229.334 -365 -518.001 -365
c-145.333 0 -262.666 29.333 -351.999 88c-92 60 -138 140 -138 240c0 126 68.667 210.667 206 254c-113.333 69.333 -170 153.333 -170 252c0 85.333 42.167 154 126.5 206s195.833 78 334.5 78c289.333 0 454.666 -112.667 495.999 -338h-288
c-25.333 89.333 -91.666 134 -198.999 134c-56.667 0 -102.167 -11.333 -136.5 -34s-51.5 -53 -51.5 -91c0 -48.667 22.5 -82.667 67.5 -102s124.5 -29.333 238.5 -30zM666 1582v-203l-66 -201h-84l-62 201v203h212z" />
    <glyph glyph-name="etatonos" unicode="&#x3ae;" horiz-adv-x="1238" vert-adv-y="1433" 
d="M132 1060h288.001v-150c74.667 112 182.667 168 324 168c117.333 0 208 -32.667 272 -98s96 -158 96 -278v-1137h-288v1078c0 127.333 -59.667 191 -179 191c-68.667 0 -123.334 -18.833 -164.001 -56.5s-61 -88.167 -61 -151.5v-626h-288v1060zM806.001 1582v-203
l-66 -201h-84l-62 201v203h212z" />
    <glyph glyph-name="iotatonos" unicode="&#x3af;" horiz-adv-x="545" vert-adv-y="1433" 
d="M417 1060v-1060h-290v1060h290zM386 1582v-203l-66 -201h-84l-62 201v203h212z" />
    <glyph glyph-name="upsilondieresistonos" unicode="&#x3b0;" horiz-adv-x="1233" vert-adv-y="1433" 
d="M415 1060l0.000976562 -621.999c0 -96.667 16.333 -161.667 49 -195c37.333 -38 88.333 -57 153 -57c71.333 0 122.666 19.667 153.999 59s47 103.666 47 192.999v622h288v-634c0 -150.667 -29 -258 -87 -322c-80.667 -88.667 -214 -133 -400 -133
c-174 0 -299.667 35.667 -377 107s-116 187.333 -116 348v634h289zM517.001 1490v-250h-202v250h202zM918.001 1490v-250h-202v250h202zM723.001 1782v-183l-66 -201h-84l-62 201v183h212z" />
    <glyph glyph-name="alpha" unicode="&#x3b1;" horiz-adv-x="1366" vert-adv-y="1433" 
d="M1108 551l256 -551.001h-316l-99 273c-102 -202 -236.333 -303 -403 -303c-140.667 0 -256.667 57.333 -348 172c-82 102.667 -123 230.334 -123 383.001c0 172 51 311.667 153 419c90.667 94.667 197.667 142 321 142c164.667 0 295.667 -87.667 393 -263l81 237h301z
M840 550.999c-68.667 214.667 -154.999 322.001 -258.999 322.001c-67.333 0 -122.5 -32 -165.5 -96s-64.5 -145.333 -64.5 -244c0 -114 24.667 -201.667 74 -263c45.333 -56.667 97.666 -85 156.999 -85c54.667 0 100.167 25.667 136.5 77s76.833 147.666 121.5 288.999z
" />
    <glyph glyph-name="beta" unicode="&#x3b2;" horiz-adv-x="1235" vert-adv-y="1433" 
d="M132 -435l0.000976562 1396c0 96 6 170 18 222s33.333 98 64 138c84 109.333 216.333 164 397 164c145.333 0 258.666 -38.333 339.999 -115c78 -73.333 117 -161.666 117 -264.999c0 -125.333 -59.667 -226 -179 -302c74.667 -25.333 130 -55.666 166 -90.999
c71.333 -70 107 -167.333 107 -292c0 -146.667 -54.667 -263.667 -164 -351c-82 -65.333 -180.667 -98 -296 -98c-108 0 -202 27.667 -282 83v-489h-288zM420.001 234.998c64.667 -47.333 135.666 -71.001 212.999 -71.001c69.333 0 126.833 26 172.5 78
s68.5 117.333 68.5 196c0 118.667 -44.333 199.334 -133 242.001c-51.333 24.667 -98 37 -140 37l-33 -1h-6h-9v170c8.66699 0.666992 20.334 1 35.001 1c135.333 6 203 75.333 203 208c0 58 -16.5 104.5 -49.5 139.5s-76.5 52.5 -130.5 52.5
c-75.333 0 -129 -29.667 -161 -89c-20 -36 -30 -106 -30 -210v-753z" />
    <glyph glyph-name="gamma" unicode="&#x3b3;" horiz-adv-x="1122" vert-adv-y="1433" 
d="M425 -435v457l-401 1038h310l227 -749l227 749h310l-401 -1038v-457h-272z" />
    <glyph glyph-name="delta" unicode="&#x3b4;" horiz-adv-x="1233" vert-adv-y="1433" 
d="M218 1502l811 0.00195312v-228h-426l287 -216c97.333 -72.667 166.333 -149.334 207 -230.001s61 -180 61 -298c0 -163.333 -41.667 -293 -125 -389c-98 -113.333 -236.667 -170 -416 -170c-168 0 -300.333 49.5 -397 148.5s-145 234.5 -145 406.5
c0 162.667 38.5 290.167 115.5 382.5s189.167 145.166 336.5 158.499l-309 236v199zM613 871.002c-74 0 -134 -31.666 -180 -94.999s-69 -146 -69 -248c0 -102.667 23.167 -185.334 69.5 -248.001s107.5 -94 183.5 -94c75.333 0 136.333 31.333 183 94s70 145 70 247
c0 104.667 -23.333 188.167 -70 250.5s-109 93.5 -187 93.5z" />
    <glyph glyph-name="epsilon" unicode="&#x3b5;" horiz-adv-x="1119" vert-adv-y="1433" 
d="M699 628v-186h-31c-133.333 -2 -216.666 -14 -249.999 -36c-36.667 -24 -55 -56.667 -55 -98c0 -42 19.333 -76.167 58 -102.5s89 -39.5 151 -39.5c63.333 0 111.666 12.667 144.999 38s59.333 69.333 78 132h288c-56.667 -243.333 -229.334 -365 -518.001 -365
c-145.333 0 -262.666 29.333 -351.999 88c-92 60 -138 140 -138 240c0 126 68.667 210.667 206 254c-113.333 69.333 -170 153.333 -170 252c0 85.333 42.167 154 126.5 206s195.833 78 334.5 78c289.333 0 454.666 -112.667 495.999 -338h-288
c-25.333 89.333 -91.666 134 -198.999 134c-56.667 0 -102.167 -11.333 -136.5 -34s-51.5 -53 -51.5 -91c0 -48.667 22.5 -82.667 67.5 -102s124.5 -29.333 238.5 -30z" />
    <glyph glyph-name="zeta" unicode="&#x3b6;" horiz-adv-x="988" vert-adv-y="1433" 
d="M167 1230l0.00195312 232.003h775v-231c-130 -64 -231.667 -133.333 -305 -208c-180 -182.667 -270 -368.667 -270 -558c0 -86 18.167 -144.833 54.5 -176.5s110.166 -52.834 221.499 -63.501l76 -7c98.667 -9.33301 168.167 -32.333 208.5 -69s60.5 -96 60.5 -178
c0 -100.667 -31.667 -232.334 -95 -395.001l-4 -11h-244c72 162.667 108 274.334 108 335.001c0 34 -10.333 57 -31 69s-64.667 21 -132 27l-75 7c-110.667 10 -195.334 29.667 -254.001 59c-124 63.333 -186 189 -186 377c0 149.333 41.167 291.666 123.5 426.999
s201.833 256.666 358.5 363.999h-390z" />
    <glyph glyph-name="eta" unicode="&#x3b7;" horiz-adv-x="1238" vert-adv-y="1433" 
d="M132 1060h288.001v-150c74.667 112 182.667 168 324 168c117.333 0 208 -32.667 272 -98s96 -158 96 -278v-1137h-288v1078c0 127.333 -59.667 191 -179 191c-68.667 0 -123.334 -18.833 -164.001 -56.5s-61 -88.167 -61 -151.5v-626h-288v1060z" />
    <glyph glyph-name="theta" unicode="&#x3b8;" horiz-adv-x="1233" vert-adv-y="1433" 
d="M626 1480c174.667 0 307.666 -78.999 398.999 -236.999c70.667 -122.667 106 -296.334 106 -521.001c0 -500.667 -172.667 -751 -518 -751c-181.333 0 -313.666 69 -396.999 207c-76 126 -114 315.667 -114 569c0 488.667 174.667 733 524 733zM842.999 842.001
c-4 145.333 -23.333 249.333 -58 312s-89.667 94 -165 94c-81.333 0 -138.833 -30 -172.5 -90s-52.5 -165.333 -56.5 -316h452zM389.999 650.001c0 -102.667 5.33398 -184.333 16.001 -245c25.333 -146 95.666 -219 210.999 -219c81.333 0 139.5 36 174.5 108
s52.167 190.667 51.5 356h-453z" />
    <glyph glyph-name="iota" unicode="&#x3b9;" horiz-adv-x="545" vert-adv-y="1433" 
d="M417 1060v-1060h-290v1060h290z" />
    <glyph glyph-name="kappa" unicode="&#x3ba;" horiz-adv-x="1156" vert-adv-y="1433" 
d="M420 670l352 390h330l-375 -387l399 -673h-334l-259 478l-113 -122v-356h-288v1060h288v-390z" />
    <glyph glyph-name="lambda" unicode="&#x3bb;" horiz-adv-x="1118" vert-adv-y="1433" 
d="M26 0l386 984l-189 478h291l588 -1462h-316l-229 695l-234 -695h-297z" />
    <glyph glyph-name="uni03BC" unicode="&#x3bc;" horiz-adv-x="1097" vert-adv-y="1433" 
d="M72 -372l0.000976562 1432h267v-563c0 -95.333 14 -163 42 -203c42.667 -62 97.667 -93 165 -93c65.333 0 116.833 27.167 154.5 81.5s56.5 129.166 56.5 224.499v553h267v-1060h-267v153c-44.667 -116.667 -116.334 -175 -215.001 -175c-85.333 0 -153 45 -203 135v-485
h-267z" />
    <glyph glyph-name="nu" unicode="&#x3bd;" horiz-adv-x="1032" vert-adv-y="1433" 
d="M1042 1060l-360 -1060h-326l-366 1060h305l135 -424c41.333 -130 72.333 -253.333 93 -370c18 96.667 49.667 217.667 95 363l133 431h291z" />
    <glyph glyph-name="xi" unicode="&#x3be;" horiz-adv-x="997" vert-adv-y="1433" 
d="M652 -435l16 41.999c57.333 143.333 86 237.333 86 282c0 36.667 -10.167 61.834 -30.5 75.501s-62.166 23.5 -125.499 29.5l-92 8c-124 12 -216.667 39.333 -278 82c-102 70.667 -153 177.667 -153 321c0 179.333 99.333 301.333 298 366
c-132.667 48 -199 132.667 -199 254c0 78.667 34 147 102 205h-161v232h809v-232h-183c-195.333 0 -293 -57.667 -293 -173c0 -120.667 98 -181 294 -181h128v-232h-133c-108.667 0 -189.334 -9.66699 -242.001 -29c-88 -33.333 -132 -98 -132 -194
c0 -66 22.667 -115.333 68 -148c27.333 -20 84.333 -35.333 171 -46l138 -16c90 -10.667 152.333 -32 187 -64c44.667 -41.333 67 -100.333 67 -177c0 -95.333 -32.333 -227.333 -97 -396l-4 -9h-241z" />
    <glyph glyph-name="omicron" unicode="&#x3bf;" horiz-adv-x="1229" vert-adv-y="1433" 
d="M625 1089c158.667 0 288.332 -51.002 388.999 -153.002c99.333 -101.333 149 -236.333 149 -405c0 -173.333 -53 -311.666 -159 -414.999c-99.333 -96.667 -228.666 -145 -387.999 -145c-170 0 -305.333 53.667 -406 161c-96 102.667 -144 235.334 -144 398.001
c0 162 46.667 292.333 140 391c105.333 112 245 168 419 168zM608.998 873.998c-77.333 0 -138.498 -30.833 -183.498 -92.5s-67.5 -145.5 -67.5 -251.5c0 -108.667 22.667 -193.167 68 -253.5s108.666 -90.5 189.999 -90.5c79.333 0 141.5 30.333 186.5 91
s67.5 145 67.5 253c0 108.667 -22.833 193.167 -68.5 253.5s-109.834 90.5 -192.501 90.5z" />
    <glyph glyph-name="pi" unicode="&#x3c0;" horiz-adv-x="1345" vert-adv-y="1433" 
d="M203 0v838h-159v222h1258v-222h-159v-838h-279v838h-381v-838h-280z" />
    <glyph glyph-name="rho" unicode="&#x3c1;" horiz-adv-x="1252" vert-adv-y="1433" 
d="M130 -435l0.000976562 929.001c0 106 9.33301 192 28 258s50.334 124 95.001 174c96 108.667 230.333 163 403 163c161.333 0 286.666 -47.333 375.999 -142c96.667 -103.333 145 -246 145 -428c0 -174.667 -47 -311.334 -141 -410.001c-88 -92 -197.333 -138 -328 -138
c-128.667 0 -225.334 50.667 -290.001 152v-558h-288zM654.001 871.001c-73.333 0 -130.999 -30.168 -172.999 -90.501s-63 -142.833 -63 -247.5c0 -110 20.833 -195.333 62.5 -256s100.167 -91 175.5 -91c84 0 146.333 38.667 187 116c30 56 45 129.667 45 221
c0 110.667 -20.333 196.334 -61 257.001s-98.334 91 -173.001 91z" />
    <glyph glyph-name="sigma1" unicode="&#x3c2;" horiz-adv-x="1122" vert-adv-y="1433" 
d="M1073 664h-274.999c-16 138 -87 207 -213 207c-74 0 -133.667 -26.667 -179 -80s-68 -123.333 -68 -210c0 -93.333 23.333 -167 70 -221s126.667 -100.667 240 -140l112 -38c107.333 -37.333 176.666 -71 207.999 -101c45.333 -43.333 68 -96.333 68 -159
c0 -69.333 -28.667 -182 -86 -338l-6 -19h-245c64.667 146 97 244.333 97 295c0 45.333 -40 78.666 -120 99.999l-178 48c-118.667 32 -212.334 79 -281.001 141c-111.333 100.667 -167 233.334 -167 398.001c0 160.667 49.833 291.167 149.5 391.5
s229.834 150.5 390.501 150.5c145.333 0 259.833 -36.833 343.5 -110.5s130.167 -178.5 139.5 -314.5z" />
    <glyph glyph-name="sigma" unicode="&#x3c3;" horiz-adv-x="1256" vert-adv-y="1433" 
d="M1225 1072v-230h-261c126.667 -100 190 -217.333 190 -352c0 -141.333 -47.667 -263 -143 -365c-95.333 -102.667 -227.333 -154 -396 -154c-178.667 0 -317 56.667 -415 170c-83.333 96 -125 223 -125 381c0 171.333 47.333 307.333 142 408
c44.667 48 101.5 86.667 170.5 116s137.833 44 206.5 44c46 0 111.333 -6 196 -18h435zM614 858c-73.333 0 -133.333 -31.501 -180 -94.501s-70 -143.5 -70 -241.5c0 -99.333 23.5 -180.166 70.5 -242.499s107.833 -93.5 182.5 -93.5s135.667 31.167 183 93.5
s71 142.833 71 241.5c0 100.667 -23.667 182 -71 244s-109.333 93 -186 93z" />
    </font>
</defs>
</svg>
